<svg width="48" height="48" viewBox="0 0 48 48" fill="none" xmlns="http://www.w3.org/2000/svg">
<path d="M44.8519 28.9779L41.9363 27.2923C42.1294 26.2238 42.2466 25.1263 42.2466 24.0003C42.2466 22.8736 42.1294 21.7779 41.9363 20.7093L44.8502 19.0267C46.1406 18.2806 46.5827 16.6313 45.8383 15.341L42.4196 9.42073C41.6753 8.13035 40.026 7.68823 38.7339 8.43298L35.8202 10.114C34.1497 8.69585 32.2211 7.57723 30.1162 6.82188V3.45804C30.1162 1.96713 28.9073 0.758789 27.4164 0.758789H20.5859C19.095 0.758789 17.8867 1.96713 17.8867 3.45804V6.8217C15.7723 7.57713 13.848 8.69566 12.1792 10.1138L9.26681 8.4311C8.64684 8.07401 7.9095 7.97698 7.218 8.16251C6.5265 8.34785 5.93821 8.79935 5.57971 9.41932L2.16281 15.3396C1.41665 16.6312 1.85887 18.2805 3.15046 19.0266L6.066 20.7092C5.86837 21.7777 5.75287 22.8735 5.75287 24.0002C5.75287 25.1263 5.86828 26.2237 6.066 27.2935L3.14924 28.9779C1.85887 29.7241 1.41674 31.3733 2.1629 32.6636L5.57981 38.5839C5.93709 39.2039 6.52659 39.6555 7.21809 39.8407C7.90959 40.0262 8.64684 39.9288 9.2669 39.5703L12.1824 37.8859C13.8499 39.3041 15.7754 40.4213 17.8868 41.1722V44.5417C17.8868 46.0331 19.0952 47.2414 20.5861 47.2414H27.4166C28.9075 47.2414 30.1163 46.0331 30.1163 44.5417V41.1722C32.2213 40.4213 34.1498 39.3041 35.8174 37.8859L38.7341 39.5703C40.0262 40.3151 41.6754 39.8725 42.4215 38.5821L45.8385 32.6635C46.5828 31.3732 46.1406 29.7228 44.8519 28.9779ZM24.0012 36.4984C17.0978 36.4984 11.5027 30.9034 11.5027 24.0002C11.5027 17.098 17.0979 11.5032 24.0012 11.5032C30.9016 11.5032 36.4982 17.098 36.4982 24.0002C36.4981 30.9035 30.9016 36.4984 24.0012 36.4984Z" fill="#11CE7F"/>
<path d="M30.2176 17.505C29.1673 16.7589 27.7114 17.0035 26.9619 18.0556L21.2942 26.0246L19.4415 24.7308C18.3834 23.9953 16.9289 24.2523 16.1903 25.3103C15.4531 26.3678 15.7112 27.8224 16.7693 28.5614L20.5206 31.1785C20.9278 31.4613 21.3929 31.5979 21.855 31.5979C22.5846 31.5979 23.3036 31.256 23.7594 30.616L30.7678 20.7607C31.5144 19.7107 31.268 18.2528 30.2176 17.505Z" fill="#11CE7F"/>
</svg>
