<svg width="48" height="48" viewBox="0 0 48 48" fill="none" xmlns="http://www.w3.org/2000/svg">
<g clip-path="url(#clip0)">
<path d="M16 12C12.692 12 10 9.308 10 6C10 2.692 12.692 0 16 0C19.308 0 22 2.692 22 6C22 9.308 19.308 12 16 12ZM16 2C13.794 2 12 3.794 12 6C12 8.206 13.794 10 16 10C18.206 10 20 8.206 20 6C20 3.794 18.206 2 16 2Z" fill="white"/>
<path d="M23 35.9997C22.448 35.9997 22 35.5517 22 34.9997C22 34.4477 22.448 33.9997 23 33.9997C24.654 33.9997 26 32.6537 26 30.9997V20.9998C26 18.2438 23.758 15.9998 21 15.9998H11C8.242 15.9998 6 18.2438 6 20.9998V30.9997C6 32.6537 7.346 33.9997 9 33.9997C9.552 33.9997 10 34.4477 10 34.9997C10 35.5517 9.552 35.9997 9 35.9997C6.242 35.9997 4 33.7557 4 30.9997V20.9998C4 17.1398 7.14 13.9998 11 13.9998H21C24.86 13.9998 28 17.1398 28 20.9998V30.9997C28 33.7557 25.758 35.9997 23 35.9997Z" fill="white"/>
<path d="M9 48.0002C8.448 48.0002 8 47.5522 8 47.0002V23.0002C8 22.4482 8.448 22.0002 9 22.0002C9.552 22.0002 10 22.4482 10 23.0002V47.0002C10 47.5522 9.552 48.0002 9 48.0002Z" fill="white"/>
<path d="M23 48.0002C22.448 48.0002 22 47.5522 22 47.0002V23.0002C22 22.4482 22.448 22.0002 23 22.0002C23.552 22.0002 24 22.4482 24 23.0002V47.0002C24 47.5522 23.552 48.0002 23 48.0002Z" fill="white"/>
<path d="M43 12.0002H27C26.448 12.0002 26 11.5522 26 11.0002C26 10.4482 26.448 10.0002 27 10.0002H43C43.552 10.0002 44 10.4482 44 11.0002C44 11.5522 43.552 12.0002 43 12.0002Z" fill="white"/>
<path d="M35 20.0002C34.744 20.0002 34.488 19.9022 34.292 19.7082C33.902 19.3182 33.902 18.6842 34.292 18.2942L41.5859 11.0002L34.2939 3.70821C33.9039 3.31821 33.9039 2.68421 34.2939 2.29421C34.6839 1.90421 35.318 1.90421 35.708 2.29421L43.7079 10.2942C44.0979 10.6842 44.0979 11.3182 43.7079 11.7082L35.708 19.7082C35.512 19.9022 35.256 20.0002 35 20.0002Z" fill="white"/>
<path d="M16 48.0002C15.448 48.0002 15 47.5522 15 47.0002V35.0002C15 34.4482 15.448 34.0002 16 34.0002C16.552 34.0002 17 34.4482 17 35.0002V47.0002C17 47.5522 16.552 48.0002 16 48.0002Z" fill="white"/>
</g>
<defs>
<clipPath id="clip0">
<rect width="48" height="48" fill="white"/>
</clipPath>
</defs>
</svg>
