<svg width="48" height="48" viewBox="0 0 48 48" fill="none" xmlns="http://www.w3.org/2000/svg">
<g clip-path="url(#clip0)">
<path d="M47.2 44.8H30.3336V43.2H47.1999C47.6418 43.2 47.9999 42.8418 47.9999 42.4C47.9999 41.9582 47.6418 41.6001 47.1999 41.6001H30.1856C29.8479 40.6449 28.9467 40.0046 27.9337 40H26.4V35.2H42.1664C44.2355 35.2158 45.9782 33.6579 46.1936 31.6L47.98 14.0001C48.0907 12.8822 47.7245 11.7695 46.9713 10.936C46.3967 10.3024 45.6369 9.86598 44.8001 9.68889V6.40004C44.8001 5.07461 43.7256 4.00004 42.4001 4.00004H27.288C27.049 4.00286 26.8218 3.89692 26.6704 3.71204L24.2968 0.86645C23.8412 0.315575 23.1629 -0.00233088 22.448 1.28688e-05H7.2C5.87456 1.28688e-05 4.8 1.07458 4.8 2.40001V9.60001H4.04719C2.89772 9.59917 1.80141 10.0841 1.02881 10.9352C0.275437 11.7688 -0.0909375 12.8818 0.0199687 14L1.80638 31.6C2.02172 33.6578 3.76453 35.2157 5.83359 35.2H21.6V39.9999H20C18.9865 40.0042 18.0849 40.6445 17.7472 41.6H0.799969C0.358125 41.6 0 41.9582 0 42.3999C0 42.8418 0.358125 43.1999 0.799969 43.1999H17.6V44.7999H0.799969C0.358125 44.7999 0 45.1581 0 45.5999C0 46.0418 0.358125 46.3999 0.799969 46.3999H17.7472C18.0849 47.3554 18.9865 47.9957 20 47.9999H27.9336C28.9467 47.9954 29.8478 47.3551 30.1855 46.3999H47.1999C47.6418 46.3999 47.9999 46.0418 47.9999 45.5999C47.9999 45.1581 47.6419 44.8 47.2 44.8ZM5.83359 33.6C4.58681 33.6143 3.53297 32.6796 3.39834 31.44L1.61278 13.84C1.54162 13.1711 1.76137 12.5038 2.21597 12.0081C2.685 11.4925 3.35016 11.199 4.04719 11.2H5.32716C5.37272 11.195 5.41762 11.1859 5.46159 11.1729C5.50678 11.1862 5.55309 11.1953 5.59997 11.2H12.8C13.2418 11.2 13.5999 10.8419 13.5999 10.4001C13.5999 9.95823 13.2418 9.60011 12.8 9.60011H6.40003V2.40001C6.40003 1.95817 6.75816 1.60004 7.2 1.60004H22.448C22.6869 1.59723 22.9142 1.70317 23.0656 1.88804L25.44 4.73439C25.8958 5.28451 26.5736 5.60195 27.288 5.59998H42.4C42.8419 5.59998 43.2 5.95811 43.2 6.39995V9.60001H35.2C34.7582 9.60001 34.4001 9.95814 34.4001 10.4C34.4001 10.8418 34.7582 11.2 35.2 11.2H43.9528C44.6498 11.1989 45.3149 11.4924 45.784 12.008C46.2383 12.5035 46.4579 13.17 46.3872 13.8384L44.6016 31.4384C44.4677 32.6786 43.4137 33.6143 42.1664 33.6H5.83359ZM24.8 35.2V40H23.1999V35.2H24.8ZM28.7336 45.6C28.7336 46.0419 28.3755 46.4 27.9337 46.4H20.0001C19.5582 46.4 19.2001 46.0419 19.2001 45.6V42.4C19.2001 41.9582 19.5583 41.6001 20.0001 41.6001H27.9337C28.3755 41.6001 28.7336 41.9583 28.7336 42.4V45.6Z" fill="#CB1DE8"/>
<path d="M31.2 15.9997H30.4V13.5997C30.4 10.0651 27.5347 7.19971 24 7.19971C20.4653 7.19971 17.6 10.0651 17.6 13.5997V15.9997H16.8C15.9163 15.9997 15.2 16.7161 15.2 17.5998V26.3997C15.2035 29.491 17.7086 31.9962 20.7999 31.9997H27.2C30.2913 31.9961 32.7965 29.491 32.7999 26.3997V17.5997C32.8 16.7161 32.0837 15.9997 31.2 15.9997ZM19.2 13.5997C19.2 10.9488 21.349 8.79974 24 8.79974C26.651 8.79974 28.8 10.9488 28.8 13.5997V15.9997H19.2V13.5997ZM31.2 19.1997H29.6C29.1581 19.1997 28.8 19.5579 28.8 19.9997C28.8 20.4415 29.1581 20.7996 29.6 20.7996H31.2V22.3997H29.6C29.1581 22.3997 28.8 22.7578 28.8 23.1996C28.8 23.6415 29.1581 23.9996 29.6 23.9996H31.2V25.5996H29.6C29.1581 25.5996 28.8 25.9579 28.8 26.3996C28.8 26.8414 29.1581 27.1996 29.6 27.1996H31.1199C30.7372 29.0607 29.1 30.3972 27.2 30.3996H20.7999C18.8998 30.3971 17.2627 29.0607 16.88 27.1996H18.3999C18.8418 27.1996 19.1999 26.8415 19.1999 26.3996C19.1999 25.9578 18.8418 25.5996 18.3999 25.5996H16.8V23.9997H18.4C18.8419 23.9997 19.2 23.6415 19.2 23.1997C19.2 22.758 18.8419 22.3998 18.4 22.3998H16.8V20.7997H18.4C18.8419 20.7997 19.2 20.4415 19.2 19.9998C19.2 19.5579 18.8419 19.1998 18.4 19.1998H16.8V17.5998H31.2V19.1997Z" fill="#CB1DE8"/>
<path d="M23.2 24.6527V26.3999C23.2 26.8418 23.5581 27.1999 24 27.1999C24.4418 27.1999 24.8 26.8418 24.8 26.3999V24.6527C25.9012 24.2649 26.5621 23.1392 26.3643 21.9886C26.1665 20.8379 25.1675 19.9978 24 20C22.8324 19.9978 21.8335 20.838 21.6357 21.9886C21.4378 23.1393 22.0987 24.2649 23.2 24.6527ZM24 21.5999C24.4418 21.5999 24.8 21.9581 24.8 22.3999C24.8 22.8418 24.4418 23.1999 24 23.1999C23.5581 23.1999 23.2 22.8418 23.2 22.3999C23.2 21.9581 23.5581 21.5999 24 21.5999Z" fill="#CB1DE8"/>
</g>
<defs>
<clipPath id="clip0">
<rect width="48" height="48" fill="white"/>
</clipPath>
</defs>
</svg>
