<svg width="52" height="52" viewBox="0 0 52 52" fill="none" xmlns="http://www.w3.org/2000/svg">
<g clip-path="url(#clip0)">
<path d="M37.876 28.5021L32.2119 33.9865C30.5802 33.0673 27.4548 31.0729 24.056 27.6741C20.6568 24.275 18.6399 21.1265 17.706 19.4793L23.1884 13.9263L9.34495 0L2.5248 6.77492C-0.0650336 9.36476 -0.736297 13.3055 0.854581 16.5804C3.28216 21.5784 7.76082 29.1214 15.3129 36.6735C22.865 44.2256 30.408 48.7043 35.406 51.1319C36.5902 51.7071 37.8609 51.9864 39.1241 51.9864C41.3537 51.9864 43.558 51.1148 45.2115 49.4616L51.9999 42.6494L37.876 28.5021ZM42.3392 46.5929C40.9721 47.9588 38.8988 48.3155 37.1794 47.4804C32.4615 45.1889 25.3363 40.9562 18.1833 33.8032C11.0302 26.6498 6.79717 19.5246 4.50606 14.8071C3.67055 13.0869 4.02801 11.0128 5.39037 9.6504L9.3267 5.73986L17.4743 13.9363L12.804 18.6668L13.3678 19.9328C13.4594 20.1383 15.6743 25.0335 21.1857 30.5449C26.7006 36.0598 31.5546 38.2287 31.7585 38.3183L33.007 38.867L37.828 34.1991L46.2668 42.6518L42.3392 46.5929ZM39.1206 25.7032C46.199 25.7032 51.9579 19.9443 51.9579 12.8659C51.9579 5.78746 46.199 0.0285644 39.1206 0.0285644C32.0421 0.0285644 26.2832 5.78746 26.2832 12.8659C26.2832 19.9443 32.0421 25.7032 39.1206 25.7032ZM39.1206 4.08788C43.9606 4.08788 47.8986 8.0254 47.8986 12.8659C47.8986 17.706 43.9606 21.6439 39.1206 21.6439C34.2805 21.6439 30.3426 17.706 30.3426 12.8659C30.3426 8.0254 34.2805 4.08788 39.1206 4.08788ZM44.2514 14.9463H36.9386V6.42183H40.9979V10.887H44.2514V14.9463Z" fill="#1D66FF"/>
</g>
<defs>
<clipPath id="clip0">
<rect width="52" height="52" fill="white"/>
</clipPath>
</defs>
</svg>
