<svg width="48" height="48" viewBox="0 0 48 48" fill="none" xmlns="http://www.w3.org/2000/svg">
<path d="M43.6326 34.2255L21.6325 16.2255C21.2046 15.8765 20.5746 15.9405 20.2255 16.3685C20.0802 16.5467 20.0007 16.7696 20.0005 16.9995V46.9995C20.0001 47.4404 20.2885 47.8297 20.7105 47.9576C20.8045 47.9859 20.9023 48 21.0005 47.9996C21.335 47.9994 21.6472 47.832 21.8325 47.5536L29.5366 35.9996H43.0006C43.5529 35.9989 44.0001 35.5507 43.9994 34.9984C43.999 34.6989 43.8644 34.4152 43.6326 34.2255Z" fill="#11CE7F"/>
<path d="M21.0006 10C20.4483 10 20.0005 9.55228 20.0005 9V1.00003C20.0006 0.44775 20.4483 0 21.0006 0C21.5529 0 22.0006 0.44775 22.0006 1.00003V9C22.0006 9.55228 21.5529 10 21.0006 10Z" fill="#11CE7F"/>
<path d="M13.0006 18.0001H5.00064C4.44836 18.0001 4.00061 17.5523 4.00061 17C4.00061 16.4477 4.44836 16 5.00064 16H13.0006C13.5529 16 14.0006 16.4477 14.0006 17C14.0006 17.5523 13.5529 18.0001 13.0006 18.0001Z" fill="#11CE7F"/>
<path d="M37.0006 18.0001H29.0006C28.4484 18.0001 28.0006 17.5523 28.0006 17C28.0006 16.4477 28.4484 16 29.0006 16H37.0006C37.5529 16 38.0006 16.4477 38.0006 17C38.0006 17.5523 37.5529 18.0001 37.0006 18.0001Z" fill="#11CE7F"/>
<path d="M15.3446 12.3441C15.0792 12.3445 14.8245 12.2395 14.6366 12.052L8.97862 6.40013C8.5859 6.00741 8.5859 5.37085 8.97862 4.97813C9.37134 4.58541 10.0079 4.58541 10.4006 4.97813L16.0507 10.6361C16.4417 11.0261 16.4424 11.6593 16.0524 12.0504C15.8644 12.2389 15.6089 12.3446 15.3427 12.3442H15.3446V12.3441Z" fill="#11CE7F"/>
<path d="M9.68663 29.3137C9.13435 29.3147 8.68585 28.8677 8.68482 28.3155C8.68435 28.0492 8.7901 27.7937 8.97863 27.6057L14.6366 21.9477C15.0338 21.5641 15.6669 21.575 16.0507 21.9722C16.4249 22.3598 16.4249 22.9741 16.0507 23.3616L10.4006 29.0216C10.2113 29.2106 9.9541 29.3158 9.68663 29.3137Z" fill="#11CE7F"/>
<path d="M26.6566 12.344C26.1043 12.3451 25.6558 11.8981 25.6548 11.3458C25.6543 11.0795 25.7601 10.8241 25.9486 10.636L31.6006 4.97799C31.9978 4.59427 32.6309 4.60533 33.0146 5.00255C33.3889 5.39011 33.3889 6.00446 33.0146 6.39193L27.3646 12.0499C27.177 12.2382 26.9223 12.344 26.6566 12.344Z" fill="#11CE7F"/>
</svg>
