<svg width="48" height="48" viewBox="0 0 48 48" fill="none" xmlns="http://www.w3.org/2000/svg">
<path d="M10.5 4.125C10.2534 4.125 10.0116 4.22522 9.83719 4.39969C9.66281 4.57416 9.5625 4.81594 9.5625 5.0625C9.5625 5.30906 9.66272 5.55094 9.83719 5.72522C10.0116 5.89969 10.2534 6 10.5 6C10.7466 6 10.9884 5.89969 11.1627 5.72522C11.3372 5.55094 11.4375 5.30906 11.4375 5.0625C11.4375 4.81594 11.3372 4.57406 11.1627 4.39969C10.9884 4.22522 10.7466 4.125 10.5 4.125Z" fill="#1D66FF"/>
<path d="M6 4.125C5.75344 4.125 5.51156 4.22522 5.33719 4.39969C5.16281 4.57416 5.0625 4.81491 5.0625 5.0625C5.0625 5.30906 5.16272 5.55094 5.33719 5.72522C5.51156 5.89969 5.75344 6 6 6C6.24656 6 6.48844 5.89969 6.66272 5.72522C6.83719 5.55094 6.9375 5.30906 6.9375 5.0625C6.9375 4.81594 6.83719 4.57406 6.66272 4.39969C6.48844 4.22522 6.24656 4.125 6 4.125Z" fill="#1D66FF"/>
<path d="M15 4.125C14.7534 4.125 14.5116 4.22522 14.3372 4.39969C14.1628 4.57416 14.0625 4.81594 14.0625 5.0625C14.0625 5.30906 14.1627 5.55094 14.3372 5.72522C14.5116 5.89969 14.7534 6 15 6C15.2466 6 15.4884 5.89969 15.6627 5.72522C15.8372 5.55094 15.9375 5.30906 15.9375 5.0625C15.9375 4.81594 15.8372 4.57406 15.6627 4.39969C15.4884 4.22522 15.2475 4.125 15 4.125Z" fill="#1D66FF"/>
<path d="M42.9375 25.5068V3.9375C42.9375 1.76634 41.1712 0 39 0H3.9375C1.76634 0 0 1.76634 0 3.9375V40.3125C0 42.4837 1.76634 44.25 3.9375 44.25H11.2606C11.7783 44.25 12.1981 43.8302 12.1981 43.3125C12.1981 42.7948 11.7783 42.375 11.2606 42.375H3.9375C2.80022 42.375 1.875 41.4498 1.875 40.3125V10.125H41.0625V24.3588C39.3947 23.5297 37.5167 23.0625 35.5312 23.0625C28.6559 23.0625 23.0625 28.6559 23.0625 35.5312C23.0625 38.0569 23.818 40.4091 25.1139 42.375H19.6981C19.1804 42.375 18.7606 42.7948 18.7606 43.3125C18.7606 43.8302 19.1804 44.25 19.6981 44.25H26.627C28.8917 46.5624 32.0465 48 35.5312 48C42.4066 48 48 42.4066 48 35.5312C48 31.4272 46.0066 27.7803 42.9375 25.5068ZM1.875 8.25V3.9375C1.875 2.80022 2.80022 1.875 3.9375 1.875H39C40.1373 1.875 41.0625 2.80022 41.0625 3.9375V8.25H1.875ZM35.5312 46.125C29.6898 46.125 24.9375 41.3727 24.9375 35.5312C24.9375 29.6898 29.6898 24.9375 35.5312 24.9375C41.3727 24.9375 46.125 29.6898 46.125 35.5312C46.125 41.3727 41.3727 46.125 35.5312 46.125Z" fill="#1D66FF"/>
<path d="M31.6038 32.0995C31.2376 31.7335 30.6442 31.7335 30.2779 32.0995L27.5089 34.8684C27.1428 35.2345 27.1428 35.8282 27.5089 36.1944L30.2779 38.9633C30.461 39.1463 30.7009 39.2379 30.9408 39.2379C31.1807 39.2379 31.4206 39.1463 31.6037 38.9633C31.9698 38.5973 31.9698 38.0036 31.6037 37.6374L29.4978 35.5314L31.6039 33.4253C31.97 33.0592 31.97 32.4655 31.6038 32.0995Z" fill="#1D66FF"/>
<path d="M43.5693 34.8684L40.8003 32.0995C40.4341 31.7335 39.8407 31.7335 39.4744 32.0995C39.1083 32.4655 39.1083 33.0592 39.4744 33.4254L41.5805 35.5314L39.4744 37.6374C39.1083 38.0035 39.1083 38.5972 39.4744 38.9633C39.6575 39.1463 39.8974 39.2379 40.1373 39.2379C40.3772 39.2379 40.6171 39.1463 40.8002 38.9633L43.5692 36.1944C43.9355 35.8282 43.9355 35.2345 43.5693 34.8684Z" fill="#1D66FF"/>
<path d="M36.7694 31.0069C36.2697 30.8713 35.7547 31.1663 35.619 31.6661L33.654 38.9059C33.5184 39.4056 33.8135 39.9206 34.3132 40.0562C34.3954 40.0786 34.478 40.0893 34.5593 40.0893C34.9721 40.0893 35.3503 39.8146 35.4635 39.3971L37.4285 32.1572C37.5643 31.6576 37.2691 31.1426 36.7694 31.0069Z" fill="#1D66FF"/>
<path d="M6.1875 28.875H19.2051C19.7228 28.875 20.1426 28.4552 20.1426 27.9375C20.1426 27.4198 19.7228 27 19.2051 27H6.1875C5.66981 27 5.25 27.4198 5.25 27.9375C5.25 28.4552 5.66981 28.875 6.1875 28.875Z" fill="#1D66FF"/>
<path d="M5.52469 24.1002C5.69906 24.2747 5.94094 24.375 6.1875 24.375C6.43406 24.375 6.67594 24.2747 6.85022 24.1002C7.02469 23.9259 7.125 23.6841 7.125 23.4375C7.125 23.1909 7.02469 22.9491 6.85022 22.7747C6.67594 22.6002 6.43406 22.5 6.1875 22.5C5.94094 22.5 5.69906 22.6002 5.52469 22.7747C5.35031 22.9492 5.25 23.1909 5.25 23.4375C5.25 23.6841 5.35022 23.9259 5.52469 24.1002Z" fill="#1D66FF"/>
<path d="M23.9765 22.5H10.4062C9.88856 22.5 9.46875 22.9198 9.46875 23.4375C9.46875 23.9552 9.88856 24.375 10.4062 24.375H23.9765C24.4942 24.375 24.914 23.9552 24.914 23.4375C24.914 22.9198 24.4942 22.5 23.9765 22.5Z" fill="#1D66FF"/>
<path d="M6.1875 33.375H9.28387C9.80156 33.375 10.2214 32.9552 10.2214 32.4375C10.2214 31.9198 9.80156 31.5 9.28387 31.5H6.1875C5.66981 31.5 5.25 31.9198 5.25 32.4375C5.25 32.9552 5.66981 33.375 6.1875 33.375Z" fill="#1D66FF"/>
<path d="M19.2051 31.5H13.7812C13.2636 31.5 12.8438 31.9198 12.8438 32.4375C12.8438 32.9552 13.2636 33.375 13.7812 33.375H19.2051C19.7228 33.375 20.1426 32.9552 20.1426 32.4375C20.1426 31.9198 19.7228 31.5 19.2051 31.5Z" fill="#1D66FF"/>
<path d="M6.1875 37.875H19.2051C19.7228 37.875 20.1426 37.4552 20.1426 36.9375C20.1426 36.4198 19.7228 36 19.2051 36H6.1875C5.66981 36 5.25 36.4198 5.25 36.9375C5.25 37.4552 5.66981 37.875 6.1875 37.875Z" fill="#1D66FF"/>
<path d="M6.1875 19.875H10.6348C11.1525 19.875 11.5723 19.4552 11.5723 18.9375C11.5723 18.4198 11.1525 18 10.6348 18H6.1875C5.66981 18 5.25 18.4198 5.25 18.9375C5.25 19.4552 5.66981 19.875 6.1875 19.875Z" fill="#1D66FF"/>
<path d="M14.3495 18.9375C14.3495 19.4552 14.7694 19.875 15.287 19.875H23.9766C24.4942 19.875 24.9141 19.4552 24.9141 18.9375C24.9141 18.4198 24.4942 18 23.9766 18H15.287C14.7693 18 14.3495 18.4198 14.3495 18.9375Z" fill="#1D66FF"/>
<path d="M27.2344 18.9375C27.2344 19.4552 27.6542 19.875 28.1719 19.875H36.75C37.2677 19.875 37.6875 19.4552 37.6875 18.9375C37.6875 18.4198 37.2677 18 36.75 18H28.1719C27.6542 18 27.2344 18.4198 27.2344 18.9375Z" fill="#1D66FF"/>
<path d="M36.75 15.375C37.2677 15.375 37.6875 14.9552 37.6875 14.4375C37.6875 13.9198 37.2677 13.5 36.75 13.5H31.2267C30.709 13.5 30.2892 13.9198 30.2892 14.4375C30.2892 14.9552 30.709 15.375 31.2267 15.375H36.75Z" fill="#1D66FF"/>
<path d="M13.7812 13.5H6.1875C5.66981 13.5 5.25 13.9198 5.25 14.4375C5.25 14.9552 5.66981 15.375 6.1875 15.375H13.7812C14.2989 15.375 14.7188 14.9552 14.7188 14.4375C14.7188 13.9198 14.2989 13.5 13.7812 13.5Z" fill="#1D66FF"/>
<path d="M27.0312 13.5H18.5018C17.9841 13.5 17.5643 13.9198 17.5643 14.4375C17.5643 14.9552 17.9841 15.375 18.5018 15.375H27.0312C27.5489 15.375 27.9687 14.9552 27.9687 14.4375C27.9687 13.9198 27.5489 13.5 27.0312 13.5Z" fill="#1D66FF"/>
<path d="M15.479 42.375C15.2324 42.375 14.9905 42.4752 14.8162 42.6497C14.6419 42.8241 14.5415 43.0659 14.5415 43.3125C14.5415 43.5591 14.6418 43.8009 14.8162 43.9752C14.9905 44.1496 15.2324 44.25 15.479 44.25C15.7256 44.25 15.9674 44.1497 16.1418 43.9752C16.3171 43.8009 16.4165 43.5591 16.4165 43.3125C16.4165 43.0659 16.3171 42.8241 16.1418 42.6497C15.9674 42.4752 15.7265 42.375 15.479 42.375Z" fill="#1D66FF"/>
</svg>
