<svg width="48" height="48" viewBox="0 0 48 48" fill="none" xmlns="http://www.w3.org/2000/svg">
<g clip-path="url(#clip0)">
<path d="M46 4C45.9973 1.79196 44.208 0.0026449 42 0H9.99999C7.79195 0.0026449 6.00264 1.79196 5.99999 4V32C5.99999 32.4418 6.35816 32.8 6.79999 32.8C7.24182 32.8 7.59999 32.4418 7.59999 32V4C7.59999 2.67452 8.67451 1.6 9.99999 1.6H42C43.3255 1.6 44.4 2.67452 44.4 4V35.2H38.8C36.5919 35.2026 34.8026 36.992 34.8 39.2V44.8H19.6C19.1582 44.8 18.8 45.1582 18.8 45.6C18.8 46.0418 19.1582 46.4 19.6 46.4H35.6C35.8121 46.4 36.0156 46.3156 36.1656 46.1656L45.7656 36.5656C45.9156 36.4156 45.9999 36.2122 46 36V4ZM38.8 36.8H43.2688L36.4 43.6688V39.2C36.4 37.8745 37.4745 36.8 38.8 36.8Z" fill="white"/>
<path d="M2 38.4C1.99761 39.2491 2.33526 40.0639 2.9376 40.6624L9.3376 47.0624C9.93647 47.6642 10.751 48.0017 11.6 48C11.6848 48 11.7704 48 11.8576 47.9896C12.7934 47.9147 13.6489 47.4319 14.1968 46.6696L28.5968 26.6696C29.2798 25.7424 29.412 24.5198 28.9429 23.468C28.4738 22.4163 27.4758 21.6978 26.3296 21.5865C25.1834 21.4753 24.0658 21.9885 23.4032 22.9304L22.3936 24.3328C22.2197 24.5644 22.1845 24.872 22.3018 25.1369C22.419 25.4018 22.6703 25.5826 22.9587 25.6097C23.2471 25.6367 23.5276 25.5057 23.692 25.2672L24.7016 23.8656C25.0304 23.3886 25.5914 23.1266 26.1682 23.1806C26.7451 23.2347 27.2476 23.5963 27.4821 24.1261C27.7166 24.6559 27.6463 25.2711 27.2984 25.7344L12.8984 45.7344C12.6252 46.1156 12.1979 46.3571 11.7304 46.3944C11.2625 46.4309 10.8019 46.2618 10.4688 45.9312L4.0688 39.5312C3.44419 38.9064 3.44419 37.8936 4.0688 37.2688C4.70173 36.6641 5.69826 36.6641 6.3312 37.2688L10.736 41.6728C10.9011 41.8401 11.1322 41.9251 11.3664 41.9048C11.5999 41.8857 11.8134 41.7653 11.9504 41.5752L21.3904 28.4672C21.5643 28.2355 21.5995 27.928 21.4822 27.6631C21.365 27.3982 21.1137 27.2173 20.8253 27.1903C20.5369 27.1633 20.2564 27.2943 20.092 27.5328L11.2 39.8768L7.4632 36.1376C6.19624 34.9302 4.20455 34.9302 2.9376 36.1376C2.33526 36.7361 1.99761 37.5508 2 38.4Z" fill="white"/>
<path d="M13.2 4.7998H11.6C11.1582 4.7998 10.8 5.15798 10.8 5.59981C10.8 6.04163 11.1582 6.39981 11.6 6.39981H13.2C13.6418 6.39981 14 6.04163 14 5.59981C14 5.15798 13.6418 4.7998 13.2 4.7998Z" fill="white"/>
<path d="M40.4 4.7998H16.4C15.9582 4.7998 15.6 5.15798 15.6 5.59981C15.6 6.04163 15.9582 6.39981 16.4 6.39981H40.4C40.8418 6.39981 41.2 6.04163 41.2 5.59981C41.2 5.15798 40.8418 4.7998 40.4 4.7998Z" fill="white"/>
<path d="M13.2 9.6001H11.6C11.1582 9.6001 10.8 9.95827 10.8 10.4001C10.8 10.8419 11.1582 11.2001 11.6 11.2001H13.2C13.6418 11.2001 14 10.8419 14 10.4001C14 9.95827 13.6418 9.6001 13.2 9.6001Z" fill="white"/>
<path d="M16.4 11.2001H34.8C35.2418 11.2001 35.6 10.8419 35.6 10.4001C35.6 9.95827 35.2418 9.6001 34.8 9.6001H16.4C15.9582 9.6001 15.6 9.95827 15.6 10.4001C15.6 10.8419 15.9582 11.2001 16.4 11.2001Z" fill="white"/>
<path d="M13.2 14.3999H11.6C11.1582 14.3999 10.8 14.7581 10.8 15.1999C10.8 15.6417 11.1582 15.9999 11.6 15.9999H13.2C13.6418 15.9999 14 15.6417 14 15.1999C14 14.7581 13.6418 14.3999 13.2 14.3999Z" fill="white"/>
<path d="M16.4 15.9999H29.2C29.6418 15.9999 30 15.6417 30 15.1999C30 14.7581 29.6418 14.3999 29.2 14.3999H16.4C15.9582 14.3999 15.6 14.7581 15.6 15.1999C15.6 15.6417 15.9582 15.9999 16.4 15.9999Z" fill="white"/>
<path d="M42.8 16.8002C42.8 16.3584 42.4418 16.0002 42 16.0002C41.5582 16.0002 41.2 16.3584 41.2 16.8002V28.0003C41.2 28.4421 41.5582 28.8003 42 28.8003C42.4418 28.8003 42.8 28.4421 42.8 28.0003V16.8002Z" fill="white"/>
<path d="M42 30.4001C41.5582 30.4001 41.2 30.7583 41.2 31.2001V32.8001C41.2 33.242 41.5582 33.6001 42 33.6001C42.4418 33.6001 42.8 33.242 42.8 32.8001V31.2001C42.8 30.7583 42.4418 30.4001 42 30.4001Z" fill="white"/>
</g>
<defs>
<clipPath id="clip0">
<rect width="48" height="48" fill="white"/>
</clipPath>
</defs>
</svg>
