<svg width="48" height="48" viewBox="0 0 48 48" fill="none" xmlns="http://www.w3.org/2000/svg">
<path d="M40.8 11.7H29.6V10.9C29.5953 6.92534 26.3746 3.70464 22.4 3.69995H7.2C3.22539 3.70464 0.0046875 6.92534 0 10.9V20.5C0.0046875 24.4746 3.22539 27.6953 7.2 27.7H8V34.1C8 34.4234 8.19492 34.7152 8.49375 34.839C8.79258 34.9628 9.13672 34.8941 9.36563 34.6656L16.3313 27.7H18.4V28.5C18.4047 32.4746 21.6254 35.6953 25.6 35.7H30.0688L38.6344 44.2656C38.8633 44.4941 39.2074 44.5628 39.5063 44.439C39.8051 44.3152 40 44.0234 40 43.7V35.7H40.8C44.7746 35.6953 47.9953 32.4746 48 28.5V18.9C47.9953 14.9253 44.7746 11.7046 40.8 11.7ZM16 26.1C15.7879 26.1 15.5844 26.1843 15.4344 26.3343L9.6 32.1687V26.9C9.6 26.4582 9.2418 26.1 8.8 26.1H7.2C4.10859 26.0964 1.60352 23.5914 1.6 20.5V10.9C1.60352 7.80855 4.10859 5.30347 7.2 5.29995H22.4C25.4914 5.30347 27.9965 7.80855 28 10.9V11.7H25.6C21.6254 11.7046 18.4047 14.9253 18.4 18.9V26.1H16ZM46.4 28.5C46.3965 31.5914 43.8914 34.0964 40.8 34.1H39.2C38.7582 34.1 38.4 34.4582 38.4 34.9V41.7687L30.9656 34.3343C30.8156 34.1843 30.6121 34.1 30.4 34.1H25.6C22.5086 34.0964 20.0035 31.5914 20 28.5V18.9C20.0035 15.8085 22.5086 13.3035 25.6 13.3H40.8C43.8914 13.3035 46.3965 15.8085 46.4 18.9V28.5Z" fill="white"/>
<path d="M42.4 18.1001H24C23.5582 18.1001 23.2 18.4583 23.2 18.9001C23.2 19.3419 23.5582 19.7001 24 19.7001H42.4C42.8418 19.7001 43.2 19.3419 43.2 18.9001C43.2 18.4583 42.8418 18.1001 42.4 18.1001Z" fill="white"/>
<path d="M42.4 22.8999H24C23.5582 22.8999 23.2 23.2581 23.2 23.6999C23.2 24.1417 23.5582 24.4999 24 24.4999H42.4C42.8418 24.4999 43.2 24.1417 43.2 23.6999C43.2 23.2581 42.8418 22.8999 42.4 22.8999Z" fill="white"/>
<path d="M42.4 27.7H24C23.5582 27.7 23.2 28.0582 23.2 28.5C23.2 28.9417 23.5582 29.2999 24 29.2999H42.4C42.8418 29.2999 43.2 28.9417 43.2 28.5C43.2 28.0582 42.8418 27.7 42.4 27.7Z" fill="white"/>
<path d="M4.8 11.7001H21.6C22.0418 11.7001 22.4 11.3419 22.4 10.9001C22.4 10.4583 22.0418 10.1001 21.6 10.1001H4.8C4.3582 10.1001 4 10.4583 4 10.9001C4 11.3419 4.3582 11.7001 4.8 11.7001Z" fill="white"/>
<path d="M16.8 14.8999H4.8C4.3582 14.8999 4 15.2581 4 15.6999C4 16.1417 4.3582 16.4999 4.8 16.4999H16.8C17.2418 16.4999 17.6 16.1417 17.6 15.6999C17.6 15.2581 17.2418 14.8999 16.8 14.8999Z" fill="white"/>
<path d="M16 19.7H4.8C4.3582 19.7 4 20.0582 4 20.5C4 20.9417 4.3582 21.2999 4.8 21.2999H16C16.4418 21.2999 16.8 20.9417 16.8 20.5C16.8 20.0582 16.4418 19.7 16 19.7Z" fill="white"/>
</svg>
