<svg width="48" height="48" viewBox="0 0 48 48" fill="none" xmlns="http://www.w3.org/2000/svg">
<g clip-path="url(#clip0)">
<path d="M19.7123 15.5576H14.8157C14.1395 15.5576 13.5915 16.1057 13.5915 16.7818C13.5915 17.4579 14.1395 18.0059 14.8157 18.0059H19.7123C20.3884 18.0059 20.9365 17.4579 20.9365 16.7818C20.9365 16.1057 20.3884 15.5576 19.7123 15.5576Z" fill="white"/>
<path d="M19.7123 25.5957H14.8157C14.1395 25.5957 13.5915 26.1438 13.5915 26.8199C13.5915 27.496 14.1395 28.044 14.8157 28.044H19.7123C20.3884 28.044 20.9365 27.496 20.9365 26.8199C20.9365 26.1438 20.3884 25.5957 19.7123 25.5957Z" fill="white"/>
<path d="M19.7123 35.8787H14.8157C14.1395 35.8787 13.5915 36.4267 13.5915 37.1028C13.5915 37.7789 14.1395 38.327 14.8157 38.327H19.7123C20.3884 38.327 20.9365 37.7789 20.9365 37.1028C20.9365 36.4267 20.3884 35.8787 19.7123 35.8787Z" fill="white"/>
<path d="M43.9609 26.9354C41.4941 23.8235 37.7398 22.0107 33.7689 22.0137C33.5745 22.0137 33.4229 22.0188 33.1781 22.0273V6.56849C33.1781 5.16682 32.2983 3.17364 28.056 1.63842C25.1367 0.581844 21.2857 0 17.2028 0C13.1198 0 9.27157 0.581844 6.35231 1.63879C2.10998 3.17364 1.22748 5.16682 1.22748 6.56849V37.0171C1.22748 38.4193 2.11255 40.413 6.35451 41.9479C9.27304 43.0039 13.1268 43.5856 17.2107 43.5856C19.3498 43.5901 21.4858 43.4203 23.5972 43.0779C28.0549 48.7012 36.227 49.6461 41.8503 45.1885C47.4736 40.7308 48.4185 32.5587 43.9609 26.9354ZM17.2082 2.44832C26.0998 2.44832 30.7511 5.13059 30.7511 6.56849C30.7511 8.00639 26.0993 10.6886 17.2082 10.6886C8.31709 10.6886 3.66515 8.00626 3.66515 6.56849C3.66515 5.13071 8.31648 2.44832 17.2082 2.44832ZM17.2028 20.8147C8.31109 20.8147 3.6758 18.1324 3.6758 16.6945V10.2177C4.52268 10.7352 5.42035 11.1644 6.35488 11.4986C9.27426 12.5551 13.1279 13.137 17.2107 13.137C21.2936 13.137 25.1381 12.5551 28.0568 11.4986C28.9894 11.1645 29.8851 10.7353 30.7298 10.2177V16.6945C30.7298 18.1324 26.0945 20.8147 17.2028 20.8147ZM30.7298 20.3447V22.3708C26.4473 23.4143 22.9795 26.5466 21.5071 30.7011C20.0798 30.8623 18.6445 30.9424 17.2082 30.9407C8.31648 30.9407 3.6758 28.2583 3.6758 26.8205V20.3447C4.52255 20.862 5.42011 21.2912 6.35451 21.6253C9.27304 22.6814 13.1268 23.263 17.2107 23.263C21.2947 23.263 25.1393 22.6814 28.0578 21.6253C28.9901 21.2912 29.8855 20.8622 30.7298 20.3447ZM17.2082 41.137C13.401 41.137 9.8457 40.6073 7.18756 39.6455C4.5916 38.7064 3.6758 37.6424 3.6758 37.0171V30.4707C4.52255 30.9881 5.42011 31.4173 6.35451 31.7513C9.27304 32.8074 13.1268 33.389 17.2107 33.389C18.4678 33.389 19.7036 33.3328 20.907 33.2241C20.5448 35.8231 20.9796 38.4709 22.154 40.8176C20.5143 41.032 18.862 41.1386 17.2082 41.137ZM33.7795 45.5601C27.9534 45.5601 23.2304 40.8372 23.2304 35.011C23.2304 29.1849 27.9534 24.4619 33.7795 24.4619C39.6057 24.4619 44.3286 29.1849 44.3286 35.011C44.3221 40.8344 39.603 45.5536 33.7795 45.5601Z" fill="white"/>
<path d="M37.5165 30.5106C37.4369 30.4165 37.2968 30.3591 37.1456 30.3591H34.529C34.3544 30.3591 34.1968 30.4352 34.1282 30.5527L31.5116 35.0427C31.4537 35.1412 31.4678 35.2543 31.5483 35.3441C31.6292 35.4335 31.7659 35.4875 31.9124 35.4875H33.0516L30.6267 40.834C30.556 40.9886 30.6561 41.1569 30.8579 41.2249C30.9167 41.2448 30.9789 41.2542 31.0398 41.2542C31.1888 41.2542 31.3332 41.1981 31.4141 41.0993L36.6473 34.6942C36.7282 34.5953 36.7303 34.4725 36.6528 34.3725C36.5753 34.2724 36.4305 34.2107 36.2734 34.2107H35.2346L37.5357 30.8211C37.6034 30.7223 37.5961 30.6048 37.5165 30.5106Z" fill="white"/>
</g>
<defs>
<clipPath id="clip0">
<rect width="48" height="48" fill="white"/>
</clipPath>
</defs>
</svg>
