<svg width="148" height="148" viewBox="0 0 148 148" fill="none" xmlns="http://www.w3.org/2000/svg">
<path d="M74 77.353C94.4345 77.353 111 60.7876 111 40.353C111 19.9185 94.4345 3.35303 74 3.35303C53.5655 3.35303 37 19.9185 37 40.353C37 60.7876 53.5655 77.353 74 77.353Z" fill="#1D66FF"/>
<path d="M81.7159 44C81.3248 44 80.9359 43.8349 80.6629 43.5132C80.1676 42.9323 80.2378 42.0598 80.8187 41.5646L88.5277 34.9996L80.8187 28.4346C80.2378 27.9401 80.1676 27.0676 80.6629 26.4859C81.1573 25.905 82.0306 25.8348 82.6108 26.3301L91.5564 33.9473C91.865 34.2104 92.0424 34.5946 92.0424 34.9996C92.0424 35.4053 91.865 35.7895 91.5564 36.0526L82.6108 43.6698C82.3508 43.8912 82.0322 44 81.7159 44Z" fill="white"/>
<path d="M67.3266 44C67.0103 44 66.6917 43.8912 66.4317 43.6698L57.486 36.0526C57.1774 35.7895 57 35.4053 57 34.9996C57 34.5946 57.1782 34.2104 57.486 33.9473L66.4317 26.3301C67.0126 25.8348 67.8851 25.905 68.3804 26.4859C68.8749 27.0676 68.8054 27.9401 68.2238 28.4346L60.5147 34.9996L68.2238 41.5646C68.8054 42.0598 68.8749 42.9323 68.3804 43.5132C68.1065 43.8349 67.7177 44 67.3266 44Z" fill="white"/>
<path d="M53.8234 19.5119C53.4766 19.5119 52.8117 19.165 52.4648 18.847C51.8 18.1822 51.8 17.1705 52.4648 16.5056C55.5 13.8173 59.2 11.447 63.218 10.1173C64.2297 9.77047 64.8945 10.1173 65.2414 11.1291C65.5883 12.1408 65.2414 12.8056 64.2297 13.1525C60.8766 14.4533 57.5234 16.1588 54.8352 18.847C54.4883 19.5119 54.1414 19.5119 53.8234 19.5119Z" fill="white"/>
<path d="M43.7352 42.0588C42.7234 42.0588 42.0586 41.3939 42.0586 40.3822C42.0586 35.3236 43.0703 30.6408 45.4117 26.247C45.7586 25.5822 46.7703 25.2353 47.7531 25.5822C48.418 25.9291 48.7648 26.9408 48.418 27.9236C46.3945 31.9705 45.3828 36.3353 45.3828 40.7002C45.4117 41.365 44.7469 42.0588 43.7352 42.0588Z" fill="white"/>
<path d="M94.5234 9.74146C98.5703 15.4649 100.912 22.518 100.912 30.2649C100.912 50.7883 84.4352 67.2649 63.9117 67.2649C56.1648 67.2649 49.1117 64.9235 43.3883 60.8766C50.1234 70.618 61.2234 77.3532 74 77.3532C94.5234 77.3532 111 60.8766 111 40.3532C111 27.5766 104.612 16.1586 94.5234 9.74146Z" fill="#1253DC"/>
<path d="M84.0883 144.647H16.8234C14.8 144.647 13.4703 143.288 13.4703 141.294V60.5586H84.1172V144.647H84.0883Z" fill="#C97629"/>
<path d="M84.0883 144.647H16.8234C14.8 144.647 13.4703 143.288 13.4703 141.294V60.5586H84.1172V144.647H84.0883Z" fill="#1D66FF"/>
<path d="M84.0883 144.647H131.177C133.2 144.647 134.53 143.288 134.53 141.294V60.5586H84.0883V144.647Z" fill="#1253DC"/>
<path d="M84.0883 144.647H131.177C133.2 144.647 134.53 143.288 134.53 141.294V60.5586H84.0883V144.647Z" fill="#1253DC"/>
<path d="M16.8234 141.265V100.912C16.8234 97.2118 19.8586 94.1767 23.5586 94.1767H74.6937C76.3703 94.1767 77.7289 93.1649 78.0469 91.4884L84.0883 60.5298H16.8234H13.4414V94.1767V141.265C13.4414 143.288 14.8 144.618 16.7945 144.618H84.0594C82.0359 142.595 79.0008 141.265 75.9945 141.265H16.8234Z" fill="#1253DC"/>
<path d="M131.177 60.5586H84.0883L90.1297 91.5172C90.4765 93.1938 91.8062 94.2055 93.4828 94.2055H124.441C128.141 94.2055 131.177 97.2406 131.177 100.941V141.294H92.1531C89.1179 141.294 86.1117 142.652 84.0883 144.647H131.177C133.2 144.647 134.53 143.288 134.53 141.294V94.1766V60.5586H131.177Z" fill="#1253DC"/>
<path d="M104.612 87.4414H144.647C146.67 87.4414 148 85.7648 148 84.0883C148 83.4234 148 82.7297 147.335 82.4117L134.559 60.5586H84.0883L98.8883 84.4352C100.247 86.1117 102.241 87.4414 104.612 87.4414Z" fill="#1D66FF"/>
<path d="M63.5648 87.4414H3.35313C1.32969 87.4414 0 85.7648 0 84.0883C0 83.4234 0 82.7297 0.664844 82.4117L13.4414 60.5586H84.0883L69.2883 84.4352C67.9586 86.1117 65.9352 87.4414 63.5648 87.4414Z" fill="#1D66FF"/>
<path d="M21.8531 121.088H42.0297C43.0414 121.088 43.7063 121.753 43.7063 122.765C43.7063 123.777 43.0414 124.442 42.0297 124.442H21.8531C20.8414 124.442 20.1766 123.777 20.1766 122.765C20.1766 121.753 20.8414 121.088 21.8531 121.088Z" fill="white"/>
<path d="M21.8531 127.823H35.2945C36.3063 127.823 36.9711 128.488 36.9711 129.5C36.9711 130.512 36.3063 131.177 35.2945 131.177H21.8531C20.8414 131.177 20.1766 130.512 20.1766 129.5C20.1766 128.488 20.8414 127.823 21.8531 127.823Z" fill="white"/>
</svg>
