<svg width="423" height="340" viewBox="0 0 423 340" fill="none" xmlns="http://www.w3.org/2000/svg">
<path d="M9.87671 340C8.7152 339.996 7.63693 339.4 7.01645 338.418C6.39786 337.437 6.32219 336.207 6.81971 335.157L43.0573 259.373H7.10914C5.94763 259.373 4.86747 258.777 4.24699 257.796C3.62651 256.812 3.55273 255.58 4.05214 254.531L48.2046 161.937C48.7645 160.755 49.9544 160 51.2635 160H104.245C105.438 160 106.545 160.628 107.156 161.653C107.769 162.679 107.795 163.952 107.228 165.002L70.1692 233.614H104.706C106.064 233.612 107.294 234.42 107.829 235.67C108.365 236.921 108.1 238.368 107.16 239.35L12.3284 338.948C11.689 339.62 10.8036 340 9.87671 340ZM12.4835 252.593H48.4354C49.5969 252.597 50.6771 253.193 51.2975 254.175C51.9161 255.157 51.9918 256.386 51.4943 257.436L22.152 318.799L96.7988 240.394H64.4827C63.2891 240.394 62.1824 239.766 61.5714 238.74C60.9585 237.715 60.932 236.442 61.4995 235.392L98.5619 166.787H53.3954L12.4835 252.593ZM111.774 331.022C110.614 331.018 109.534 330.422 108.915 329.44C108.295 328.458 108.221 327.229 108.717 326.179L131.122 279.319H110.007C108.83 279.321 107.737 278.714 107.118 277.713C106.499 276.713 106.443 275.464 106.969 274.412L136.672 215.039C137.245 213.891 138.42 213.166 139.703 213.166H173.678C174.887 213.166 176.003 213.808 176.61 214.852C177.217 215.896 177.223 217.184 176.625 218.232L152.623 260.37H172.577C173.933 260.368 175.159 261.176 175.692 262.423C176.228 263.669 175.969 265.115 175.032 266.098L114.221 329.97C113.582 330.64 112.697 331.02 111.772 331.022H111.774ZM115.487 272.54H136.498C137.658 272.543 138.738 273.139 139.358 274.121C139.977 275.103 140.053 276.332 139.555 277.382L124.049 309.821L164.677 267.15H146.791C145.584 267.15 144.466 266.507 143.861 265.463C143.253 264.418 143.248 263.13 143.846 262.082L167.846 219.948H141.797L115.487 272.54Z" fill="#1D66FF"/>
<g clip-path="url(#clip0)">
<path d="M421.783 161.309L392.665 110.915C392.082 109.025 389.753 107.766 388.006 107.766H201.65C199.903 107.766 197.574 109.025 196.991 110.915L167.873 161.309C166.709 163.199 166.709 165.718 167.873 167.608C168.456 169.498 170.203 170.758 172.532 170.758H195.827V252.648C195.827 263.357 203.397 271.546 213.298 271.546H306.475H376.359C386.259 271.546 393.829 263.357 393.829 252.648V189.656C393.829 185.876 391.5 183.357 388.006 183.357C384.512 183.357 382.182 185.877 382.182 189.656V252.649C382.182 256.428 379.853 258.948 376.359 258.948H312.299V151.86C312.299 148.08 309.97 145.561 306.476 145.561C302.982 145.561 300.653 148.081 300.653 151.86V258.947H213.298C209.803 258.947 207.474 256.427 207.474 252.648V164.459C207.474 160.679 205.145 158.16 201.651 158.16H183.015L205.145 120.364H295.993L275.61 155.01C274.446 156.9 272.698 158.16 270.951 158.16H224.945C221.451 158.16 219.122 160.68 219.122 164.459C219.122 168.238 221.451 170.758 224.945 170.758H270.951C276.775 170.758 282.599 167.608 285.51 161.939L306.475 126.033L327.44 161.939C330.935 167.608 336.176 170.758 342 170.758H417.124C419.454 170.758 421.2 169.498 422.365 167.608C423.53 165.718 422.947 163.199 421.783 161.309ZM342 158.16C340.252 158.16 337.923 156.9 337.341 155.01L316.958 120.364H384.512L406.642 158.16H342Z" fill="#1D66FF"/>
<path d="M259.887 214.853H224.945C221.451 214.853 219.122 217.373 219.122 221.152C219.122 224.931 221.451 227.451 224.945 227.451H259.887C263.381 227.451 265.71 224.931 265.71 221.152C265.71 217.373 263.381 214.853 259.887 214.853Z" fill="#1D66FF"/>
<path d="M242.416 233.75H224.945C221.451 233.75 219.122 236.27 219.122 240.05C219.122 243.829 221.451 246.349 224.945 246.349H242.416C245.91 246.349 248.239 243.829 248.239 240.05C248.239 236.27 245.91 233.75 242.416 233.75Z" fill="#1D66FF"/>
<path d="M355.976 55.4817C354.811 52.3322 351.9 50.4423 348.406 51.0719C345.494 52.3316 343.747 56.1113 344.911 59.2608C346.658 64.9303 347.241 70.5992 347.241 76.2687C347.241 80.0483 346.658 83.828 346.076 87.6071C345.494 90.7566 347.241 94.5363 350.735 95.1664C351.318 95.1664 351.318 95.1664 351.9 95.1664C354.811 95.1664 357.141 93.2766 357.723 90.127C358.306 85.7178 358.888 80.6779 358.888 76.2687C358.888 69.3401 357.723 62.4109 355.976 55.4817Z" fill="#1D66FF"/>
<path d="M322.199 13.9067C314.046 9.49743 304.728 6.97748 294.828 6.97748C259.304 6.97748 230.768 37.8437 230.768 76.2692C230.768 80.6785 231.351 85.7184 231.933 90.1276C232.516 93.2771 234.845 95.167 237.756 95.167C238.339 95.167 238.339 95.167 238.921 95.167C241.833 94.5368 244.162 91.3873 243.58 87.6077C242.997 83.828 242.415 80.0484 242.415 76.2692C242.415 44.7729 265.709 19.5761 294.828 19.5761C302.981 19.5761 310.551 21.466 317.54 25.2456C320.451 26.5053 323.946 25.2456 325.11 22.0961C326.275 18.9466 325.111 15.1664 322.199 13.9067Z" fill="#1D66FF"/>
<path d="M308.099 83.0146C307.317 83.0146 306.539 82.6574 305.993 81.9615C305.002 80.7048 305.143 78.8173 306.305 77.7459L321.723 63.5435L306.305 49.3411C305.143 48.2714 305.002 46.3838 305.993 45.1255C306.982 43.8688 308.728 43.7169 309.889 44.7884L327.78 61.2671C328.397 61.8362 328.752 62.6673 328.752 63.5435C328.752 64.4213 328.397 65.2525 327.78 65.8216L309.889 82.3003C309.369 82.7793 308.732 83.0146 308.099 83.0146Z" fill="#1D66FF"/>
<path d="M280.653 83.0146C280.021 83.0146 279.383 82.7793 278.863 82.3003L260.972 65.8216C260.355 65.2525 260 64.4213 260 63.5435C260 62.6673 260.356 61.8362 260.972 61.2671L278.863 44.7884C280.025 43.7169 281.77 43.8688 282.761 45.1255C283.75 46.3838 283.611 48.2714 282.448 49.3411L267.029 63.5435L282.448 77.7459C283.611 78.8173 283.75 80.7048 282.761 81.9615C282.213 82.6574 281.435 83.0146 280.653 83.0146Z" fill="#1D66FF"/>
</g>
<defs>
<clipPath id="clip0">
<rect width="256" height="276.909" fill="white" transform="translate(167 0.807251)"/>
</clipPath>
</defs>
</svg>
