<svg width="144" height="144" viewBox="0 0 144 144" fill="none" xmlns="http://www.w3.org/2000/svg">
<path d="M63.5763 24.2854H63.5667C62.0454 24.2982 60.8171 25.5372 60.8149 27.0606C60.8118 28.583 62.0358 29.8241 63.5593 29.8433H63.5689C65.0902 29.8294 66.3185 28.5915 66.3217 27.0681C66.3238 25.5446 65.0997 24.3035 63.5763 24.2854Z" fill="#1253DC"/>
<path d="M4.36365 119.257C4.37004 125.467 9.40378 130.5 15.6136 130.507H128.114C134.324 130.5 139.357 125.467 139.364 119.257V45.9641H4.36365V119.257ZM85.5575 73.6545C84.5529 72.8001 84.4336 71.2937 85.288 70.289C86.1413 69.2866 87.6477 69.1651 88.6524 70.0206L104.092 83.169C104.625 83.6239 104.932 84.2876 104.932 84.9876C104.932 85.6864 104.625 86.3512 104.092 86.804L88.6524 99.9524C87.6477 100.808 86.1413 100.686 85.288 99.6839C84.4336 98.6804 84.5529 97.1751 85.5575 96.3196L98.8636 84.9876L85.5575 73.6545ZM64.059 107.506L73.6833 61.8132C73.9538 60.5231 75.2205 59.6974 76.5096 59.9691C77.7997 60.2407 78.6243 61.5074 78.3526 62.7965L68.7294 108.49C68.4567 109.78 67.1921 110.605 65.902 110.333C64.6129 110.061 63.7873 108.796 64.059 107.506ZM39.635 83.169L55.0749 70.0206C56.0796 69.1651 57.5859 69.2866 58.4393 70.289C59.2937 71.2937 59.1744 72.8001 58.1698 73.6545L44.8636 84.9876L58.1719 96.3196C59.1744 97.1751 59.2948 98.6804 58.4404 99.6839C57.587 100.686 56.0796 100.808 55.076 99.9524L39.636 86.804C39.1034 86.3512 38.7965 85.6864 38.7965 84.9876C38.7965 84.2876 39.1034 83.6239 39.636 83.169H39.635Z" fill="#1253DC"/>
<path d="M40.3732 24.2119H40.3636C38.8583 24.2503 37.6566 25.4807 37.6556 26.9871C37.6534 28.4925 38.8498 29.7261 40.3551 29.7687H40.3636C41.869 29.7304 43.0696 28.4999 43.0728 26.9957C43.0739 25.4893 41.8764 24.2556 40.3722 24.2119H40.3732Z" fill="#1253DC"/>
<path d="M128.114 12.5232H15.6136C9.40378 12.5296 4.37004 17.5633 4.36365 23.7732V41.1915H139.364V23.7732C139.357 17.5633 134.324 12.5296 128.114 12.5232ZM17.1605 34.4713H17.1371C12.962 34.465 9.58275 31.0761 9.58595 26.901C9.58914 22.726 12.9737 19.3435 17.1488 19.3435C21.3249 19.3435 24.7106 22.726 24.7127 26.901C24.717 31.0761 21.3367 34.465 17.1605 34.4713ZM47.9159 27.015C47.8988 31.1752 44.5227 34.5395 40.3636 34.5438H40.3402C36.2184 34.4703 32.9169 31.1038 32.9244 26.9809C32.9297 22.8591 36.2408 19.5033 40.3626 19.4426H40.3882C44.5568 19.4596 47.9244 22.8485 47.9159 27.0172V27.015ZM71.119 27.0885C71.1062 31.2487 67.7301 34.6152 63.5689 34.6162H63.5455C59.3938 34.5832 56.0487 31.205 56.054 27.0523C56.0604 22.9007 59.4183 19.5331 63.57 19.5129H63.5923C67.7621 19.5299 71.1296 22.9188 71.12 27.0885H71.119Z" fill="#1253DC"/>
<path d="M17.1701 24.1406H17.1605C15.6509 24.1705 14.4418 25.4031 14.4396 26.9137C14.4364 28.4254 15.6413 29.6612 17.1531 29.6974H17.1605C18.6722 29.6655 19.8803 28.4339 19.8835 26.9222C19.8857 25.4116 18.6808 24.1758 17.1701 24.1406Z" fill="#1253DC"/>
</svg>
