<svg width="424" height="346" viewBox="0 0 424 346" fill="none" xmlns="http://www.w3.org/2000/svg">
<path d="M269.005 179.401C268.038 179.401 267.064 179.068 266.269 178.391L238.92 155.104C237.976 154.299 237.434 153.125 237.434 151.884C237.434 150.646 237.979 149.472 238.92 148.667L266.269 125.38C268.045 123.866 270.712 124.08 272.226 125.856C273.738 127.634 273.526 130.302 271.748 131.814L248.179 151.884L271.748 171.955C273.526 173.469 273.738 176.137 272.226 177.913C271.389 178.896 270.2 179.401 269.005 179.401Z" fill="#1D66FF"/>
<path d="M322.995 179.401C321.799 179.401 320.611 178.896 319.776 177.913C318.262 176.137 318.476 173.469 320.252 171.955L343.821 151.884L320.252 131.814C318.476 130.302 318.262 127.634 319.776 125.856C321.288 124.08 323.957 123.866 325.731 125.38L353.08 148.667C354.024 149.472 354.566 150.646 354.566 151.884C354.566 153.125 354.024 154.299 353.08 155.104L325.731 178.391C324.936 179.068 323.962 179.401 322.995 179.401Z" fill="#1D66FF"/>
<path d="M286.318 196.868C286.028 196.868 285.736 196.837 285.441 196.776C283.158 196.295 281.696 194.052 282.177 191.769L299.222 110.842C299.703 108.559 301.943 107.097 304.229 107.578C306.512 108.059 307.974 110.299 307.493 112.585L290.448 193.512C290.028 195.502 288.274 196.868 286.318 196.868Z" fill="#1D66FF"/>
<path d="M395.623 240.958H196.377C180.731 240.958 168 228.229 168 212.58V43.4717C168 27.8255 180.731 15.0944 196.377 15.0944H395.623C411.269 15.0944 424 27.8255 424 43.4717V212.58C424 228.229 411.269 240.958 395.623 240.958ZM196.377 23.5472C185.392 23.5472 176.453 32.4859 176.453 43.4717V212.58C176.453 223.566 185.392 232.505 196.377 232.505H395.623C406.608 232.505 415.547 223.566 415.547 212.58V43.4717C415.547 32.4859 406.608 23.5472 395.623 23.5472H196.377Z" fill="#1D66FF"/>
<path d="M419.774 82.7712H172.226C169.892 82.7712 168 80.8797 168 78.5448C168 76.2122 169.892 74.3184 172.226 74.3184H419.774C422.108 74.3184 424 76.2122 424 78.5448C424 80.8797 422.108 82.7712 419.774 82.7712Z" fill="#1D66FF"/>
<path d="M240.212 62.5471C232.84 62.5471 226.837 56.5448 226.837 49.1721C226.837 41.7971 232.84 35.7971 240.212 35.7971C247.587 35.7971 253.587 41.7971 253.587 49.1721C253.587 56.5448 247.587 62.5471 240.212 62.5471ZM240.212 44.25C237.5 44.25 235.29 46.4575 235.29 49.1721C235.29 51.8868 237.5 54.0943 240.212 54.0943C242.927 54.0943 245.134 51.8868 245.134 49.1721C245.134 46.4575 242.927 44.25 240.212 44.25Z" fill="#1D66FF"/>
<path d="M199.118 62.4174C191.743 62.4174 185.743 56.4174 185.743 49.0424C185.743 41.6674 191.743 35.6674 199.118 35.6674C206.493 35.6674 212.493 41.6674 212.493 49.0424C212.493 56.4174 206.493 62.4174 199.118 62.4174ZM199.118 44.1202C196.406 44.1202 194.196 46.3302 194.196 49.0424C194.196 51.757 196.406 53.9646 199.118 53.9646C201.833 53.9646 204.04 51.757 204.04 49.0424C204.04 46.3302 201.833 44.1202 199.118 44.1202Z" fill="#1D66FF"/>
<path d="M281.307 62.6745C273.934 62.6745 267.934 56.6745 267.934 49.2995C267.934 41.9269 273.934 35.9269 281.307 35.9269C288.682 35.9269 294.682 41.9269 294.682 49.2995C294.682 56.6745 288.682 62.6745 281.307 62.6745ZM281.307 44.3774C278.594 44.3774 276.387 46.5849 276.387 49.2995C276.387 52.0141 278.594 54.2217 281.307 54.2217C284.021 54.2217 286.229 52.0141 286.229 49.2995C286.229 46.5849 284.021 44.3774 281.307 44.3774Z" fill="#1D66FF"/>
<path d="M9.87671 346C8.7152 345.996 7.63693 345.4 7.01645 344.418C6.39786 343.437 6.32219 342.207 6.81971 341.157L43.0573 265.373H7.10914C5.94763 265.373 4.86747 264.777 4.24699 263.796C3.62651 262.812 3.55273 261.58 4.05214 260.531L48.2046 167.937C48.7645 166.755 49.9544 166 51.2635 166H104.245C105.438 166 106.545 166.628 107.156 167.653C107.769 168.679 107.795 169.952 107.228 171.002L70.1692 239.614H104.706C106.064 239.612 107.294 240.42 107.829 241.67C108.365 242.921 108.1 244.368 107.16 245.35L12.3284 344.948C11.689 345.62 10.8036 346 9.87671 346ZM12.4835 258.593H48.4354C49.5969 258.597 50.6771 259.193 51.2975 260.175C51.9161 261.157 51.9918 262.386 51.4943 263.436L22.152 324.799L96.7988 246.394H64.4827C63.2891 246.394 62.1824 245.766 61.5714 244.74C60.9585 243.715 60.932 242.442 61.4995 241.392L98.5619 172.787H53.3954L12.4835 258.593ZM111.774 337.022C110.614 337.018 109.534 336.422 108.915 335.44C108.295 334.458 108.221 333.229 108.717 332.179L131.122 285.319H110.007C108.83 285.321 107.737 284.714 107.118 283.713C106.499 282.713 106.443 281.464 106.969 280.412L136.672 221.039C137.245 219.891 138.42 219.166 139.703 219.166H173.678C174.887 219.166 176.003 219.808 176.61 220.852C177.217 221.896 177.223 223.184 176.625 224.232L152.623 266.37H172.577C173.933 266.368 175.159 267.176 175.692 268.423C176.228 269.669 175.969 271.115 175.032 272.098L114.221 335.97C113.582 336.64 112.697 337.02 111.772 337.022H111.774ZM115.487 278.54H136.498C137.658 278.543 138.738 279.139 139.358 280.121C139.977 281.103 140.053 282.332 139.555 283.382L124.049 315.821L164.677 273.15H146.791C145.584 273.15 144.466 272.507 143.861 271.463C143.253 270.418 143.248 269.13 143.846 268.082L167.846 225.948H141.797L115.487 278.54Z" fill="#1D66FF"/>
</svg>
