<svg width="1083" height="467" viewBox="0 0 1083 467" fill="none" xmlns="http://www.w3.org/2000/svg">
<path d="M92 38C116.5 40.5 167.5 62.4 175.5 130C179.167 159.833 194.7 219.3 227.5 218.5H270" stroke="#11CE7F" stroke-width="6"/>
<path d="M90 157C110.508 157.845 136.803 173.156 143.5 196C146.569 206.082 171.544 218.268 199 217.997H239" stroke="#11CE7F" stroke-width="6"/>
<path d="M90 158C110.508 158.845 136.803 174.156 143.5 197C146.569 207.082 171.544 219.268 199 218.997H239" stroke="#11CE7F" stroke-width="6"/>
<path d="M90 279.002C110.508 278.157 136.803 262.846 143.5 240.002C146.569 229.92 171.544 217.734 199 218.004H239" stroke="#11CE7F" stroke-width="6"/>
<path d="M90 399.508C114.5 397.008 165.5 375.108 173.5 307.508C177.167 277.675 192.7 218.208 225.5 219.008H268" stroke="#11CE7F" stroke-width="6"/>
<path d="M630 220C595.307 220 525.737 220 525 220" stroke="#11CE7F" stroke-width="6"/>
<rect x="271" y="143" width="254" height="144" rx="8" fill="black"/>
<circle cx="286" cy="159" r="6" fill="#E64C3C"/>
<circle cx="305" cy="159" r="6" fill="#F0C419"/>
<circle cx="323" cy="159" r="6" fill="#24AE5F"/>
<path d="M283.97 180.77C284.079 180.788 284.191 180.813 284.305 180.845C284.423 180.877 284.549 180.915 284.681 180.961C284.731 180.861 284.797 180.785 284.879 180.735C284.965 180.681 285.073 180.653 285.2 180.653C285.424 180.653 285.581 180.71 285.672 180.824C285.763 180.934 285.811 181.134 285.815 181.426L285.829 182.267V182.308C285.829 182.535 285.765 182.709 285.638 182.827C285.515 182.946 285.332 183.005 285.091 183.005C284.94 183.005 284.822 182.975 284.735 182.916C284.653 182.857 284.562 182.729 284.462 182.533C284.343 182.301 284.179 182.123 283.97 182C283.765 181.877 283.532 181.815 283.272 181.815C282.899 181.815 282.607 181.895 282.397 182.055C282.188 182.21 282.083 182.424 282.083 182.697C282.083 182.907 282.145 183.078 282.268 183.21C282.391 183.338 282.673 183.49 283.115 183.668L284.387 184.153C285.016 184.404 285.46 184.693 285.72 185.021C285.979 185.345 286.109 185.771 286.109 186.3C286.109 187.052 285.893 187.628 285.46 188.029C285.032 188.426 284.41 188.624 283.594 188.624H283.553L283.464 190.121C283.45 190.326 283.391 190.474 283.286 190.565C283.181 190.661 283.017 190.709 282.794 190.709C282.607 190.709 282.47 190.666 282.384 190.579C282.302 190.493 282.261 190.349 282.261 190.148V190.039L282.363 188.453C282.208 188.426 282.053 188.387 281.898 188.337C281.743 188.282 281.584 188.214 281.42 188.132C281.352 188.223 281.274 188.289 281.188 188.33C281.105 188.367 280.982 188.385 280.818 188.385C280.572 188.385 280.404 188.326 280.312 188.207C280.221 188.084 280.176 187.863 280.176 187.544V186.717C280.176 186.421 280.23 186.206 280.34 186.074C280.449 185.942 280.622 185.876 280.859 185.876C281.215 185.876 281.463 186.067 281.604 186.45C281.641 186.546 281.668 186.617 281.687 186.662C281.787 186.876 281.98 187.049 282.268 187.182C282.555 187.309 282.885 187.373 283.259 187.373C283.596 187.373 283.858 187.298 284.045 187.147C284.236 186.993 284.332 186.778 284.332 186.505C284.332 186.14 283.936 185.805 283.143 185.5L283.102 185.486L281.844 184.994C281.347 184.807 280.976 184.541 280.729 184.194C280.483 183.843 280.36 183.415 280.36 182.909C280.36 182.226 280.559 181.699 280.955 181.33C281.356 180.956 281.951 180.747 282.739 180.701L282.794 180.154C282.808 179.972 282.869 179.833 282.979 179.737C283.088 179.642 283.236 179.594 283.423 179.594C283.614 179.594 283.762 179.637 283.867 179.724C283.972 179.806 284.024 179.924 284.024 180.079V180.168L283.97 180.77Z" fill="white"/>
<path d="M298.209 188.904C298.09 188.995 297.967 189.064 297.84 189.109C297.717 189.16 297.589 189.185 297.457 189.185C297.261 189.185 297.122 189.132 297.04 189.027C296.963 188.923 296.924 188.727 296.924 188.439V187.53C296.924 187.229 296.974 187.018 297.074 186.895C297.174 186.767 297.348 186.703 297.594 186.703C297.863 186.703 298.081 186.833 298.25 187.093C298.35 187.234 298.435 187.339 298.503 187.407C298.726 187.608 298.986 187.758 299.282 187.858C299.578 187.959 299.916 188.009 300.294 188.009C300.622 188.009 300.884 187.945 301.08 187.817C301.276 187.69 301.374 187.523 301.374 187.318C301.374 186.949 300.848 186.694 299.795 186.553C299.562 186.525 299.38 186.5 299.248 186.478C298.455 186.368 297.865 186.154 297.478 185.835C297.09 185.511 296.896 185.078 296.896 184.536C296.896 183.894 297.129 183.397 297.594 183.046C298.059 182.695 298.722 182.52 299.583 182.52C299.879 182.52 300.182 182.545 300.492 182.595C300.807 182.64 301.128 182.713 301.456 182.813C301.552 182.7 301.652 182.615 301.757 182.561C301.866 182.506 301.987 182.479 302.119 182.479C302.306 182.479 302.447 182.538 302.543 182.656C302.643 182.77 302.693 182.943 302.693 183.176V184.017C302.693 184.213 302.643 184.365 302.543 184.475C302.443 184.579 302.301 184.632 302.119 184.632C301.932 184.632 301.611 184.47 301.155 184.146C300.704 183.818 300.251 183.654 299.795 183.654C299.439 183.654 299.164 183.714 298.968 183.832C298.772 183.946 298.674 184.105 298.674 184.311C298.674 184.63 299.084 184.844 299.904 184.953C300.141 184.98 300.328 185.003 300.465 185.021C301.495 185.172 302.201 185.397 302.584 185.698C302.971 185.994 303.165 186.437 303.165 187.024C303.165 187.713 302.91 188.246 302.399 188.624C301.894 188.998 301.174 189.185 300.239 189.185C299.875 189.185 299.524 189.16 299.187 189.109C298.849 189.064 298.523 188.995 298.209 188.904Z" fill="white"/>
<path d="M307.123 188.357V190.217H307.991C308.301 190.217 308.522 190.276 308.654 190.395C308.791 190.513 308.859 190.707 308.859 190.976C308.859 191.24 308.793 191.429 308.661 191.543C308.529 191.657 308.306 191.714 307.991 191.714H305.093C304.778 191.714 304.557 191.657 304.43 191.543C304.302 191.434 304.238 191.244 304.238 190.976C304.238 190.707 304.302 190.513 304.43 190.395C304.562 190.276 304.783 190.217 305.093 190.217H305.496V184.181H305.387C305.145 184.181 304.961 184.117 304.833 183.989C304.705 183.862 304.642 183.675 304.642 183.429C304.642 183.16 304.705 182.968 304.833 182.854C304.961 182.741 305.182 182.684 305.496 182.684H306.549C306.681 182.684 306.779 182.709 306.843 182.759C306.907 182.804 306.938 182.873 306.938 182.964V183.456C307.171 183.146 307.451 182.914 307.779 182.759C308.112 182.599 308.486 182.52 308.9 182.52C309.835 182.52 310.609 182.818 311.225 183.415C311.84 184.012 312.147 184.764 312.147 185.671C312.147 186.619 311.849 187.405 311.252 188.029C310.655 188.649 309.903 188.959 308.996 188.959C308.627 188.959 308.281 188.909 307.957 188.809C307.638 188.704 307.36 188.553 307.123 188.357ZM308.702 183.976C308.251 183.976 307.88 184.142 307.588 184.475C307.296 184.807 307.15 185.233 307.15 185.753C307.15 186.272 307.296 186.699 307.588 187.031C307.88 187.364 308.251 187.53 308.702 187.53C309.153 187.53 309.525 187.364 309.816 187.031C310.113 186.694 310.261 186.268 310.261 185.753C310.261 185.233 310.115 184.807 309.823 184.475C309.532 184.142 309.158 183.976 308.702 183.976Z" fill="white"/>
<path d="M319.619 187.503H319.729C319.975 187.503 320.161 187.569 320.289 187.701C320.421 187.829 320.487 188.013 320.487 188.255C320.487 188.519 320.419 188.711 320.282 188.829C320.15 188.943 319.929 189 319.619 189H318.977C318.749 189 318.578 188.957 318.464 188.87C318.354 188.784 318.263 188.626 318.19 188.398C317.812 188.649 317.411 188.84 316.987 188.973C316.563 189.105 316.135 189.171 315.702 189.171C314.968 189.171 314.392 188.989 313.973 188.624C313.553 188.259 313.344 187.76 313.344 187.127C313.344 186.443 313.615 185.912 314.157 185.534C314.7 185.156 315.461 184.967 316.44 184.967C316.659 184.967 316.892 184.978 317.138 185.001C317.384 185.024 317.66 185.06 317.965 185.11V184.98C317.965 184.57 317.865 184.258 317.664 184.044C317.468 183.83 317.176 183.723 316.789 183.723C316.488 183.723 316.103 183.834 315.634 184.058C315.169 184.281 314.827 184.393 314.608 184.393C314.394 184.393 314.221 184.331 314.089 184.208C313.957 184.08 313.891 183.914 313.891 183.709C313.891 183.34 314.16 183.048 314.697 182.834C315.24 182.615 315.976 182.506 316.905 182.506C317.876 182.506 318.571 182.693 318.99 183.066C319.41 183.44 319.619 184.074 319.619 184.967V187.503ZM317.965 186.184C317.737 186.133 317.527 186.097 317.336 186.074C317.145 186.047 316.967 186.033 316.803 186.033C316.301 186.033 315.907 186.118 315.62 186.286C315.338 186.455 315.196 186.687 315.196 186.983C315.196 187.248 315.287 187.451 315.47 187.592C315.652 187.729 315.914 187.797 316.256 187.797C316.57 187.797 316.867 187.751 317.145 187.66C317.423 187.569 317.696 187.428 317.965 187.236V186.184Z" fill="white"/>
<path d="M327.269 183.053C327.323 182.875 327.408 182.743 327.521 182.656C327.64 182.565 327.79 182.52 327.973 182.52C328.219 182.52 328.394 182.595 328.499 182.745C328.604 182.891 328.656 183.146 328.656 183.511V184.632C328.656 184.91 328.599 185.115 328.485 185.247C328.371 185.379 328.196 185.445 327.959 185.445C327.79 185.445 327.649 185.407 327.535 185.329C327.421 185.252 327.3 185.104 327.173 184.885C326.991 184.575 326.751 184.347 326.455 184.201C326.159 184.051 325.797 183.976 325.368 183.976C324.835 183.976 324.397 184.151 324.056 184.502C323.718 184.848 323.55 185.293 323.55 185.835C323.55 186.405 323.725 186.863 324.076 187.209C324.427 187.555 324.899 187.729 325.491 187.729C326.029 187.729 326.562 187.58 327.091 187.284C327.624 186.983 327.95 186.833 328.068 186.833C328.237 186.833 328.376 186.899 328.485 187.031C328.599 187.159 328.656 187.321 328.656 187.517C328.656 187.945 328.33 188.328 327.679 188.665C327.032 189.002 326.261 189.171 325.368 189.171C324.265 189.171 323.368 188.861 322.675 188.241C321.987 187.621 321.643 186.824 321.643 185.849C321.643 184.896 321.984 184.103 322.668 183.47C323.352 182.836 324.213 182.52 325.252 182.52C325.603 182.52 325.945 182.563 326.277 182.649C326.61 182.736 326.94 182.87 327.269 183.053Z" fill="white"/>
<path d="M331.787 186.245C331.906 186.751 332.133 187.129 332.471 187.38C332.812 187.631 333.266 187.756 333.831 187.756C334.396 187.756 334.954 187.619 335.506 187.346C336.057 187.068 336.39 186.929 336.504 186.929C336.673 186.929 336.809 186.993 336.914 187.12C337.023 187.243 337.078 187.403 337.078 187.599C337.078 188.027 336.761 188.396 336.128 188.706C335.494 189.016 334.711 189.171 333.776 189.171C332.674 189.171 331.776 188.861 331.083 188.241C330.395 187.621 330.051 186.824 330.051 185.849C330.051 184.878 330.395 184.083 331.083 183.463C331.776 182.843 332.674 182.533 333.776 182.533C334.761 182.533 335.576 182.825 336.224 183.408C336.871 183.987 337.194 184.698 337.194 185.541C337.194 185.81 337.128 185.994 336.996 186.095C336.868 186.195 336.602 186.245 336.196 186.245H331.787ZM335.472 185.179C335.394 184.755 335.194 184.427 334.87 184.194C334.551 183.962 334.134 183.846 333.619 183.846C333.122 183.846 332.721 183.957 332.416 184.181C332.115 184.399 331.906 184.732 331.787 185.179H335.472Z" fill="white"/>
<path d="M339.204 185.069H344.871C344.98 185.069 345.062 185.097 345.117 185.151C345.176 185.206 345.206 185.286 345.206 185.391V186.245C345.206 186.341 345.17 186.427 345.097 186.505C345.028 186.582 344.953 186.621 344.871 186.621H339.204C339.113 186.621 339.04 186.587 338.985 186.519C338.935 186.45 338.91 186.359 338.91 186.245V185.391C338.91 185.295 338.938 185.217 338.992 185.158C339.047 185.099 339.118 185.069 339.204 185.069Z" fill="white"/>
<path d="M352.493 183.053C352.548 182.875 352.632 182.743 352.746 182.656C352.865 182.565 353.015 182.52 353.197 182.52C353.443 182.52 353.619 182.595 353.724 182.745C353.828 182.891 353.881 183.146 353.881 183.511V184.632C353.881 184.91 353.824 185.115 353.71 185.247C353.596 185.379 353.421 185.445 353.184 185.445C353.015 185.445 352.874 185.407 352.76 185.329C352.646 185.252 352.525 185.104 352.397 184.885C352.215 184.575 351.976 184.347 351.68 184.201C351.383 184.051 351.021 183.976 350.593 183.976C350.06 183.976 349.622 184.151 349.28 184.502C348.943 184.848 348.774 185.293 348.774 185.835C348.774 186.405 348.95 186.863 349.301 187.209C349.652 187.555 350.123 187.729 350.716 187.729C351.254 187.729 351.787 187.58 352.315 187.284C352.849 186.983 353.174 186.833 353.293 186.833C353.462 186.833 353.601 186.899 353.71 187.031C353.824 187.159 353.881 187.321 353.881 187.517C353.881 187.945 353.555 188.328 352.903 188.665C352.256 189.002 351.486 189.171 350.593 189.171C349.49 189.171 348.592 188.861 347.899 188.241C347.211 187.621 346.867 186.824 346.867 185.849C346.867 184.896 347.209 184.103 347.893 183.47C348.576 182.836 349.438 182.52 350.477 182.52C350.827 182.52 351.169 182.563 351.502 182.649C351.835 182.736 352.165 182.87 352.493 183.053Z" fill="white"/>
<path d="M359.712 187.503H361.182C361.496 187.503 361.717 187.56 361.845 187.674C361.972 187.788 362.036 187.977 362.036 188.241C362.036 188.51 361.97 188.704 361.838 188.822C361.71 188.941 361.492 189 361.182 189H356.547C356.242 189 356.023 188.941 355.891 188.822C355.763 188.704 355.699 188.51 355.699 188.241C355.699 187.972 355.761 187.783 355.884 187.674C356.011 187.56 356.232 187.503 356.547 187.503H358.017V181.569H357.265C356.955 181.569 356.731 181.51 356.595 181.392C356.463 181.269 356.396 181.075 356.396 180.811C356.396 180.542 356.463 180.348 356.595 180.229C356.727 180.111 356.95 180.052 357.265 180.052H359.309C359.436 180.052 359.534 180.079 359.603 180.134C359.675 180.184 359.712 180.255 359.712 180.346V187.503Z" fill="white"/>
<path d="M368.236 187.503H369.706C370.021 187.503 370.244 187.56 370.376 187.674C370.508 187.788 370.574 187.977 370.574 188.241C370.574 188.51 370.506 188.704 370.369 188.822C370.237 188.941 370.016 189 369.706 189H365.085C364.775 189 364.552 188.941 364.415 188.822C364.283 188.704 364.217 188.51 364.217 188.241C364.217 187.977 364.281 187.788 364.408 187.674C364.54 187.56 364.766 187.503 365.085 187.503H366.555V184.181H365.782C365.477 184.181 365.258 184.124 365.126 184.01C364.994 183.891 364.928 183.698 364.928 183.429C364.928 183.16 364.992 182.968 365.119 182.854C365.247 182.741 365.468 182.684 365.782 182.684H367.84C367.967 182.684 368.065 182.711 368.134 182.766C368.202 182.816 368.236 182.886 368.236 182.978V187.503ZM367.252 179.594C367.585 179.594 367.806 179.658 367.915 179.785C368.024 179.913 368.079 180.218 368.079 180.701C368.079 181.166 368.029 181.455 367.929 181.569C367.833 181.679 367.603 181.733 367.238 181.733C366.883 181.733 366.653 181.681 366.548 181.576C366.448 181.471 366.397 181.262 366.397 180.947C366.397 180.364 366.45 179.993 366.555 179.833C366.66 179.674 366.892 179.594 367.252 179.594Z" fill="white"/>
<path d="M387.008 187.503H387.124C387.37 187.503 387.555 187.567 387.678 187.694C387.801 187.817 387.862 188 387.862 188.241C387.862 188.51 387.796 188.704 387.664 188.822C387.536 188.941 387.318 189 387.008 189H385.962C385.83 189 385.727 188.975 385.654 188.925C385.586 188.87 385.552 188.797 385.552 188.706V188.228C385.328 188.533 385.041 188.768 384.69 188.932C384.34 189.091 383.945 189.171 383.508 189.171C382.615 189.171 381.867 188.868 381.266 188.262C380.664 187.651 380.363 186.89 380.363 185.979C380.363 185.031 380.666 184.244 381.272 183.62C381.883 182.996 382.658 182.684 383.597 182.684C383.92 182.684 384.235 182.738 384.54 182.848C384.85 182.952 385.132 183.103 385.388 183.299V181.569H384.479C384.164 181.569 383.941 181.51 383.809 181.392C383.676 181.269 383.61 181.075 383.61 180.811C383.61 180.542 383.676 180.348 383.809 180.229C383.941 180.111 384.164 180.052 384.479 180.052H386.604C386.759 180.052 386.864 180.084 386.919 180.147C386.978 180.211 387.008 180.33 387.008 180.503V187.503ZM383.802 184.14C383.355 184.14 382.984 184.308 382.688 184.646C382.396 184.978 382.25 185.402 382.25 185.917C382.25 186.446 382.396 186.879 382.688 187.216C382.979 187.549 383.351 187.715 383.802 187.715C384.253 187.715 384.624 187.546 384.916 187.209C385.212 186.872 385.36 186.441 385.36 185.917C385.36 185.407 385.212 184.983 384.916 184.646C384.62 184.308 384.248 184.14 383.802 184.14Z" fill="white"/>
<path d="M390.645 186.245C390.763 186.751 390.991 187.129 391.328 187.38C391.67 187.631 392.123 187.756 392.688 187.756C393.254 187.756 393.812 187.619 394.363 187.346C394.915 187.068 395.247 186.929 395.361 186.929C395.53 186.929 395.667 186.993 395.771 187.12C395.881 187.243 395.936 187.403 395.936 187.599C395.936 188.027 395.619 188.396 394.985 188.706C394.352 189.016 393.568 189.171 392.634 189.171C391.531 189.171 390.633 188.861 389.94 188.241C389.252 187.621 388.908 186.824 388.908 185.849C388.908 184.878 389.252 184.083 389.94 183.463C390.633 182.843 391.531 182.533 392.634 182.533C393.618 182.533 394.434 182.825 395.081 183.408C395.728 183.987 396.052 184.698 396.052 185.541C396.052 185.81 395.986 185.994 395.854 186.095C395.726 186.195 395.459 186.245 395.054 186.245H390.645ZM394.329 185.179C394.252 184.755 394.051 184.427 393.728 184.194C393.409 183.962 392.992 183.846 392.477 183.846C391.98 183.846 391.579 183.957 391.273 184.181C390.973 184.399 390.763 184.732 390.645 185.179H394.329Z" fill="white"/>
<path d="M399.613 188.357V190.217H400.481C400.791 190.217 401.012 190.276 401.145 190.395C401.281 190.513 401.35 190.707 401.35 190.976C401.35 191.24 401.284 191.429 401.151 191.543C401.019 191.657 400.796 191.714 400.481 191.714H397.583C397.269 191.714 397.048 191.657 396.92 191.543C396.792 191.434 396.729 191.244 396.729 190.976C396.729 190.707 396.792 190.513 396.92 190.395C397.052 190.276 397.273 190.217 397.583 190.217H397.986V184.181H397.877C397.635 184.181 397.451 184.117 397.323 183.989C397.196 183.862 397.132 183.675 397.132 183.429C397.132 183.16 397.196 182.968 397.323 182.854C397.451 182.741 397.672 182.684 397.986 182.684H399.039C399.171 182.684 399.269 182.709 399.333 182.759C399.397 182.804 399.429 182.873 399.429 182.964V183.456C399.661 183.146 399.941 182.914 400.27 182.759C400.602 182.599 400.976 182.52 401.391 182.52C402.325 182.52 403.1 182.818 403.715 183.415C404.33 184.012 404.638 184.764 404.638 185.671C404.638 186.619 404.339 187.405 403.742 188.029C403.145 188.649 402.393 188.959 401.486 188.959C401.117 188.959 400.771 188.909 400.447 188.809C400.128 188.704 399.85 188.553 399.613 188.357ZM401.192 183.976C400.741 183.976 400.37 184.142 400.078 184.475C399.786 184.807 399.641 185.233 399.641 185.753C399.641 186.272 399.786 186.699 400.078 187.031C400.37 187.364 400.741 187.53 401.192 187.53C401.644 187.53 402.015 187.364 402.307 187.031C402.603 186.694 402.751 186.268 402.751 185.753C402.751 185.233 402.605 184.807 402.313 184.475C402.022 184.142 401.648 183.976 401.192 183.976Z" fill="white"/>
<path d="M410.161 187.503H411.631C411.945 187.503 412.166 187.56 412.294 187.674C412.422 187.788 412.485 187.977 412.485 188.241C412.485 188.51 412.419 188.704 412.287 188.822C412.16 188.941 411.941 189 411.631 189H406.996C406.691 189 406.472 188.941 406.34 188.822C406.212 188.704 406.148 188.51 406.148 188.241C406.148 187.972 406.21 187.783 406.333 187.674C406.461 187.56 406.682 187.503 406.996 187.503H408.466V181.569H407.714C407.404 181.569 407.181 181.51 407.044 181.392C406.912 181.269 406.846 181.075 406.846 180.811C406.846 180.542 406.912 180.348 407.044 180.229C407.176 180.111 407.399 180.052 407.714 180.052H409.758C409.885 180.052 409.983 180.079 410.052 180.134C410.125 180.184 410.161 180.255 410.161 180.346V187.503Z" fill="white"/>
<path d="M417.729 183.976C417.195 183.976 416.756 184.151 416.409 184.502C416.067 184.848 415.896 185.293 415.896 185.835C415.896 186.382 416.067 186.835 416.409 187.195C416.756 187.551 417.195 187.729 417.729 187.729C418.262 187.729 418.701 187.551 419.048 187.195C419.394 186.835 419.567 186.382 419.567 185.835C419.567 185.293 419.394 184.848 419.048 184.502C418.706 184.151 418.266 183.976 417.729 183.976ZM417.729 182.533C418.836 182.533 419.734 182.843 420.422 183.463C421.11 184.083 421.454 184.878 421.454 185.849C421.454 186.824 421.11 187.621 420.422 188.241C419.734 188.861 418.836 189.171 417.729 189.171C416.626 189.171 415.73 188.861 415.042 188.241C414.354 187.621 414.01 186.824 414.01 185.849C414.01 184.878 414.354 184.083 415.042 183.463C415.735 182.843 416.63 182.533 417.729 182.533Z" fill="white"/>
<path d="M424.934 184.181L426.164 187.093L427.456 184.181H427.347C427.101 184.181 426.911 184.117 426.779 183.989C426.652 183.862 426.588 183.675 426.588 183.429C426.588 183.16 426.652 182.968 426.779 182.854C426.911 182.741 427.137 182.684 427.456 182.684H429.062C429.382 182.684 429.605 182.743 429.732 182.861C429.865 182.975 429.931 183.164 429.931 183.429C429.931 183.675 429.867 183.862 429.739 183.989C429.612 184.117 429.425 184.181 429.179 184.181H429.062L426.253 190.217H426.561C426.87 190.217 427.091 190.276 427.224 190.395C427.36 190.513 427.429 190.707 427.429 190.976C427.429 191.24 427.36 191.431 427.224 191.55C427.091 191.668 426.87 191.728 426.561 191.728H423.566C423.252 191.728 423.029 191.668 422.896 191.55C422.764 191.436 422.698 191.244 422.698 190.976C422.698 190.707 422.764 190.513 422.896 190.395C423.029 190.276 423.252 190.217 423.566 190.217H424.626L425.269 188.843L423.197 184.181H423.088C422.842 184.181 422.653 184.117 422.521 183.989C422.393 183.862 422.329 183.675 422.329 183.429C422.329 183.16 422.395 182.968 422.527 182.854C422.66 182.741 422.883 182.684 423.197 182.684H424.934C425.248 182.684 425.471 182.743 425.604 182.861C425.736 182.975 425.802 183.164 425.802 183.429C425.802 183.675 425.736 183.862 425.604 183.989C425.476 184.117 425.291 184.181 425.05 184.181H424.934Z" fill="white"/>
<g filter="url(#filter0_i)">
<circle cx="53" cy="397" r="40" fill="#F52C00" fill-opacity="0.97"/>
</g>
<g clip-path="url(#clip0)">
<path d="M58.9402 382.405L57.5846 382.033C57.4102 381.975 57.2383 381.993 57.0712 382.088C56.9035 382.183 56.7903 382.325 56.7321 382.514L48.5789 410.733C48.5207 410.923 48.539 411.101 48.6337 411.269C48.7284 411.436 48.8702 411.549 49.06 411.607L50.4151 411.979C50.59 412.038 50.7613 412.02 50.9288 411.925C51.0965 411.83 51.2095 411.688 51.2676 411.499L59.421 383.279C59.4791 383.09 59.461 382.911 59.3662 382.744C59.2714 382.576 59.1297 382.463 58.9402 382.405Z" fill="white"/>
<path d="M46.7217 387.913C46.7217 387.724 46.6487 387.556 46.503 387.411L45.41 386.318C45.2643 386.172 45.0966 386.099 44.9072 386.099C44.7178 386.099 44.5501 386.172 44.4044 386.318L34.2187 396.503C34.0727 396.649 34 396.817 34 397.006C34 397.196 34.073 397.363 34.2187 397.509L44.4044 407.695C44.55 407.841 44.7174 407.913 44.9071 407.913C45.0969 407.913 45.2643 407.84 45.4099 407.695L46.5029 406.602C46.6486 406.457 46.7216 406.289 46.7216 406.099C46.7216 405.91 46.6486 405.742 46.5029 405.597L37.9127 397.006L46.503 388.416C46.6489 388.27 46.7217 388.103 46.7217 387.913Z" fill="white"/>
<path d="M73.7814 396.503L63.5954 386.317C63.4498 386.172 63.282 386.099 63.0929 386.099C62.9032 386.099 62.7361 386.172 62.5899 386.317L61.4974 387.41C61.3517 387.556 61.2791 387.723 61.2791 387.913C61.2791 388.103 61.3517 388.27 61.4974 388.416L70.0878 397.006L61.4974 405.597C61.3517 405.742 61.2791 405.91 61.2791 406.099C61.2791 406.289 61.3517 406.457 61.4974 406.602L62.5899 407.695C62.7361 407.841 62.9033 407.913 63.0929 407.913C63.2821 407.913 63.4498 407.84 63.5954 407.695L73.7814 397.509C73.9271 397.363 73.9999 397.195 73.9999 397.006C73.9999 396.816 73.9271 396.649 73.7814 396.503Z" fill="white"/>
</g>
<g filter="url(#filter1_i)">
<circle cx="53" cy="278" r="40" fill="#F9C73A"/>
</g>
<g clip-path="url(#clip1)">
<path d="M52.9577 257C42.2397 257 42.909 261.648 42.909 261.648L42.921 266.463H53.1489V267.909H38.8585C38.8585 267.909 32 267.131 32 277.946C32 288.76 37.9862 288.377 37.9862 288.377H41.5588V283.358C41.5588 283.358 41.3663 277.372 47.4495 277.372C53.5327 277.372 57.5938 277.372 57.5938 277.372C57.5938 277.372 63.2932 277.464 63.2932 271.864C63.2932 266.264 63.2932 262.604 63.2932 262.604C63.2932 262.604 64.1586 257 52.9577 257ZM47.318 260.238C48.3356 260.238 49.1581 261.061 49.1581 262.078C49.1581 263.096 48.3356 263.918 47.318 263.918C46.3004 263.918 45.4779 263.096 45.4779 262.078C45.4779 261.061 46.3004 260.238 47.318 260.238Z" fill="url(#paint0_linear)"/>
<path d="M53.2621 299C63.9802 299 63.3109 294.352 63.3109 294.352L63.2989 289.537H53.071V288.091H67.3614C67.3614 288.091 74.2199 288.869 74.2199 278.054C74.2199 267.24 68.2336 267.623 68.2336 267.623H64.661V272.641C64.661 272.641 64.8536 278.628 58.7704 278.628C52.6872 278.628 48.6261 278.628 48.6261 278.628C48.6261 278.628 42.9266 278.535 42.9266 284.136C42.9266 289.736 42.9266 293.396 42.9266 293.396C42.9266 293.396 42.0613 299 53.2621 299ZM58.9018 295.762C57.8842 295.762 57.0618 294.939 57.0618 293.922C57.0618 292.904 57.8842 292.082 58.9018 292.082C59.9194 292.082 60.7419 292.904 60.7419 293.922C60.7419 294.939 59.9194 295.762 58.9018 295.762Z" fill="url(#paint1_linear)"/>
</g>
<g filter="url(#filter2_i)">
<circle cx="53" cy="159" r="40" fill="#01ADD8"/>
</g>
<path fill-rule="evenodd" clip-rule="evenodd" d="M33.6572 155.842C33.5685 155.842 33.5463 155.797 33.5907 155.731L34.0565 155.132C34.1009 155.065 34.2118 155.021 34.3005 155.021H42.2201C42.3088 155.021 42.331 155.088 42.2867 155.154L41.9095 155.731C41.8652 155.797 41.7542 155.864 41.6877 155.864L33.6572 155.842Z" fill="white"/>
<path fill-rule="evenodd" clip-rule="evenodd" d="M30.3075 157.883C30.2188 157.883 30.1966 157.838 30.2409 157.772L30.7068 157.173C30.7512 157.106 30.8621 157.062 30.9508 157.062H41.0666C41.1553 157.062 41.1997 157.128 41.1775 157.195L41 157.727C40.9778 157.816 40.8891 157.86 40.8004 157.86L30.3075 157.883Z" fill="white"/>
<path fill-rule="evenodd" clip-rule="evenodd" d="M35.6759 159.924C35.5872 159.924 35.565 159.857 35.6094 159.79L35.92 159.236C35.9643 159.169 36.0531 159.103 36.1418 159.103H40.5785C40.6673 159.103 40.7116 159.169 40.7116 159.258L40.6673 159.79C40.6673 159.879 40.5785 159.946 40.512 159.946L35.6759 159.924Z" fill="white"/>
<path fill-rule="evenodd" clip-rule="evenodd" d="M58.7026 155.442C57.305 155.797 56.3511 156.064 54.9757 156.418C54.6429 156.507 54.6208 156.529 54.3324 156.197C53.9996 155.82 53.7556 155.576 53.2897 155.354C51.8922 154.666 50.539 154.866 49.2745 155.686C47.766 156.663 46.9896 158.104 47.0118 159.901C47.034 161.676 48.2541 163.14 50.0066 163.384C51.5151 163.584 52.7795 163.051 53.7778 161.92C53.9774 161.676 54.1549 161.41 54.3767 161.099C53.5781 161.099 52.5799 161.099 50.0953 161.099C49.6294 161.099 49.5185 160.811 49.6738 160.434C49.9622 159.746 50.4946 158.592 50.8052 158.016C50.8717 157.883 51.027 157.661 51.3598 157.661H59.4346C59.3902 158.26 59.3902 158.859 59.3015 159.458C59.0575 161.055 58.4585 162.519 57.4825 163.806C55.8852 165.913 53.8 167.222 51.1601 167.577C48.9861 167.865 46.9674 167.444 45.1927 166.113C43.5511 164.87 42.6194 163.229 42.3754 161.188C42.087 158.77 42.7969 156.596 44.261 154.688C45.836 152.625 47.9213 151.316 50.4724 150.85C52.5577 150.473 54.5542 150.717 56.3511 151.937C57.5268 152.714 58.3698 153.779 58.9244 155.065C59.0575 155.265 58.9688 155.376 58.7026 155.442Z" fill="white"/>
<path d="M66.0454 167.71C64.0266 167.666 62.1854 167.089 60.6325 165.758C59.3237 164.626 58.5029 163.184 58.2367 161.476C57.8374 158.97 58.5251 156.751 60.0336 154.777C61.653 152.647 63.6051 151.538 66.245 151.072C68.5077 150.673 70.6374 150.895 72.5673 152.204C74.3199 153.401 75.4069 155.021 75.6952 157.15C76.0724 160.145 75.2072 162.585 73.1441 164.671C71.68 166.157 69.8831 167.089 67.82 167.51C67.2211 167.621 66.6221 167.643 66.0454 167.71ZM71.3251 158.748C71.3029 158.459 71.3029 158.237 71.2585 158.016C70.8592 155.819 68.8405 154.577 66.733 155.065C64.67 155.531 63.3389 156.84 62.8509 158.925C62.4516 160.655 63.2946 162.408 64.8918 163.118C66.1119 163.65 67.332 163.584 68.5077 162.985C70.2602 162.075 71.2141 160.655 71.3251 158.748Z" fill="white"/>
<g filter="url(#filter3_i)">
<circle cx="53" cy="40" r="40" fill="#8CC84B"/>
</g>
<g clip-path="url(#clip2)">
<path d="M51.3517 19.5333C52.3886 18.9398 53.7391 18.9371 54.7751 19.5333C59.9872 22.4784 65.2008 25.4188 70.412 28.3657C71.3921 28.9178 72.0477 30.0086 72.0378 31.138V48.8566C72.0451 50.0327 71.3246 51.1496 70.2906 51.6892C65.0957 54.618 59.9035 57.5504 54.7095 60.4793C53.6511 61.0844 52.2734 61.0378 51.2482 60.3831C49.6907 59.4802 48.1306 58.5818 46.5731 57.6799C46.2548 57.4901 45.896 57.3391 45.6712 57.0305C45.8699 56.7627 46.2251 56.7294 46.5138 56.6124C47.1639 56.4057 47.761 56.0739 48.3582 55.7519C48.5092 55.6485 48.6936 55.6881 48.8384 55.7806C50.1702 56.5442 51.4902 57.33 52.8265 58.0863C53.1115 58.2509 53.4002 58.0324 53.6438 57.8966C58.7416 55.0154 63.8457 52.1451 68.9426 49.263C69.1314 49.1722 69.2358 48.9717 69.2205 48.7649C69.224 42.9199 69.2214 37.0738 69.2223 31.2288C69.2439 30.9941 69.108 30.7783 68.8958 30.6822C63.7189 27.7668 58.5447 24.8469 53.3687 21.9307C53.2791 21.8691 53.1728 21.836 53.064 21.8358C52.9552 21.8357 52.8488 21.8684 52.759 21.9298C47.583 24.8469 42.4097 27.7695 37.2337 30.6847C37.0222 30.781 36.8803 30.9932 36.9054 31.2288C36.9063 37.0738 36.9054 42.9199 36.9054 48.7657C36.8965 48.8667 36.9186 48.9679 36.969 49.0559C37.0193 49.1439 37.0954 49.2143 37.1869 49.2577C38.5682 50.0409 39.9512 50.8187 41.3333 51.5993C42.112 52.0184 43.068 52.2674 43.9259 51.9463C44.6829 51.6748 45.2136 50.9022 45.1991 50.0984C45.2063 44.2875 45.1955 38.4757 45.2045 32.6657C45.1856 32.4078 45.4303 32.1947 45.6811 32.2189C46.3447 32.2145 47.0093 32.21 47.673 32.2207C47.95 32.2145 48.1406 32.4922 48.1064 32.7521C48.1037 38.5998 48.1135 44.4476 48.1019 50.2953C48.1037 51.8538 47.4634 53.5496 46.0218 54.3121C44.2459 55.2321 42.0509 55.037 40.2964 54.1549C38.7776 53.3968 37.3281 52.5021 35.8362 51.69C34.7995 51.1533 34.0827 50.032 34.09 48.8567V31.138C34.0791 29.9852 34.7608 28.8746 35.7714 28.3305C40.9655 25.3993 46.1586 22.4659 51.3517 19.5333Z" fill="white"/>
<path d="M55.8829 31.8073C58.1482 31.6615 60.5733 31.7209 62.6118 32.8369C64.1901 33.6921 65.0651 35.4869 65.093 37.2403C65.0489 37.4769 64.8016 37.6073 64.5759 37.5911C63.9186 37.5902 63.2612 37.6 62.6039 37.5866C62.3251 37.5973 62.1631 37.3403 62.1281 37.0938C61.9392 36.2548 61.4817 35.4239 60.692 35.0192C59.4799 34.4123 58.0743 34.4429 56.7525 34.4555C55.7876 34.5068 54.7499 34.5903 53.9324 35.1578C53.3048 35.5876 53.1142 36.4553 53.3382 37.1541C53.5494 37.6559 54.1286 37.8178 54.6025 37.967C57.3325 38.681 60.2254 38.61 62.9033 39.5496C64.012 39.9327 65.0965 40.6774 65.476 41.8382C65.9724 43.394 65.7548 45.2536 64.6479 46.5026C63.7503 47.5304 62.4429 48.0898 61.139 48.3936C59.4043 48.7804 57.6041 48.7903 55.8425 48.6185C54.1861 48.4297 52.4623 47.9945 51.1835 46.8659C50.09 45.9164 49.5559 44.437 49.609 43.0091C49.6216 42.768 49.8617 42.5998 50.0927 42.6197C50.7546 42.6143 51.4164 42.6125 52.0783 42.6205C52.3427 42.6016 52.5387 42.8301 52.5522 43.0793C52.6744 43.8786 52.9748 44.7176 53.6718 45.1915C55.017 46.0594 56.7049 45.9999 58.2452 46.0242C59.5213 45.9676 60.9537 45.9505 61.9951 45.1071C62.5445 44.626 62.7073 43.8211 62.5588 43.1287C62.398 42.5441 61.7864 42.2717 61.2613 42.0936C58.5663 41.2411 55.641 41.5504 52.9721 40.5864C51.8886 40.2034 50.8408 39.4795 50.4245 38.3663C49.8437 36.7909 50.1098 34.8422 51.3327 33.6353C52.5251 32.4349 54.2464 31.9726 55.8829 31.8071V31.8073Z" fill="white"/>
</g>
<path d="M3.69205 454.472V458H5.28805V454.472L8.50805 448.27H6.74405L4.49005 453.044L2.23605 448.27H0.458047L3.69205 454.472ZM17.1246 454.136C17.1246 451.714 15.3886 450.16 13.1906 450.16C10.9926 450.16 9.25661 451.714 9.25661 454.136C9.25661 456.558 10.9226 458.126 13.1206 458.126C15.3326 458.126 17.1246 456.558 17.1246 454.136ZM10.8806 454.136C10.8806 452.386 11.9586 451.546 13.1626 451.546C14.3526 451.546 15.4866 452.386 15.4866 454.136C15.4866 455.886 14.3106 456.74 13.1206 456.74C11.9166 456.74 10.8806 455.886 10.8806 454.136ZM25.6883 450.286H24.0923V454.584C24.0923 455.998 23.3223 456.726 22.1463 456.726C20.9843 456.726 20.2143 455.998 20.2143 454.584V450.286H18.6323V454.822C18.6323 456.978 20.0043 458.112 21.8103 458.112C22.7203 458.112 23.5883 457.734 24.0923 457.076V458H25.6883V450.286ZM29.3901 453.94C29.3901 452.302 30.1181 451.812 31.2941 451.812H31.7001V450.16C30.6081 450.16 29.8381 450.636 29.3901 451.406V450.286H27.7941V458H29.3901V453.94ZM36.8039 448.27V458H41.6899V456.712H38.3999V448.27H36.8039ZM42.4926 454.108C42.4926 456.488 44.1026 458.126 46.1046 458.126C47.3926 458.126 48.3166 457.51 48.8066 456.852V458H50.4166V450.286H48.8066V451.406C48.3306 450.776 47.4346 450.16 46.1326 450.16C44.1026 450.16 42.4926 451.728 42.4926 454.108ZM48.8066 454.136C48.8066 455.802 47.6726 456.74 46.4686 456.74C45.2786 456.74 44.1306 455.774 44.1306 454.108C44.1306 452.442 45.2786 451.546 46.4686 451.546C47.6726 451.546 48.8066 452.484 48.8066 454.136ZM57.9869 458H59.5689V453.45C59.5689 451.294 58.2109 450.16 56.4049 450.16C55.4809 450.16 54.6269 450.538 54.1089 451.168V450.286H52.5129V458H54.1089V453.688C54.1089 452.274 54.8789 451.546 56.0549 451.546C57.2169 451.546 57.9869 452.274 57.9869 453.688V458ZM61.0727 454.108C61.0727 456.488 62.6827 458.126 64.7127 458.126C65.9727 458.126 66.8967 457.496 67.3867 456.838V458.126C67.3867 459.666 66.4627 460.422 65.2307 460.422C64.1247 460.422 63.2707 459.876 63.0327 459.078H61.4507C61.6467 460.786 63.1727 461.808 65.2307 461.808C67.6387 461.808 68.9967 460.226 68.9967 458.126V450.286H67.3867V451.406C66.9107 450.748 65.9727 450.16 64.7127 450.16C62.6827 450.16 61.0727 451.728 61.0727 454.108ZM67.3867 454.136C67.3867 455.802 66.2527 456.74 65.0487 456.74C63.8587 456.74 62.7107 455.774 62.7107 454.108C62.7107 452.442 63.8587 451.546 65.0487 451.546C66.2527 451.546 67.3867 452.484 67.3867 454.136ZM78.079 450.286H76.483V454.584C76.483 455.998 75.713 456.726 74.537 456.726C73.375 456.726 72.605 455.998 72.605 454.584V450.286H71.023V454.822C71.023 456.978 72.395 458.112 74.201 458.112C75.111 458.112 75.979 457.734 76.483 457.076V458H78.079V450.286ZM79.6528 454.108C79.6528 456.488 81.2628 458.126 83.2648 458.126C84.5528 458.126 85.4768 457.51 85.9668 456.852V458H87.5768V450.286H85.9668V451.406C85.4908 450.776 84.5948 450.16 83.2928 450.16C81.2628 450.16 79.6528 451.728 79.6528 454.108ZM85.9668 454.136C85.9668 455.802 84.8328 456.74 83.6288 456.74C82.4388 456.74 81.2908 455.774 81.2908 454.108C81.2908 452.442 82.4388 451.546 83.6288 451.546C84.8328 451.546 85.9668 452.484 85.9668 454.136ZM89.141 454.108C89.141 456.488 90.751 458.126 92.781 458.126C94.041 458.126 94.965 457.496 95.455 456.838V458.126C95.455 459.666 94.531 460.422 93.299 460.422C92.193 460.422 91.339 459.876 91.101 459.078H89.519C89.715 460.786 91.241 461.808 93.299 461.808C95.707 461.808 97.065 460.226 97.065 458.126V450.286H95.455V451.406C94.979 450.748 94.041 450.16 92.781 450.16C90.751 450.16 89.141 451.728 89.141 454.108ZM95.455 454.136C95.455 455.802 94.321 456.74 93.117 456.74C91.927 456.74 90.779 455.774 90.779 454.108C90.779 452.442 91.927 451.546 93.117 451.546C94.321 451.546 95.455 452.484 95.455 454.136ZM102.409 451.504C103.599 451.504 104.537 452.26 104.565 453.45H100.295C100.463 452.232 101.331 451.504 102.409 451.504ZM106.021 455.704H104.299C104.005 456.306 103.459 456.782 102.479 456.782C101.303 456.782 100.393 456.012 100.281 454.738H106.175C106.217 454.472 106.231 454.22 106.231 453.954C106.231 451.686 104.677 450.16 102.479 450.16C100.197 450.16 98.6293 451.714 98.6293 454.136C98.6293 456.558 100.267 458.126 102.479 458.126C104.369 458.126 105.587 457.048 106.021 455.704Z" fill="#455880"/>
<path d="M18.1138 335.75V332.572H19.8778C21.1238 332.572 21.6838 333.16 21.6838 334.168C21.6838 335.148 21.1238 335.75 19.8778 335.75H18.1138ZM23.3218 334.168C23.3218 332.586 22.1878 331.27 19.8778 331.27H16.5178V341H18.1138V337.052H19.8778C22.4118 337.052 23.3218 335.554 23.3218 334.168ZM27.8819 339.166L25.7119 333.286H23.9339L26.9719 340.874L25.4039 344.626H27.0559L31.7879 333.286H30.1359L27.8819 339.166ZM33.2444 338.858C33.2444 340.426 34.0984 341 35.4704 341H36.7304V339.67H35.7504C35.0784 339.67 34.8544 339.432 34.8544 338.858V334.588H36.7304V333.286H34.8544V331.368H33.2444V333.286H32.3344V334.588H33.2444V338.858ZM38.2014 341H39.7974V336.688C39.7974 335.274 40.5674 334.546 41.7434 334.546C42.9054 334.546 43.6754 335.274 43.6754 336.688V341H45.2574V336.45C45.2574 334.294 43.9134 333.16 42.1914 333.16C41.1974 333.16 40.3294 333.538 39.7974 334.182V330.64H38.2014V341ZM54.6432 337.136C54.6432 334.714 52.9072 333.16 50.7092 333.16C48.5112 333.16 46.7752 334.714 46.7752 337.136C46.7752 339.558 48.4412 341.126 50.6392 341.126C52.8512 341.126 54.6432 339.558 54.6432 337.136ZM48.3992 337.136C48.3992 335.386 49.4772 334.546 50.6812 334.546C51.8712 334.546 53.0052 335.386 53.0052 337.136C53.0052 338.886 51.8292 339.74 50.6392 339.74C49.4352 339.74 48.3992 338.886 48.3992 337.136ZM61.6949 341H63.2769V336.45C63.2769 334.294 61.9189 333.16 60.1129 333.16C59.1889 333.16 58.3349 333.538 57.8169 334.168V333.286H56.2209V341H57.8169V336.688C57.8169 335.274 58.5869 334.546 59.7629 334.546C60.9249 334.546 61.6949 335.274 61.6949 336.688V341ZM72.1274 331.27H68.9494V341H72.1274C75.2494 341 77.2934 339.166 77.2934 336.17C77.2934 333.16 75.2494 331.27 72.1274 331.27ZM70.5454 339.698V332.572H72.1274C74.4234 332.572 75.6554 333.944 75.6554 336.17C75.6554 338.382 74.4234 339.698 72.1274 339.698H70.5454ZM82.1232 334.504C83.3132 334.504 84.2512 335.26 84.2792 336.45H80.0092C80.1772 335.232 81.0452 334.504 82.1232 334.504ZM85.7352 338.704H84.0132C83.7192 339.306 83.1732 339.782 82.1932 339.782C81.0172 339.782 80.1072 339.012 79.9952 337.738H85.8892C85.9312 337.472 85.9452 337.22 85.9452 336.954C85.9452 334.686 84.3912 333.16 82.1932 333.16C79.9112 333.16 78.3432 334.714 78.3432 337.136C78.3432 339.558 79.9812 341.126 82.1932 341.126C84.0832 341.126 85.3012 340.048 85.7352 338.704ZM86.6058 333.286L89.5318 341H91.4358L94.3758 333.286H92.6818L90.4978 339.572L88.3138 333.286H86.6058Z" fill="#455880"/>
<path d="M32.9753 209.144C30.2313 209.144 28.0053 211.202 28.0053 214.114C28.0053 217.04 30.2313 219.084 32.9753 219.084C35.5933 219.084 37.4973 217.166 37.7913 214.912V213.666H32.4293V214.94H36.0833C35.8453 216.578 34.7393 217.642 32.9753 217.642C31.0433 217.642 29.6433 216.256 29.6433 214.114C29.6433 211.972 31.0433 210.6 32.9753 210.6C34.1373 210.6 35.0613 211.09 35.5793 212.07H37.4973C36.7553 210.166 35.0053 209.144 32.9753 209.144ZM46.7154 215.136C46.7154 212.714 44.9794 211.16 42.7814 211.16C40.5834 211.16 38.8474 212.714 38.8474 215.136C38.8474 217.558 40.5134 219.126 42.7114 219.126C44.9234 219.126 46.7154 217.558 46.7154 215.136ZM40.4714 215.136C40.4714 213.386 41.5494 212.546 42.7534 212.546C43.9434 212.546 45.0774 213.386 45.0774 215.136C45.0774 216.886 43.9014 217.74 42.7114 217.74C41.5074 217.74 40.4714 216.886 40.4714 215.136ZM55.1079 209.27H51.9299V219H55.1079C58.2299 219 60.2739 217.166 60.2739 214.17C60.2739 211.16 58.2299 209.27 55.1079 209.27ZM53.5259 217.698V210.572H55.1079C57.4039 210.572 58.6359 211.944 58.6359 214.17C58.6359 216.382 57.4039 217.698 55.1079 217.698H53.5259ZM65.1037 212.504C66.2937 212.504 67.2317 213.26 67.2597 214.45H62.9897C63.1577 213.232 64.0257 212.504 65.1037 212.504ZM68.7157 216.704H66.9937C66.6997 217.306 66.1537 217.782 65.1737 217.782C63.9977 217.782 63.0877 217.012 62.9757 215.738H68.8697C68.9117 215.472 68.9257 215.22 68.9257 214.954C68.9257 212.686 67.3717 211.16 65.1737 211.16C62.8917 211.16 61.3237 212.714 61.3237 215.136C61.3237 217.558 62.9617 219.126 65.1737 219.126C67.0637 219.126 68.2817 218.048 68.7157 216.704ZM69.5863 211.286L72.5123 219H74.4163L77.3563 211.286H75.6623L73.4783 217.572L71.2943 211.286H69.5863Z" fill="#455880"/>
<path d="M17.5642 90.256V97.508L12.7622 90.256H11.1662V100H12.7622V92.734L17.5642 100H19.1602V90.256H17.5642ZM28.6061 96.136C28.6061 93.714 26.8701 92.16 24.6721 92.16C22.4741 92.16 20.7381 93.714 20.7381 96.136C20.7381 98.558 22.4041 100.126 24.6021 100.126C26.8141 100.126 28.6061 98.558 28.6061 96.136ZM22.3621 96.136C22.3621 94.386 23.4401 93.546 24.6441 93.546C25.8341 93.546 26.9681 94.386 26.9681 96.136C26.9681 97.886 25.7921 98.74 24.6021 98.74C23.3981 98.74 22.3621 97.886 22.3621 96.136ZM29.6518 96.108C29.6518 98.488 31.2618 100.126 33.2918 100.126C34.5518 100.126 35.4758 99.538 35.9658 98.838V100H37.5758V89.64H35.9658V93.364C35.3778 92.636 34.3138 92.16 33.3058 92.16C31.2618 92.16 29.6518 93.728 29.6518 96.108ZM35.9658 96.136C35.9658 97.802 34.8318 98.74 33.6278 98.74C32.4378 98.74 31.2898 97.774 31.2898 96.108C31.2898 94.442 32.4378 93.546 33.6278 93.546C34.8318 93.546 35.9658 94.484 35.9658 96.136ZM42.9201 93.504C44.1101 93.504 45.0481 94.26 45.0761 95.45H40.8061C40.9741 94.232 41.8421 93.504 42.9201 93.504ZM46.5321 97.704H44.8101C44.5161 98.306 43.9701 98.782 42.9901 98.782C41.8141 98.782 40.9041 98.012 40.7921 96.738H46.6861C46.7281 96.472 46.7421 96.22 46.7421 95.954C46.7421 93.686 45.1881 92.16 42.9901 92.16C40.7081 92.16 39.1401 93.714 39.1401 96.136C39.1401 98.558 40.7781 100.126 42.9901 100.126C44.8801 100.126 46.0981 99.048 46.5321 97.704ZM52.0087 97.284C52.0087 98.096 51.6027 98.684 50.7487 98.684C49.8947 98.684 49.5027 98.096 49.4887 97.284H47.8787C47.8787 99.048 49.0687 100.098 50.7487 100.098C52.4287 100.098 53.6187 99.048 53.6187 97.284V90.27H52.0087V97.284ZM62.781 97.242C62.781 93.686 57.629 95.058 57.629 92.86C57.629 91.922 58.343 91.474 59.267 91.502C60.275 91.53 60.849 92.132 60.905 92.79H62.669C62.529 91.124 61.213 90.144 59.351 90.144C57.363 90.144 56.005 91.208 56.005 92.916C56.005 96.5 61.171 94.974 61.171 97.326C61.171 98.152 60.541 98.754 59.421 98.754C58.315 98.754 57.755 98.11 57.685 97.312H55.977C55.977 99.034 57.475 100.098 59.421 100.098C61.591 100.098 62.781 98.698 62.781 97.242ZM71.479 90.27H68.301V100H71.479C74.601 100 76.645 98.166 76.645 95.17C76.645 92.16 74.601 90.27 71.479 90.27ZM69.897 98.698V91.572H71.479C73.775 91.572 75.007 92.944 75.007 95.17C75.007 97.382 73.775 98.698 71.479 98.698H69.897ZM81.4748 93.504C82.6648 93.504 83.6028 94.26 83.6308 95.45H79.3608C79.5288 94.232 80.3968 93.504 81.4748 93.504ZM85.0868 97.704H83.3648C83.0708 98.306 82.5248 98.782 81.5448 98.782C80.3688 98.782 79.4588 98.012 79.3468 96.738H85.2408C85.2828 96.472 85.2968 96.22 85.2968 95.954C85.2968 93.686 83.7428 92.16 81.5448 92.16C79.2628 92.16 77.6948 93.714 77.6948 96.136C77.6948 98.558 79.3328 100.126 81.5448 100.126C83.4348 100.126 84.6528 99.048 85.0868 97.704ZM85.9574 92.286L88.8834 100H90.7874L93.7274 92.286H92.0334L89.8494 98.572L87.6654 92.286H85.9574Z" fill="#455880"/>
<rect x="629" y="93" width="454" height="250" rx="14" fill="url(#paint2_radial)"/>
<g filter="url(#filter4_d)">
<rect x="648" y="109" width="112" height="221" rx="8" fill="white"/>
</g>
<path d="M687.298 277.848C687.298 273.784 681.41 275.352 681.41 272.84C681.41 271.768 682.226 271.256 683.282 271.288C684.434 271.32 685.09 272.008 685.154 272.76H687.17C687.01 270.856 685.506 269.736 683.378 269.736C681.106 269.736 679.554 270.952 679.554 272.904C679.554 277 685.458 275.256 685.458 277.944C685.458 278.888 684.738 279.576 683.458 279.576C682.194 279.576 681.554 278.84 681.474 277.928H679.522C679.522 279.896 681.234 281.112 683.458 281.112C685.938 281.112 687.298 279.512 687.298 277.848ZM691.274 273.48V272.184H689.45V285.192H691.274V279.72C691.85 280.408 692.89 281.144 694.346 281.144C696.666 281.144 698.49 279.272 698.49 276.552C698.49 273.832 696.666 272.04 694.346 272.04C692.906 272.04 691.834 272.744 691.274 273.48ZM696.634 276.552C696.634 278.456 695.322 279.56 693.946 279.56C692.586 279.56 691.274 278.488 691.274 276.584C691.274 274.696 692.586 273.624 693.946 273.624C695.322 273.624 696.634 274.648 696.634 276.552ZM699.686 276.552C699.686 279.272 701.526 281.144 703.814 281.144C705.286 281.144 706.342 280.44 706.902 279.688V281H708.742V272.184H706.902V273.464C706.358 272.744 705.334 272.04 703.846 272.04C701.526 272.04 699.686 273.832 699.686 276.552ZM706.902 276.584C706.902 278.488 705.606 279.56 704.23 279.56C702.87 279.56 701.558 278.456 701.558 276.552C701.558 274.648 702.87 273.624 704.23 273.624C705.606 273.624 706.902 274.696 706.902 276.584ZM710.53 276.584C710.53 279.352 712.322 281.144 714.85 281.144C717.01 281.144 718.418 279.944 718.914 278.216H716.946C716.61 279.128 715.938 279.608 714.85 279.608C713.378 279.608 712.402 278.52 712.402 276.584C712.402 274.664 713.378 273.576 714.85 273.576C715.938 273.576 716.642 274.12 716.946 274.968H718.914C718.418 273.112 717.01 272.04 714.85 272.04C712.322 272.04 710.53 273.832 710.53 276.584ZM724.443 273.576C725.803 273.576 726.875 274.44 726.907 275.8H722.027C722.219 274.408 723.211 273.576 724.443 273.576ZM728.571 278.376H726.603C726.267 279.064 725.643 279.608 724.523 279.608C723.179 279.608 722.139 278.728 722.011 277.272H728.747C728.795 276.968 728.811 276.68 728.811 276.376C728.811 273.784 727.035 272.04 724.523 272.04C721.915 272.04 720.123 273.816 720.123 276.584C720.123 279.352 721.995 281.144 724.523 281.144C726.683 281.144 728.075 279.912 728.571 278.376ZM680.576 303.416C680.576 306.76 683.12 309.096 686.256 309.096C688.576 309.096 690.576 307.944 691.424 305.768H689.232C688.64 306.952 687.584 307.512 686.256 307.512C684.048 307.512 682.448 305.928 682.448 303.416C682.448 300.904 684.048 299.336 686.256 299.336C687.584 299.336 688.64 299.896 689.232 301.08H691.424C690.576 298.904 688.576 297.736 686.256 297.736C683.12 297.736 680.576 300.088 680.576 303.416ZM693.559 309H695.383V297.16H693.559V309ZM706.178 304.584C706.178 301.816 704.194 300.04 701.682 300.04C699.17 300.04 697.186 301.816 697.186 304.584C697.186 307.352 699.09 309.144 701.602 309.144C704.13 309.144 706.178 307.352 706.178 304.584ZM699.042 304.584C699.042 302.584 700.274 301.624 701.65 301.624C703.01 301.624 704.306 302.584 704.306 304.584C704.306 306.584 702.962 307.56 701.602 307.56C700.226 307.56 699.042 306.584 699.042 304.584ZM715.965 300.184H714.141V305.096C714.141 306.712 713.261 307.544 711.917 307.544C710.589 307.544 709.709 306.712 709.709 305.096V300.184H707.901V305.368C707.901 307.832 709.469 309.128 711.533 309.128C712.573 309.128 713.565 308.696 714.141 307.944V309H715.965V300.184ZM717.764 304.552C717.764 307.272 719.604 309.144 721.924 309.144C723.364 309.144 724.42 308.472 724.98 307.672V309H726.82V297.16H724.98V301.416C724.308 300.584 723.092 300.04 721.94 300.04C719.604 300.04 717.764 301.832 717.764 304.552ZM724.98 304.584C724.98 306.488 723.684 307.56 722.308 307.56C720.948 307.56 719.636 306.456 719.636 304.552C719.636 302.648 720.948 301.624 722.308 301.624C723.684 301.624 724.98 302.696 724.98 304.584Z" fill="#455880"/>
<path d="M704 230C721.673 230 736 215.673 736 198C736 180.327 721.673 166 704 166C686.327 166 672 180.327 672 198C672 215.673 686.327 230 704 230Z" fill="#1D66FF"/>
<path fill-rule="evenodd" clip-rule="evenodd" d="M722.203 193.625C722.203 196.546 719.835 198.914 716.913 198.914H714.971V204.733H716.913C719.835 204.733 722.203 207.101 722.203 210.022C722.203 210.314 721.966 210.551 721.674 210.551H714.639H705.579C705.12 210.551 704.748 210.179 704.748 209.72V205.065V198.582V193.927C704.748 193.468 705.12 193.096 705.579 193.096H714.639H721.674C721.966 193.096 722.203 193.333 722.203 193.625Z" fill="white"/>
<path fill-rule="evenodd" clip-rule="evenodd" d="M702.557 193.096C702.849 193.096 703.086 193.333 703.086 193.625V205.065V210.218C703.086 210.402 702.937 210.551 702.753 210.551H697.6H686.16C685.868 210.551 685.631 210.314 685.631 210.022C685.631 207.101 687.999 204.733 690.92 204.733H691.2C694.551 204.733 697.268 202.016 697.268 198.665V198.385C697.268 195.464 699.636 193.096 702.557 193.096Z" fill="white"/>
<path fill-rule="evenodd" clip-rule="evenodd" d="M707.325 185.978C707.325 188.9 704.957 191.268 702.035 191.268H701.756C698.406 191.268 695.691 193.981 695.688 197.33V197.615C695.688 200.536 693.32 202.904 690.399 202.904C690.107 202.904 689.87 202.667 689.87 202.375V190.935V186.281C689.87 185.822 690.242 185.449 690.701 185.449H695.356H706.796C707.088 185.449 707.325 185.686 707.325 185.978Z" fill="white"/>
<path d="M710.816 201.823C710.816 200.217 712.118 198.914 713.725 198.914H716.717V204.733H713.725C712.118 204.733 710.816 203.43 710.816 201.823Z" fill="#1D66FF"/>
<g filter="url(#filter5_d)">
<rect x="778" y="109" width="112" height="221" rx="8" fill="white"/>
</g>
<path d="M795.32 211H797.704L792.792 205.448L797.624 199.88H795.336L791.016 204.952V199.88H789.192V211H791.016V206.024L795.32 211ZM807.301 202.184H805.477V207.096C805.477 208.712 804.597 209.544 803.253 209.544C801.925 209.544 801.045 208.712 801.045 207.096V202.184H799.237V207.368C799.237 209.832 800.805 211.128 802.869 211.128C803.909 211.128 804.901 210.696 805.477 209.944V211H807.301V202.184ZM811.532 203.496V199.16H809.708V211H811.532V209.72C812.108 210.488 813.148 211.144 814.604 211.144C816.924 211.144 818.748 209.272 818.748 206.552C818.748 203.832 816.94 202.04 814.604 202.04C813.212 202.04 812.108 202.696 811.532 203.496ZM816.892 206.552C816.892 208.456 815.58 209.56 814.204 209.56C812.844 209.56 811.532 208.488 811.532 206.584C811.532 204.696 812.844 203.624 814.204 203.624C815.58 203.624 816.892 204.648 816.892 206.552ZM824.264 203.576C825.624 203.576 826.696 204.44 826.728 205.8H821.848C822.04 204.408 823.032 203.576 824.264 203.576ZM828.392 208.376H826.424C826.088 209.064 825.464 209.608 824.344 209.608C823 209.608 821.96 208.728 821.832 207.272H828.568C828.616 206.968 828.632 206.68 828.632 206.376C828.632 203.784 826.856 202.04 824.344 202.04C821.736 202.04 819.944 203.816 819.944 206.584C819.944 209.352 821.816 211.144 824.344 211.144C826.504 211.144 827.896 209.912 828.392 208.376ZM832.251 206.36C832.251 204.488 833.083 203.928 834.427 203.928H834.891V202.04C833.643 202.04 832.763 202.584 832.251 203.464V202.184H830.427V211H832.251V206.36ZM842.823 211H844.631V205.8C844.631 203.336 843.079 202.04 841.015 202.04C839.959 202.04 838.983 202.472 838.391 203.192V202.184H836.567V211H838.391V206.072C838.391 204.456 839.271 203.624 840.615 203.624C841.943 203.624 842.823 204.456 842.823 206.072V211ZM850.67 203.576C852.03 203.576 853.102 204.44 853.134 205.8H848.254C848.446 204.408 849.438 203.576 850.67 203.576ZM854.798 208.376H852.83C852.494 209.064 851.87 209.608 850.75 209.608C849.406 209.608 848.366 208.728 848.238 207.272H854.974C855.022 206.968 855.038 206.68 855.038 206.376C855.038 203.784 853.262 202.04 850.75 202.04C848.142 202.04 846.35 203.816 846.35 206.584C846.35 209.352 848.222 211.144 850.75 211.144C852.91 211.144 854.302 209.912 854.798 208.376ZM857.121 208.552C857.121 210.344 858.097 211 859.665 211H861.105V209.48H859.985C859.217 209.48 858.961 209.208 858.961 208.552V203.672H861.105V202.184H858.961V199.992H857.121V202.184H856.081V203.672H857.121V208.552ZM866.498 203.576C867.858 203.576 868.93 204.44 868.962 205.8H864.082C864.274 204.408 865.266 203.576 866.498 203.576ZM870.626 208.376H868.658C868.322 209.064 867.698 209.608 866.578 209.608C865.234 209.608 864.194 208.728 864.066 207.272H870.802C870.85 206.968 870.866 206.68 870.866 206.376C870.866 203.784 869.09 202.04 866.578 202.04C863.97 202.04 862.178 203.816 862.178 206.584C862.178 209.352 864.05 211.144 866.578 211.144C868.738 211.144 870.13 209.912 870.626 208.376ZM879.237 208.536C879.141 205.352 874.165 206.344 874.165 204.568C874.165 203.976 874.677 203.576 875.653 203.576C876.645 203.576 877.237 204.104 877.301 204.872H879.125C879.029 203.112 877.717 202.04 875.717 202.04C873.637 202.04 872.325 203.176 872.325 204.584C872.325 207.816 877.445 206.824 877.445 208.552C877.445 209.16 876.885 209.608 875.829 209.608C874.821 209.608 874.133 209.016 874.069 208.296H872.181C872.261 209.896 873.749 211.144 875.861 211.144C877.941 211.144 879.237 210.024 879.237 208.536Z" fill="#455880"/>
<g clip-path="url(#clip3)">
<path d="M822.521 184.234C821.035 184.234 819.631 183.573 818.681 182.376L804.23 164.414C803.28 163.217 802.908 161.689 803.28 160.203L808.441 137.782C808.772 136.296 809.763 135.098 811.125 134.437L832.018 124.445C832.679 124.115 833.422 123.95 834.165 123.95C834.908 123.95 835.652 124.115 836.312 124.445L857.205 134.396C858.568 135.057 859.559 136.254 859.889 137.741L865.05 160.161C865.381 161.648 865.05 163.176 864.101 164.373L849.649 182.334C848.699 183.491 847.295 184.193 845.809 184.193L822.521 184.234Z" fill="#326DE6"/>
<path d="M855.058 158.634C855.017 158.634 855.017 158.634 855.058 158.634H855.017C854.976 158.634 854.934 158.634 854.934 158.592C854.852 158.592 854.769 158.551 854.686 158.551C854.397 158.51 854.15 158.468 853.902 158.468C853.778 158.468 853.654 158.468 853.489 158.427H853.448C852.581 158.345 851.879 158.262 851.218 158.055C850.929 157.932 850.846 157.766 850.764 157.601C850.764 157.56 850.723 157.56 850.723 157.519L850.186 157.354C850.434 155.454 850.351 153.472 849.897 151.532C849.443 149.591 848.658 147.774 847.585 146.123L847.997 145.751V145.668C847.997 145.462 848.039 145.255 848.204 145.049C848.699 144.595 849.319 144.223 850.062 143.769C850.186 143.686 850.31 143.645 850.434 143.563C850.681 143.439 850.888 143.315 851.136 143.15C851.177 143.108 851.259 143.067 851.342 142.985C851.383 142.943 851.425 142.943 851.425 142.902C852.003 142.406 852.126 141.581 851.714 141.044C851.507 140.755 851.136 140.59 850.764 140.59C850.434 140.59 850.145 140.714 849.856 140.92C849.814 140.961 849.814 140.961 849.773 141.003C849.69 141.044 849.649 141.126 849.566 141.168C849.36 141.374 849.195 141.539 849.03 141.746C848.947 141.828 848.865 141.952 848.741 142.035C848.163 142.654 847.626 143.15 847.089 143.521C846.965 143.604 846.841 143.645 846.717 143.645C846.635 143.645 846.552 143.645 846.47 143.604H846.387L845.892 143.934C845.355 143.356 844.777 142.861 844.199 142.365C841.721 140.425 838.707 139.227 835.569 138.938L835.528 138.401C835.486 138.36 835.486 138.36 835.445 138.319C835.321 138.195 835.156 138.071 835.115 137.782C835.074 137.121 835.156 136.378 835.239 135.552V135.511C835.239 135.387 835.28 135.222 835.321 135.098C835.363 134.85 835.404 134.603 835.445 134.314V134.066V133.942C835.445 133.199 834.867 132.579 834.165 132.579C833.835 132.579 833.505 132.745 833.257 132.992C833.009 133.24 832.885 133.57 832.885 133.942V134.025V134.272C832.885 134.561 832.926 134.809 833.009 135.057C833.05 135.181 833.05 135.305 833.092 135.47V135.511C833.174 136.337 833.298 137.08 833.216 137.741C833.174 138.03 833.009 138.154 832.885 138.277C832.844 138.319 832.844 138.319 832.803 138.36L832.761 138.897C832.018 138.979 831.275 139.062 830.532 139.227C827.352 139.929 824.545 141.539 822.356 143.852L821.943 143.563H821.861C821.778 143.563 821.696 143.604 821.613 143.604C821.489 143.604 821.365 143.563 821.241 143.48C820.705 143.108 820.168 142.572 819.59 141.952C819.507 141.87 819.425 141.746 819.301 141.663C819.136 141.457 818.97 141.292 818.764 141.085C818.723 141.044 818.64 141.003 818.557 140.92C818.516 140.879 818.475 140.879 818.475 140.837C818.227 140.631 817.897 140.507 817.566 140.507C817.195 140.507 816.823 140.672 816.617 140.961C816.204 141.498 816.328 142.324 816.906 142.819C816.947 142.819 816.947 142.861 816.988 142.861C817.071 142.902 817.112 142.985 817.195 143.026C817.443 143.191 817.649 143.315 817.897 143.439C818.021 143.48 818.145 143.563 818.268 143.645C819.012 144.099 819.631 144.471 820.126 144.925C820.333 145.132 820.333 145.338 820.333 145.545V145.627L820.746 145.999C820.663 146.123 820.581 146.205 820.539 146.329C818.475 149.591 817.69 153.431 818.227 157.23L817.69 157.395C817.69 157.436 817.649 157.436 817.649 157.477C817.566 157.643 817.443 157.808 817.195 157.932C816.576 158.138 815.832 158.221 814.965 158.303H814.924C814.8 158.303 814.635 158.303 814.511 158.345C814.263 158.345 814.016 158.386 813.726 158.427C813.644 158.427 813.561 158.468 813.479 158.468C813.437 158.468 813.396 158.468 813.355 158.51C812.612 158.675 812.157 159.377 812.281 160.037C812.405 160.615 812.942 160.987 813.603 160.987C813.726 160.987 813.809 160.987 813.933 160.946C813.974 160.946 814.016 160.946 814.016 160.905C814.098 160.905 814.181 160.863 814.263 160.863C814.552 160.781 814.759 160.698 815.006 160.574C815.13 160.533 815.254 160.45 815.378 160.409H815.419C816.204 160.12 816.906 159.872 817.566 159.79H817.649C817.897 159.79 818.062 159.914 818.186 159.996C818.227 159.996 818.227 160.037 818.268 160.037L818.846 159.955C819.837 163.01 821.737 165.735 824.256 167.717C824.834 168.172 825.412 168.543 826.031 168.915L825.783 169.452C825.783 169.493 825.825 169.493 825.825 169.534C825.907 169.699 825.99 169.906 825.907 170.195C825.659 170.814 825.288 171.434 824.834 172.135V172.177C824.751 172.301 824.668 172.383 824.586 172.507C824.421 172.714 824.297 172.92 824.132 173.168C824.09 173.209 824.049 173.292 824.008 173.374C824.008 173.415 823.966 173.457 823.966 173.457C823.636 174.159 823.884 174.943 824.503 175.232C824.668 175.315 824.834 175.356 824.999 175.356C825.494 175.356 825.99 175.026 826.237 174.572C826.237 174.53 826.279 174.489 826.279 174.489C826.32 174.406 826.361 174.324 826.403 174.283C826.526 173.994 826.568 173.787 826.65 173.539C826.692 173.415 826.733 173.292 826.774 173.168C827.063 172.342 827.27 171.681 827.641 171.103C827.806 170.855 828.013 170.814 828.178 170.732C828.219 170.732 828.219 170.732 828.261 170.69L828.55 170.154C830.366 170.855 832.348 171.227 834.33 171.227C835.528 171.227 836.766 171.103 837.923 170.814C838.666 170.649 839.368 170.443 840.07 170.195L840.317 170.649C840.359 170.649 840.359 170.649 840.4 170.69C840.606 170.732 840.772 170.814 840.937 171.062C841.267 171.64 841.515 172.342 841.804 173.126V173.168C841.845 173.292 841.886 173.415 841.928 173.539C842.01 173.787 842.052 174.035 842.176 174.283C842.217 174.365 842.258 174.406 842.299 174.489C842.299 174.53 842.341 174.572 842.341 174.572C842.588 175.067 843.084 175.356 843.579 175.356C843.745 175.356 843.91 175.315 844.075 175.232C844.364 175.067 844.612 174.819 844.694 174.489C844.777 174.159 844.777 173.787 844.612 173.457C844.612 173.415 844.57 173.415 844.57 173.374C844.529 173.292 844.488 173.209 844.446 173.168C844.323 172.92 844.157 172.714 843.992 172.507C843.91 172.383 843.827 172.301 843.745 172.177V172.135C843.29 171.434 842.877 170.814 842.671 170.195C842.588 169.906 842.671 169.741 842.712 169.534C842.712 169.493 842.754 169.493 842.754 169.452L842.547 168.956C844.736 167.676 846.594 165.859 847.997 163.63C848.741 162.474 849.319 161.194 849.732 159.914L850.227 159.996C850.268 159.996 850.268 159.955 850.31 159.955C850.475 159.872 850.599 159.748 850.846 159.748H850.929C851.59 159.831 852.292 160.079 853.076 160.368H853.117C853.241 160.409 853.365 160.492 853.489 160.533C853.737 160.657 853.943 160.739 854.232 160.822C854.315 160.822 854.397 160.863 854.48 160.863C854.521 160.863 854.563 160.863 854.604 160.905C854.728 160.946 854.81 160.946 854.934 160.946C855.554 160.946 856.09 160.533 856.256 159.996C856.256 159.501 855.801 158.84 855.058 158.634ZM835.941 156.61L834.124 157.477L832.307 156.61L831.853 154.67L833.092 153.101H835.115L836.354 154.67L835.941 156.61ZM846.717 152.316C847.048 153.72 847.13 155.124 847.006 156.486L840.689 154.67C840.111 154.505 839.781 153.926 839.905 153.348C839.946 153.183 840.028 153.018 840.152 152.894L845.148 148.394C845.85 149.55 846.387 150.871 846.717 152.316ZM843.166 145.916L837.757 149.756C837.303 150.045 836.684 149.963 836.312 149.508C836.188 149.385 836.147 149.219 836.106 149.054L835.734 142.324C838.583 142.654 841.185 143.934 843.166 145.916ZM831.192 142.53C831.646 142.448 832.059 142.365 832.514 142.283L832.142 148.889C832.101 149.467 831.646 149.963 831.027 149.963C830.862 149.963 830.656 149.921 830.532 149.839L825.04 145.916C826.733 144.223 828.839 143.067 831.192 142.53ZM823.058 148.394L827.972 152.77C828.426 153.142 828.467 153.844 828.096 154.298C827.972 154.463 827.806 154.587 827.6 154.628L821.2 156.486C820.952 153.679 821.572 150.83 823.058 148.394ZM821.943 159.583L828.508 158.468C829.045 158.427 829.541 158.799 829.665 159.335C829.706 159.583 829.706 159.79 829.623 159.996L827.105 166.066C824.792 164.579 822.934 162.308 821.943 159.583ZM837.014 167.8C836.065 168.006 835.115 168.13 834.124 168.13C832.679 168.13 831.275 167.883 829.954 167.47L833.216 161.565C833.546 161.194 834.083 161.028 834.537 161.276C834.743 161.4 834.908 161.565 835.032 161.73L838.212 167.47C837.84 167.594 837.427 167.676 837.014 167.8ZM845.066 162.061C844.034 163.712 842.671 165.034 841.102 166.066L838.501 159.831C838.377 159.335 838.583 158.799 839.079 158.551C839.244 158.468 839.45 158.427 839.657 158.427L846.263 159.542C846.016 160.45 845.603 161.276 845.066 162.061Z" fill="white"/>
<path d="M834.124 124.982C834.702 124.982 835.28 125.106 835.817 125.354L856.71 135.304C857.784 135.841 858.609 136.832 858.857 137.988L864.018 160.409C864.307 161.606 864.018 162.845 863.234 163.795L848.782 181.756C848.039 182.706 846.883 183.242 845.685 183.242H822.521C821.324 183.242 820.168 182.706 819.425 181.756L804.973 163.795C804.23 162.845 803.941 161.606 804.188 160.409L809.35 137.988C809.639 136.791 810.423 135.8 811.497 135.304L832.39 125.312C832.927 125.106 833.546 124.982 834.124 124.982ZM834.124 123.041C833.257 123.041 832.39 123.248 831.564 123.619L810.671 133.612C809.019 134.396 807.863 135.841 807.45 137.617L802.289 160.037C801.876 161.813 802.289 163.629 803.445 165.075L817.897 183.036C819.012 184.44 820.705 185.224 822.48 185.224H845.644C847.42 185.224 849.113 184.44 850.227 183.036L864.679 165.075C865.835 163.671 866.248 161.813 865.835 160.037L860.674 137.617C860.261 135.841 859.105 134.396 857.453 133.612L836.643 123.619C835.858 123.248 834.991 123.041 834.124 123.041Z" fill="white"/>
</g>
<path d="M818.63 317H820.454V305.88H818.63V317ZM829.424 314.536C829.328 311.352 824.352 312.344 824.352 310.568C824.352 309.976 824.864 309.576 825.84 309.576C826.832 309.576 827.424 310.104 827.488 310.872H829.312C829.216 309.112 827.904 308.04 825.904 308.04C823.824 308.04 822.512 309.176 822.512 310.584C822.512 313.816 827.632 312.824 827.632 314.552C827.632 315.16 827.072 315.608 826.016 315.608C825.008 315.608 824.32 315.016 824.256 314.296H822.368C822.448 315.896 823.936 317.144 826.048 317.144C828.128 317.144 829.424 316.024 829.424 314.536ZM831.683 314.552C831.683 316.344 832.659 317 834.227 317H835.667V315.48H834.547C833.779 315.48 833.523 315.208 833.523 314.552V309.672H835.667V308.184H833.523V305.992H831.683V308.184H830.643V309.672H831.683V314.552ZM837.348 317H839.172V308.184H837.348V317ZM838.276 307.016C838.916 307.016 839.428 306.504 839.428 305.848C839.428 305.192 838.916 304.68 838.276 304.68C837.62 304.68 837.108 305.192 837.108 305.848C837.108 306.504 837.62 307.016 838.276 307.016ZM849.967 312.584C849.967 309.816 847.983 308.04 845.471 308.04C842.959 308.04 840.975 309.816 840.975 312.584C840.975 315.352 842.879 317.144 845.391 317.144C847.919 317.144 849.967 315.352 849.967 312.584ZM842.831 312.584C842.831 310.584 844.063 309.624 845.439 309.624C846.799 309.624 848.095 310.584 848.095 312.584C848.095 314.584 846.751 315.56 845.391 315.56C844.015 315.56 842.831 314.584 842.831 312.584Z" fill="#455880"/>
<g clip-path="url(#clip4)">
<path d="M813 286H855.667L829 294L813 286Z" fill="#466BB0"/>
<path d="M813 283.333L829 280.667V251.333L813 283.333Z" fill="#466BB0"/>
<path d="M831.667 280.667L855.667 283.333L831.667 230V280.667Z" fill="#466BB0"/>
</g>
<g filter="url(#filter6_d)">
<rect x="908" y="109" width="157" height="221" rx="8" fill="white"/>
</g>
<g clip-path="url(#clip5)">
<path d="M971.337 140.074C971.322 140.676 971.393 141.276 971.549 141.856C971.72 142.352 971.926 142.834 972.165 143.298C972.251 143.435 972.298 143.595 972.3 143.758C972.289 143.881 972.249 143.999 972.186 144.103C972.122 144.208 972.036 144.295 971.934 144.359L970.719 145.199C970.573 145.309 970.398 145.372 970.218 145.38C969.998 145.365 969.792 145.265 969.639 145.1C969.378 144.811 969.145 144.496 968.942 144.159C968.749 143.819 968.556 143.435 968.344 142.982C967.664 143.86 966.8 144.566 965.817 145.045C964.835 145.524 963.76 145.763 962.675 145.744C961.973 145.782 961.27 145.674 960.609 145.426C959.948 145.178 959.341 144.795 958.824 144.301C958.343 143.796 957.969 143.194 957.723 142.533C957.478 141.871 957.366 141.163 957.397 140.455C957.369 139.674 957.513 138.897 957.817 138.182C958.121 137.468 958.577 136.834 959.152 136.33C960.491 135.229 962.171 134.674 963.876 134.768C964.56 134.774 965.242 134.827 965.919 134.928C966.633 135.029 967.365 135.188 968.136 135.369V133.908C968.247 132.758 967.922 131.608 967.23 130.704C966.334 129.994 965.212 129.664 964.09 129.783C963.389 129.782 962.69 129.87 962.008 130.042C961.3 130.218 960.604 130.446 959.926 130.724C959.707 130.825 959.481 130.912 959.251 130.984C959.151 131.018 959.047 131.038 958.942 131.043C958.673 131.043 958.538 130.843 958.538 130.423V129.446C958.517 129.203 958.564 128.96 958.673 128.744C958.818 128.562 959.003 128.418 959.213 128.324C959.986 127.927 960.801 127.624 961.642 127.423C962.624 127.161 963.635 127.033 964.649 127.042C966.944 127.042 968.621 127.586 969.701 128.664C970.762 129.745 971.302 131.387 971.302 133.59V140.077L971.337 140.074ZM963.508 143.118C964.185 143.109 964.856 142.987 965.495 142.755C966.202 142.501 966.834 142.059 967.326 141.474C967.637 141.105 967.862 140.666 967.982 140.192C968.115 139.622 968.179 139.037 968.175 138.45V137.61C967.59 137.462 966.998 137.348 966.401 137.269C965.8 137.19 965.194 137.149 964.588 137.148C963.57 137.065 962.556 137.348 961.715 137.949C961.396 138.23 961.144 138.585 960.98 138.984C960.816 139.384 960.745 139.818 960.771 140.252C960.728 140.637 960.769 141.027 960.892 141.393C961.014 141.759 961.214 142.092 961.477 142.367C961.74 142.642 962.059 142.852 962.411 142.981C962.762 143.111 963.137 143.156 963.508 143.115V143.118ZM978.991 145.28C978.732 145.307 978.471 145.236 978.259 145.08C978.057 144.863 977.917 144.593 977.854 144.299L973.323 128.822C973.235 128.563 973.176 128.295 973.148 128.022C973.139 127.955 973.144 127.888 973.164 127.824C973.183 127.76 973.217 127.702 973.262 127.653C973.306 127.605 973.361 127.568 973.422 127.545C973.482 127.522 973.547 127.514 973.611 127.521H975.501C975.767 127.487 976.035 127.559 976.252 127.721C976.447 127.94 976.58 128.21 976.638 128.502L979.877 141.756L982.886 128.502C982.925 128.208 983.053 127.934 983.252 127.721C983.483 127.574 983.752 127.504 984.023 127.521H985.569C985.841 127.491 986.114 127.562 986.341 127.721C986.542 127.932 986.671 128.207 986.707 128.502L989.753 141.917L993.089 128.502C993.15 128.211 993.283 127.942 993.474 127.721C993.698 127.574 993.962 127.503 994.226 127.521H996.02C996.085 127.511 996.152 127.518 996.214 127.54C996.277 127.562 996.334 127.598 996.38 127.647C996.427 127.695 996.462 127.754 996.483 127.819C996.504 127.884 996.511 127.954 996.502 128.022C996.497 128.129 996.485 128.237 996.463 128.342C996.433 128.513 996.388 128.681 996.328 128.843L991.675 144.32C991.617 144.616 991.476 144.887 991.27 145.1C991.052 145.245 990.796 145.315 990.538 145.301H988.884C988.612 145.33 988.339 145.259 988.113 145.1C987.912 144.881 987.783 144.6 987.747 144.3L984.756 131.385L981.79 144.279C981.745 144.577 981.618 144.855 981.424 145.08C981.196 145.236 980.924 145.306 980.653 145.28H978.991ZM1003.77 145.823C1002.77 145.823 1001.77 145.702 1000.8 145.461C1000.03 145.298 999.285 145.029 998.584 144.66C998.336 144.539 998.128 144.344 997.986 144.1C997.911 143.923 997.872 143.732 997.87 143.539V142.517C997.87 142.097 998.025 141.897 998.313 141.897C998.432 141.897 998.55 141.917 998.662 141.956C998.778 141.996 998.952 142.077 999.145 142.157C999.826 142.468 1000.54 142.703 1001.27 142.858C1002.02 143.017 1002.79 143.097 1003.56 143.098C1004.54 143.158 1005.52 142.929 1006.38 142.437C1006.69 142.241 1006.95 141.961 1007.12 141.627C1007.3 141.293 1007.39 140.916 1007.38 140.535C1007.38 140.277 1007.34 140.021 1007.25 139.78C1007.16 139.54 1007.03 139.32 1006.85 139.134C1006.29 138.637 1005.62 138.281 1004.91 138.093L1002.11 137.192C1000.9 136.87 999.818 136.156 999.023 135.152C998.402 134.32 998.063 133.298 998.06 132.245C998.045 131.47 998.225 130.704 998.583 130.023C998.927 129.378 999.401 128.818 999.972 128.38C1000.57 127.908 1001.25 127.555 1001.98 127.34C1002.77 127.104 1003.58 126.99 1004.4 127C1004.84 126.997 1005.27 127.023 1005.7 127.08C1006.14 127.139 1006.54 127.22 1006.95 127.3C1007.33 127.4 1007.7 127.5 1008.05 127.62C1008.33 127.711 1008.6 127.833 1008.86 127.983C1009.08 128.102 1009.28 128.273 1009.44 128.484C1009.56 128.678 1009.62 128.91 1009.61 129.144V130.08C1009.61 130.5 1009.46 130.72 1009.17 130.72C1008.91 130.69 1008.66 130.608 1008.43 130.48C1007.27 129.945 1006.01 129.679 1004.73 129.699C1003.84 129.645 1002.96 129.838 1002.17 130.26C1001.87 130.442 1001.63 130.705 1001.47 131.02C1001.31 131.335 1001.24 131.69 1001.26 132.045C1001.26 132.311 1001.3 132.575 1001.4 132.82C1001.5 133.065 1001.65 133.285 1001.84 133.466C1002.46 133.982 1003.19 134.358 1003.96 134.568L1006.7 135.469C1007.86 135.777 1008.9 136.448 1009.69 137.391C1010.28 138.197 1010.59 139.184 1010.57 140.195C1010.58 140.999 1010.41 141.794 1010.07 142.517C1009.73 143.202 1009.25 143.803 1008.66 144.279C1008.03 144.793 1007.3 145.174 1006.52 145.4C1005.63 145.685 1004.7 145.827 1003.77 145.821V145.823Z" fill="#1F2B3B"/>
<path d="M1007.41 155.552C1001.07 160.417 991.851 163 983.927 163C973.342 163.057 963.118 159.009 955.256 151.648C954.659 151.087 955.199 150.326 955.912 150.766C964.65 155.95 974.539 158.676 984.602 158.675C992.12 158.633 999.556 157.055 1006.49 154.03C1007.55 153.53 1008.45 154.751 1007.41 155.552Z" fill="#FF9A01"/>
<path d="M1010.06 152.429C1009.25 151.348 1004.7 151.908 1002.63 152.169C1002.02 152.249 1001.92 151.688 1002.48 151.268C1006.1 148.625 1012.06 149.386 1012.75 150.267C1013.45 151.168 1012.56 157.355 1009.17 160.321C1008.64 160.782 1008.15 160.542 1008.38 159.941C1009.15 157.955 1010.86 153.49 1010.06 152.429Z" fill="#FF9A01"/>
</g>
<g clip-path="url(#clip6)">
<path d="M988.848 205.218H990.667L995.852 200.034L996.107 197.827C993.136 195.206 989.547 193.385 985.677 192.537C981.807 191.689 977.785 191.841 973.99 192.979C970.195 194.118 966.754 196.205 963.99 199.044C961.226 201.882 959.232 205.378 958.195 209.202C958.773 208.965 959.413 208.927 960.014 209.093L970.384 207.383C970.384 207.383 970.912 206.509 971.184 206.564C973.406 204.125 976.476 202.626 979.767 202.376C983.057 202.125 986.319 203.142 988.884 205.218H988.848Z" fill="#EA4335"/>
<path d="M1003.24 209.201C1002.05 204.813 999.6 200.868 996.198 197.85L988.921 205.127C990.438 206.366 991.653 207.933 992.476 209.711C993.298 211.488 993.707 213.429 993.67 215.387V216.678C994.54 216.647 995.407 216.791 996.22 217.102C997.033 217.414 997.775 217.886 998.402 218.49C999.028 219.095 999.527 219.819 999.867 220.62C1000.21 221.422 1000.38 222.283 1000.38 223.154C1000.38 224.024 1000.21 224.886 999.867 225.687C999.527 226.489 999.028 227.213 998.402 227.818C997.775 228.422 997.033 228.894 996.22 229.205C995.407 229.517 994.54 229.661 993.67 229.63H980.717L979.426 230.94V238.708L980.717 239.999H993.67C997.287 240.028 1000.82 238.891 1003.74 236.758C1006.66 234.624 1008.82 231.607 1009.89 228.153C1010.96 224.698 1010.9 220.99 1009.7 217.577C1008.5 214.164 1006.23 211.227 1003.24 209.201Z" fill="#4285F4"/>
<path d="M967.746 239.932H980.699V229.558H967.746C966.824 229.557 965.912 229.359 965.074 228.976L963.253 229.54L958.032 234.724L957.577 236.543C960.505 238.754 964.077 239.943 967.746 239.927V239.932Z" fill="#34A853"/>
<path d="M967.746 206.291C964.236 206.311 960.821 207.428 957.977 209.484C955.132 211.54 953.001 214.433 951.881 217.759C950.761 221.085 950.708 224.678 951.729 228.035C952.75 231.393 954.794 234.348 957.576 236.488L965.089 228.971C964.132 228.54 963.294 227.884 962.647 227.058C962 226.233 961.563 225.262 961.374 224.23C961.185 223.198 961.249 222.135 961.561 221.134C961.873 220.132 962.424 219.221 963.166 218.479C963.907 217.737 964.818 217.187 965.82 216.875C966.822 216.563 967.884 216.498 968.916 216.688C969.948 216.877 970.919 217.314 971.745 217.961C972.57 218.608 973.227 219.446 973.657 220.403L981.172 212.891C979.594 210.83 977.562 209.162 975.233 208.017C972.904 206.872 970.341 206.281 967.746 206.291Z" fill="#FBBC05"/>
</g>
<g clip-path="url(#clip7)">
<path d="M983.986 315.819V306.747C993.831 306.747 1001.47 297.224 997.693 287.118C996.306 283.377 993.233 280.38 989.398 279.027C979.037 275.367 969.274 282.794 969.274 292.396H960C960 277.091 975.175 265.154 991.628 270.167C998.808 272.369 1004.55 277.94 1006.78 284.943C1011.92 301.018 999.705 315.819 983.986 315.819Z" fill="#0080FF"/>
<path d="M984.014 306.774H974.767V297.755H984.014V306.774Z" fill="#0080FF"/>
<path d="M974.767 313.724H967.642V306.774H974.767V313.724Z" fill="#0080FF"/>
<path d="M967.642 306.774H961.686V300.964H967.642V306.774Z" fill="#0080FF"/>
</g>
<defs>
<filter id="filter0_i" x="13" y="357" width="80" height="80" filterUnits="userSpaceOnUse" color-interpolation-filters="sRGB">
<feFlood flood-opacity="0" result="BackgroundImageFix"/>
<feBlend mode="normal" in="SourceGraphic" in2="BackgroundImageFix" result="shape"/>
<feColorMatrix in="SourceAlpha" type="matrix" values="0 0 0 0 0 0 0 0 0 0 0 0 0 0 0 0 0 0 127 0" result="hardAlpha"/>
<feOffset/>
<feGaussianBlur stdDeviation="4"/>
<feComposite in2="hardAlpha" operator="arithmetic" k2="-1" k3="1"/>
<feColorMatrix type="matrix" values="0 0 0 0 0.223529 0 0 0 0 0.196078 0 0 0 0 0.196078 0 0 0 0.32 0"/>
<feBlend mode="normal" in2="shape" result="effect1_innerShadow"/>
</filter>
<filter id="filter1_i" x="13" y="238" width="80" height="80" filterUnits="userSpaceOnUse" color-interpolation-filters="sRGB">
<feFlood flood-opacity="0" result="BackgroundImageFix"/>
<feBlend mode="normal" in="SourceGraphic" in2="BackgroundImageFix" result="shape"/>
<feColorMatrix in="SourceAlpha" type="matrix" values="0 0 0 0 0 0 0 0 0 0 0 0 0 0 0 0 0 0 127 0" result="hardAlpha"/>
<feOffset/>
<feGaussianBlur stdDeviation="4"/>
<feComposite in2="hardAlpha" operator="arithmetic" k2="-1" k3="1"/>
<feColorMatrix type="matrix" values="0 0 0 0 0.223529 0 0 0 0 0.196078 0 0 0 0 0.196078 0 0 0 0.32 0"/>
<feBlend mode="normal" in2="shape" result="effect1_innerShadow"/>
</filter>
<filter id="filter2_i" x="13" y="119" width="80" height="80" filterUnits="userSpaceOnUse" color-interpolation-filters="sRGB">
<feFlood flood-opacity="0" result="BackgroundImageFix"/>
<feBlend mode="normal" in="SourceGraphic" in2="BackgroundImageFix" result="shape"/>
<feColorMatrix in="SourceAlpha" type="matrix" values="0 0 0 0 0 0 0 0 0 0 0 0 0 0 0 0 0 0 127 0" result="hardAlpha"/>
<feOffset/>
<feGaussianBlur stdDeviation="4"/>
<feComposite in2="hardAlpha" operator="arithmetic" k2="-1" k3="1"/>
<feColorMatrix type="matrix" values="0 0 0 0 0.223529 0 0 0 0 0.196078 0 0 0 0 0.196078 0 0 0 0.32 0"/>
<feBlend mode="normal" in2="shape" result="effect1_innerShadow"/>
</filter>
<filter id="filter3_i" x="13" y="0" width="80" height="80" filterUnits="userSpaceOnUse" color-interpolation-filters="sRGB">
<feFlood flood-opacity="0" result="BackgroundImageFix"/>
<feBlend mode="normal" in="SourceGraphic" in2="BackgroundImageFix" result="shape"/>
<feColorMatrix in="SourceAlpha" type="matrix" values="0 0 0 0 0 0 0 0 0 0 0 0 0 0 0 0 0 0 127 0" result="hardAlpha"/>
<feOffset/>
<feGaussianBlur stdDeviation="4"/>
<feComposite in2="hardAlpha" operator="arithmetic" k2="-1" k3="1"/>
<feColorMatrix type="matrix" values="0 0 0 0 0.223529 0 0 0 0 0.196078 0 0 0 0 0.196078 0 0 0 0.32 0"/>
<feBlend mode="normal" in2="shape" result="effect1_innerShadow"/>
</filter>
<filter id="filter4_d" x="643" y="104" width="122" height="231" filterUnits="userSpaceOnUse" color-interpolation-filters="sRGB">
<feFlood flood-opacity="0" result="BackgroundImageFix"/>
<feColorMatrix in="SourceAlpha" type="matrix" values="0 0 0 0 0 0 0 0 0 0 0 0 0 0 0 0 0 0 127 0"/>
<feOffset/>
<feGaussianBlur stdDeviation="2.5"/>
<feColorMatrix type="matrix" values="0 0 0 0 0.695833 0 0 0 0 0.681337 0 0 0 0 0.681337 0 0 0 0.25 0"/>
<feBlend mode="normal" in2="BackgroundImageFix" result="effect1_dropShadow"/>
<feBlend mode="normal" in="SourceGraphic" in2="effect1_dropShadow" result="shape"/>
</filter>
<filter id="filter5_d" x="774" y="105" width="120" height="229" filterUnits="userSpaceOnUse" color-interpolation-filters="sRGB">
<feFlood flood-opacity="0" result="BackgroundImageFix"/>
<feColorMatrix in="SourceAlpha" type="matrix" values="0 0 0 0 0 0 0 0 0 0 0 0 0 0 0 0 0 0 127 0"/>
<feOffset/>
<feGaussianBlur stdDeviation="2"/>
<feColorMatrix type="matrix" values="0 0 0 0 0.694118 0 0 0 0 0.682353 0 0 0 0 0.682353 0 0 0 0.25 0"/>
<feBlend mode="normal" in2="BackgroundImageFix" result="effect1_dropShadow"/>
<feBlend mode="normal" in="SourceGraphic" in2="effect1_dropShadow" result="shape"/>
</filter>
<filter id="filter6_d" x="904" y="105" width="165" height="229" filterUnits="userSpaceOnUse" color-interpolation-filters="sRGB">
<feFlood flood-opacity="0" result="BackgroundImageFix"/>
<feColorMatrix in="SourceAlpha" type="matrix" values="0 0 0 0 0 0 0 0 0 0 0 0 0 0 0 0 0 0 127 0"/>
<feOffset/>
<feGaussianBlur stdDeviation="2"/>
<feColorMatrix type="matrix" values="0 0 0 0 0.694118 0 0 0 0 0.682353 0 0 0 0 0.682353 0 0 0 0.25 0"/>
<feBlend mode="normal" in2="BackgroundImageFix" result="effect1_dropShadow"/>
<feBlend mode="normal" in="SourceGraphic" in2="effect1_dropShadow" result="shape"/>
</filter>
<linearGradient id="paint0_linear" x1="36.0574" y1="260.671" x2="56.9339" y2="281.617" gradientUnits="userSpaceOnUse">
<stop stop-color="white"/>
<stop offset="0.0001" stop-color="white"/>
</linearGradient>
<linearGradient id="paint1_linear" x1="48.8997" y1="273.996" x2="71.3212" y2="295.477" gradientUnits="userSpaceOnUse">
<stop stop-color="white"/>
<stop offset="1" stop-color="white"/>
</linearGradient>
<radialGradient id="paint2_radial" cx="0" cy="0" r="1" gradientUnits="userSpaceOnUse" gradientTransform="translate(1045.5 282) rotate(-156.33) scale(407.261 739.585)">
<stop stop-color="#E8E8E8"/>
<stop offset="1" stop-color="#EEEEEE"/>
</radialGradient>
<clipPath id="clip0">
<rect width="39.9999" height="40.0128" fill="white" transform="translate(34 377)"/>
</clipPath>
<clipPath id="clip1">
<rect width="42.2199" height="42" fill="white" transform="translate(32 257)"/>
</clipPath>
<clipPath id="clip2">
<rect width="38.136" height="42" fill="white" transform="translate(34 19)"/>
</clipPath>
<clipPath id="clip3">
<rect width="64" height="62.25" fill="white" transform="translate(802 123)"/>
</clipPath>
<clipPath id="clip4">
<rect width="42.6667" height="64" fill="white" transform="translate(813 230)"/>
</clipPath>
<clipPath id="clip5">
<rect width="57.971" height="36" fill="white" transform="translate(955 127)"/>
</clipPath>
<clipPath id="clip6">
<rect width="59.6472" height="48" fill="white" transform="translate(951 192)"/>
</clipPath>
<clipPath id="clip7">
<rect width="47.9728" height="46.8191" fill="white" transform="translate(960 269)"/>
</clipPath>
</defs>
</svg>
