<svg width="144" height="144" viewBox="0 0 144 144" fill="none" xmlns="http://www.w3.org/2000/svg">
<g clip-path="url(#clip0)">
<path d="M21.48 127.176H107.034L102.948 113.946L112.722 122.334L121.68 130.362L138 144V14.85C137.592 6.822 130.68 0 122.112 0L21.51 0.018C12.948 0.018 6 6.852 6 14.88V112.32C6 120.786 12.936 127.176 21.48 127.176ZM84.768 34.098L84.57 34.17L84.642 34.098H84.768ZM38.982 41.712C49.98 33.708 60.174 34.092 60.174 34.092L60.996 34.902C47.538 38.112 41.436 44.124 41.436 44.124C41.436 44.124 43.068 43.326 45.918 42.108C64.044 34.98 83.838 35.496 102.162 44.52C102.162 44.52 96.048 38.898 83.418 35.298L84.534 34.2C86.28 34.206 95.52 34.53 105.408 41.76C105.408 41.76 116.472 60.66 116.472 83.88C116.106 83.436 109.608 93.876 92.886 94.236C92.886 94.236 90.054 91.032 88.038 88.236C97.818 85.428 101.478 79.812 101.478 79.812C98.268 81.834 95.34 83.034 92.964 84.234C89.31 85.842 85.65 86.634 81.996 87.444C64.692 90.252 54.978 85.554 45.798 81.828L42.66 80.232C42.66 80.232 46.314 85.848 55.704 88.656C53.238 91.47 50.796 94.668 50.796 94.668C34.08 94.272 27.984 83.832 27.984 83.832C27.984 60.576 38.982 41.712 38.982 41.712Z" fill="#1253DC"/>
<path d="M85.8483 76.63C90.1143 76.63 93.5883 73.0301 93.5883 68.5901C93.5883 64.1801 90.1323 60.5801 85.8483 60.5801V60.5981C81.6003 60.5981 78.1203 64.1861 78.1083 68.6261C78.1083 73.0301 81.5823 76.63 85.8483 76.63Z" fill="#1253DC"/>
<path d="M58.1401 76.63C62.4061 76.63 65.8801 73.0301 65.8801 68.5901C65.8801 64.1801 62.4301 60.5801 58.1641 60.5801L58.1401 60.5981C53.8741 60.5981 50.4001 64.1861 50.4001 68.6261C50.4001 73.0301 53.8741 76.63 58.1401 76.63Z" fill="#1253DC"/>
</g>
<defs>
<clipPath id="clip0">
<rect width="144" height="144" fill="white"/>
</clipPath>
</defs>
</svg>
