<svg width="39" height="48" viewBox="0 0 39 48" fill="none" xmlns="http://www.w3.org/2000/svg">
<path d="M33.5209 0H10.2425C7.35597 0 5.02813 2.32784 4.98157 5.21435C2.18817 5.35403 0 7.68186 0 10.4753V42.7391C0 45.6256 2.37439 48 5.26091 48H28.5393C31.4258 48 33.7537 45.6722 33.8002 42.7856C36.5936 42.646 38.7818 40.3181 38.7818 37.5247V5.30747C38.8283 2.37439 36.4539 0 33.5209 0ZM32.0776 42.7391C32.0776 44.6945 30.4947 46.2774 28.5393 46.2774H5.26091C3.30553 46.2774 1.76916 44.6945 1.76916 42.7856V10.4753C1.76916 8.51988 3.35209 6.98351 5.26091 6.98351H24.0698V15.0844C24.0698 15.55 24.4423 15.969 24.9544 15.969H32.0776V42.7391ZM25.839 14.1998V8.38021L31.0068 14.1998H25.839ZM33.8468 41.063V15.0844C33.8468 14.9913 33.8002 14.8516 33.8002 14.7585C33.8002 14.7119 33.7536 14.6654 33.7536 14.6654C33.7071 14.6188 33.7071 14.5723 33.6605 14.5257L25.6062 5.4937C25.5597 5.44714 25.4665 5.40058 25.3734 5.35403C25.3269 5.35403 25.3269 5.30747 25.2803 5.30747C25.1872 5.26091 25.0475 5.21435 24.9079 5.21435H6.75073C6.79729 3.30553 8.33366 1.76916 10.2425 1.76916H33.5209C35.4762 1.76916 37.0126 3.35209 37.0126 5.26091V37.5713H37.0592C37.0592 39.387 35.6159 40.9234 33.8468 41.063Z" fill="#1D66FF"/>
<path d="M6.33172 15.9689H14.1067C14.5723 15.9689 14.9913 15.5964 14.9913 15.0843C14.9913 14.6187 14.6188 14.1997 14.1067 14.1997H6.33172C5.86615 14.1997 5.44714 14.5722 5.44714 15.0843C5.44714 15.5964 5.8196 15.9689 6.33172 15.9689Z" fill="#1D66FF"/>
<path d="M14.0601 37.3389H6.33172C5.86615 37.3389 5.44714 37.7113 5.44714 38.2234C5.44714 38.689 5.8196 39.108 6.33172 39.108H14.1067C14.5723 39.108 14.9913 38.7356 14.9913 38.2234C14.9447 37.7579 14.5723 37.3389 14.0601 37.3389Z" fill="#1D66FF"/>
<path d="M5.44714 20.95C5.44714 21.4156 5.8196 21.8346 6.33172 21.8346H27.096C27.5616 21.8346 27.9806 21.4621 27.9806 20.95C27.9806 20.4844 27.5616 20.0654 27.096 20.0654H6.33172C5.86615 20.0654 5.44714 20.4379 5.44714 20.95Z" fill="#1D66FF"/>
<path d="M27.096 24.396H6.33172C5.86615 24.396 5.44714 24.7685 5.44714 25.2806C5.44714 25.7462 5.8196 26.1652 6.33172 26.1652H27.096C27.5616 26.1652 27.9806 25.7927 27.9806 25.2806C27.9806 24.815 27.5616 24.396 27.096 24.396Z" fill="#1D66FF"/>
<path d="M27.096 28.772H6.33172C5.86615 28.772 5.44714 29.1444 5.44714 29.6565C5.44714 30.1221 5.8196 30.5411 6.33172 30.5411H27.096C27.5616 30.5411 27.9806 30.1687 27.9806 29.6565C27.9806 29.1444 27.5616 28.772 27.096 28.772Z" fill="#1D66FF"/>
<path d="M27.096 33.1016H6.33172C5.86615 33.1016 5.44714 33.474 5.44714 33.9861C5.44714 34.4517 5.8196 34.8707 6.33172 34.8707H27.096C27.5616 34.8707 27.9806 34.4983 27.9806 33.9861C27.9806 33.474 27.5616 33.1016 27.096 33.1016Z" fill="#1D66FF"/>
</svg>
