<svg width="692" height="725" viewBox="0 0 692 725" fill="none" xmlns="http://www.w3.org/2000/svg">
<g filter="url(#filter0_d)">
<rect x="28.2587" y="242.085" width="243" height="291" rx="10" transform="rotate(-8 28.2587 242.085)" fill="white"/>
</g>
<g clip-path="url(#clip0)">
<path d="M130.232 332.953C129.811 332.082 128.922 331.548 127.855 331.525C127.352 331.514 126.79 331.614 126.136 331.831C124.997 332.208 124.142 332.403 123.512 332.498C125.418 328.298 126.812 323.605 127.414 319.274C128.388 312.271 127.043 309.3 125.744 308.042C122.304 304.71 117.705 303.257 112.443 303.842C109.636 304.153 107.241 304.991 106.005 305.535C104.785 305.477 103.486 305.521 102.135 305.665C99.6025 305.937 97.4348 306.745 95.6614 308.077C94.5624 307.861 92.8069 307.581 90.8107 307.509C86.1155 307.342 82.4739 308.369 79.9874 310.562C76.9764 313.217 75.9328 317.316 76.8855 322.745C77.188 324.469 78.8368 329.624 81.0272 334.436C82.2861 337.202 83.5452 339.472 84.7695 341.185C86.5058 343.614 88.2099 344.961 89.9793 345.302C90.971 345.493 92.7305 345.496 94.3725 343.801C94.6369 344.044 94.9783 344.275 95.4181 344.475C95.9766 344.729 96.6438 344.911 97.2971 344.987C99.6516 345.26 101.776 344.859 103.508 343.858C103.558 344.171 103.604 344.471 103.643 344.73C103.707 345.15 103.77 345.562 103.833 345.947C104.262 348.548 104.695 350.559 105.414 351.914C105.453 351.989 105.508 352.103 105.566 352.224C105.936 352.996 106.555 354.288 107.838 355.202C109.167 356.148 110.653 356.306 111.976 356.144C112.64 356.062 113.263 355.9 113.804 355.716C115.733 355.062 117.905 354.159 119.256 351.714C120.533 349.402 120.888 346.113 120.404 341.058C120.405 340.913 120.404 340.775 120.404 340.644L120.403 340.373L120.769 340.36L120.863 340.354C122.891 340.196 125.306 339.479 126.736 338.611C127.867 337.925 131.46 335.492 130.232 332.953Z" fill="black"/>
<path d="M126.847 333.891C120.999 335.827 120.345 333.909 120.345 333.909C125.557 324.024 126.784 312.137 124.153 309.588C116.974 302.635 106.638 307.609 106.469 307.726L106.412 307.743C105.199 307.65 103.856 307.671 102.362 307.83C99.6443 308.12 97.6763 309.106 96.2556 310.446C96.2556 310.446 76.0722 305.123 79.0976 322.364C79.7411 326.031 87.9832 349.623 93.3653 341.531C95.3323 338.572 97.2727 336.036 97.2727 336.036C98.4615 336.61 99.8249 336.81 101.192 336.51L101.288 336.409C101.295 336.745 101.351 337.068 101.459 337.446C100.056 339.397 100.57 339.647 97.4142 340.69C94.2213 341.746 96.2871 342.674 97.5799 342.824C99.1471 343.006 102.732 343.097 104.715 339.575L104.665 339.955C105.36 340.37 106.138 343.026 106.365 345.492C106.592 347.958 106.749 349.651 107.41 350.907C108.072 352.163 108.933 355.066 113.077 353.661C116.54 352.486 118.146 350.347 118.011 347.124C117.914 344.833 118.366 345.118 118.143 343.086L118.355 342.086C118.358 338.963 117.916 338.01 120.162 338.203L120.7 338.183C122.319 338.056 124.388 337.475 125.558 336.765C128.075 335.239 129.41 333.043 126.847 333.891L126.847 333.891Z" fill="#336791"/>
<path d="M98.7712 321.624C98.2219 321.617 97.7409 321.745 97.5156 321.957C97.3891 322.076 97.3605 322.2 97.3588 322.283C97.3543 322.503 97.5397 322.722 97.6507 322.834C97.9649 323.149 98.3907 323.34 98.7895 323.345C98.8474 323.345 98.9044 323.342 98.9607 323.335C99.6149 323.255 100.149 322.688 100.157 322.317C100.166 321.852 99.4453 321.632 98.7712 321.624L98.7712 321.624ZM116.673 319.44C116.577 319.089 115.908 319.067 115.295 319.228C114.683 319.388 114.112 319.735 114.207 320.087C114.281 320.361 114.859 320.774 115.474 320.698C115.526 320.692 115.578 320.682 115.63 320.668C116.034 320.563 116.304 320.273 116.429 320.11C116.62 319.861 116.716 319.598 116.673 319.44Z" fill="white"/>
<path d="M128.826 333.51C128.515 332.868 127.753 332.743 126.56 333.137C123.019 334.31 121.657 333.966 121.193 333.714C123.503 329.2 125.206 323.877 125.881 319.022C126.2 316.723 126.274 314.615 126.094 312.926C125.896 311.073 125.405 309.753 124.632 309.005C121.519 305.989 117.333 304.681 112.527 305.221C109.222 305.59 106.534 306.751 106.022 307.048C104.85 306.913 103.589 306.897 102.235 307.041C99.7528 307.307 97.6819 308.145 96.0529 309.535C95.2486 309.351 93.1769 308.933 90.6962 308.852C86.4075 308.712 83.1247 309.62 80.9397 311.552C78.3325 313.858 77.4473 317.515 78.3084 322.424C78.5981 324.075 80.2024 329.067 82.3447 333.774C85.1645 339.969 87.8176 343.346 90.2299 343.811C90.5123 343.866 90.8329 343.889 91.1783 343.846C92.0247 343.742 93.0169 343.245 93.942 341.854C95.0708 340.161 96.2495 338.499 97.4766 336.871C98.447 337.234 99.4815 337.376 100.51 337.276C100.515 337.302 100.521 337.328 100.526 337.353C100.375 337.579 100.228 337.807 100.084 338.038C99.4815 338.999 99.3561 339.199 97.1264 339.936C96.4922 340.146 94.8078 340.703 94.9265 341.88C95.0565 343.165 97.1914 343.45 97.4341 343.478C98.2799 343.577 99.0833 343.578 99.838 343.485C101.673 343.26 103.217 342.477 104.368 341.187C104.89 345.763 105.64 350.244 106.374 351.546C106.976 352.613 108.446 355.22 112.023 354.781C112.548 354.716 113.119 354.586 113.738 354.376C117.377 353.141 118.802 351.342 118.996 347.737C119.101 345.81 119.124 341.237 119.098 338.789C119.691 338.892 120.437 338.881 121.233 338.783C122.892 338.579 124.766 338.002 125.9 337.314C127.175 336.541 129.426 334.751 128.826 333.51ZM117.93 318.283C118.005 318.997 117.983 319.657 117.959 320.346C117.933 321.087 117.906 321.853 117.988 322.768C118.067 323.659 118.294 324.568 118.515 325.447C118.959 327.222 119.416 329.049 118.754 330.989C118.575 330.754 118.412 330.508 118.264 330.254C118.122 330.008 117.832 329.621 117.429 329.085C115.864 327 112.198 322.118 113.481 319.784C113.863 319.09 114.952 318.29 117.93 318.283ZM112.89 306.642C117.202 306.205 120.796 307.348 123.571 310.037C125.7 312.099 124.945 322.766 120.158 332.475C120.09 332.41 120.022 332.344 119.953 332.279L119.867 332.198C121.09 329.574 120.496 327.199 119.969 325.094C119.752 324.23 119.548 323.414 119.478 322.632C119.404 321.804 119.43 321.082 119.454 320.385C119.485 319.525 119.514 318.636 119.35 317.612C119.365 317.501 119.36 317.372 119.327 317.223C119.11 316.248 117.586 313.439 114.891 311.058C113.417 309.756 111.328 308.353 108.615 307.566C109.696 307.207 111.187 306.813 112.89 306.642ZM92.6864 341.073C91.6672 342.606 90.8132 342.441 90.5323 342.387C88.7023 342.034 86.2171 338.678 83.7142 333.179C81.5485 328.421 80.0269 323.556 79.7834 322.169C79.0141 317.784 79.7398 314.572 81.9407 312.624C85.5225 309.454 92.152 310.274 94.8367 310.773C94.8039 310.814 94.7693 310.852 94.7371 310.892C91.0059 315.566 91.9776 322.649 92.0414 323.081C92.0615 323.249 92.1051 323.484 92.1649 323.807C92.3844 324.992 92.793 327.196 92.739 329.756C92.6889 332.135 93.7129 334.331 95.5481 335.782C95.7365 335.931 95.9323 336.07 96.135 336.2C95.501 337.044 94.1267 338.906 92.6864 341.073ZM96.4985 334.654C95.0194 333.484 94.1944 331.706 94.235 329.774C94.2918 327.07 93.8664 324.774 93.6377 323.54C93.6057 323.367 93.5775 323.216 93.5573 323.096C94.1114 322.487 96.7994 320.643 98.9028 320.847C99.8626 320.94 100.508 321.487 100.875 322.519C102.774 327.862 101.992 330.282 101.364 332.227C101.235 332.628 101.113 333.006 101.016 333.394L100.941 333.695C100.752 334.453 100.575 335.159 100.493 335.818C99.0936 335.986 97.6617 335.574 96.4985 334.654L96.4985 334.654ZM97.6229 342.036C97.2023 341.987 96.8139 341.861 96.5809 341.745C96.7508 341.64 97.0575 341.489 97.5995 341.31C100.222 340.443 100.591 340.013 101.361 338.786C101.537 338.504 101.738 338.185 102.021 337.792L102.021 337.791C102.442 337.204 102.676 337.266 103.099 337.379C103.442 337.469 103.809 337.828 103.991 338.249C104.078 338.448 104.194 338.831 104.008 339.164C102.429 341.968 99.6645 342.274 97.6229 342.036ZM113.254 353.005C110.049 354.093 108.684 352.608 107.688 350.842C107.045 349.702 106.137 344.316 105.575 338.313C105.568 338.233 105.546 338.158 105.515 338.089C105.477 337.948 105.429 337.811 105.371 337.677C105.007 336.838 104.292 336.187 103.504 335.978C103.191 335.895 102.616 335.742 101.978 335.986C102.05 335.408 102.215 334.745 102.395 334.027L102.47 333.725C102.555 333.385 102.67 333.029 102.792 332.652C103.449 330.617 104.349 327.83 102.289 322.036C101.518 319.866 99.7225 318.98 97.2346 319.543C95.7432 319.88 94.434 320.64 93.7865 321.063C93.6473 321.154 93.5204 321.241 93.4022 321.325C93.3185 319.054 93.5293 314.763 95.921 311.771C97.4271 309.888 99.6048 308.781 102.387 308.485C107.87 307.9 111.713 310.192 113.972 312.217C115.918 313.963 117.084 315.819 117.583 316.836C114.776 316.903 112.955 317.665 112.162 319.108C110.436 322.246 114.341 327.447 116.218 329.946C116.562 330.404 116.859 330.8 116.958 330.972C117.607 332.093 118.356 332.803 118.903 333.322C119.071 333.48 119.233 333.634 119.359 333.771C118.548 334.109 117.106 334.837 117.577 337.531C117.633 338.905 117.626 345.372 117.502 347.672C117.338 350.71 116.346 351.956 113.254 353.005L113.254 353.005ZM125.114 336.084C124.303 336.576 122.901 337.043 121.543 337.273C120.044 337.526 119.247 337.388 119.049 337.267C118.757 335.588 119.384 335.332 120.048 335.061C120.152 335.018 120.254 334.977 120.351 334.93C120.42 334.972 120.495 335.013 120.577 335.052C121.884 335.679 124.057 335.497 127.034 334.511L127.066 334.501C126.701 334.925 126.058 335.512 125.114 336.084Z" fill="white"/>
</g>
<g clip-path="url(#clip1)">
<path d="M230.392 329.681C227.577 329.956 225.437 330.504 223.708 331.499C223.207 331.774 222.365 331.878 222.377 332.553C222.692 332.799 222.783 333.251 223.076 333.606C223.584 334.256 224.436 335.113 225.163 335.522C225.968 335.993 226.774 336.463 227.606 336.86C229.077 337.534 230.681 337.835 232.117 338.513C232.949 338.909 233.798 339.447 234.635 339.878C235.055 340.111 235.356 340.537 235.869 340.652L235.856 340.547C235.572 340.261 235.446 339.814 235.157 339.493C234.764 339.185 234.374 338.913 233.98 338.605C232.795 337.362 231.386 336.324 229.897 335.51C228.68 334.876 226.095 334.126 225.48 332.884C225.48 332.884 225.44 332.853 225.401 332.822C226.164 332.657 227.041 332.265 227.753 331.964C228.906 331.502 230.002 331.438 231.191 330.972C231.735 330.763 232.275 330.518 232.814 330.274L232.776 329.959C232.067 329.405 231.508 328.619 230.768 328.104C228.789 326.78 226.64 325.513 224.451 324.501C223.277 323.932 221.818 323.649 220.587 323.195C220.141 323.036 219.426 323.017 219.137 322.696C218.411 322.002 217.935 321.028 217.368 320.172C216.114 318.367 214.869 316.348 213.742 314.422C212.943 313.131 212.389 311.81 211.462 310.643C207.117 305.123 202.745 301.993 196.277 299.191C194.888 298.614 193.306 298.487 191.61 298.304C190.729 298.376 189.844 298.414 188.962 298.487C188.371 298.31 187.728 297.712 187.198 297.457C185.044 296.44 179.551 294.337 178.522 298.131C177.855 300.527 180.481 302.483 181.429 303.542C182.125 304.275 183.008 305.093 183.541 305.953C183.86 306.519 184.008 307.142 184.331 307.743C185.082 309.217 185.819 310.872 186.732 312.219C187.208 312.909 187.724 313.628 188.297 314.235C188.625 314.586 189.137 314.701 189.32 315.32C188.915 316.081 189.009 317.138 188.836 318.049C188.06 322.168 189.155 327.018 191.301 329.71C191.969 330.518 193.539 332.284 195.238 331.327C196.739 330.502 196.143 328.546 196.383 326.736C196.437 326.302 196.332 326.03 196.508 325.724L196.517 325.794C197.128 326.716 197.736 327.603 198.312 328.529C199.611 330.114 201.724 331.67 203.449 332.669C204.369 333.197 205.169 334.203 206.269 334.459L206.256 334.354L206.185 334.363C205.936 334.073 205.603 333.971 205.292 333.76C204.584 333.206 203.787 332.521 203.21 331.88C201.496 330.096 199.931 328.081 198.498 325.978C197.803 324.96 197.165 323.827 196.576 322.796C196.313 322.401 196.236 321.769 195.86 321.602C195.428 322.438 194.738 323.2 194.469 324.194C193.988 325.784 194.146 327.652 194.137 329.611C194.001 329.664 194.067 329.62 194.005 329.699C192.848 329.555 192.321 328.446 191.779 327.515C190.421 325.154 189.754 321.177 190.313 318.189C190.468 317.422 191.237 314.978 190.729 314.328C190.437 313.687 189.688 313.387 189.238 312.909C188.7 312.298 188.105 311.517 187.699 310.819C186.616 308.958 185.928 306.835 184.775 304.982C184.242 304.122 183.39 303.266 182.69 302.497C181.907 301.632 181.089 301.056 180.425 299.998C180.202 299.634 179.879 299.032 180.108 298.577C180.143 298.288 180.271 298.165 180.543 298.061C180.951 297.619 182.31 297.95 182.791 298.105C184.154 298.471 185.301 298.829 186.479 299.432C187.013 299.723 187.621 300.325 188.274 300.423L189.011 300.332C190.164 300.44 191.405 300.11 192.496 300.296C194.428 300.664 196.219 301.334 197.844 302.096C202.797 304.443 207.093 308.117 210.261 312.748C210.781 313.503 211.047 314.219 211.536 315.013C212.484 316.641 213.611 318.283 214.554 319.876C215.493 321.434 216.401 323.032 217.622 324.271C218.238 324.943 220.39 325.07 221.385 325.34C222.125 325.569 223.247 325.717 223.925 326.025C225.208 326.615 226.504 327.311 227.726 327.979C228.339 328.331 230.2 328.993 230.392 329.681Z" fill="#00546B"/>
<path d="M190.871 303.593C190.274 303.666 189.862 303.788 189.454 303.945L189.463 304.015L189.533 304.006C189.883 304.533 190.421 304.859 190.832 305.307C191.182 305.833 191.496 306.365 191.846 306.892C191.876 306.852 191.907 306.813 191.907 306.813C192.355 306.401 192.532 305.81 192.428 304.968C192.188 304.749 192.122 304.508 191.917 304.283C191.663 303.958 191.186 303.839 190.871 303.593Z" fill="#00546B"/>
</g>
<g clip-path="url(#clip2)">
<path d="M176.968 442.315L187.573 446.907C188.328 445.941 189.35 445.379 190.641 445.22C193.006 444.93 195.179 446.628 195.47 448.993C195.707 450.929 194.628 452.808 192.746 453.475L194.145 464.873C196.133 465.065 197.635 466.627 197.873 468.563C198.163 470.928 196.465 473.102 194.1 473.392C192.809 473.55 191.655 473.037 190.689 472.283L181.51 479.304C181.777 479.707 181.83 480.138 181.883 480.568C182.173 482.933 180.476 485.106 178.11 485.397C175.745 485.687 173.571 483.989 173.281 481.624C173.228 481.194 173.175 480.764 173.338 480.307L162.57 476.172C161.815 477.138 160.793 477.7 159.718 477.832C157.352 478.122 155.179 476.425 154.889 474.059C154.651 472.124 155.73 470.245 157.613 469.577L156.187 457.964C154.199 457.772 152.697 456.21 152.433 454.059C152.142 451.694 153.84 449.52 156.206 449.23C157.066 449.124 157.738 449.26 158.436 449.611C158.892 449.773 159.16 450.177 159.401 450.366L168.581 443.345C168.554 443.13 168.502 442.7 168.449 442.269C168.158 439.904 169.856 437.731 172.222 437.44C174.587 437.15 176.76 438.848 177.051 441.213C177.104 441.643 177.157 442.073 176.968 442.315ZM176.13 444.382L191.806 465.379L192.021 465.352L190.595 453.739C188.607 453.547 187.105 451.985 186.868 450.049C186.815 449.619 186.788 449.404 186.951 448.948C186.951 448.948 186.951 448.948 186.924 448.733L176.13 444.382ZM170.109 445.122L160.688 451.954C160.741 452.384 161.009 452.788 161.061 453.218C161.299 455.153 160.22 457.032 158.552 457.674L158.337 457.7L159.737 469.098L159.952 469.071L170.109 445.122ZM174.327 445.695C173.897 445.748 173.493 446.016 173.063 446.069C172.633 446.122 172.203 446.174 171.746 446.012L161.831 470.15C162.555 470.716 163.064 471.309 163.385 472.143L189.406 468.948C189.516 468.061 189.867 467.363 190.433 466.639L174.327 445.695ZM180.491 478.119L189.67 471.098L189.644 470.883L163.408 474.104L163.434 474.319L174.039 478.911C174.794 477.945 175.816 477.383 176.892 477.251C178.371 476.851 179.525 477.365 180.491 478.119Z" fill="#DF33A7"/>
</g>
<path d="M172.906 431.397C172.124 421.159 181.376 406.629 197.386 401.058C204.444 398.544 211.533 384.975 209.476 371.408L206.764 351.604" stroke="#11CE7F" stroke-width="3"/>
<path d="M171.695 429.206C169.273 419.228 155.98 408.271 139.03 407.925C131.54 407.716 120.602 397.005 118.362 383.467L114.817 363.794" stroke="#11CE7F" stroke-width="3"/>
<path d="M52.8835 269.339C53.3489 272.651 56.1932 274.61 59.2987 274.173C61.5961 273.851 63.4163 272.431 63.9532 270.159L61.7826 270.464C61.3611 271.719 60.3933 272.42 59.0782 272.605C56.8917 272.912 55.0869 271.566 54.7373 269.079C54.3877 266.591 55.7539 264.816 57.9404 264.508C59.2554 264.324 60.3791 264.731 61.1301 265.821L63.3008 265.516C62.1582 263.479 60.0151 262.601 57.7177 262.924C54.6122 263.36 52.4203 266.044 52.8835 269.339ZM67.6778 268.213C67.4172 266.36 68.1632 265.689 69.4941 265.502L69.9536 265.438L69.6908 263.568C68.455 263.742 67.6592 264.403 67.2747 265.346L67.0966 264.078L65.2903 264.332L66.5173 273.062L68.3235 272.808L67.6778 268.213ZM80.3018 266.665C79.9166 263.924 77.7047 262.442 75.2171 262.791C72.7296 263.141 71.0121 265.176 71.3973 267.917C71.7825 270.658 73.9174 272.167 76.405 271.818C78.9084 271.466 80.687 269.406 80.3018 266.665ZM73.2352 267.658C72.9569 265.678 74.0433 264.556 75.4059 264.364C76.7527 264.175 78.1697 264.945 78.448 266.926C78.7264 268.906 77.5313 270.06 76.1845 270.249C74.8219 270.441 73.5136 269.639 73.2352 267.658ZM88.871 267.432C88.3328 264.293 83.5433 265.967 83.2962 264.209C83.2138 263.622 83.6651 263.155 84.6316 263.019C85.614 262.881 86.2737 263.322 86.4439 264.073L88.2502 263.819C87.9102 262.09 86.4618 261.211 84.4812 261.489C82.4215 261.779 81.2803 263.086 81.4763 264.481C81.9261 267.681 86.8582 265.986 87.0987 267.697C87.1833 268.3 86.6911 268.821 85.6454 268.968C84.6472 269.108 83.8835 268.618 83.7199 267.914L81.8503 268.177C82.1522 269.75 83.7994 270.779 85.8909 270.485C87.9506 270.195 89.0781 268.906 88.871 267.432ZM97.3347 266.243C96.7965 263.103 92.007 264.778 91.7599 263.019C91.6775 262.433 92.1288 261.966 93.0953 261.83C94.0777 261.692 94.7374 262.132 94.9076 262.884L96.7139 262.63C96.3739 260.9 94.9255 260.021 92.9449 260.3C90.8852 260.589 89.744 261.897 89.94 263.291C90.3898 266.492 95.3219 264.797 95.5624 266.508C95.647 267.11 95.1548 267.632 94.1091 267.779C93.1109 267.919 92.3472 267.428 92.1836 266.724L90.314 266.987C90.6159 268.56 92.2631 269.589 94.3546 269.295C96.4143 269.006 97.5418 267.716 97.3347 266.243ZM105.794 256.313L102.198 256.818L103.745 267.83L107.342 267.324C110.875 266.828 112.897 264.427 112.42 261.037C111.941 257.63 109.327 255.816 105.794 256.313ZM105.344 266.103L104.211 258.038L106.001 257.786C108.6 257.421 110.212 258.778 110.566 261.297C110.918 263.8 109.733 265.486 107.135 265.851L105.344 266.103ZM113.757 261.931C114.136 264.625 116.219 266.222 118.484 265.904C119.942 265.699 120.89 264.855 121.34 264.032L121.522 265.332L123.344 265.075L122.117 256.345L120.295 256.601L120.473 257.869C119.834 257.232 118.722 256.677 117.249 256.884C114.952 257.207 113.379 259.238 113.757 261.931ZM120.908 260.959C121.173 262.844 120.038 264.086 118.676 264.277C117.329 264.467 115.876 263.556 115.611 261.671C115.346 259.785 116.503 258.589 117.85 258.399C119.212 258.208 120.645 259.089 120.908 260.959ZM125.661 262.278C125.911 264.052 126.968 264.566 128.521 264.348L129.947 264.148L129.736 262.642L128.627 262.798C127.866 262.905 127.575 262.671 127.483 262.022L126.804 257.189L128.927 256.891L128.72 255.417L126.597 255.716L126.292 253.545L124.47 253.801L124.775 255.972L123.745 256.117L123.952 257.59L124.982 257.445L125.661 262.278ZM130.391 259.593C130.769 262.287 132.852 263.885 135.118 263.566C136.575 263.361 137.523 262.517 137.973 261.695L138.156 262.994L139.978 262.738L138.751 254.008L136.929 254.264L137.107 255.531C136.468 254.894 135.356 254.339 133.882 254.546C131.585 254.869 130.012 256.9 130.391 259.593ZM137.541 258.621C137.806 260.506 136.672 261.748 135.309 261.94C133.962 262.129 132.51 261.218 132.245 259.333C131.98 257.447 133.136 256.251 134.483 256.062C135.846 255.87 137.278 256.751 137.541 258.621ZM143.112 254.72L142.509 250.426L140.702 250.68L142.35 262.404L144.156 262.151L143.978 260.883C144.656 261.563 145.777 262.068 147.219 261.866C149.516 261.543 151.062 259.435 150.683 256.742C150.305 254.048 148.265 252.525 145.951 252.85C144.573 253.044 143.571 253.847 143.112 254.72ZM148.845 257C149.11 258.885 147.965 260.161 146.602 260.353C145.255 260.542 143.807 259.663 143.542 257.778C143.279 255.908 144.429 254.664 145.776 254.474C147.138 254.283 148.58 255.114 148.845 257ZM151.867 256.575C152.246 259.269 154.328 260.866 156.594 260.548C158.052 260.343 159 259.499 159.449 258.676L159.632 259.976L161.454 259.72L160.227 250.989L158.405 251.245L158.583 252.513C157.944 251.876 156.832 251.321 155.359 251.528C153.061 251.851 151.489 253.882 151.867 256.575ZM159.017 255.603C159.282 257.488 158.148 258.73 156.786 258.921C155.439 259.111 153.986 258.2 153.721 256.315C153.456 254.429 154.613 253.233 155.96 253.043C157.322 252.852 158.755 253.733 159.017 255.603ZM169.996 256.031C169.457 252.891 164.668 254.566 164.421 252.807C164.338 252.221 164.79 251.754 165.756 251.618C166.739 251.48 167.398 251.92 167.569 252.672L169.375 252.418C169.035 250.689 167.586 249.81 165.606 250.088C163.546 250.377 162.405 251.685 162.601 253.079C163.051 256.28 167.983 254.585 168.223 256.296C168.308 256.898 167.816 257.42 166.77 257.567C165.772 257.707 165.008 257.217 164.845 256.512L162.975 256.775C163.277 258.348 164.924 259.377 167.015 259.083C169.075 258.794 170.203 257.504 169.996 256.031ZM174.933 250.328C176.28 250.139 177.462 250.845 177.682 252.188L172.85 252.867C172.846 251.462 173.713 250.5 174.933 250.328ZM179.689 254.507L177.74 254.781C177.503 255.509 176.961 256.135 175.852 256.29C174.521 256.477 173.368 255.751 173.039 254.327L179.709 253.389C179.715 253.082 179.69 252.794 179.648 252.493C179.287 249.926 177.286 248.446 174.798 248.796C172.216 249.159 170.688 251.167 171.074 253.908C171.459 256.649 173.562 258.163 176.065 257.811C178.204 257.511 179.411 256.097 179.689 254.507ZM189.936 252.582C190.065 253.501 189.699 254.231 188.733 254.367C187.766 254.503 187.229 253.9 187.084 252.983L185.262 253.239C185.542 255.235 187.056 256.234 188.957 255.967C190.859 255.7 192.039 254.322 191.758 252.326L190.642 244.388L188.82 244.644L189.936 252.582ZM202.832 249.445C202.447 246.704 200.235 245.221 197.747 245.571C195.26 245.92 193.542 247.955 193.928 250.696C194.313 253.437 196.448 254.947 198.935 254.597C201.439 254.245 203.217 252.186 202.832 249.445ZM195.765 250.438C195.487 248.457 196.573 247.335 197.936 247.144C199.283 246.955 200.7 247.725 200.978 249.705C201.257 251.686 200.061 252.839 198.715 253.029C197.352 253.22 196.044 252.419 195.765 250.438ZM205.232 253.567L207.038 253.313L205.811 244.583L204.005 244.837L205.232 253.567ZM204.762 243.551C205.395 243.462 205.831 242.884 205.74 242.234C205.649 241.584 205.07 241.149 204.437 241.238C203.787 241.329 203.351 241.907 203.442 242.557C203.534 243.206 204.112 243.642 204.762 243.551ZM215.605 252.109L217.395 251.857L216.672 246.708C216.329 244.268 214.611 243.201 212.568 243.488C211.522 243.635 210.615 244.199 210.129 244.994L209.989 243.996L208.183 244.25L209.41 252.98L211.216 252.726L210.53 247.846C210.305 246.246 211.061 245.299 212.392 245.112C213.707 244.927 214.694 245.629 214.919 247.229L215.605 252.109ZM225.868 248.178C225.33 245.039 220.541 246.714 220.294 244.955C220.211 244.369 220.663 243.901 221.629 243.766C222.611 243.627 223.271 244.068 223.441 244.82L225.248 244.566C224.908 242.836 223.459 241.957 221.479 242.236C219.419 242.525 218.278 243.833 218.474 245.227C218.923 248.427 223.856 246.733 224.096 248.444C224.181 249.046 223.689 249.567 222.643 249.714C221.645 249.855 220.881 249.364 220.717 248.66L218.848 248.923C219.15 250.496 220.797 251.525 222.888 251.231C224.948 250.941 226.076 249.652 225.868 248.178Z" fill="#1E266D"/>
<g filter="url(#filter1_d)">
<rect x="273.037" y="65.2983" width="300" height="295.422" rx="8" transform="rotate(-8 273.037 65.2983)" fill="white"/>
</g>
<path d="M301.648 91.9439L304.595 91.5297L305.935 101.068L307.741 100.814L306.401 91.2758L309.332 90.8639L309.125 89.3904L301.441 90.4703L301.648 91.9439ZM315.145 92.2767C316.491 92.0874 317.673 92.7938 317.894 94.1361L313.062 94.8153C313.058 93.4101 313.925 92.4482 315.145 92.2767ZM319.9 96.4555L317.952 96.7294C317.715 97.4574 317.172 98.083 316.063 98.2389C314.732 98.4259 313.58 97.6992 313.251 96.2752L319.921 95.3377C319.926 95.03 319.902 94.7426 319.86 94.4415C319.499 91.8748 317.498 90.3949 315.01 90.7445C312.427 91.1075 310.9 93.1156 311.285 95.8566C311.671 98.5977 313.774 100.112 316.277 99.7599C318.416 99.4593 319.623 98.0456 319.9 96.4555ZM321.06 94.4506C321.438 97.1442 323.521 98.7419 325.787 98.4234C327.244 98.2186 328.192 97.3745 328.642 96.5518L328.825 97.8511L330.647 97.595L329.42 88.8648L327.598 89.1209L327.776 90.3884C327.137 89.7511 326.025 89.1965 324.551 89.4036C322.254 89.7265 320.681 91.7571 321.06 94.4506ZM328.21 93.478C328.475 95.3635 327.341 96.6054 325.978 96.7969C324.631 96.9862 323.178 96.0756 322.913 94.1901C322.649 92.3046 323.805 91.108 325.152 90.9187C326.515 90.7272 327.947 91.6084 328.21 93.478ZM345.393 95.5225L347.184 95.2708L346.46 90.1214C346.117 87.6814 344.384 86.6163 342.34 86.9035C341.073 87.0816 339.93 87.9208 339.541 89.0581C338.778 88.0019 337.539 87.5782 336.161 87.7719C335.115 87.9189 334.225 88.4803 333.739 89.2757L333.598 88.2775L331.792 88.5314L333.019 97.2616L334.825 97.0077L334.139 92.1277C333.915 90.5274 334.67 89.581 336.001 89.394C337.316 89.2092 338.303 89.9106 338.528 91.5109L339.214 96.3909L341.005 96.1393L340.319 91.2592C340.094 89.659 340.849 88.7126 342.18 88.5255C343.495 88.3407 344.483 89.0421 344.708 90.6424L345.393 95.5225ZM353.598 94.3694L355.404 94.1155L354.344 86.5736L358.779 93.6412L360.031 93.4653L362.33 85.4514L363.39 92.9932L365.196 92.7394L363.648 81.7276L361.715 81.9993L359.079 91.1755L353.999 83.0837L352.05 83.3576L353.598 94.3694ZM366.349 88.0856C366.728 90.7792 368.81 92.3769 371.076 92.0584C372.534 91.8536 373.481 91.0095 373.931 90.1868L374.114 91.4861L375.936 91.23L374.709 82.4998L372.887 82.7559L373.065 84.0234C372.426 83.3861 371.314 82.8315 369.841 83.0386C367.543 83.3615 365.97 85.3921 366.349 88.0856ZM373.499 87.1131C373.764 88.9985 372.63 90.2405 371.267 90.432C369.921 90.6212 368.468 89.7106 368.203 87.8251C367.938 85.9396 369.095 84.743 370.441 84.5537C371.804 84.3622 373.236 85.2434 373.499 87.1131ZM384.503 90.0259L386.294 89.7743L385.57 84.6249C385.227 82.1849 383.51 81.1175 381.466 81.4047C380.42 81.5517 379.514 82.1153 379.028 82.9107L378.888 81.9125L377.081 82.1664L378.308 90.8966L380.115 90.6427L379.429 85.7627C379.204 84.1624 379.959 83.216 381.29 83.029C382.605 82.8442 383.593 83.5456 383.818 85.1459L384.503 90.0259ZM387.377 85.1304C387.755 87.8239 389.838 89.4216 392.104 89.1032C393.561 88.8983 394.509 88.0542 394.959 87.2316L395.142 88.5308L396.964 88.2747L395.737 79.5445L393.915 79.8006L394.093 81.0682C393.454 80.4309 392.342 79.8762 390.868 80.0833C388.571 80.4062 386.998 82.4369 387.377 85.1304ZM394.527 84.1578C394.792 86.0433 393.658 87.2852 392.295 87.4767C390.948 87.666 389.495 86.7553 389.231 84.8699C388.966 82.9844 390.122 81.7878 391.469 81.5985C392.832 81.407 394.264 82.2882 394.527 84.1578ZM398.115 83.6212C398.493 86.3148 400.576 87.9125 402.874 87.5896C404.3 87.3892 405.245 86.5292 405.695 85.7066L405.9 87.1643C406.145 88.9071 405.219 89.9097 403.825 90.1057C402.573 90.2816 401.52 89.7995 401.124 88.9342L399.333 89.1858C399.827 91.0877 401.716 92.0016 404.045 91.6742C406.771 91.2912 408.056 89.2848 407.722 86.9082L406.475 78.0354L404.653 78.2915L404.831 79.559C404.188 78.89 403.032 78.3738 401.607 78.5742C399.309 78.8971 397.736 80.9277 398.115 83.6212ZM405.265 82.6486C405.53 84.5341 404.396 85.7761 403.033 85.9676C401.687 86.1568 400.234 85.2462 399.969 83.3607C399.704 81.4752 400.86 80.2786 402.207 80.0893C403.57 79.8978 405.002 80.779 405.265 82.6486ZM412.717 78.5638C414.064 78.3745 415.246 79.0809 415.466 80.4232L410.634 81.1024C410.63 79.6972 411.497 78.7353 412.717 78.5638ZM417.473 82.7426L415.524 83.0165C415.287 83.7445 414.745 84.3701 413.636 84.526C412.305 84.713 411.152 83.9863 410.823 82.5623L417.493 81.6248C417.499 81.3171 417.474 81.0297 417.432 80.7286C417.071 78.1619 415.07 76.682 412.582 77.0316C410 77.3946 408.472 79.4027 408.858 82.1438C409.243 84.8848 411.346 86.3989 413.849 86.047C415.988 85.7464 417.195 84.3327 417.473 82.7426ZM432.228 83.3187L434.018 83.0671L433.294 77.9177C432.951 75.4777 431.218 74.4125 429.174 74.6998C427.907 74.8779 426.764 75.7171 426.375 76.8543C425.613 75.7982 424.374 75.3745 422.995 75.5682C421.949 75.7152 421.059 76.2766 420.573 77.072L420.432 76.0738L418.626 76.3276L419.853 85.0578L421.659 84.804L420.974 79.9239C420.749 78.3237 421.504 77.3773 422.835 77.1902C424.15 77.0054 425.138 77.7069 425.362 79.3071L426.048 84.1872L427.839 83.9355L427.153 79.0555C426.928 77.4552 427.684 76.5089 429.015 76.3218C430.33 76.137 431.317 76.8384 431.542 78.4387L432.228 83.3187ZM438.959 74.8757C440.306 74.6864 441.488 75.3928 441.709 76.7352L436.876 77.4143C436.872 76.0091 437.739 75.0472 438.959 74.8757ZM443.715 79.0545L441.766 79.3284C441.529 80.0565 440.987 80.682 439.878 80.8379C438.547 81.0249 437.394 80.2982 437.065 78.8742L443.736 77.9368C443.741 77.629 443.717 77.3416 443.674 77.0406C443.313 74.4738 441.312 72.9939 438.824 73.3435C436.242 73.7065 434.714 75.7146 435.1 78.4557C435.485 81.1967 437.588 82.7108 440.092 82.3589C442.231 82.0583 443.438 80.6446 443.715 79.0545ZM452.29 80.4991L454.081 80.2475L453.357 75.0981C453.014 72.658 451.297 71.5907 449.253 71.8779C448.207 72.0249 447.301 72.5885 446.815 73.3839L446.675 72.3857L444.868 72.6395L446.095 81.3698L447.902 81.1159L447.216 76.2359C446.991 74.6356 447.746 73.6892 449.077 73.5022C450.392 73.3173 451.38 74.0188 451.605 75.619L452.29 80.4991ZM456.329 77.4594C456.579 79.234 457.636 79.7477 459.189 79.5295L460.615 79.3291L460.404 77.8239L459.295 77.9798C458.534 78.0867 458.243 77.8529 458.151 77.2033L457.472 72.3708L459.595 72.0724L459.388 70.5989L457.265 70.8973L456.96 68.7266L455.138 68.9827L455.443 71.1534L454.413 71.2981L454.62 72.7716L455.65 72.6269L456.329 77.4594Z" fill="#1E266D"/>
<path opacity="0.4" d="M309.54 113.786C309.671 114.713 309.229 115.454 308.005 115.626L306.413 115.849L305.972 112.712L307.564 112.489C308.8 112.315 309.408 112.847 309.54 113.786ZM304.766 111.973L305.93 120.256L307.011 120.104L306.535 116.717L307.842 116.533L310.291 119.643L311.586 119.461L309.019 116.283C310.366 115.779 310.806 114.687 310.657 113.629C310.467 112.274 309.388 111.323 307.439 111.597L304.766 111.973ZM317.538 116.249C317.665 117.152 317.098 117.777 316.029 117.927L314.115 118.196L313.705 115.273L315.582 115.009C316.64 114.861 317.409 115.334 317.538 116.249ZM316.801 112.56C316.92 113.403 316.408 113.984 315.397 114.126L313.579 114.382L313.202 111.696L314.996 111.444C316.054 111.295 316.686 111.74 316.801 112.56ZM318.634 116.204C318.49 115.182 317.632 114.418 316.707 114.391C317.466 114.017 318.035 113.319 317.888 112.274C317.726 111.121 316.713 110.294 314.966 110.539L311.995 110.957L313.159 119.24L316.249 118.805C317.96 118.565 318.809 117.452 318.634 116.204ZM326.008 117.434L327.149 117.273L323.009 109.458L321.761 109.633L319.924 118.289L321.065 118.128L321.472 116.193L325.084 115.685L326.008 117.434ZM324.652 114.849L321.657 115.27L322.566 110.877L324.652 114.849ZM327.467 113C327.816 115.483 329.878 116.963 332.196 116.637C333.99 116.385 335.291 115.293 335.685 113.614L334.39 113.796C334.077 114.846 333.276 115.528 332.064 115.698C330.329 115.942 328.856 114.864 328.573 112.844C328.287 110.812 329.405 109.371 331.14 109.127C332.352 108.956 333.31 109.391 333.902 110.326L335.197 110.144C334.354 108.627 332.801 107.924 331.007 108.176C328.689 108.502 327.118 110.516 327.467 113Z" fill="#455880"/>
<path d="M327.793 176.229L318.443 170.848L320.407 167.436L326.149 170.74L332.958 157.214L336.475 158.984L327.793 176.229Z" fill="#1D66FF"/>
<rect x="311.058" y="154.233" width="30" height="30" rx="3" transform="rotate(-8 311.058 154.233)" stroke="#DFE8F7" stroke-width="2"/>
<path d="M372.015 154.39L373.679 154.156L368.871 144.992L367.041 145.25L364.945 155.384L366.595 155.152L367.011 153.086L371.046 152.519L372.015 154.39ZM370.421 151.292L367.274 151.734L368.225 147.034L370.421 151.292ZM374.112 150.165C374.443 152.522 376.265 153.92 378.275 153.638C379.523 153.462 380.356 152.752 380.744 151.99L380.906 153.141L382.5 152.917L381.058 142.658L379.464 142.882L379.982 146.569C379.299 145.93 378.179 145.607 377.18 145.747C375.156 146.032 373.78 147.809 374.112 150.165ZM380.368 149.314C380.6 150.964 379.607 152.051 378.415 152.218C377.237 152.384 375.965 151.587 375.734 149.937C375.502 148.288 376.514 147.241 377.692 147.075C378.885 146.907 380.138 147.678 380.368 149.314ZM395.404 151.103L396.97 150.883L396.337 146.377C396.037 144.242 394.52 143.31 392.732 143.562C391.623 143.718 390.623 144.452 390.282 145.447C389.615 144.523 388.531 144.152 387.325 144.322C386.41 144.45 385.631 144.941 385.206 145.637L385.083 144.764L383.502 144.986L384.576 152.625L386.156 152.403L385.556 148.133C385.359 146.733 386.021 145.905 387.185 145.741C388.336 145.579 389.2 146.193 389.397 147.593L389.997 151.863L391.563 151.643L390.963 147.373C390.766 145.973 391.428 145.145 392.592 144.981C393.743 144.819 394.607 145.433 394.803 146.833L395.404 151.103ZM398.981 150.6L400.562 150.378L399.488 142.739L397.908 142.962L398.981 150.6ZM398.57 141.836C399.124 141.759 399.505 141.253 399.425 140.684C399.346 140.116 398.84 139.734 398.285 139.812C397.717 139.892 397.335 140.398 397.415 140.967C397.495 141.535 398.001 141.916 398.57 141.836ZM408.057 149.325L409.624 149.105L408.991 144.599C408.691 142.464 407.188 141.53 405.4 141.781C404.485 141.91 403.692 142.403 403.266 143.099L403.144 142.226L401.563 142.448L402.637 150.087L404.217 149.865L403.617 145.595C403.42 144.194 404.081 143.366 405.246 143.203C406.397 143.041 407.261 143.655 407.457 145.055L408.057 149.325ZM411.64 148.821L413.221 148.599L412.147 140.96L410.566 141.182L411.64 148.821ZM411.228 140.057C411.783 139.979 412.164 139.473 412.084 138.905C412.004 138.337 411.498 137.955 410.944 138.033C410.375 138.113 409.994 138.619 410.074 139.188C410.154 139.756 410.66 140.137 411.228 140.057ZM420.693 145.372C420.223 142.625 416.032 144.09 415.815 142.551C415.743 142.038 416.138 141.629 416.984 141.511C417.844 141.39 418.421 141.775 418.57 142.433L420.15 142.211C419.853 140.697 418.585 139.928 416.852 140.172C415.05 140.425 414.052 141.569 414.223 142.789C414.617 145.59 418.932 144.107 419.143 145.604C419.217 146.131 418.786 146.587 417.871 146.716C416.998 146.838 416.329 146.409 416.186 145.793L414.55 146.023C414.814 147.4 416.256 148.3 418.086 148.043C419.888 147.789 420.875 146.661 420.693 145.372ZM422.653 145.111C422.871 146.663 423.796 147.113 425.155 146.922L426.403 146.747L426.218 145.43L425.247 145.566C424.582 145.659 424.327 145.455 424.247 144.887L423.653 140.658L425.51 140.397L425.329 139.108L423.472 139.369L423.205 137.469L421.61 137.693L421.877 139.593L420.976 139.719L421.157 141.009L422.058 140.882L422.653 145.111ZM428.875 142.299C428.647 140.677 429.3 140.091 430.464 139.927L430.866 139.87L430.636 138.235C429.555 138.387 428.859 138.965 428.522 139.79L428.366 138.681L426.786 138.903L427.86 146.542L429.44 146.32L428.875 142.299ZM432.112 142.014C432.443 144.371 434.265 145.769 436.248 145.49C437.523 145.311 438.353 144.572 438.746 143.853L438.906 144.989L440.5 144.765L439.427 137.126L437.832 137.35L437.988 138.46C437.429 137.902 436.456 137.417 435.167 137.598C433.157 137.88 431.781 139.657 432.112 142.014ZM438.368 141.163C438.6 142.813 437.608 143.899 436.415 144.067C435.237 144.233 433.966 143.436 433.734 141.786C433.502 140.136 434.514 139.089 435.693 138.924C436.885 138.756 438.138 139.527 438.368 141.163ZM442.528 142.317C442.746 143.87 443.671 144.32 445.03 144.129L446.278 143.953L446.093 142.636L445.122 142.773C444.457 142.866 444.202 142.662 444.122 142.093L443.528 137.865L445.385 137.604L445.204 136.314L443.347 136.576L443.08 134.676L441.485 134.9L441.752 136.8L440.851 136.926L441.032 138.216L441.933 138.089L442.528 142.317ZM454.475 138.899C454.138 136.501 452.203 135.204 450.026 135.51C447.85 135.815 446.347 137.596 446.684 139.994C447.021 142.393 448.889 143.714 451.066 143.408C453.256 143.1 454.812 141.298 454.475 138.899ZM448.292 139.768C448.048 138.035 448.999 137.053 450.191 136.886C451.37 136.72 452.61 137.394 452.853 139.127C453.097 140.86 452.051 141.87 450.873 142.035C449.68 142.203 448.536 141.501 448.292 139.768ZM457.591 138.264C457.363 136.641 458.016 136.055 459.18 135.891L459.582 135.835L459.352 134.199C458.271 134.351 457.575 134.929 457.238 135.754L457.082 134.645L455.502 134.867L456.575 142.506L458.156 142.284L457.591 138.264Z" fill="#1E266D"/>
<path opacity="0.5" d="M373.733 174.346L374.874 174.185L370.734 166.369L369.486 166.545L367.649 175.201L368.79 175.04L369.196 173.105L372.809 172.597L373.733 174.346ZM372.376 171.761L369.382 172.182L370.291 167.789L372.376 171.761ZM376.179 174.002L377.261 173.85L376.025 165.056L374.943 165.208L376.179 174.002ZM379.104 173.591L380.185 173.439L378.949 164.645L377.868 164.797L379.104 173.591ZM390.757 171.953L391.898 171.793L387.758 163.977L386.51 164.152L384.673 172.808L385.814 172.648L386.221 170.712L389.833 170.205L390.757 171.953ZM389.401 169.369L386.406 169.79L387.315 165.396L389.401 169.369ZM392.34 168.398C392.631 170.466 394.133 171.588 395.987 171.327C397.603 171.1 398.534 170.048 398.685 168.706L397.52 168.87C397.398 169.723 396.821 170.277 395.859 170.412C394.67 170.579 393.672 169.859 393.445 168.243C393.221 166.651 393.982 165.683 395.17 165.516C396.133 165.381 396.857 165.788 397.193 166.541L398.357 166.377C397.832 165.057 396.658 164.374 395.042 164.601C393.188 164.862 392.053 166.354 392.34 168.398ZM399.558 167.384C399.849 169.451 401.351 170.573 403.205 170.313C404.821 170.086 405.752 169.034 405.903 167.692L404.738 167.855C404.616 168.709 404.039 169.262 403.077 169.398C401.888 169.565 400.89 168.845 400.663 167.228C400.439 165.636 401.2 164.669 402.389 164.502C403.351 164.366 404.075 164.774 404.411 165.526L405.575 165.363C405.051 164.043 403.876 163.36 402.26 163.587C400.406 163.847 399.271 165.34 399.558 167.384ZM409.607 163.487C410.724 163.33 411.773 163.898 411.94 165.171L407.828 165.749C407.768 164.461 408.549 163.636 409.607 163.487ZM413.168 166.755L412.004 166.919C411.865 167.654 411.317 168.24 410.342 168.377C409.237 168.532 408.208 167.937 407.94 166.63L413.145 165.898C413.137 165.669 413.122 165.477 413.088 165.24C412.838 163.457 411.415 162.3 409.526 162.566C407.624 162.833 406.487 164.314 406.776 166.369C407.067 168.437 408.617 169.552 410.471 169.292C412.087 169.064 413.002 167.991 413.168 166.755ZM419.442 166.116C419.067 163.794 415.407 165.169 415.189 163.624C415.116 163.101 415.538 162.654 416.334 162.542C417.201 162.42 417.767 162.825 417.907 163.472L418.988 163.32C418.738 162.059 417.679 161.42 416.241 161.622C414.791 161.826 413.968 162.777 414.108 163.776C414.449 166.2 418.18 164.815 418.384 166.265C418.459 166.8 418.044 167.294 417.188 167.414C416.273 167.543 415.648 167.146 415.5 166.525L414.383 166.682C414.621 167.86 415.808 168.541 417.329 168.328C418.767 168.126 419.592 167.186 419.442 166.116ZM425.65 165.244C425.275 162.921 421.615 164.296 421.398 162.751C421.324 162.228 421.746 161.781 422.543 161.669C423.41 161.547 423.976 161.953 424.115 162.599L425.197 162.448C424.947 161.186 423.887 160.547 422.45 160.749C421 160.953 420.176 161.905 420.317 162.903C420.657 165.327 424.389 163.942 424.593 165.392C424.668 165.927 424.253 166.422 423.397 166.542C422.482 166.67 421.857 166.274 421.709 165.652L420.592 165.809C420.83 166.987 422.016 167.669 423.537 167.455C424.975 167.253 425.801 166.313 425.65 165.244Z" fill="#455880"/>
<rect x="321.129" y="216.305" width="30" height="30" rx="3" transform="rotate(-8 321.129 216.305)" stroke="#DFE8F7" stroke-width="2"/>
<path d="M378.11 206.303L372.786 207.051L374.142 216.701L379.466 215.952L379.284 214.663L375.541 215.189L375.126 212.236L378.454 211.769L378.272 210.479L374.945 210.947L374.548 208.119L378.291 207.593L378.11 206.303ZM380.344 211.899C380.675 214.256 382.497 215.654 384.508 215.371C385.755 215.196 386.589 214.485 386.976 213.723L387.138 214.874L388.732 214.65L387.291 204.391L385.696 204.615L386.214 208.303C385.531 207.664 384.411 207.34 383.413 207.481C381.389 207.765 380.013 209.542 380.344 211.899ZM386.6 211.048C386.832 212.697 385.84 213.784 384.647 213.952C383.469 214.117 382.198 213.321 381.966 211.671C381.734 210.021 382.746 208.974 383.925 208.808C385.117 208.641 386.37 209.412 386.6 211.048ZM390.808 214.358L392.389 214.136L391.315 206.497L389.735 206.719L390.808 214.358ZM390.397 205.594C390.951 205.516 391.332 205.01 391.252 204.442C391.173 203.874 390.667 203.492 390.112 203.57C389.544 203.65 389.162 204.156 389.242 204.724C389.322 205.293 389.828 205.674 390.397 205.594ZM394.415 211.688C394.633 213.241 395.559 213.691 396.918 213.5L398.165 213.324L397.98 212.007L397.01 212.144C396.344 212.237 396.089 212.033 396.01 211.464L395.415 207.236L397.273 206.975L397.092 205.685L395.234 205.946L394.967 204.047L393.373 204.271L393.64 206.171L392.739 206.297L392.92 207.587L393.821 207.46L394.415 211.688ZM406.363 208.27C406.026 205.872 404.09 204.575 401.914 204.88C399.737 205.186 398.234 206.967 398.571 209.365C398.908 211.764 400.776 213.085 402.953 212.779C405.143 212.471 406.7 210.669 406.363 208.27ZM400.179 209.139C399.936 207.406 400.887 206.424 402.079 206.257C403.257 206.091 404.497 206.765 404.741 208.498C404.984 210.231 403.939 211.241 402.76 211.406C401.568 211.574 400.423 210.872 400.179 209.139ZM409.478 207.634C409.25 206.012 409.903 205.426 411.068 205.262L411.47 205.206L411.24 203.57C410.158 203.722 409.462 204.3 409.126 205.125L408.97 204.016L407.389 204.238L408.463 211.877L410.043 211.655L409.478 207.634Z" fill="#1E266D"/>
<path opacity="0.5" d="M380.091 227.603L375.635 228.229L376.801 236.523L381.257 235.897L381.132 235.006L377.757 235.48L377.356 232.628L380.374 232.204L380.249 231.313L377.231 231.737L376.842 228.968L380.216 228.494L380.091 227.603ZM382.028 232.444C382.312 234.464 383.847 235.642 385.594 235.397C386.782 235.23 387.541 234.505 387.831 233.725L388.003 234.949L389.096 234.795L387.86 226.002L386.767 226.155L387.251 229.602C386.695 228.916 385.682 228.526 384.66 228.669C382.902 228.916 381.743 230.412 382.028 232.444ZM387.544 231.681C387.759 233.214 386.862 234.249 385.674 234.416C384.486 234.583 383.349 233.822 383.133 232.289C382.918 230.756 383.806 229.747 384.994 229.58C386.183 229.413 387.332 230.172 387.544 231.681ZM390.924 234.539L392.005 234.387L391.09 227.875L390.008 228.027L390.924 234.539ZM390.418 226.891C390.81 226.835 391.086 226.469 391.028 226.054C390.969 225.638 390.603 225.362 390.211 225.417C389.795 225.475 389.519 225.841 389.578 226.257C389.636 226.673 390.002 226.949 390.418 226.891ZM393.835 232.312C394.019 233.619 394.739 234.002 395.892 233.84L396.866 233.703L396.738 232.788L395.942 232.9C395.276 232.994 395.007 232.801 394.916 232.16L394.377 228.321L396.076 228.083L395.951 227.191L394.252 227.43L394.021 225.79L392.94 225.942L393.17 227.582L392.327 227.701L392.452 228.592L393.296 228.473L393.835 232.312ZM398.177 233.519L399.258 233.367L398.343 226.855L397.261 227.007L398.177 233.519ZM397.671 225.871C398.063 225.816 398.339 225.45 398.281 225.034C398.222 224.618 397.856 224.343 397.464 224.398C397.048 224.456 396.772 224.822 396.831 225.238C396.889 225.654 397.255 225.93 397.671 225.871ZM405.866 232.439L406.936 232.288L406.396 228.45C406.134 226.584 404.851 225.819 403.342 226.032C402.462 226.155 401.73 226.634 401.397 227.371L401.267 226.444L400.186 226.596L401.101 233.108L402.182 232.956L401.676 229.356C401.479 227.953 402.143 227.157 403.248 227.002C404.341 226.848 405.161 227.424 405.348 228.755L405.866 232.439ZM407.837 228.817C408.121 230.837 409.656 232.015 411.403 231.77C412.591 231.603 413.346 230.854 413.64 230.098L413.832 231.464C414.027 232.855 413.263 233.713 412.111 233.875C411.041 234.026 410.194 233.6 409.846 232.849L408.776 232.999C409.185 234.359 410.531 235.055 412.243 234.814C414.156 234.545 415.177 233.105 414.925 231.311L413.99 224.656L412.897 224.81L413.064 225.998C412.585 225.351 411.646 224.877 410.457 225.044C408.711 225.289 407.551 226.785 407.837 228.817ZM413.352 228.054C413.568 229.587 412.671 230.622 411.483 230.789C410.295 230.956 409.158 230.195 408.942 228.662C408.727 227.129 409.615 226.119 410.803 225.952C411.992 225.785 413.14 226.545 413.352 228.054ZM420.484 226.773C420.272 225.264 420.991 224.69 422.025 224.545L422.31 224.505L422.153 223.388C421.119 223.533 420.482 224.083 420.215 224.86L420.067 223.802L418.985 223.954L419.901 230.466L420.982 230.314L420.484 226.773ZM424.334 229.843L425.415 229.691L424.5 223.179L423.418 223.331L424.334 229.843ZM423.828 222.195C424.22 222.14 424.496 221.774 424.438 221.358C424.379 220.942 424.013 220.666 423.621 220.722C423.205 220.78 422.929 221.146 422.988 221.562C423.046 221.978 423.412 222.253 423.828 222.195ZM426.393 226.209C426.677 228.229 428.212 229.407 429.959 229.162C431.147 228.995 431.902 228.246 432.196 227.49L432.388 228.857C432.583 230.247 431.819 231.106 430.667 231.268C429.597 231.418 428.749 230.992 428.402 230.241L427.332 230.391C427.741 231.751 429.087 232.447 430.798 232.206C432.712 231.938 433.733 230.497 433.481 228.703L432.546 222.048L431.452 222.202L431.619 223.39C431.141 222.743 430.202 222.269 429.013 222.436C427.266 222.681 426.107 224.177 426.393 226.209ZM431.908 225.446C432.124 226.979 431.227 228.014 430.039 228.181C428.851 228.348 427.714 227.587 427.498 226.054C427.283 224.521 428.171 223.511 429.359 223.344C430.547 223.177 431.696 223.937 431.908 225.446ZM435.288 228.304L436.37 228.152L435.864 224.551C435.667 223.149 436.33 222.353 437.435 222.197C438.529 222.044 439.349 222.619 439.536 223.95L440.054 227.634L441.123 227.484L440.584 223.645C440.321 221.78 439.038 221.015 437.589 221.218C436.674 221.347 435.917 221.829 435.586 222.578L435.134 219.358L434.052 219.51L435.288 228.304ZM442.877 225.419C443.06 226.727 443.781 227.11 444.933 226.948L445.908 226.811L445.779 225.896L444.983 226.008C444.318 226.101 444.048 225.909 443.958 225.267L443.419 221.429L445.118 221.19L444.993 220.299L443.293 220.538L443.063 218.898L441.981 219.05L442.212 220.69L441.368 220.808L441.493 221.7L442.337 221.581L442.877 225.419ZM451.651 224.198C451.276 221.876 447.616 223.251 447.399 221.706C447.325 221.183 447.747 220.736 448.543 220.624C449.411 220.502 449.977 220.907 450.116 221.554L451.198 221.402C450.948 220.141 449.888 219.502 448.45 219.704C447.001 219.908 446.177 220.86 446.317 221.858C446.658 224.282 450.39 222.897 450.594 224.347C450.669 224.882 450.253 225.376 449.398 225.497C448.483 225.625 447.858 225.228 447.71 224.607L446.593 224.764C446.831 225.942 448.017 226.624 449.538 226.41C450.976 226.208 451.801 225.268 451.651 224.198Z" fill="#455880"/>
<rect x="331.129" y="278.305" width="30" height="30" rx="3" transform="rotate(-8 331.129 278.305)" stroke="#DFE8F7" stroke-width="2"/>
<path d="M383.673 275.146C384.081 278.043 386.569 279.757 389.287 279.376C391.297 279.093 392.89 277.851 393.359 275.863L391.46 276.13C391.091 277.228 390.245 277.841 389.094 278.003C387.181 278.272 385.601 277.094 385.295 274.918C384.99 272.741 386.185 271.188 388.098 270.919C389.249 270.757 390.232 271.114 390.889 272.067L392.789 271.8C391.789 270.018 389.914 269.25 387.903 269.532C385.186 269.914 383.268 272.262 383.673 275.146ZM401.447 269.792L399.867 270.014L400.465 274.27C400.662 275.67 400.001 276.498 398.836 276.662C397.685 276.824 396.822 276.21 396.625 274.81L396.027 270.554L394.46 270.774L395.091 275.266C395.391 277.401 396.908 278.333 398.696 278.081C399.597 277.955 400.404 277.46 400.812 276.738L400.941 277.653L402.521 277.431L401.447 269.792ZM410.004 274.202C409.533 271.455 405.342 272.92 405.126 271.381C405.054 270.868 405.449 270.459 406.295 270.341C407.154 270.22 407.732 270.605 407.881 271.263L409.461 271.041C409.163 269.527 407.896 268.758 406.163 269.002C404.361 269.255 403.362 270.399 403.534 271.619C403.927 274.42 408.243 272.937 408.453 274.434C408.527 274.961 408.097 275.417 407.182 275.546C406.308 275.669 405.64 275.239 405.497 274.623L403.861 274.853C404.125 276.23 405.567 277.13 407.397 276.873C409.199 276.62 410.185 275.491 410.004 274.202ZM411.963 273.941C412.182 275.493 413.107 275.943 414.466 275.752L415.714 275.577L415.529 274.26L414.558 274.396C413.893 274.49 413.638 274.285 413.558 273.717L412.964 269.488L414.821 269.227L414.64 267.938L412.782 268.199L412.515 266.3L410.921 266.524L411.188 268.423L410.287 268.55L410.468 269.839L411.369 269.712L411.963 273.941ZM423.911 270.523C423.574 268.124 421.639 266.827 419.462 267.133C417.285 267.439 415.783 269.219 416.12 271.618C416.457 274.016 418.325 275.337 420.501 275.031C422.692 274.723 424.248 272.921 423.911 270.523ZM417.728 271.392C417.484 269.659 418.435 268.677 419.627 268.509C420.806 268.344 422.045 269.018 422.289 270.751C422.533 272.484 421.487 273.493 420.308 273.659C419.116 273.826 417.971 273.125 417.728 271.392ZM436.839 272.608L438.405 272.388L437.772 267.882C437.472 265.747 435.956 264.815 434.167 265.066C433.058 265.222 432.059 265.956 431.718 266.951C431.051 266.027 429.966 265.657 428.76 265.826C427.845 265.955 427.066 266.446 426.641 267.142L426.518 266.268L424.938 266.491L426.011 274.129L427.592 273.907L426.992 269.637C426.795 268.237 427.456 267.409 428.62 267.245C429.771 267.084 430.635 267.697 430.832 269.098L431.432 273.368L432.998 273.147L432.398 268.877C432.202 267.477 432.863 266.649 434.027 266.485C435.178 266.324 436.042 266.937 436.239 268.338L436.839 272.608ZM448.185 264.128C448.319 265.085 447.86 265.842 446.626 266.015L444.879 266.261L444.425 263.031L446.172 262.785C447.406 262.612 448.048 263.158 448.185 264.128ZM442.664 261.963L444.018 271.599L445.598 271.377L445.057 267.523L446.263 267.353L449.023 270.895L450.908 270.63L447.962 266.973C449.528 266.343 449.966 265.037 449.807 263.9C449.587 262.334 448.278 261.174 445.991 261.496L442.664 261.963ZM459.518 265.518C459.181 263.12 457.246 261.823 455.069 262.129C452.892 262.434 451.39 264.215 451.727 266.613C452.064 269.012 453.932 270.333 456.108 270.027C458.299 269.719 459.855 267.917 459.518 265.518ZM453.335 266.387C453.091 264.654 454.042 263.673 455.234 263.505C456.413 263.339 457.652 264.013 457.896 265.746C458.14 267.479 457.094 268.489 455.915 268.654C454.723 268.822 453.578 268.12 453.335 266.387ZM461.618 269.125L463.199 268.903L461.757 258.644L460.176 258.866L461.618 269.125ZM467.586 261.727C468.764 261.561 469.799 262.179 469.992 263.354L465.763 263.948C465.76 262.718 466.519 261.877 467.586 261.727ZM471.747 265.383L470.042 265.623C469.835 266.26 469.36 266.807 468.39 266.944C467.225 267.107 466.217 266.471 465.929 265.225L471.765 264.405C471.77 264.136 471.749 263.884 471.712 263.621C471.396 261.375 469.645 260.08 467.468 260.386C465.209 260.704 463.872 262.461 464.209 264.859C464.546 267.258 466.387 268.582 468.577 268.274C470.449 268.011 471.505 266.774 471.747 265.383Z" fill="#1E266D"/>
<path opacity="0.5" d="M386.552 295.642C386.901 298.126 388.963 299.605 391.28 299.28C393.075 299.028 394.375 297.936 394.769 296.257L393.474 296.439C393.161 297.489 392.36 298.171 391.148 298.341C389.413 298.585 387.941 297.507 387.657 295.487C387.372 293.455 388.49 292.013 390.225 291.77C391.437 291.599 392.395 292.034 392.987 292.969L394.282 292.787C393.438 291.27 391.886 290.567 390.091 290.819C387.774 291.145 386.203 293.159 386.552 295.642ZM401.578 291.119L400.497 291.271L401 294.848C401.197 296.25 400.545 297.045 399.428 297.202C398.335 297.355 397.515 296.78 397.329 295.461L396.813 291.789L395.744 291.939L396.28 295.754C396.542 297.619 397.849 298.381 399.346 298.171C400.213 298.049 400.956 297.556 401.277 296.821L401.412 297.783L402.493 297.631L401.578 291.119ZM408.752 294.946C408.378 292.624 404.717 293.998 404.5 292.454C404.427 291.931 404.849 291.484 405.645 291.372C406.512 291.25 407.078 291.655 407.218 292.302L408.299 292.15C408.049 290.888 406.99 290.25 405.552 290.452C404.102 290.655 403.279 291.607 403.419 292.606C403.759 295.03 407.491 293.645 407.695 295.095C407.77 295.629 407.355 296.124 406.499 296.244C405.584 296.373 404.959 295.976 404.811 295.355L403.694 295.511C403.932 296.69 405.119 297.371 406.64 297.158C408.078 296.955 408.903 296.015 408.752 294.946ZM410.515 294.686C410.699 295.993 411.419 296.377 412.572 296.215L413.546 296.078L413.418 295.163L412.621 295.275C411.956 295.368 411.687 295.176 411.596 294.534L411.057 290.696L412.756 290.457L412.631 289.566L410.932 289.805L410.701 288.165L409.62 288.317L409.85 289.957L409.007 290.075L409.132 290.966L409.976 290.848L410.515 294.686ZM420.576 291.757C420.287 289.702 418.668 288.608 416.814 288.869C414.972 289.128 413.704 290.627 413.993 292.683C414.284 294.75 415.87 295.86 417.711 295.602C419.565 295.341 420.867 293.825 420.576 291.757ZM415.098 292.527C414.868 290.887 415.793 289.97 416.934 289.809C418.051 289.652 419.241 290.273 419.471 291.913C419.703 293.564 418.707 294.492 417.578 294.651C416.449 294.81 415.33 294.179 415.098 292.527ZM431.857 293.504L432.927 293.354L432.387 289.516C432.125 287.65 430.842 286.885 429.357 287.094C428.358 287.234 427.503 287.876 427.255 288.868C426.69 287.953 425.732 287.603 424.663 287.754C423.807 287.874 423.086 288.351 422.756 289.1L422.624 288.161L421.542 288.313L422.457 294.825L423.539 294.673L423.034 291.085C422.837 289.683 423.487 288.876 424.581 288.723C425.65 288.572 426.458 289.149 426.645 290.48L427.163 294.164L428.233 294.014L427.728 290.425C427.531 289.023 428.181 288.217 429.275 288.063C430.344 287.913 431.152 288.49 431.339 289.821L431.857 293.504ZM438.452 288.966C438.24 287.457 438.959 286.884 439.993 286.738L440.278 286.698L440.121 285.581C439.087 285.726 438.45 286.277 438.183 287.053L438.035 285.996L436.953 286.148L437.868 292.66L438.95 292.508L438.452 288.966ZM442.301 292.037L443.383 291.885L442.468 285.373L441.386 285.525L442.301 292.037ZM441.796 284.388C442.188 284.333 442.464 283.967 442.406 283.551C442.347 283.136 441.981 282.86 441.589 282.915C441.173 282.973 440.897 283.339 440.956 283.755C441.014 284.171 441.38 284.447 441.796 284.388ZM444.361 288.403C444.645 290.423 446.18 291.601 447.927 291.355C449.115 291.188 449.87 290.44 450.164 289.683L450.356 291.05C450.551 292.44 449.787 293.299 448.634 293.461C447.565 293.611 446.717 293.185 446.37 292.434L445.3 292.585C445.709 293.945 447.055 294.64 448.766 294.4C450.68 294.131 451.701 292.691 451.449 290.896L450.514 284.242L449.42 284.395L449.587 285.584C449.109 284.936 448.17 284.462 446.981 284.629C445.234 284.875 444.075 286.371 444.361 288.403ZM449.876 287.64C450.092 289.172 449.195 290.207 448.007 290.374C446.818 290.541 445.681 289.78 445.466 288.247C445.251 286.714 446.139 285.705 447.327 285.538C448.515 285.371 449.664 286.13 449.876 287.64ZM453.256 290.497L454.338 290.345L453.832 286.744C453.635 285.342 454.298 284.546 455.403 284.391C456.497 284.237 457.317 284.813 457.504 286.143L458.022 289.827L459.091 289.677L458.552 285.839C458.289 283.973 457.006 283.208 455.557 283.412C454.642 283.54 453.885 284.022 453.554 284.772L453.102 281.551L452.02 281.703L453.256 290.497ZM460.845 287.613C461.028 288.92 461.749 289.303 462.901 289.141L463.876 289.004L463.747 288.089L462.951 288.201C462.286 288.295 462.016 288.103 461.926 287.461L461.387 283.623L463.086 283.384L462.961 282.492L461.261 282.731L461.031 281.091L459.949 281.243L460.18 282.883L459.336 283.002L459.461 283.893L460.305 283.775L460.845 287.613ZM469.619 286.392C469.244 284.069 465.584 285.444 465.367 283.899C465.293 283.376 465.715 282.929 466.511 282.817C467.379 282.696 467.945 283.101 468.084 283.748L469.166 283.596C468.916 282.334 467.856 281.695 466.418 281.897C464.969 282.101 464.145 283.053 464.285 284.051C464.626 286.475 468.358 285.091 468.562 286.54C468.637 287.075 468.221 287.57 467.366 287.69C466.451 287.819 465.826 287.422 465.678 286.8L464.561 286.957C464.799 288.136 465.985 288.817 467.506 288.603C468.944 288.401 469.769 287.461 469.619 286.392Z" fill="#455880"/>
<g filter="url(#filter2_d)">
<rect x="324" y="387.752" width="300" height="302" rx="8" transform="rotate(-8 324 387.752)" fill="white"/>
</g>
<path d="M353.699 422.371C354.164 425.683 357.009 427.642 360.114 427.206C362.412 426.883 364.232 425.464 364.769 423.191L362.598 423.496C362.177 424.751 361.209 425.452 359.894 425.637C357.707 425.944 355.902 424.598 355.553 422.111C355.203 419.623 356.569 417.848 358.756 417.541C360.071 417.356 361.195 417.763 361.946 418.854L364.116 418.548C362.974 416.512 360.831 415.633 358.533 415.956C355.428 416.393 353.236 419.076 353.699 422.371ZM366.112 421.774C366.49 424.468 368.573 426.065 370.839 425.747C372.296 425.542 373.244 424.698 373.694 423.875L373.877 425.175L375.699 424.919L374.472 416.188L372.65 416.444L372.828 417.712C372.189 417.075 371.077 416.52 369.603 416.727C367.306 417.05 365.733 419.081 366.112 421.774ZM373.262 420.802C373.527 422.687 372.393 423.929 371.03 424.12C369.683 424.31 368.231 423.399 367.966 421.514C367.701 419.628 368.857 418.432 370.204 418.242C371.567 418.051 372.999 418.932 373.262 420.802ZM376.854 420.297C377.24 423.038 379.264 424.563 381.767 424.211C383.906 423.91 385.133 422.526 385.384 420.746L383.435 421.02C383.229 421.97 382.631 422.539 381.553 422.69C380.096 422.895 378.978 421.953 378.708 420.036C378.441 418.135 379.256 416.922 380.714 416.717C381.791 416.565 382.564 417.006 382.983 417.803L384.932 417.53C384.182 415.761 382.639 414.895 380.5 415.196C377.997 415.548 376.471 417.571 376.854 420.297ZM387.571 423.25L389.378 422.996L388.692 418.116C388.467 416.516 389.223 415.569 390.554 415.382C391.869 415.197 392.856 415.899 393.081 417.499L393.767 422.379L395.557 422.128L394.833 416.978C394.49 414.538 392.789 413.469 390.84 413.742C389.715 413.901 388.793 414.466 388.293 415.28L387.73 411.271L385.924 411.525L387.571 423.25ZM397.861 421.804L399.667 421.55L398.44 412.82L396.634 413.074L397.861 421.804ZM397.39 411.788C398.024 411.699 398.46 411.12 398.369 410.471C398.277 409.821 397.699 409.385 397.065 409.475C396.416 409.566 395.98 410.144 396.071 410.794C396.163 411.443 396.741 411.879 397.39 411.788ZM408.234 420.346L410.024 420.094L409.3 414.945C408.958 412.505 407.24 411.438 405.196 411.725C404.151 411.872 403.244 412.435 402.758 413.231L402.618 412.233L400.812 412.486L402.039 421.217L403.845 420.963L403.159 416.083C402.934 414.482 403.69 413.536 405.021 413.349C406.336 413.164 407.323 413.866 407.548 415.466L408.234 420.346ZM411.107 415.45C411.486 418.144 413.568 419.742 415.866 419.419C417.292 419.218 418.237 418.358 418.687 417.536L418.892 418.994C419.137 420.736 418.211 421.739 416.817 421.935C415.565 422.111 414.512 421.629 414.116 420.763L412.325 421.015C412.819 422.917 414.708 423.831 417.038 423.503C419.763 423.12 421.048 421.114 420.714 418.737L419.467 409.865L417.645 410.121L417.823 411.388C417.18 410.719 416.025 410.203 414.599 410.403C412.301 410.726 410.728 412.757 411.107 415.45ZM418.257 414.478C418.522 416.363 417.388 417.605 416.025 417.797C414.679 417.986 413.226 417.075 412.961 415.19C412.696 413.304 413.853 412.108 415.199 411.919C416.562 411.727 417.995 412.608 418.257 414.478Z" fill="#1E266D"/>
<path d="M432.543 517.468C432.237 515.291 433.432 513.738 435.345 513.469C437.258 513.2 438.836 514.364 439.142 516.54C439.448 518.717 438.256 520.298 436.343 520.567C434.43 520.836 432.848 519.644 432.543 517.468ZM440.764 516.312C440.358 513.429 437.895 511.697 435.15 512.082C432.433 512.464 430.515 514.812 430.92 517.696C431.328 520.593 433.818 522.321 436.536 521.939C437.021 521.871 437.471 521.752 437.883 521.566L439.832 523.159L441.842 522.876L439.182 520.748C440.38 519.717 441.019 518.128 440.764 516.312ZM448.884 512.315L447.304 512.537L447.902 516.794C448.099 518.194 447.437 519.022 446.273 519.186C445.122 519.347 444.258 518.734 444.061 517.333L443.463 513.077L441.897 513.297L442.528 517.789C442.828 519.924 444.345 520.856 446.133 520.605C447.034 520.478 447.841 519.983 448.249 519.261L448.377 520.176L449.958 519.954L448.884 512.315ZM454.355 512.776C455.534 512.611 456.568 513.229 456.761 514.403L452.533 514.998C452.53 513.768 453.288 512.926 454.355 512.776ZM458.517 516.433L456.811 516.672C456.604 517.309 456.13 517.857 455.159 517.993C453.995 518.157 452.986 517.521 452.698 516.275L458.535 515.455C458.539 515.185 458.518 514.934 458.481 514.671C458.165 512.425 456.414 511.13 454.238 511.436C451.978 511.753 450.641 513.51 450.978 515.909C451.315 518.307 453.156 519.632 455.346 519.324C457.218 519.061 458.274 517.824 458.517 516.433ZM461.615 514.216C461.387 512.594 462.04 512.007 463.204 511.844L463.606 511.787L463.376 510.151C462.295 510.303 461.599 510.882 461.262 511.707L461.106 510.598L459.526 510.82L460.599 518.459L462.18 518.236L461.615 514.216ZM468.673 515.472L465.706 509.951L463.945 510.199L468.01 517.29L466.979 521.224L468.615 520.994L471.723 509.105L470.087 509.335L468.673 515.472ZM476.384 511.306C476.791 514.204 479.28 515.918 481.997 515.536C484.007 515.254 485.6 514.012 486.07 512.023L484.171 512.29C483.802 513.388 482.955 514.002 481.804 514.164C479.891 514.433 478.312 513.255 478.006 511.078C477.7 508.902 478.895 507.348 480.809 507.079C481.959 506.918 482.943 507.274 483.6 508.228L485.499 507.961C484.499 506.179 482.624 505.41 480.614 505.693C477.897 506.075 475.979 508.423 476.384 511.306ZM487.245 510.784C487.576 513.14 489.398 514.538 491.381 514.26C492.656 514.081 493.486 513.342 493.879 512.622L494.039 513.759L495.633 513.535L494.56 505.896L492.966 506.12L493.121 507.229C492.562 506.671 491.589 506.186 490.3 506.367C488.29 506.65 486.914 508.427 487.245 510.784ZM493.501 509.933C493.733 511.582 492.741 512.669 491.549 512.837C490.37 513.002 489.099 512.205 488.867 510.556C488.635 508.906 489.647 507.859 490.826 507.693C492.018 507.526 493.271 508.297 493.501 509.933ZM496.645 509.491C496.982 511.889 498.753 513.224 500.943 512.916C502.815 512.653 503.889 511.442 504.108 509.884L502.403 510.124C502.223 510.955 501.699 511.452 500.756 511.585C499.481 511.764 498.503 510.94 498.267 509.263C498.033 507.599 498.746 506.538 500.022 506.358C500.964 506.226 501.641 506.611 502.007 507.309L503.713 507.07C503.057 505.522 501.706 504.764 499.835 505.027C497.644 505.335 496.31 507.106 496.645 509.491ZM506.022 512.075L507.603 511.853L507.003 507.583C506.806 506.182 507.467 505.354 508.632 505.191C509.782 505.029 510.646 505.643 510.843 507.043L511.443 511.313L513.01 511.093L512.376 506.587C512.076 504.452 510.587 503.516 508.882 503.756C507.898 503.894 507.091 504.389 506.654 505.101L506.161 501.594L504.58 501.816L506.022 512.075ZM515.026 510.81L516.606 510.587L515.532 502.948L513.952 503.171L515.026 510.81ZM514.614 502.046C515.168 501.968 515.55 501.462 515.47 500.893C515.39 500.325 514.884 499.943 514.329 500.021C513.761 500.101 513.38 500.607 513.46 501.176C513.539 501.744 514.045 502.125 514.614 502.046ZM524.102 509.534L525.668 509.314L525.035 504.808C524.735 502.673 523.232 501.739 521.444 501.99C520.529 502.119 519.736 502.612 519.311 503.308L519.188 502.435L517.607 502.657L518.681 510.296L520.261 510.074L519.661 505.804C519.465 504.403 520.126 503.575 521.29 503.412C522.441 503.25 523.305 503.864 523.502 505.264L524.102 509.534ZM526.616 505.25C526.947 507.607 528.769 509.005 530.78 508.723C532.027 508.547 532.855 507.795 533.248 507.075L533.428 508.351C533.642 509.876 532.832 510.753 531.612 510.924C530.517 511.078 529.595 510.656 529.248 509.899L527.682 510.119C528.114 511.783 529.767 512.583 531.805 512.297C534.19 511.962 535.314 510.206 535.022 508.126L533.931 500.363L532.336 500.587L532.492 501.696C531.929 501.111 530.919 500.659 529.671 500.834C527.661 501.117 526.285 502.894 526.616 505.25ZM532.872 504.399C533.104 506.049 532.112 507.136 530.919 507.303C529.741 507.469 528.47 506.672 528.238 505.022C528.006 503.373 529.018 502.326 530.197 502.16C531.389 501.992 532.642 502.763 532.872 504.399Z" fill="#1E266D"/>
<g clip-path="url(#clip3)">
<path d="M530.824 418.369C527.474 417.658 523.167 417.608 518.7 418.229C514.233 418.849 510.099 420.071 507.07 421.669C502.734 423.955 502.064 426.204 502.27 427.687L506.919 461.15C507.125 462.633 508.381 464.616 513.176 465.633C516.526 466.344 520.832 466.393 525.3 465.773C527.924 465.418 530.509 464.819 533.022 463.984C538.95 461.971 542.127 459.175 541.729 456.314L537.081 422.852C536.875 421.368 535.619 419.387 530.824 418.369ZM537.86 458.956C536.568 459.979 534.631 460.946 532.261 461.751C529.892 462.538 527.453 463.102 524.979 463.436C520.775 464.02 516.754 463.981 513.666 463.326C510.583 462.672 509.364 461.605 509.255 460.825L508.21 453.301C509.296 453.814 510.441 454.193 511.62 454.429C514.969 455.139 519.275 455.188 523.744 454.568C528.212 453.947 532.345 452.725 535.374 451.129C536.444 450.581 537.442 449.904 538.348 449.114L539.393 456.639C539.481 457.271 538.92 458.116 537.86 458.956ZM537.836 445.433C537.945 446.213 537.063 447.572 534.275 449.042C531.482 450.514 527.627 451.647 523.423 452.231C519.219 452.815 515.198 452.776 512.11 452.121C509.027 451.467 507.807 450.4 507.699 449.619L506.664 442.173C507.75 442.686 508.895 443.065 510.074 443.3C513.423 444.011 517.73 444.061 522.198 443.44C526.666 442.819 530.799 441.597 533.828 440C534.898 439.453 535.897 438.776 536.802 437.986L537.836 445.433ZM532.729 437.914C529.936 439.386 526.081 440.519 521.877 441.103C517.674 441.687 513.653 441.648 510.564 440.993C507.481 440.338 506.261 439.272 506.153 438.492L505.118 431.043C506.204 431.557 507.35 431.936 508.528 432.171C511.877 432.882 516.185 432.932 520.652 432.311C525.119 431.691 529.252 430.469 532.281 428.871C533.351 428.323 534.35 427.647 535.256 426.857L536.291 434.305C536.399 435.085 535.517 436.444 532.729 437.914ZM531.178 426.785C528.385 428.258 524.532 429.391 520.329 429.975C516.127 430.559 512.111 430.519 509.022 429.863C505.938 429.208 504.723 428.142 504.615 427.362C504.507 426.582 505.384 425.225 508.173 423.755C510.967 422.282 514.819 421.149 519.022 420.565C523.225 419.982 527.241 420.021 530.33 420.677C533.414 421.332 534.628 422.398 534.736 423.177C534.845 423.957 533.967 425.315 531.178 426.785Z" fill="#1D66FF"/>
<path d="M523.762 434.969L518.388 435.715C517.743 435.805 517.293 436.401 517.382 437.046C517.472 437.691 518.068 438.141 518.713 438.052L524.086 437.305C524.731 437.216 525.182 436.62 525.092 435.975C525.003 435.33 524.407 434.879 523.762 434.969Z" fill="#1D66FF"/>
<path d="M525.287 445.95L519.914 446.696C519.269 446.786 518.818 447.381 518.908 448.027C518.997 448.672 519.593 449.122 520.238 449.032L525.612 448.286C526.257 448.196 526.707 447.601 526.618 446.956C526.528 446.31 525.932 445.86 525.287 445.95Z" fill="#1D66FF"/>
<path d="M526.861 457.28L521.488 458.027C520.843 458.117 520.392 458.712 520.482 459.357C520.571 460.003 521.167 460.453 521.812 460.363L527.186 459.617C527.831 459.527 528.281 458.931 528.192 458.286C528.102 457.641 527.506 457.191 526.861 457.28Z" fill="#1D66FF"/>
</g>
<g clip-path="url(#clip4)">
<path d="M487.772 435.304C483.31 435.924 479.17 437.142 476.143 438.741C471.807 441.034 471.143 443.28 471.349 444.764L474.409 466.789L475.998 478.223C476.204 479.706 477.455 481.687 482.252 482.71C485.601 483.424 489.904 483.469 494.377 482.847C497.098 482.469 499.774 481.847 502.093 481.061C508.015 479.048 511.197 476.248 510.8 473.387L509.211 461.954L506.151 439.928C505.945 438.445 504.694 436.464 499.899 435.452C496.548 434.727 492.233 434.684 487.772 435.304ZM506.928 476.02C505.642 477.044 503.705 478.016 501.328 478.81C499.146 479.554 496.632 480.141 494.051 480.5C489.847 481.084 485.83 481.047 482.739 480.393C479.66 479.737 478.441 478.669 478.334 477.898L477.289 470.377C478.182 470.812 479.271 471.197 480.694 471.499C484.043 472.212 488.347 472.257 492.82 471.636C497.292 471.014 501.421 469.798 504.448 468.199C505.735 467.52 506.676 466.842 507.419 466.191L508.464 473.712C508.55 474.331 507.99 475.182 506.928 476.02ZM506.906 462.5C507.015 463.283 506.133 464.643 503.349 466.113C500.554 467.585 496.699 468.716 492.495 469.3C488.291 469.884 484.274 469.847 481.183 469.193C478.104 468.538 476.885 467.469 476.776 466.687L476.743 466.453L475.741 459.236C476.634 459.671 477.723 460.055 479.146 460.358C482.495 461.071 486.799 461.116 491.272 460.494C495.744 459.873 499.873 458.656 502.9 457.057C504.187 456.379 505.128 455.7 505.871 455.049L506.874 462.267L506.906 462.5ZM501.803 454.984C499.007 456.455 495.153 457.586 490.949 458.17C486.744 458.754 482.728 458.717 479.637 458.063C476.558 457.408 475.338 456.339 475.229 455.557L474.194 448.106C475.088 448.541 476.177 448.926 477.6 449.228C480.949 449.941 485.252 449.986 489.725 449.365C494.198 448.743 498.326 447.527 501.354 445.928C502.641 445.249 503.582 444.571 504.325 443.92L505.36 451.371C505.469 452.153 504.586 453.514 501.803 454.984ZM503.804 440.254C503.912 441.037 503.03 442.397 500.246 443.867C497.461 445.326 493.607 446.457 489.402 447.041C485.198 447.625 481.181 447.588 478.102 446.932C475.023 446.277 473.804 445.208 473.695 444.426C473.586 443.643 474.47 442.294 477.254 440.824C480.049 439.353 483.904 438.222 488.096 437.639C492.3 437.055 496.317 437.092 499.396 437.748C502.487 438.402 503.695 439.472 503.804 440.254Z" fill="#ED664C"/>
<path d="M492.835 452.04L487.463 452.786C486.82 452.875 486.368 453.474 486.457 454.116C486.546 454.759 487.145 455.211 487.787 455.122L493.159 454.376C493.802 454.286 494.254 453.688 494.165 453.045C494.076 452.403 493.477 451.951 492.835 452.04Z" fill="#ED664C"/>
<path d="M494.36 463.018L488.988 463.764C488.346 463.853 487.893 464.452 487.982 465.094C488.072 465.736 488.67 466.189 489.312 466.1L494.685 465.353C495.327 465.264 495.779 464.666 495.69 464.023C495.601 463.381 495.002 462.928 494.36 463.018Z" fill="#ED664C"/>
<path d="M495.934 474.346L490.562 475.092C489.92 475.181 489.467 475.78 489.556 476.422C489.645 477.065 490.244 477.517 490.886 477.428L496.258 476.681C496.901 476.592 497.353 475.994 497.264 475.351C497.175 474.709 496.576 474.256 495.934 474.346Z" fill="#ED664C"/>
</g>
<path d="M444.707 466.209C444.438 466.247 444.154 466.182 443.919 466.007L439.119 462.39C438.651 462.037 438.557 461.37 438.91 460.902L442.527 456.101C442.88 455.633 443.547 455.54 444.015 455.892C444.483 456.245 444.576 456.912 444.224 457.38L441.247 461.331L445.197 464.308C445.665 464.661 445.759 465.328 445.406 465.796C445.231 466.031 444.976 466.172 444.707 466.209Z" fill="#32BEA6"/>
<path d="M458.847 459.931L440.431 462.519C439.85 462.6 439.312 462.195 439.231 461.614C439.149 461.034 439.554 460.496 440.135 460.414L458.551 457.826C459.132 457.745 459.669 458.15 459.751 458.731C459.832 459.311 459.427 459.849 458.847 459.931Z" fill="#32BEA6"/>
<path d="M456.708 475.253C456.439 475.291 456.155 475.226 455.92 475.05C455.452 474.698 455.358 474.031 455.711 473.563L458.688 469.612L454.737 466.635C454.269 466.282 454.175 465.615 454.528 465.147C454.881 464.679 455.548 464.585 456.016 464.938L460.816 468.555C461.284 468.908 461.378 469.575 461.025 470.043L457.408 474.843C457.232 475.074 456.977 475.215 456.708 475.253Z" fill="#32BEA6"/>
<path d="M459.801 470.526L441.386 473.114C440.805 473.196 440.267 472.791 440.186 472.21C440.104 471.629 440.509 471.092 441.09 471.01L459.506 468.422C460.086 468.34 460.624 468.745 460.706 469.326C460.787 469.907 460.382 470.445 459.801 470.526Z" fill="#32BEA6"/>
<path d="M432.543 638.009C432.237 635.832 433.432 634.279 435.345 634.01C437.258 633.741 438.836 634.905 439.142 637.081C439.448 639.258 438.256 640.839 436.343 641.108C434.43 641.377 432.848 640.185 432.543 638.009ZM440.764 636.853C440.358 633.97 437.895 632.238 435.15 632.623C432.433 633.005 430.515 635.353 430.92 638.237C431.328 641.134 433.818 642.862 436.536 642.48C437.021 642.412 437.471 642.293 437.883 642.107L439.831 643.7L441.842 643.417L439.182 641.289C440.38 640.258 441.019 638.669 440.764 636.853ZM448.884 632.856L447.304 633.078L447.902 637.335C448.098 638.735 447.437 639.563 446.273 639.727C445.122 639.888 444.258 639.275 444.061 637.874L443.463 633.618L441.897 633.838L442.528 638.33C442.828 640.465 444.344 641.397 446.133 641.146C447.034 641.019 447.841 640.524 448.249 639.802L448.377 640.717L449.958 640.495L448.884 632.856ZM454.355 633.317C455.534 633.152 456.568 633.77 456.761 634.944L452.533 635.539C452.529 634.309 453.288 633.467 454.355 633.317ZM458.517 636.974L456.811 637.213C456.604 637.85 456.13 638.398 455.159 638.534C453.995 638.698 452.986 638.062 452.698 636.816L458.535 635.996C458.539 635.726 458.518 635.475 458.481 635.212C458.165 632.966 456.414 631.671 454.237 631.977C451.978 632.294 450.641 634.051 450.978 636.45C451.315 638.848 453.156 640.173 455.346 639.865C457.218 639.602 458.274 638.365 458.517 636.974ZM461.615 634.757C461.387 633.135 462.04 632.548 463.204 632.385L463.606 632.328L463.376 630.692C462.295 630.844 461.599 631.423 461.262 632.248L461.106 631.139L459.526 631.361L460.599 639L462.18 638.777L461.615 634.757ZM468.673 636.013L465.706 630.492L463.945 630.74L468.01 637.831L466.979 641.765L468.615 641.535L471.723 629.646L470.087 629.876L468.673 636.013ZM481.757 629.141C481.892 630.098 481.433 630.855 480.199 631.028L478.452 631.274L477.998 628.044L479.745 627.798C480.979 627.625 481.621 628.171 481.757 629.141ZM476.236 626.976L477.591 636.612L479.171 636.39L478.629 632.535L479.836 632.366L482.595 635.908L484.481 635.643L481.535 631.986C483.101 631.356 483.539 630.05 483.38 628.913C483.159 627.346 481.851 626.187 479.564 626.509L476.236 626.976ZM488.663 628.496C489.841 628.33 490.875 628.948 491.068 630.123L486.84 630.717C486.837 629.487 487.595 628.646 488.663 628.496ZM492.824 632.152L491.119 632.392C490.911 633.029 490.437 633.576 489.466 633.713C488.302 633.876 487.294 633.24 487.005 631.994L492.842 631.174C492.847 630.905 492.825 630.653 492.788 630.39C492.473 628.144 490.721 626.849 488.545 627.155C486.285 627.473 484.949 629.23 485.286 631.628C485.623 634.027 487.463 635.351 489.654 635.044C491.525 634.781 492.581 633.543 492.824 632.152ZM500.305 631.242C499.834 628.495 495.643 629.961 495.427 628.422C495.355 627.909 495.75 627.5 496.595 627.381C497.455 627.26 498.032 627.645 498.181 628.303L499.762 628.081C499.464 626.568 498.197 625.799 496.464 626.042C494.661 626.295 493.663 627.44 493.834 628.66C494.228 631.46 498.544 629.977 498.754 631.474C498.828 632.001 498.397 632.457 497.482 632.586C496.609 632.709 495.941 632.28 495.798 631.664L494.162 631.893C494.426 633.27 495.867 634.17 497.697 633.913C499.499 633.66 500.486 632.532 500.305 631.242ZM508.157 624.526L506.576 624.748L507.175 629.004C507.371 630.405 506.71 631.233 505.546 631.396C504.395 631.558 503.531 630.944 503.334 629.544L502.736 625.288L501.17 625.508L501.801 630C502.101 632.135 503.617 633.067 505.406 632.816C506.307 632.689 507.114 632.194 507.521 631.472L507.65 632.387L509.231 632.165L508.157 624.526ZM511.316 631.872L512.896 631.65L511.454 621.391L509.874 621.613L511.316 631.872ZM514.923 629.202C515.141 630.755 516.067 631.204 517.425 631.013L518.673 630.838L518.488 629.521L517.517 629.657C516.852 629.751 516.597 629.546 516.517 628.978L515.923 624.749L517.781 624.488L517.599 623.199L515.742 623.46L515.475 621.561L513.88 621.785L514.147 623.684L513.246 623.811L513.427 625.1L514.329 624.973L514.923 629.202ZM522.524 625.363C522.931 628.26 525.42 629.974 528.137 629.593C530.148 629.31 531.74 628.068 532.21 626.08L530.311 626.347C529.942 627.445 529.095 628.058 527.945 628.22C526.031 628.489 524.452 627.311 524.146 625.135C523.84 622.958 525.036 621.405 526.949 621.136C528.1 620.974 529.083 621.331 529.74 622.284L531.639 622.017C530.64 620.235 528.764 619.467 526.754 619.749C524.037 620.131 522.119 622.479 522.524 625.363ZM533.385 624.84C533.716 627.197 535.539 628.595 537.521 628.316C538.797 628.137 539.626 627.398 540.02 626.679L540.179 627.815L541.774 627.591L540.7 619.952L539.106 620.176L539.262 621.286C538.703 620.728 537.73 620.243 536.44 620.424C534.43 620.706 533.054 622.483 533.385 624.84ZM539.642 623.989C539.874 625.639 538.881 626.725 537.689 626.893C536.51 627.059 535.239 626.262 535.007 624.612C534.775 622.962 535.788 621.915 536.966 621.75C538.158 621.582 539.412 622.353 539.642 623.989ZM542.785 623.547C543.122 625.946 544.893 627.28 547.084 626.972C548.955 626.709 550.029 625.498 550.248 623.94L548.543 624.18C548.363 625.011 547.839 625.509 546.897 625.641C545.621 625.821 544.643 624.997 544.407 623.319C544.173 621.656 544.886 620.594 546.162 620.415C547.105 620.282 547.781 620.668 548.148 621.366L549.853 621.126C549.197 619.578 547.847 618.821 545.975 619.084C543.784 619.392 542.45 621.163 542.785 623.547ZM552.162 626.131L553.743 625.909L553.143 621.639C552.946 620.239 553.607 619.411 554.772 619.247C555.922 619.085 556.786 619.699 556.983 621.099L557.583 625.369L559.15 625.149L558.517 620.644C558.217 618.509 556.728 617.573 555.023 617.812C554.038 617.951 553.231 618.446 552.794 619.157L552.301 615.65L550.721 615.872L552.162 626.131ZM561.166 624.866L562.746 624.644L561.673 617.005L560.092 617.227L561.166 624.866ZM560.754 616.102C561.309 616.024 561.69 615.518 561.61 614.95C561.53 614.381 561.024 614 560.47 614.078C559.901 614.158 559.52 614.664 559.6 615.232C559.68 615.801 560.186 616.182 560.754 616.102ZM570.242 623.59L571.809 623.37L571.175 618.864C570.875 616.729 569.373 615.795 567.584 616.047C566.669 616.175 565.876 616.669 565.451 617.365L565.328 616.491L563.748 616.713L564.821 624.352L566.402 624.13L565.802 619.86C565.605 618.46 566.266 617.632 567.431 617.468C568.581 617.306 569.445 617.92 569.642 619.32L570.242 623.59ZM572.756 619.307C573.087 621.664 574.91 623.062 576.92 622.779C578.168 622.604 578.995 621.851 579.389 621.131L579.568 622.407C579.782 623.932 578.972 624.809 577.752 624.981C576.657 625.135 575.735 624.713 575.389 623.956L573.822 624.176C574.254 625.84 575.907 626.64 577.945 626.353C580.33 626.018 581.454 624.262 581.162 622.183L580.071 614.419L578.477 614.643L578.633 615.752C578.07 615.167 577.059 614.715 575.811 614.891C573.801 615.173 572.425 616.95 572.756 619.307ZM579.013 618.456C579.244 620.106 578.252 621.192 577.06 621.36C575.881 621.525 574.61 620.729 574.378 619.079C574.146 617.429 575.158 616.382 576.337 616.216C577.529 616.049 578.783 616.82 579.013 618.456Z" fill="#1E266D"/>
<g clip-path="url(#clip5)">
<path d="M494.8 555.89C490.897 556.432 487.274 557.498 484.625 558.898C480.831 560.904 480.25 562.87 480.43 564.168L483.108 583.44L484.498 593.444C484.678 594.742 485.773 596.475 489.97 597.371C492.901 597.995 496.666 598.034 500.58 597.491C502.961 597.16 505.302 596.616 507.331 595.928C512.513 594.166 515.298 591.717 514.95 589.213L513.56 579.209L510.882 559.937C510.702 558.639 509.607 556.906 505.411 556.02C502.48 555.386 498.704 555.348 494.8 555.89ZM511.562 591.517C510.436 592.413 508.742 593.263 506.662 593.958C504.752 594.609 502.553 595.123 500.295 595.437C496.616 595.948 493.101 595.915 490.397 595.343C487.703 594.77 486.636 593.835 486.542 593.16L485.627 586.579C486.41 586.96 487.362 587.297 488.607 587.561C491.538 588.185 495.303 588.224 499.217 587.681C503.131 587.137 506.743 586.072 509.392 584.673C510.518 584.079 511.342 583.486 511.992 582.916L512.906 589.497C512.981 590.039 512.491 590.784 511.562 591.517ZM511.543 579.687C511.638 580.372 510.866 581.562 508.431 582.849C505.985 584.136 502.612 585.126 498.933 585.637C495.254 586.148 491.74 586.115 489.035 585.543C486.341 584.97 485.274 584.035 485.179 583.35L485.15 583.146L484.273 576.831C485.055 577.212 486.008 577.548 487.253 577.812C490.183 578.436 493.949 578.476 497.863 577.932C501.776 577.388 505.389 576.324 508.038 574.925C509.164 574.331 509.987 573.737 510.637 573.168L511.515 579.483L511.543 579.687ZM507.077 573.11C504.632 574.398 501.259 575.387 497.58 575.898C493.901 576.41 490.387 576.377 487.682 575.805C484.988 575.231 483.921 574.296 483.826 573.612L482.92 567.092C483.702 567.473 484.655 567.809 485.9 568.074C488.83 568.698 492.596 568.737 496.51 568.193C500.423 567.65 504.036 566.585 506.685 565.186C507.811 564.592 508.634 563.999 509.284 563.429L510.19 569.949C510.285 570.633 509.513 571.824 507.077 573.11ZM508.828 560.222C508.923 560.907 508.151 562.097 505.716 563.383C503.279 564.659 499.906 565.649 496.227 566.16C492.548 566.671 489.034 566.639 486.34 566.065C483.645 565.492 482.578 564.557 482.483 563.872C482.388 563.187 483.161 562.007 485.597 560.721C488.043 559.433 491.416 558.444 495.084 557.934C498.763 557.423 502.278 557.455 504.972 558.029C507.676 558.601 508.733 559.537 508.828 560.222Z" fill="#ED664C"/>
<path d="M499.23 570.534L494.53 571.187C493.968 571.265 493.572 571.789 493.65 572.351C493.728 572.913 494.252 573.309 494.814 573.231L499.514 572.578C500.076 572.5 500.472 571.976 500.394 571.414C500.316 570.852 499.792 570.456 499.23 570.534Z" fill="#ED664C"/>
<path d="M500.565 580.139L495.864 580.793C495.302 580.871 494.906 581.394 494.985 581.956C495.063 582.518 495.586 582.914 496.148 582.836L500.849 582.183C501.411 582.105 501.807 581.581 501.729 581.019C501.651 580.457 501.127 580.061 500.565 580.139Z" fill="#ED664C"/>
<path d="M501.942 590.052L497.242 590.705C496.68 590.783 496.284 591.307 496.362 591.869C496.44 592.431 496.964 592.827 497.526 592.748L502.226 592.095C502.788 592.017 503.184 591.494 503.106 590.931C503.028 590.369 502.504 589.974 501.942 590.052Z" fill="#ED664C"/>
</g>
<g clip-path="url(#clip6)">
<path d="M518.877 600.887C526.866 593.957 530.942 583.544 529.781 573.032C527.812 555.359 511.889 542.629 494.217 544.597C477.759 546.431 465.375 560.45 465.587 577.008L459.571 572.187C459.001 571.713 458.155 571.792 457.682 572.362C457.209 572.932 457.287 573.778 457.857 574.251C457.869 574.261 457.881 574.271 457.894 574.28L466.268 580.99C466.406 581.101 466.564 581.183 466.734 581.232C467.075 581.331 467.442 581.29 467.753 581.119C467.908 581.035 468.045 580.92 468.156 580.782L474.866 572.408C475.319 571.822 475.211 570.979 474.625 570.526C474.054 570.084 473.234 570.174 472.772 570.731L468.264 576.357C468.384 560.067 481.687 546.958 497.977 547.078C514.267 547.197 527.376 560.5 527.256 576.79C527.136 593.081 513.833 606.189 497.543 606.069C489.071 606.007 481.035 602.305 475.482 595.906C475.009 595.335 474.164 595.256 473.593 595.728C473.022 596.201 472.943 597.047 473.416 597.617C473.429 597.633 473.443 597.649 473.457 597.665C485.11 611.097 505.445 612.54 518.877 600.887Z" fill="#1D66FF"/>
</g>
<defs>
<filter id="filter0_d" x="0.258724" y="184.266" width="337.135" height="377.987" filterUnits="userSpaceOnUse" color-interpolation-filters="sRGB">
<feFlood flood-opacity="0" result="BackgroundImageFix"/>
<feColorMatrix in="SourceAlpha" type="matrix" values="0 0 0 0 0 0 0 0 0 0 0 0 0 0 0 0 0 0 127 0"/>
<feOffset dy="4"/>
<feGaussianBlur stdDeviation="14"/>
<feColorMatrix type="matrix" values="0 0 0 0 0 0 0 0 0 0 0 0 0 0 0 0 0 0 0.05 0"/>
<feBlend mode="normal" in2="BackgroundImageFix" result="effect1_dropShadow"/>
<feBlend mode="normal" in="SourceGraphic" in2="effect1_dropShadow" result="shape"/>
</filter>
<filter id="filter1_d" x="246.071" y="0.581055" width="392.126" height="388.23" filterUnits="userSpaceOnUse" color-interpolation-filters="sRGB">
<feFlood flood-opacity="0" result="BackgroundImageFix"/>
<feColorMatrix in="SourceAlpha" type="matrix" values="0 0 0 0 0 0 0 0 0 0 0 0 0 0 0 0 0 0 127 0"/>
<feOffset dy="4"/>
<feGaussianBlur stdDeviation="14"/>
<feColorMatrix type="matrix" values="0 0 0 0 0 0 0 0 0 0 0 0 0 0 0 0 0 0 0.05 0"/>
<feBlend mode="normal" in2="BackgroundImageFix" result="effect1_dropShadow"/>
<feBlend mode="normal" in="SourceGraphic" in2="effect1_dropShadow" result="shape"/>
</filter>
<filter id="filter2_d" x="296" y="322" width="395.111" height="396.813" filterUnits="userSpaceOnUse" color-interpolation-filters="sRGB">
<feFlood flood-opacity="0" result="BackgroundImageFix"/>
<feColorMatrix in="SourceAlpha" type="matrix" values="0 0 0 0 0 0 0 0 0 0 0 0 0 0 0 0 0 0 127 0"/>
<feOffset dy="4"/>
<feGaussianBlur stdDeviation="14"/>
<feColorMatrix type="matrix" values="0 0 0 0 0 0 0 0 0 0 0 0 0 0 0 0 0 0 0.05 0"/>
<feBlend mode="normal" in2="BackgroundImageFix" result="effect1_dropShadow"/>
<feBlend mode="normal" in="SourceGraphic" in2="effect1_dropShadow" result="shape"/>
</filter>
<clipPath id="clip0">
<rect width="52" height="52" fill="white" transform="translate(75.0251 308.362) rotate(-7)"/>
</clipPath>
<clipPath id="clip1">
<rect width="52" height="51.1888" fill="white" transform="translate(178.075 296.359) rotate(-7)"/>
</clipPath>
<clipPath id="clip2">
<rect width="45.5" height="52" fill="white" transform="translate(149 438.545) rotate(-7)"/>
</clipPath>
<clipPath id="clip3">
<rect width="48" height="48" fill="white" transform="translate(494.926 421.531) rotate(-7.90878)"/>
</clipPath>
<clipPath id="clip4">
<rect width="48" height="48" fill="white" transform="translate(464 438.607) rotate(-7.91)"/>
</clipPath>
<clipPath id="clip5">
<rect width="42" height="42" fill="white" transform="translate(474 558.78) rotate(-7.91)"/>
</clipPath>
<clipPath id="clip6">
<rect width="72" height="72" fill="white" transform="translate(525.836 537.27) rotate(83.7055)"/>
</clipPath>
</defs>
</svg>
