<svg width="686" height="454" viewBox="0 0 686 454" fill="none" xmlns="http://www.w3.org/2000/svg">
<g clip-path="url(#clip0)">
<path d="M527.226 303.133C540.589 310.848 540.672 323.436 527.392 331.114L406.427 401.369C393.147 409.084 371.479 409.084 358.116 401.369L183.7 300.651C170.337 292.936 170.273 280.349 183.543 272.671L304.518 202.369C317.788 194.654 339.456 194.663 352.819 202.369L527.226 303.133ZM406.26 401.268L527.226 330.975C540.413 323.316 540.339 310.839 527.069 303.18L352.653 202.47C339.373 194.802 317.853 194.811 304.665 202.47L183.681 272.763C170.494 280.432 170.568 292.89 183.838 300.559L358.254 401.268C371.516 408.927 393.045 408.937 406.242 401.268" fill="#E3E3E3"/>
<path d="M527.069 303.179C540.339 310.839 540.413 323.316 527.226 330.975L406.26 401.268C393.073 408.937 371.543 408.927 358.273 401.268L183.857 300.559C170.586 292.899 170.513 280.432 183.7 272.763L304.665 202.47C317.853 194.811 339.373 194.802 352.653 202.47L527.069 303.179Z" fill="#E3E3E3"/>
<path d="M437.074 102.176L437.056 109.698L398.85 104.161L398.878 96.6394L437.074 102.176Z" fill="#E3E3E3"/>
<path d="M437.148 102.324L437.129 109.845L398.666 104.271L398.684 96.7502L437.148 102.324Z" fill="#E3E3E3"/>
<path d="M398.878 96.6395L398.85 104.161L387.924 82.2433L387.942 74.7222L398.878 96.6395Z" fill="#E3E3E3"/>
<path d="M415.212 58.3418L415.184 65.8629L387.924 82.2433L387.942 74.7222L415.212 58.3418Z" fill="#E3E3E3"/>
<path d="M464.344 85.796L464.325 93.3172L453.39 71.3998L453.408 63.8787L464.344 85.796Z" fill="#E3E3E3"/>
<path d="M398.684 96.7501L398.666 104.271L387.656 82.2062L387.684 74.6851L398.684 96.7501Z" fill="#E3E3E3"/>
<path d="M453.408 63.8788L464.344 85.7962L437.074 102.177L398.878 96.6395L387.942 74.7222L415.212 58.3418L453.408 63.8788Z" fill="#E3E3E3"/>
<path d="M418.433 88.1863C417.132 87.4296 417.122 86.2022 418.433 85.4178L420.795 84.0428L423.167 85.4178C424.477 86.1746 424.477 87.3927 423.167 88.1863C422.433 88.557 421.622 88.7502 420.8 88.7502C419.978 88.7502 419.167 88.557 418.433 88.1863ZM412.462 77.9059C411.142 77.1492 411.142 75.9219 412.462 75.1374C413.193 74.7625 414.003 74.567 414.824 74.567C415.646 74.567 416.456 74.7625 417.187 75.1374L419.559 76.5032L417.205 77.869C416.474 78.2418 415.664 78.4361 414.843 78.4361C414.022 78.4361 413.212 78.2418 412.48 77.869L412.462 77.9059ZM412.48 84.7165C411.17 83.9598 411.17 82.7324 412.48 81.948L418.377 78.5242C419.109 78.1515 419.919 77.9572 420.74 77.9572C421.561 77.9572 422.371 78.1515 423.102 78.5242C424.413 79.281 424.422 80.5083 423.102 81.2927L417.205 84.7165C416.474 85.0892 415.664 85.2835 414.843 85.2835C414.022 85.2835 413.212 85.0892 412.48 84.7165ZM424.311 84.7165C423.001 83.9598 423.001 82.7232 424.311 81.948C425.043 81.5752 425.853 81.3809 426.674 81.3809C427.495 81.3809 428.304 81.5752 429.036 81.948L434.979 85.3809C436.28 86.1284 436.299 87.3558 434.979 88.1494C434.246 88.5223 433.435 88.7166 432.612 88.7166C431.789 88.7166 430.978 88.5223 430.245 88.1494L424.302 84.7257L424.311 84.7165ZM418.331 74.4269C417.03 73.6701 417.012 72.4428 418.331 71.6584C419.065 71.2855 419.876 71.0912 420.698 71.0912C421.521 71.0912 422.332 71.2855 423.065 71.6584L429.008 75.0913C430.319 75.848 430.319 77.0754 429.008 77.8598C428.277 78.2347 427.468 78.4303 426.646 78.4303C425.824 78.4303 425.015 78.2347 424.284 77.8598L418.34 74.4361L418.331 74.4269ZM433.78 83.3507L436.133 81.9757C436.863 81.6023 437.671 81.4076 438.491 81.4076C439.31 81.4076 440.119 81.6023 440.848 81.9757C442.159 82.7324 442.177 83.9598 440.848 84.7442C440.117 85.1169 439.307 85.3112 438.486 85.3112C437.665 85.3112 436.855 85.1169 436.124 84.7442L433.752 83.3784L433.78 83.3507ZM430.162 74.4638C428.852 73.707 428.842 72.4797 430.162 71.6952C430.894 71.3225 431.703 71.1282 432.525 71.1282C433.346 71.1282 434.155 71.3225 434.887 71.6952C436.197 72.452 436.207 73.6793 434.887 74.4638L432.525 75.8296L430.153 74.4638H430.162ZM430.153 81.3205C428.842 80.573 428.842 79.3456 430.153 78.5519L436.068 75.119C436.8 74.7463 437.609 74.5519 438.431 74.5519C439.252 74.5519 440.061 74.7463 440.793 75.119C442.104 75.8757 442.104 77.0939 440.793 77.8875L434.887 81.3205C434.155 81.6932 433.346 81.8875 432.525 81.8875C431.703 81.8875 430.894 81.6932 430.162 81.3205H430.153ZM453.344 63.8788L415.138 58.3418L387.868 74.7222L398.804 96.6395L437.009 102.177L464.27 85.7962L453.344 63.8788Z" fill="white"/>
<path d="M398.878 96.6394L387.942 74.722L415.212 58.3417L453.417 63.8787L464.344 85.7961L437.111 102.176L398.905 96.6394H398.878ZM453.63 63.768L415.166 58.231L387.711 74.722L398.712 96.7871L437.176 102.324L464.63 85.833L453.63 63.768Z" fill="white"/>
<path d="M423.093 78.5888C422.361 78.216 421.552 78.0217 420.731 78.0217C419.909 78.0217 419.1 78.216 418.368 78.5888L412.471 82.0125C411.179 82.7693 411.179 83.9966 412.471 84.781C413.203 85.1538 414.012 85.3481 414.834 85.3481C415.655 85.3481 416.464 85.1538 417.196 84.781L423.093 81.3573C424.394 80.6006 424.385 79.3732 423.093 78.5888Z" fill="#FF7EA2"/>
<path d="M419.577 76.5401L417.168 75.1928C416.437 74.8179 415.628 74.6223 414.806 74.6223C413.984 74.6223 413.175 74.8179 412.444 75.1928C411.142 75.9495 411.142 77.1769 412.444 77.9613C413.175 78.334 413.985 78.5283 414.806 78.5283C415.627 78.5283 416.437 78.334 417.168 77.9613L419.522 76.5955" fill="#FF7EA2"/>
<path d="M434.914 71.7228C434.183 71.3501 433.373 71.1558 432.552 71.1558C431.731 71.1558 430.921 71.3501 430.19 71.7228C428.879 72.4795 428.888 73.7069 430.19 74.4913L432.561 75.8571L434.924 74.4913C436.225 73.7346 436.216 72.5072 434.924 71.7228" fill="#00BCD4"/>
<path d="M429.008 75.1927L423.065 71.7598C422.332 71.3869 421.521 71.1926 420.698 71.1926C419.876 71.1926 419.065 71.3869 418.331 71.7598C417.03 72.5165 417.048 73.7439 418.331 74.5283L424.274 77.952C425.005 78.3269 425.815 78.5225 426.637 78.5225C427.458 78.5225 428.268 78.3269 428.999 77.952C430.3 77.1953 430.3 75.9679 428.999 75.1835" fill="#00BCD4"/>
<path d="M440.867 82.0032C440.137 81.6298 439.329 81.4351 438.509 81.4351C437.689 81.4351 436.881 81.6298 436.151 82.0032L433.798 83.3782L436.17 84.744C436.901 85.1167 437.711 85.311 438.532 85.311C439.353 85.311 440.163 85.1167 440.895 84.744C442.205 83.9873 442.186 82.7599 440.895 81.9755" fill="#82D24A"/>
<path d="M440.858 75.1928C440.126 74.82 439.316 74.6257 438.495 74.6257C437.674 74.6257 436.864 74.82 436.133 75.1928L430.217 78.6257C428.925 79.3825 428.925 80.6098 430.217 81.3943C430.949 81.767 431.759 81.9613 432.58 81.9613C433.401 81.9613 434.211 81.767 434.942 81.3943L440.848 77.9613C442.15 77.2046 442.15 75.9864 440.848 75.1928" fill="#82D24A"/>
<path d="M423.148 85.4453L420.777 84.0703L418.414 85.4453C417.122 86.2021 417.132 87.4294 418.414 88.2138C419.148 88.5845 419.959 88.7777 420.781 88.7777C421.604 88.7777 422.414 88.5845 423.148 88.2138C424.44 87.4571 424.44 86.239 423.148 85.4453Z" fill="#FE9B5B"/>
<path d="M434.979 85.4546L429.036 82.0216C428.304 81.6489 427.495 81.4546 426.674 81.4546C425.852 81.4546 425.043 81.6489 424.311 82.0216C423.01 82.7691 423.01 84.0057 424.311 84.7902L430.254 88.2139C430.988 88.5867 431.799 88.781 432.621 88.781C433.444 88.781 434.255 88.5867 434.988 88.2139C436.29 87.4571 436.271 86.2298 434.988 85.4454" fill="#FE9B5B"/>
<path d="M464.602 85.833L437.157 102.324L398.693 96.7871L387.684 74.722L415.138 58.231L453.593 63.768L464.602 85.833ZM398.878 96.6394L437.074 102.176L464.344 85.7961L453.408 63.8787L415.212 58.3417L387.942 74.722L398.878 96.6394Z" fill="#E3E3E3"/>
<path d="M464.344 85.7961L464.325 93.3173L437.056 109.698L437.074 102.176L464.344 85.7961Z" fill="#E3E3E3"/>
<path d="M464.602 85.833L464.584 93.3541L437.129 109.845L437.148 102.324L464.602 85.833Z" fill="#E3E3E3"/>
<path d="M452.725 93.022C454.266 92.0992 455.494 92.8467 455.494 94.6277C455.444 95.5931 455.167 96.5331 454.686 97.3716C454.205 98.2101 453.533 98.9236 452.725 99.4542C451.175 100.377 449.911 99.6295 449.911 97.8577C449.961 96.8859 450.243 95.9402 450.733 95.0992C451.222 94.2582 451.905 93.5461 452.725 93.022Z" fill="white"/>
<path d="M452.725 92.8283C454.35 91.9054 455.688 92.6437 455.697 94.5263C455.642 95.5521 455.346 96.5504 454.833 97.4403C454.32 98.3302 453.604 99.0866 452.744 99.648C451.101 100.571 449.763 99.8326 449.763 97.9593C449.816 96.9307 450.112 95.9295 450.627 95.0376C451.142 94.1457 451.861 93.3885 452.725 92.8283ZM452.725 99.4543C453.533 98.9237 454.205 98.2102 454.686 97.3717C455.167 96.5332 455.444 95.5932 455.494 94.6278C455.494 92.8467 454.23 92.1269 452.725 93.0221C451.914 93.5514 451.24 94.2658 450.759 95.1065C450.277 95.9471 450.003 96.8901 449.957 97.8577C449.957 99.6296 451.221 100.349 452.771 99.4543" fill="white"/>
<path d="M452.559 94.2218C453.611 93.6127 454.469 94.1018 454.469 95.3015C454.434 95.959 454.244 96.5988 453.913 97.1683C453.583 97.7378 453.122 98.2208 452.568 98.5776C451.526 99.1866 450.723 98.6975 450.667 97.4979C450.701 96.8412 450.891 96.2019 451.22 95.6324C451.548 95.063 452.007 94.5796 452.559 94.2218Z" fill="#0194FF"/>
<path d="M685.419 311.439L685.4 318.96L656.709 303.327L656.728 295.797L685.419 311.439Z" fill="#E3E3E3"/>
<path d="M638.815 340.13L638.797 347.651L610.115 332.009L610.134 324.488L638.815 340.13Z" fill="#E3E3E3"/>
<path d="M619.085 302.322L619.067 309.852L610.115 332.009L610.134 324.488L619.085 302.322Z" fill="#E3E3E3"/>
<path d="M685.419 311.439L676.458 333.606L638.815 340.13L610.134 324.488L619.085 302.322L656.728 295.797L685.419 311.439Z" fill="#E3E3E3"/>
<path d="M645.331 319.505C646.414 320.079 647.63 320.359 648.856 320.317H650.831L651.348 328.373C650.969 328.305 650.603 328.184 650.259 328.013L630.639 317.354H630.565C630.314 317.215 630.1 317.019 629.938 316.782L643.854 316.561L643.919 317.705C643.983 318.105 644.146 318.484 644.392 318.806C644.639 319.128 644.961 319.384 645.331 319.551V319.505ZM629.873 315.656C630.018 315.391 630.235 315.173 630.501 315.029L642.221 307.775C642.548 307.585 642.903 307.448 643.273 307.369L643.789 315.426L629.873 315.656ZM653.258 328.345L652.732 320.289L666.648 320.058C666.503 320.322 666.289 320.542 666.03 320.695L654.301 327.939C653.979 328.134 653.626 328.271 653.258 328.345ZM646.678 318.766C646.454 318.664 646.26 318.507 646.111 318.311C645.963 318.114 645.866 317.884 645.829 317.641L645.174 307.332C645.557 307.398 645.927 307.523 646.272 307.702L665.882 318.351H665.956C666.209 318.484 666.424 318.677 666.584 318.914L648.782 319.2C648.05 319.232 647.324 319.066 646.678 318.72V318.766ZM685.742 312.067L657.835 295.954L619.833 301.851L609.774 323.86L637.69 339.982L675.655 334.085L685.714 312.067" fill="white"/>
<path d="M609.801 323.86L619.833 301.851L657.807 295.954L685.714 312.067L675.655 334.085L637.689 339.982L609.774 323.86H609.801ZM685.972 312.03L657.872 295.806L619.639 301.74L609.488 323.888L637.588 340.112L675.821 334.178L685.972 312.03Z" fill="white"/>
<path d="M666.648 320.012L652.732 320.243L653.258 328.299C653.626 328.225 653.979 328.087 654.3 327.893L666.03 320.667C666.289 320.514 666.503 320.295 666.648 320.031" fill="#FC9951"/>
<path d="M665.974 318.351H665.901L646.272 307.655C645.927 307.476 645.557 307.352 645.174 307.286L645.829 317.594C645.866 317.838 645.963 318.068 646.111 318.264C646.26 318.461 646.454 318.617 646.678 318.72C647.323 319.066 648.05 319.232 648.782 319.2L666.583 318.914C666.424 318.677 666.209 318.484 665.956 318.351" fill="#FC9951"/>
<path d="M643.273 307.323C642.903 307.402 642.548 307.539 642.221 307.729L630.501 314.983C630.235 315.127 630.017 315.345 629.873 315.61L643.789 315.38L643.273 307.323Z" fill="#FC9951"/>
<path d="M650.831 320.28H648.856C647.63 320.322 646.414 320.042 645.331 319.468C644.961 319.301 644.639 319.045 644.392 318.723C644.146 318.401 643.983 318.022 643.919 317.622L643.854 316.478L629.938 316.699C630.1 316.936 630.314 317.132 630.565 317.271H630.639L650.286 327.976C650.63 328.147 650.997 328.268 651.375 328.336L650.858 320.28" fill="#FC9951"/>
<path d="M685.677 311.439L676.652 333.744L638.76 340.315L609.875 324.571L618.91 302.211L656.811 295.64L685.677 311.439ZM638.815 340.167L676.458 333.587L685.419 311.439L656.737 295.751L619.085 302.285L610.134 324.433L638.815 340.121" fill="#E3E3E3"/>
<path d="M676.458 333.606L676.439 341.127L638.797 347.651L638.815 340.13L676.458 333.606Z" fill="#E3E3E3"/>
<path d="M676.652 333.707L676.633 341.228L638.732 347.799L638.76 340.278L676.652 333.707Z" fill="#E3E3E3"/>
<path d="M685.419 311.439L685.4 318.96L676.439 341.127L676.458 333.606L685.419 311.439Z" fill="#E3E3E3"/>
<path d="M685.668 311.402L685.649 318.923L676.633 341.228L676.652 333.707L685.668 311.402Z" fill="#E3E3E3"/>
<path d="M638.76 340.278L638.732 347.799L609.857 332.055L609.875 324.534L638.76 340.278Z" fill="#E3E3E3"/>
<path d="M625.833 339.43C627.012 338.792 627.077 336.626 625.977 334.59C624.877 332.554 623.029 331.42 621.85 332.057C620.671 332.694 620.606 334.861 621.706 336.897C622.806 338.933 624.654 340.067 625.833 339.43Z" fill="white"/>
<path d="M623.524 333.153C624.176 333.58 624.719 334.154 625.108 334.829C625.498 335.504 625.723 336.26 625.766 337.038C625.766 338.469 624.751 339.041 623.506 338.33C622.853 337.905 622.311 337.331 621.923 336.656C621.535 335.981 621.312 335.223 621.272 334.445C621.263 333.015 622.278 332.443 623.524 333.153Z" fill="#0194FF"/>
<path d="M413.108 179.086L508.529 126.641" stroke="#1D66FF" stroke-width="5" stroke-miterlimit="10"/>
<path d="M250.236 169.359L162.632 116.868" stroke="#1D66FF" stroke-width="5" stroke-miterlimit="10"/>
<path d="M163.933 116.868L111.82 148.134" stroke="#1D66FF" stroke-width="5" stroke-miterlimit="10"/>
<path d="M507.994 127.997L453.27 96.7317" stroke="#1D66FF" stroke-width="5" stroke-miterlimit="10"/>
<path d="M167.873 240.722L167.938 218.149C167.938 223.068 171.168 227.987 177.665 231.743L177.6 254.306C171.103 250.532 167.855 245.632 167.873 240.722Z" fill="#1D66FF"/>
<path d="M535.541 248.76L535.476 271.333C535.476 276.187 532.274 281.032 525.897 284.732L525.962 262.16C532.338 258.459 535.522 253.614 535.541 248.76Z" fill="#1D66FF"/>
<path d="M525.962 262.159L525.897 284.732L401.803 356.842L401.868 334.279L525.962 262.159Z" fill="#1D66FF"/>
<path d="M355.265 334.279L355.2 356.852L177.6 254.306L177.665 231.743L355.265 334.279Z" fill="#1D66FF"/>
<path d="M525.814 235.176C538.734 242.623 538.789 254.712 525.962 262.16L401.868 334.279C389.04 341.736 368.175 341.736 355.274 334.279L177.665 231.743C164.745 224.286 164.68 212.206 177.517 204.75L301.611 132.63C314.429 125.174 335.294 125.174 348.205 132.63L525.814 235.176Z" fill="#1D66FF"/>
<path d="M337.445 304.278L373.435 283.348L409.693 304.278L373.703 325.217L337.445 304.278ZM191.765 219.829L227.756 198.899L264.014 219.829L228.024 240.768L191.765 219.829ZM285.766 235.342C279.306 231.651 279.26 225.532 285.692 221.795L329.545 196.315C336.005 192.624 346.461 192.624 352.93 196.315L415.886 232.666C422.346 236.403 422.346 242.475 415.96 246.213L372.116 271.692C365.656 275.43 355.191 275.43 348.722 271.692L285.766 235.342ZM436.972 246.979L472.963 226.04L509.221 246.97L473.231 267.909L436.972 246.979ZM322.144 144.101L326.896 141.333L363.155 162.272L327.164 183.211L323.602 181.162L317.89 184.484L280.976 163.167L317.945 141.637L322.144 144.064V144.101ZM525.482 235.323L347.882 132.824C335.174 125.487 314.558 125.487 301.934 132.824L177.84 204.934C165.215 212.271 165.28 224.212 177.988 231.549L355.587 334.095C368.304 341.477 388.911 341.477 401.545 334.095L525.629 261.975C538.263 254.638 538.189 242.697 525.482 235.36" fill="white"/>
<path d="M177.988 231.549C165.28 224.212 165.215 212.271 177.84 204.934L301.934 132.824C314.558 125.487 335.156 125.487 347.882 132.824L525.482 235.36C538.189 242.743 538.263 254.638 525.629 261.975L401.545 334.095C388.911 341.477 368.323 341.477 355.587 334.095L177.988 231.549ZM526.137 234.982L348.519 132.409C335.451 124.86 314.254 124.86 301.269 132.409L177.185 204.556C164.2 212.105 164.265 224.388 177.342 231.927L354.978 334.51C368.046 342.059 389.243 342.059 402.228 334.51L526.322 262.399C539.306 254.851 539.241 242.577 526.174 235.028" fill="#1D66FF"/>
<path d="M325.448 247.671C312.186 240.021 312.122 227.609 325.291 219.986C338.46 212.363 359.888 212.326 373.158 219.986C386.429 227.645 386.484 240.058 373.306 247.671C360.128 255.284 338.709 255.331 325.448 247.671ZM413.892 233.828L350.918 197.469C345.538 194.359 336.799 194.359 331.446 197.469L287.611 222.93C282.268 226.04 282.296 231.097 287.685 234.207L350.65 270.557C356.04 273.667 364.77 273.667 370.122 270.557L413.975 245.069C419.319 241.959 419.291 236.902 413.911 233.792" fill="white"/>
<path d="M287.685 234.207C282.296 231.097 282.268 226.04 287.611 222.93L331.465 197.441C336.817 194.331 345.556 194.331 350.936 197.441L413.911 233.801C419.291 236.911 419.319 241.968 413.975 245.078L370.122 270.567C364.77 273.667 356.04 273.667 350.65 270.567L287.685 234.216V234.207ZM415.886 232.666L352.921 196.315C346.461 192.624 335.959 192.624 329.536 196.315L285.683 221.795C279.223 225.486 279.287 231.604 285.756 235.342L348.722 271.692C355.181 275.43 365.683 275.43 372.116 271.692L415.96 246.213C422.419 242.475 422.355 236.403 415.886 232.666Z" fill="#1D66FF"/>
<path d="M322.144 144.101L317.945 141.674L280.948 163.167L317.871 184.484L323.584 181.162L290.869 162.272L322.144 144.101Z" fill="white"/>
<path d="M219.884 216.71L244.736 214.227L233.016 219.082L239.061 222.579L211.939 226.538L226.03 220.281L219.884 216.738V216.71ZM262.741 219.857L227.793 199.684L193.067 219.857L228.024 240.039L262.741 219.857Z" fill="#FFD966"/>
<path d="M193.067 219.829L227.793 199.656L262.741 219.829L228.024 240.011L193.067 219.829ZM264.051 219.829L227.793 198.899L191.802 219.829L228.061 240.768L264.051 219.829Z" fill="#FFD966"/>
<path d="M464.796 243.26L489.648 240.777L477.919 245.641L483.973 249.129L456.841 253.06L470.942 246.841L464.796 243.26ZM507.911 246.951L472.954 226.778L438.228 246.961L473.185 267.143L507.92 246.961" fill="#7AD357"/>
<path d="M438.237 246.979L472.963 226.797L507.92 246.97L473.185 267.143L438.237 246.97V246.979ZM509.221 246.97L472.963 226.04L436.972 246.979L473.231 267.909L509.221 246.97Z" fill="#7AD357"/>
<path d="M318.397 158.848L343.249 156.403L331.52 161.266L337.574 164.763L310.442 168.695L324.525 162.401L318.388 158.848H318.397ZM361.844 162.272L326.896 142.089L292.161 162.272L327.118 182.454L361.844 162.272Z" fill="#FC449C"/>
<path d="M292.17 162.272L326.906 142.089L361.854 162.272L327.127 182.454L292.17 162.272ZM363.155 162.272L326.897 141.333L322.144 144.101L290.869 162.272L323.602 181.162L327.146 183.211L363.136 162.272" fill="#FC449C"/>
<path d="M365.13 300.457L389.972 297.975L378.262 302.838L384.306 306.326L357.184 310.258L371.266 304.001L365.13 300.457ZM408.438 304.278L373.435 284.104L338.718 304.278L373.666 324.46L408.392 304.278" fill="#F7A411"/>
<path d="M338.755 304.278L373.435 284.105L408.392 304.278L373.666 324.46L338.718 304.278H338.755ZM409.693 304.278L373.435 283.348L337.445 304.278L373.703 325.217L409.693 304.278Z" fill="#F7A411"/>
<path d="M343.24 156.365L318.388 158.848L324.534 162.401L310.442 168.658L337.574 164.726L331.52 161.229L343.24 156.365Z" fill="white"/>
<path d="M244.736 214.218L219.884 216.701L226.03 220.254L211.939 226.51L239.061 222.579L233.007 219.082L244.736 214.218Z" fill="white"/>
<path d="M389.963 297.966L365.111 300.448L371.257 304.001L357.175 310.258L384.297 306.326L378.252 302.838L389.963 297.966Z" fill="white"/>
<path d="M489.657 240.777L464.805 243.26L470.942 246.803L456.85 253.06L483.982 249.129L477.928 245.641L489.657 240.777Z" fill="white"/>
<path d="M326.574 231.521C326.361 231.392 326.361 231.189 326.574 231.069C327.798 230.444 329.153 230.118 330.528 230.118C331.903 230.118 333.258 230.444 334.482 231.069L334.695 231.189C336.101 231.905 337.657 232.279 339.235 232.279C340.813 232.279 342.369 231.905 343.775 231.189L343.978 231.06C345.205 230.437 346.561 230.112 347.937 230.112C349.313 230.112 350.67 230.437 351.896 231.06C351.942 231.079 351.981 231.111 352.009 231.152C352.037 231.193 352.051 231.241 352.051 231.291C352.051 231.34 352.037 231.389 352.009 231.43C351.981 231.471 351.942 231.503 351.896 231.521L343.369 236.477L339.53 238.71C339.454 238.751 339.368 238.773 339.281 238.773C339.194 238.773 339.108 238.751 339.032 238.71L335.165 236.477L326.574 231.521ZM341.136 239.928C340.795 239.735 340.795 239.412 341.136 239.209L344.597 237.197L349.432 234.428L352.911 232.407C353.103 232.311 353.315 232.262 353.53 232.262C353.744 232.262 353.956 232.311 354.148 232.407L360.949 236.329L366.228 239.384C366.275 239.401 366.315 239.431 366.344 239.472C366.372 239.512 366.388 239.56 366.388 239.61C366.388 239.66 366.372 239.708 366.344 239.748C366.315 239.789 366.275 239.82 366.228 239.836C365.004 240.462 363.648 240.788 362.274 240.788C360.899 240.788 359.544 240.462 358.319 239.836L358.172 239.753L353.834 242.272L352.524 241.516L353.982 242.356C356.169 243.62 356.178 245.678 353.982 246.97C353.859 247.034 353.723 247.067 353.585 247.067C353.447 247.067 353.311 247.034 353.188 246.97L347.91 243.924L341.136 239.928ZM335.451 230.045C335.23 229.916 335.23 229.713 335.451 229.593L343.978 224.628L347.448 222.616C347.639 222.516 347.851 222.463 348.066 222.463C348.282 222.463 348.494 222.516 348.685 222.616L352.173 224.628L360.765 229.593C360.977 229.713 360.977 229.916 360.765 230.045C359.54 230.668 358.185 230.993 356.81 230.993C355.436 230.993 354.081 230.668 352.856 230.045L352.644 229.925C351.238 229.211 349.684 228.839 348.108 228.839C346.532 228.839 344.978 229.211 343.572 229.925L343.36 230.045C342.135 230.668 340.78 230.993 339.406 230.993C338.031 230.993 336.676 230.668 335.451 230.045ZM373.168 219.949C359.897 212.289 338.478 212.289 325.3 219.949C312.122 227.609 312.196 240.021 325.457 247.634C338.718 255.248 360.146 255.294 373.315 247.634C386.484 239.975 386.429 227.572 373.168 219.949Z" fill="#1D66FF"/>
<path d="M366.237 239.347L360.958 236.292L354.157 232.37C353.965 232.275 353.753 232.225 353.539 232.225C353.324 232.225 353.113 232.275 352.921 232.37L349.441 234.391L344.606 237.16L341.136 239.209C340.794 239.412 340.794 239.735 341.136 239.928L347.937 243.86L353.216 246.905C353.338 246.969 353.474 247.002 353.613 247.002C353.751 247.002 353.887 246.969 354.009 246.905C356.178 245.641 356.169 243.583 354.009 242.291L352.551 241.451L351.629 240.916C350.42 240.215 350.42 239.07 351.629 238.396C352.303 238.053 353.049 237.874 353.806 237.874C354.563 237.874 355.31 238.053 355.984 238.396L358.227 239.698L358.374 239.781C359.599 240.406 360.954 240.732 362.329 240.732C363.704 240.732 365.059 240.406 366.283 239.781C366.33 239.764 366.37 239.734 366.399 239.693C366.427 239.653 366.443 239.604 366.443 239.555C366.443 239.505 366.427 239.457 366.399 239.416C366.37 239.376 366.33 239.345 366.283 239.329" fill="white"/>
<path d="M351.896 231.06C350.67 230.437 349.313 230.112 347.937 230.112C346.561 230.112 345.205 230.437 343.978 231.06L343.775 231.189C342.369 231.905 340.813 232.279 339.235 232.279C337.657 232.279 336.101 231.905 334.695 231.189L334.482 231.069C333.258 230.444 331.903 230.118 330.528 230.118C329.153 230.118 327.798 230.444 326.573 231.069C326.361 231.189 326.361 231.392 326.573 231.521L335.165 236.477L339.032 238.71C339.108 238.752 339.194 238.773 339.281 238.773C339.368 238.773 339.454 238.752 339.53 238.71L343.369 236.477L351.896 231.521C351.942 231.503 351.981 231.471 352.009 231.43C352.036 231.389 352.051 231.34 352.051 231.291C352.051 231.241 352.036 231.193 352.009 231.152C351.981 231.111 351.942 231.079 351.896 231.06Z" fill="white"/>
<path d="M360.774 229.593L352.21 224.628L348.722 222.616C348.531 222.516 348.319 222.463 348.103 222.463C347.888 222.463 347.676 222.516 347.485 222.616L344.015 224.628L335.488 229.593C335.267 229.713 335.267 229.916 335.488 230.045C336.713 230.668 338.068 230.993 339.442 230.993C340.817 230.993 342.172 230.668 343.397 230.045L343.609 229.925C345.014 229.211 346.568 228.839 348.145 228.839C349.721 228.839 351.275 229.211 352.681 229.925L352.893 230.045C354.118 230.668 355.473 230.993 356.847 230.993C358.222 230.993 359.577 230.668 360.802 230.045C361.014 229.916 361.014 229.713 360.802 229.593" fill="white"/>
<path d="M358.181 239.716L355.901 238.415C355.227 238.071 354.48 237.892 353.723 237.892C352.966 237.892 352.22 238.071 351.545 238.415C350.355 239.107 350.355 240.261 351.545 240.934L352.468 241.47L353.779 242.226L358.116 239.707" fill="#1D66FF"/>
<path d="M401.868 334.279L401.803 356.843C388.976 364.299 368.11 364.299 355.209 356.843L355.274 334.27C368.175 341.736 389.04 341.736 401.868 334.279Z" fill="#1D66FF"/>
<path d="M458.336 305.625C461.215 303.955 463.569 305.302 463.578 308.624C463.481 310.434 462.958 312.196 462.052 313.766C461.146 315.335 459.883 316.669 458.364 317.659C455.475 319.329 453.122 317.982 453.113 314.669C453.208 312.856 453.731 311.092 454.638 309.52C455.546 307.948 456.813 306.613 458.336 305.625ZM458.336 316.911C459.672 316.046 460.786 314.878 461.588 313.503C462.389 312.127 462.856 310.582 462.95 308.993C462.95 306.096 460.874 304.914 458.336 306.372C457.005 307.239 455.897 308.408 455.103 309.784C454.309 311.16 453.852 312.704 453.768 314.29C453.768 317.188 455.835 318.369 458.382 316.911" fill="white"/>
<path d="M458.336 306.373C460.855 304.915 462.95 306.096 462.95 308.994C462.856 310.583 462.389 312.127 461.588 313.503C460.786 314.878 459.672 316.046 458.336 316.911C455.808 318.37 453.722 317.188 453.722 314.291C453.81 312.7 454.275 311.153 455.077 309.777C455.879 308.4 456.996 307.234 458.336 306.373Z" fill="white"/>
<path d="M257.758 285.433C259.277 286.422 260.542 287.755 261.448 289.325C262.354 290.896 262.876 292.658 262.972 294.468C262.972 297.79 260.609 299.082 257.721 297.467C256.201 296.477 254.936 295.142 254.03 293.57C253.124 291.998 252.602 290.235 252.507 288.423C252.544 285.101 254.869 283.754 257.758 285.433ZM257.758 296.71C260.277 298.169 262.372 296.997 262.372 294.099C262.288 292.514 261.831 290.97 261.039 289.595C260.247 288.219 259.142 287.049 257.813 286.181C255.284 284.723 253.199 285.904 253.199 288.802C253.284 290.387 253.742 291.929 254.535 293.303C255.329 294.678 256.436 295.845 257.767 296.71" fill="white"/>
<path d="M257.758 286.181C259.086 287.049 260.192 288.219 260.984 289.595C261.776 290.97 262.233 292.513 262.316 294.099C262.316 296.996 260.249 298.168 257.702 296.71C256.372 295.845 255.265 294.678 254.471 293.303C253.677 291.929 253.219 290.386 253.134 288.802C253.162 285.904 255.229 284.723 257.758 286.181Z" fill="white"/>
<path d="M458.336 307.508C460.32 306.354 461.944 307.277 461.954 309.557C461.884 310.803 461.522 312.015 460.897 313.096C460.271 314.177 459.401 315.095 458.355 315.776C456.371 316.921 454.756 315.998 454.746 313.718C454.811 312.473 455.17 311.261 455.794 310.181C456.418 309.101 457.289 308.185 458.336 307.508ZM458.336 315.029C459.192 314.473 459.904 313.723 460.415 312.839C460.925 311.955 461.218 310.963 461.271 309.944C461.271 308.098 459.942 307.314 458.318 308.255C457.462 308.811 456.75 309.561 456.239 310.445C455.729 311.329 455.436 312.321 455.383 313.34C455.383 315.186 456.712 315.961 458.336 315.029Z" fill="#0194FF"/>
<path d="M460.442 312.815C461.594 310.832 461.596 308.682 460.445 308.014C459.295 307.346 457.429 308.411 456.276 310.395C455.124 312.378 455.122 314.527 456.273 315.195C457.423 315.864 459.289 314.798 460.442 312.815Z" fill="#0194FF"/>
<path d="M257.831 287.233C258.875 287.914 259.744 288.831 260.368 289.91C260.992 290.989 261.353 292.199 261.421 293.444C261.421 295.723 259.788 296.646 257.804 295.502C256.76 294.821 255.891 293.904 255.267 292.825C254.643 291.746 254.283 290.535 254.214 289.291C254.223 287.012 255.847 286.089 257.831 287.233ZM257.831 294.754C259.456 295.677 260.775 294.939 260.784 293.065C260.732 292.046 260.438 291.054 259.928 290.17C259.418 289.286 258.706 288.536 257.85 287.981C256.226 287.058 254.897 287.796 254.888 289.669C254.945 290.688 255.241 291.68 255.753 292.563C256.264 293.446 256.976 294.197 257.831 294.754Z" fill="#0194FF"/>
<path d="M259.9 294.988C261.05 294.319 261.048 292.17 259.896 290.187C258.743 288.204 256.877 287.138 255.727 287.806C254.577 288.475 254.578 290.624 255.731 292.607C256.883 294.59 258.749 295.656 259.9 294.988Z" fill="#0194FF"/>
<path d="M458.373 311.642L564.555 372.872" stroke="#1D66FF" stroke-width="5" stroke-miterlimit="10"/>
<path d="M257.739 291.45L143.612 357.996" stroke="#1D66FF" stroke-width="5" stroke-miterlimit="10"/>
<path d="M142.44 357.239L213.443 398.278" stroke="#1D66FF" stroke-width="5" stroke-miterlimit="10"/>
<path d="M562.598 373.094L623.182 336.393" stroke="#1D66FF" stroke-width="5" stroke-miterlimit="10"/>
<path d="M226.141 390.019L226.123 397.54L198.853 413.92L198.871 406.399L226.141 390.019Z" fill="#E3E3E3"/>
<path d="M275.273 417.473L275.255 424.994L264.319 403.077L264.337 395.556L275.273 417.473Z" fill="#E3E3E3"/>
<path d="M248.003 433.853L247.985 441.375L209.779 435.838L209.798 428.316L248.003 433.853Z" fill="#E3E3E3"/>
<path d="M248.086 434.001L248.059 441.522L209.595 435.948L209.622 428.427L248.086 434.001Z" fill="#E3E3E3"/>
<path d="M209.798 428.316L209.779 435.837L198.853 413.92L198.871 406.399L209.798 428.316Z" fill="#E3E3E3"/>
<path d="M209.622 428.427L209.595 435.948L198.585 413.883L198.604 406.362L209.622 428.427Z" fill="#E3E3E3"/>
<path d="M264.337 395.556L275.273 417.473L248.003 433.853L209.798 428.316L198.871 406.399L226.141 390.019L264.337 395.556Z" fill="#E3E3E3"/>
<path d="M218.214 411.733C218.137 411.705 218.07 411.655 218.023 411.588C217.976 411.521 217.951 411.441 217.951 411.359C217.951 411.277 217.976 411.197 218.023 411.131C218.07 411.064 218.137 411.013 218.214 410.985L224.674 407.294C224.875 407.194 225.096 407.142 225.32 407.142C225.544 407.142 225.765 407.194 225.966 407.294L230.497 409.906L222.782 414.4L218.251 411.779L218.214 411.733ZM224.711 415.517C224.634 415.489 224.567 415.438 224.52 415.371C224.473 415.305 224.447 415.225 224.447 415.143C224.447 415.061 224.473 414.981 224.52 414.914C224.567 414.847 224.634 414.797 224.711 414.769L237.575 407.294C237.776 407.194 237.997 407.142 238.221 407.142C238.445 407.142 238.666 407.194 238.867 407.294L243.398 409.906L229.242 418.137L224.711 415.517ZM231.171 419.208C231.094 419.18 231.027 419.13 230.98 419.063C230.932 418.996 230.907 418.916 230.907 418.834C230.907 418.752 230.932 418.672 230.98 418.606C231.027 418.539 231.094 418.488 231.171 418.46L250.476 407.248C250.676 407.144 250.897 407.089 251.122 407.089C251.347 407.089 251.569 407.144 251.768 407.248L258.228 410.939C258.588 411.142 258.588 411.475 258.228 411.687L238.932 422.899C238.732 423.001 238.51 423.055 238.286 423.055C238.061 423.055 237.84 423.001 237.64 422.899L231.18 419.162L231.171 419.208ZM264.402 395.509L226.197 389.972L198.871 406.399L209.807 428.316L248.012 433.853L275.282 417.473L264.347 395.556" fill="white"/>
<path d="M209.807 428.316L198.871 406.399L226.141 390.019L264.347 395.556L275.282 417.473L248.012 433.853L209.807 428.316ZM264.54 395.417L226.077 389.88L198.622 406.371L209.622 428.436L248.086 433.973L275.541 417.482L264.54 395.417Z" fill="white"/>
<path d="M258.219 410.985L251.759 407.294C251.56 407.19 251.338 407.135 251.113 407.135C250.888 407.135 250.667 407.19 250.467 407.294L231.152 418.488C231.075 418.516 231.008 418.566 230.961 418.633C230.914 418.7 230.889 418.78 230.889 418.862C230.889 418.944 230.914 419.024 230.961 419.09C231.008 419.157 231.075 419.208 231.152 419.236L237.612 422.973C237.812 423.075 238.033 423.128 238.258 423.128C238.483 423.128 238.704 423.075 238.904 422.973L258.201 411.761C258.56 411.548 258.56 411.216 258.201 411.013" fill="#7ECE4D"/>
<path d="M243.371 409.86L238.839 407.248C238.639 407.148 238.418 407.096 238.193 407.096C237.969 407.096 237.748 407.148 237.547 407.248L224.683 414.723C224.606 414.75 224.539 414.801 224.492 414.868C224.445 414.935 224.42 415.015 224.42 415.097C224.42 415.179 224.445 415.258 224.492 415.325C224.539 415.392 224.606 415.443 224.683 415.47L229.214 418.091L243.371 409.86Z" fill="#378207"/>
<path d="M230.46 409.86L225.929 407.248C225.728 407.148 225.507 407.096 225.283 407.096C225.059 407.096 224.838 407.148 224.637 407.248L218.177 410.939C218.1 410.967 218.033 411.017 217.986 411.084C217.939 411.151 217.914 411.231 217.914 411.313C217.914 411.395 217.939 411.475 217.986 411.542C218.033 411.609 218.1 411.659 218.177 411.687L222.708 414.308L230.423 409.813" fill="#214C05"/>
<path d="M275.531 417.51L248.086 434.001L209.622 428.464L198.604 406.399L226.067 389.88L264.54 395.417L275.531 417.51ZM209.798 428.316L248.003 433.853L275.273 417.473L264.337 395.556L226.141 390.019L198.871 406.399L209.798 428.316Z" fill="#E3E3E3"/>
<path d="M275.273 417.473L275.255 424.994L247.985 441.374L248.003 433.853L275.273 417.473Z" fill="#E3E3E3"/>
<path d="M275.531 417.51L275.513 425.031L248.059 441.522L248.086 434.001L275.531 417.51Z" fill="#E3E3E3"/>
<path d="M100.432 140.779L100.405 148.3L62.3745 154.215L62.393 146.694L100.432 140.779Z" fill="#E3E3E3"/>
<path d="M128.385 156.919L128.367 164.44L100.405 148.3L100.432 140.779L128.385 156.919Z" fill="#E3E3E3"/>
<path d="M62.393 146.694L62.3745 154.215L52.2971 176.262L52.3156 168.741L62.393 146.694Z" fill="#E3E3E3"/>
<path d="M128.385 156.919L118.308 178.975L80.2776 184.881L52.3156 168.741L62.393 146.694L100.432 140.779L128.385 156.919Z" fill="#E3E3E3"/>
<path d="M82.0125 159.254C82.1552 159.367 82.3255 159.439 82.5057 159.463C82.6859 159.488 82.8693 159.463 83.0368 159.392C83.286 159.245 83.2491 159.097 82.8799 158.673C82.2247 157.907 82.3816 157.381 82.9538 157.067C83.5089 156.815 84.1184 156.706 84.7263 156.751C85.3343 156.797 85.9211 156.994 86.4329 157.325C86.8599 157.544 87.2297 157.86 87.5126 158.248L86.2298 158.682C86.046 158.369 85.7856 158.109 85.4731 157.925C85.3397 157.833 85.1856 157.776 85.0245 157.758C84.8634 157.74 84.7005 157.763 84.5503 157.824C84.3196 157.953 84.3934 158.128 84.7718 158.58C85.3624 159.291 85.2978 159.771 84.6056 160.177C84.0334 160.444 83.4011 160.558 82.7715 160.506C82.1418 160.454 81.5366 160.239 81.0158 159.881C80.5279 159.63 80.1119 159.258 79.8069 158.802L81.1173 158.34C81.3409 158.722 81.6586 159.04 82.0402 159.263L82.0125 159.254ZM92.1914 161.506C92.5868 161.459 92.9864 161.459 93.3818 161.506C93.781 161.563 94.1659 161.695 94.5169 161.893C95.4398 162.419 95.4859 163.194 94.074 164.016L91.3054 165.631L89.8658 164.8L92.4405 163.305C93.1234 162.899 93.2988 162.539 92.8189 162.272C92.4465 162.086 92.0174 162.05 91.6192 162.17C91.4701 162.22 91.3251 162.282 91.1855 162.355L88.417 163.96L86.9773 163.139L89.6351 161.598C90.2257 161.247 90.4195 160.887 89.9581 160.61C89.5729 160.434 89.1363 160.404 88.7307 160.527C88.5817 160.566 88.4388 160.625 88.3062 160.703L85.5377 162.308L84.0981 161.478L87.3188 159.632C87.9094 159.291 88.3893 158.986 88.7861 158.709L90.0319 159.42L89.469 159.835C90.2187 159.734 90.9813 159.872 91.6469 160.232C92.2652 160.583 92.4498 161.044 92.1545 161.45L92.1914 161.506ZM94.6369 166.48C94.7814 166.592 94.9533 166.665 95.1349 166.689C95.3165 166.713 95.5014 166.689 95.6705 166.618C95.9104 166.48 95.8827 166.323 95.5136 165.898C94.8584 165.142 95.006 164.606 95.5782 164.293C96.1302 164.035 96.7381 163.92 97.346 163.959C97.9539 163.998 98.5423 164.189 99.0573 164.514C99.4863 164.73 99.8567 165.047 100.137 165.437L98.8542 165.871C98.6704 165.558 98.41 165.298 98.0975 165.114C97.9642 165.022 97.81 164.964 97.6489 164.947C97.4878 164.929 97.3249 164.952 97.1747 165.012C96.9532 165.142 97.0178 165.326 97.3962 165.778C97.9868 166.48 97.9222 166.96 97.2393 167.375C96.6635 167.637 96.0302 167.746 95.4 167.693C94.7697 167.64 94.1638 167.425 93.6402 167.07C93.1504 166.821 92.7337 166.449 92.4313 165.991L93.751 165.529C93.9708 165.914 94.2894 166.232 94.6738 166.452L94.6369 166.48ZM107.418 163.324L88.0386 152.12C87.7216 151.963 87.3726 151.882 87.0189 151.882C86.6651 151.882 86.3161 151.963 85.9991 152.12L73.0794 159.66C72.5165 159.983 72.4888 160.518 73.0794 160.832L82.6123 166.369L83.6459 172.229L88.1862 169.59L92.4774 172.063C92.7932 172.224 93.1427 172.308 93.4972 172.308C93.8517 172.308 94.2012 172.224 94.5169 172.063L107.437 164.533C108.009 164.21 108.027 163.674 107.437 163.351L107.418 163.324ZM71.446 161.773C70.0617 160.97 70.0617 159.651 71.446 158.829L84.3657 151.299C85.155 150.899 86.0276 150.69 86.9127 150.69C87.7978 150.69 88.6705 150.899 89.4598 151.299L108.839 162.502C110.233 163.305 110.224 164.625 108.839 165.446L95.8827 173.013C95.098 173.418 94.2278 173.629 93.3449 173.629C92.462 173.629 91.5918 173.418 90.8071 173.013L88.0386 171.426L81.8187 175.053L80.416 167.006L71.4183 161.819L71.446 161.773ZM128.542 156.901L100.469 140.714L62.3007 146.648L52.1495 168.796L80.1945 184.992L118.363 179.067L128.514 156.919" fill="white"/>
<path d="M86.4329 157.325C85.9172 157.001 85.3283 156.812 84.7204 156.775C84.1125 156.738 83.5051 156.854 82.9538 157.113C82.3816 157.427 82.2247 157.953 82.88 158.719C83.2491 159.143 83.286 159.291 83.0368 159.439C82.8694 159.509 82.6859 159.534 82.5057 159.509C82.3255 159.485 82.1552 159.413 82.0125 159.3C81.631 159.077 81.3132 158.759 81.0896 158.377L79.7792 158.839C80.0842 159.295 80.5002 159.667 80.9882 159.918C81.509 160.276 82.1142 160.491 82.7438 160.543C83.3735 160.595 84.0057 160.481 84.578 160.214C85.2701 159.808 85.3347 159.291 84.7441 158.617C84.3657 158.165 84.2919 157.99 84.5226 157.86C84.6728 157.8 84.8358 157.777 84.9968 157.795C85.1579 157.813 85.3121 157.87 85.4454 157.962C85.7579 158.146 86.0184 158.406 86.2022 158.719L87.4849 158.285C87.202 157.897 86.8322 157.581 86.4052 157.362" fill="#FED967"/>
<path d="M94.4708 161.939C94.1198 161.741 93.7349 161.609 93.3357 161.552C92.9403 161.505 92.5407 161.505 92.1452 161.552C92.4406 161.146 92.256 160.684 91.6377 160.334C90.9721 159.974 90.2095 159.835 89.4598 159.937L90.0227 159.522L88.7769 158.811C88.3801 159.06 87.9002 159.365 87.3096 159.734L84.0889 161.58L85.5285 162.41L88.297 160.804C88.4295 160.726 88.5725 160.667 88.7215 160.629C89.1271 160.506 89.5636 160.535 89.9489 160.712C90.4103 160.989 90.2165 161.349 89.6259 161.7L86.9681 163.241L88.4078 164.062L91.1763 162.456C91.3159 162.384 91.4609 162.322 91.61 162.272C92.0082 162.152 92.4373 162.188 92.8097 162.373C93.2896 162.641 93.1142 163.001 92.4313 163.407L89.8566 164.902L91.2962 165.732L94.0647 164.117C95.4767 163.296 95.4213 162.521 94.5077 161.995" fill="#FED967"/>
<path d="M99.0296 164.56C98.5146 164.235 97.9262 164.044 97.3183 164.005C96.7104 163.967 96.1025 164.081 95.5505 164.339C94.9783 164.653 94.8307 165.188 95.4859 165.945C95.855 166.369 95.8827 166.526 95.6428 166.664C95.4737 166.735 95.2889 166.759 95.1072 166.735C94.9256 166.711 94.7537 166.639 94.6092 166.526C94.2248 166.306 93.9061 165.988 93.6863 165.603L92.3667 166.065C92.6691 166.523 93.0858 166.895 93.5756 167.144C94.0992 167.499 94.7051 167.713 95.3354 167.767C95.9656 167.82 96.599 167.711 97.1747 167.449C97.8576 167.033 97.9222 166.526 97.3316 165.852C96.9532 165.4 96.8886 165.216 97.1101 165.086C97.2603 165.025 97.4233 165.003 97.5843 165.021C97.7454 165.038 97.8996 165.096 98.0329 165.188C98.3454 165.372 98.6059 165.632 98.7897 165.945L100.072 165.511C99.7921 165.121 99.4217 164.804 98.9927 164.588" fill="#FED967"/>
<path d="M72.9225 160.933C72.3688 160.62 72.3965 160.084 72.9225 159.761L85.8423 152.222C86.1593 152.065 86.5083 151.983 86.862 151.983C87.2158 151.983 87.5647 152.065 87.8818 152.222L107.261 163.425C107.815 163.748 107.797 164.283 107.261 164.606L94.3416 172.137C94.0259 172.298 93.6764 172.382 93.3219 172.382C92.9673 172.382 92.6179 172.298 92.3021 172.137L88.0109 169.664L83.4706 172.303L82.437 166.443L72.9041 160.906L72.9225 160.933ZM108.895 162.493L89.5152 151.29C88.7259 150.889 87.8532 150.681 86.9681 150.681C86.083 150.681 85.2104 150.889 84.4211 151.29L71.5014 158.82C70.0895 159.642 70.0895 160.961 71.5014 161.764L80.4991 166.95L81.9018 174.998L88.1401 171.371L90.9087 172.958C91.6934 173.363 92.5635 173.574 93.4465 173.574C94.3294 173.574 95.1995 173.363 95.9843 172.958L108.95 165.428C110.362 164.606 110.371 163.287 108.95 162.484" fill="#FED967"/>
<path d="M80.2775 184.881L80.2498 192.402L52.2971 176.262L52.3156 168.741L80.2775 184.881Z" fill="#E3E3E3"/>
<path d="M128.643 156.882L118.492 179.086L80.2037 185.01L52.0572 168.759L62.2084 146.565L100.497 140.613L128.643 156.882ZM80.2775 184.881L118.308 178.975L128.385 156.919L100.432 140.779L62.4391 146.694L52.2879 168.741L80.2498 184.881" fill="#E3E3E3"/>
<path d="M118.308 178.975L118.289 186.496L80.2499 192.402L80.2776 184.881L118.308 178.975Z" fill="#E3E3E3"/>
<path d="M118.501 179.086L118.474 186.607L80.1853 192.55L80.2038 185.029L118.501 179.086Z" fill="#E3E3E3"/>
<path d="M128.385 156.919L128.367 164.44L118.289 186.496L118.308 178.975L128.385 156.919Z" fill="#E3E3E3"/>
<path d="M128.634 156.882L128.616 164.403L118.474 186.607L118.501 179.086L128.634 156.882Z" fill="#E3E3E3"/>
<path d="M80.2037 185.029L80.1853 192.55L52.0388 176.299L52.0572 168.778L80.2037 185.029Z" fill="#E3E3E3"/>
<path d="M636.462 384.703C640.692 384.703 644.122 381.274 644.122 377.043C644.122 372.813 640.692 369.384 636.462 369.384C632.232 369.384 628.803 372.813 628.803 377.043C628.803 381.274 632.232 384.703 636.462 384.703Z" fill="#1D66FF"/>
<path d="M136.534 453.703C139.133 453.703 141.24 451.596 141.24 448.997C141.24 446.398 139.133 444.291 136.534 444.291C133.934 444.291 131.827 446.398 131.827 448.997C131.827 451.596 133.934 453.703 136.534 453.703Z" fill="#1D66FF"/>
<path d="M150.865 234.29C152.807 234.29 154.381 232.716 154.381 230.774C154.381 228.832 152.807 227.258 150.865 227.258C148.924 227.258 147.349 228.832 147.349 230.774C147.349 232.716 148.924 234.29 150.865 234.29Z" fill="#1D66FF"/>
<path d="M290.269 72.0182C291.813 72.0182 293.065 70.7663 293.065 69.222C293.065 67.6777 291.813 66.4258 290.269 66.4258C288.725 66.4258 287.473 67.6777 287.473 69.222C287.473 70.7663 288.725 72.0182 290.269 72.0182Z" fill="#1D66FF"/>
<path d="M496.929 6.51523C498.728 6.51523 500.187 5.05674 500.187 3.25761C500.187 1.45848 498.728 0 496.929 0C495.13 0 493.672 1.45848 493.672 3.25761C493.672 5.05674 495.13 6.51523 496.929 6.51523Z" fill="#1D66FF"/>
<path d="M0.119995 171.795V160.666H12.1815L0.119995 171.795Z" fill="#FC449C" stroke="white" stroke-width="0.25" stroke-miterlimit="10"/>
<path d="M580.944 226.335H574.152V232.601H580.944V226.335Z" fill="#FC449C" stroke="white" stroke-width="0.25" stroke-miterlimit="10"/>
<path d="M672.767 143.75L662.68 134.439H672.767V143.75Z" fill="#7ED44D"/>
<path d="M422.382 441.744H414.511V449.006H422.382V441.744Z" fill="#FDD862" stroke="white" stroke-width="0.25" stroke-miterlimit="10"/>
<path d="M148.291 57.1235H140.419V64.3863H148.291V57.1235Z" fill="#FDD862" stroke="white" stroke-width="0.25" stroke-miterlimit="10"/>
</g>
<defs>
<clipPath id="clip0">
<rect width="686" height="453.704" fill="white"/>
</clipPath>
</defs>
</svg>
