<svg width="48" height="48" viewBox="0 0 48 48" fill="none" xmlns="http://www.w3.org/2000/svg">
<g clip-path="url(#clip0)">
<path d="M46.5937 22.5937C45.8171 22.5937 45.1875 23.2233 45.1875 23.9999C45.1875 35.6827 35.6828 45.1873 24.0001 45.1873C12.3173 45.1873 2.81274 35.6827 2.81274 23.9999C2.81274 12.3172 12.3173 2.81257 24.0001 2.81257C27.5625 2.81257 31.0278 3.6971 34.1212 5.38253L32.3631 7.14061C31.9609 7.54279 31.8407 8.14757 32.0583 8.67313C32.2759 9.1986 32.7887 9.54125 33.3574 9.54125H40.0861C40.8627 9.54125 41.4924 8.91163 41.4924 8.13501V1.40633C41.4924 0.837552 41.1498 0.324836 40.6242 0.10715C40.0986 -0.11063 39.4938 0.00974418 39.0917 0.412023L36.1839 3.31985C32.5006 1.14514 28.3128 0.000181721 24 0.000181721C17.5894 0.000181721 11.5625 2.49664 7.0295 7.02952C2.49653 11.5626 0.000167847 17.5895 0.000167847 24C0.000167847 30.4106 2.49653 36.4375 7.0295 40.9705C11.5626 45.5035 17.5894 48 24 48C30.4106 48 36.4375 45.5035 40.9705 40.9705C45.5035 36.4375 47.9998 30.4106 47.9998 24C48 23.2233 47.3704 22.5937 46.5937 22.5937Z" fill="#CB1DE8"/>
<path d="M33.0375 22.5936H25.4064V14.9624C25.4064 14.1858 24.7768 13.5562 24.0002 13.5562C23.2235 13.5562 22.5939 14.1858 22.5939 14.9624V23.9998C22.5939 24.7764 23.2235 25.4061 24.0002 25.4061H33.0375C33.8141 25.4061 34.4438 24.7764 34.4438 23.9998C34.4438 23.2232 33.8141 22.5936 33.0375 22.5936Z" fill="#CB1DE8"/>
</g>
<defs>
<clipPath id="clip0">
<rect width="48" height="48" fill="white"/>
</clipPath>
</defs>
</svg>
