<svg width="144" height="144" viewBox="0 0 144 144" fill="none" xmlns="http://www.w3.org/2000/svg">
<g clip-path="url(#clip0)">
<path d="M51.9388 115.779C50.9376 115.965 50.5002 116.435 50.6256 117.185C50.7504 117.934 51.3129 118.185 52.3128 117.934C53.314 117.685 53.7511 117.246 53.6253 116.622C53.5012 115.935 52.9387 115.653 51.9388 115.779Z" fill="#1050D6"/>
<path d="M46.5946 116.53C45.5944 116.53 45.0947 116.872 45.0947 117.561C45.0947 118.373 45.6263 118.716 46.6882 118.591C47.6884 118.591 48.1889 118.247 48.1889 117.561C48.1889 116.749 47.6572 116.404 46.5946 116.53Z" fill="#1050D6"/>
<path d="M39.2823 116.247C39.0328 116.934 39.4393 117.402 40.5009 117.653C41.4384 118.026 42.0324 117.84 42.2819 117.09C42.4698 116.404 42.0632 115.905 41.0634 115.59C40.1256 115.341 39.5322 115.557 39.2823 116.247Z" fill="#1050D6"/>
<path d="M136.078 7.92114C130.796 2.64071 124.439 0 116.999 0H26.9998C19.563 0 13.2029 2.64071 7.92115 7.92114C2.64071 13.2026 0 19.5627 0 26.9998V117.001C0 124.438 2.64071 130.798 7.92115 136.078C13.2026 141.359 19.563 144 26.9998 144H47.9998C49.3737 144 50.4057 143.953 51.093 143.861C51.7799 143.766 52.4669 143.36 53.1548 142.64C53.843 141.922 54.1859 140.875 54.1859 139.501C54.1859 139.314 54.1694 137.187 54.1386 133.125C54.1067 129.061 54.0913 125.843 54.0913 123.467L51.9349 123.843C50.56 124.092 48.8256 124.202 46.7316 124.171C44.6386 124.139 42.4662 123.921 40.2165 123.515C37.9656 123.108 35.8726 122.171 33.9349 120.703C31.9982 119.233 30.6233 117.312 29.8106 114.938L28.8728 112.78C28.248 111.344 27.2642 109.749 25.9202 108.001C24.5762 106.25 23.2171 105.062 21.8422 104.437L21.1858 103.969C20.7487 103.656 20.3426 103.28 19.9672 102.843C19.5926 102.404 19.3115 101.966 19.124 101.53C18.9365 101.092 19.0921 100.732 19.5926 100.45C20.093 100.169 20.9983 100.03 22.3114 100.03L24.1857 100.311C25.4362 100.56 26.9821 101.31 28.8269 102.56C30.6703 103.81 32.1857 105.435 33.3734 107.434C34.8116 109.998 36.5444 111.949 38.5767 113.293C40.6073 114.639 42.6546 115.311 44.7168 115.311C46.7789 115.311 48.56 115.154 50.0606 114.843C51.5596 114.53 52.966 114.06 54.2791 113.435C54.8416 109.248 56.3731 106.027 58.8723 103.778C55.3102 103.402 52.1073 102.841 49.2627 102.09C46.4197 101.339 43.4818 100.121 40.451 98.4333C37.4189 96.7455 34.9036 94.6531 32.9035 92.1517C30.9038 89.6502 29.2626 86.3691 27.9823 82.3079C26.7014 78.2444 26.0607 73.5564 26.0607 68.2444C26.0607 60.6825 28.5303 54.2439 33.4676 48.9319C31.1546 43.2447 31.373 36.8704 34.1234 29.8073C35.936 29.2445 38.624 29.6668 42.1861 31.0732C45.7488 32.4805 48.3574 33.684 50.0143 34.6826C51.6712 35.6814 52.9988 36.526 53.999 37.2142C59.8127 35.5892 65.8123 34.7768 71.9993 34.7768C78.1861 34.7768 84.1866 35.5892 90.0007 37.2142L93.5631 34.9643C96.0015 33.4637 98.876 32.0888 102.189 30.8394C105.501 29.5896 108.032 29.2455 109.783 29.8083C112.594 36.8714 112.846 43.2457 110.531 48.9326C115.469 54.2452 117.939 60.6835 117.939 68.2454C117.939 73.5583 117.298 78.2621 116.017 82.3549C114.737 86.4486 113.082 89.7309 111.049 92.1996C109.019 94.6686 106.487 96.7451 103.456 98.4339C100.425 100.121 97.4871 101.341 94.6428 102.089C91.7988 102.84 88.5962 103.404 85.0338 103.779C88.2817 106.591 89.9064 111.027 89.9064 117.091V139.498C89.9064 140.561 90.0614 141.419 90.374 142.076C90.6886 142.732 91.1877 143.183 91.875 143.435C92.5652 143.685 93.1717 143.841 93.7043 143.903C94.2369 143.966 95.001 143.997 96.0012 143.997H117.001C124.438 143.997 130.798 141.356 136.078 136.075C141.359 130.794 144 124.433 144 116.996V26.9998C143.999 19.5627 141.358 13.2016 136.078 7.92114Z" fill="#1050D6"/>
<path d="M28.4998 104.813C28.0627 105.125 28.1251 105.625 28.6876 106.312C29.3135 106.937 29.8129 107.031 30.1882 106.593C30.6253 106.282 30.5629 105.782 29.9994 105.093C29.3749 104.531 28.8751 104.437 28.4998 104.813Z" fill="#1050D6"/>
<path d="M25.4069 102.467C25.2197 102.905 25.4384 103.28 26.0633 103.592C26.5627 103.905 26.9702 103.843 27.2819 103.405C27.469 102.967 27.2503 102.591 26.6255 102.278C26.0006 102.09 25.5944 102.153 25.4069 102.467Z" fill="#1050D6"/>
<path d="M31.4069 108.47C30.8438 108.782 30.8438 109.346 31.4069 110.157C31.9694 110.971 32.4997 111.189 33.0005 110.813C33.5633 110.375 33.5633 109.782 33.0005 109.031C32.501 108.221 31.9694 108.031 31.4069 108.47Z" fill="#1050D6"/>
<path d="M34.6886 112.686C34.1257 113.187 34.2499 113.778 35.0636 114.468C35.8126 115.216 36.4378 115.311 36.9379 114.747C37.4383 114.248 37.3132 113.655 36.5629 112.967C35.8139 112.219 35.1887 112.124 34.6886 112.686Z" fill="#1050D6"/>
</g>
<defs>
<clipPath id="clip0">
<rect width="144" height="144" fill="white"/>
</clipPath>
</defs>
</svg>
