<svg width="992" height="510" viewBox="0 0 992 510" fill="none" xmlns="http://www.w3.org/2000/svg">
<path d="M567 230.005H605C617.833 230.338 662.1 224.705 690.5 199.505C726 168.005 731 148.505 757.5 117.005C778.7 91.8046 796 79.8379 800.5 78.0046C807.5 73.8379 826.3 64.9046 845.5 62.5046C869.5 59.5046 876 62.0046 897.5 61.5046" stroke="#1D66FF" stroke-opacity="0.5" stroke-width="10"/>
<g filter="url(#filter0_d)">
<path d="M931.77 25H879C873.477 25 869 29.4772 869 35V87.7699C869 93.2927 873.477 97.7699 879 97.7699H931.77C937.293 97.7699 941.77 93.2927 941.77 87.7699V35C941.77 29.4772 937.293 25 931.77 25Z" fill="#1E266D"/>
</g>
<g clip-path="url(#clip0)">
<path d="M920.983 79H889.017C887.903 79 887 78.0969 887 76.9827V50.4482H923V76.9827C923 78.0969 922.097 79 920.983 79Z" fill="#ECF0F1"/>
<path d="M923 50.4483H887V45.0173C887 43.9031 887.903 43 889.017 43H920.983C922.097 43 923 43.9031 923 45.0173V50.4483Z" fill="#687492"/>
<path d="M891.966 45.4827H889.483V47.9654H891.966V45.4827Z" fill="#E64C3C"/>
<path d="M896.931 45.4827H894.448V47.9654H896.931V45.4827Z" fill="#F0C419"/>
<path d="M901.897 45.4827H899.414V47.9654H901.897V45.4827Z" fill="#24AE5F"/>
<path d="M919.896 53.5516H890.103V65.3447H919.896V53.5516Z" fill="#26B99A"/>
<path d="M899.414 62.8622C899.255 62.8622 899.096 62.8014 898.975 62.6804C898.732 62.4376 898.732 62.0454 898.975 61.8027L901.458 59.32C901.7 59.0773 902.093 59.0773 902.335 59.32C902.578 59.5627 902.578 59.955 902.335 60.1976L899.853 62.6804C899.732 62.8014 899.573 62.8622 899.414 62.8622Z" fill="white"/>
<path d="M904.379 62.8622C904.22 62.8622 904.062 62.8014 903.941 62.6804L901.458 60.1976C901.215 59.9549 901.215 59.5626 901.458 59.32C901.7 59.0773 902.093 59.0773 902.335 59.32L904.818 61.8027C905.061 62.0454 905.061 62.4377 904.818 62.6804C904.697 62.8014 904.538 62.8622 904.379 62.8622Z" fill="white"/>
<path d="M903.138 61.6208C902.979 61.6208 902.82 61.56 902.699 61.439C902.456 61.1963 902.456 60.804 902.699 60.5614L905.182 58.0786C905.424 57.8359 905.817 57.8359 906.059 58.0786C906.302 58.3214 906.302 58.7136 906.059 58.9563L903.577 61.439C903.456 61.56 903.297 61.6208 903.138 61.6208Z" fill="white"/>
<path d="M908.103 61.6208C907.945 61.6208 907.786 61.56 907.665 61.439L905.182 58.9563C904.939 58.7136 904.939 58.3213 905.182 58.0786C905.424 57.8359 905.817 57.8359 906.06 58.0786L908.542 60.5614C908.785 60.8041 908.785 61.1964 908.542 61.439C908.421 61.56 908.262 61.6208 908.103 61.6208Z" fill="white"/>
<path d="M911.193 58.5174H909.98C909.629 58.5174 909.345 58.2331 909.345 57.8824V56.6695C909.345 56.3188 909.629 56.0345 909.98 56.0345H911.193C911.543 56.0345 911.828 56.3188 911.828 56.6695V57.8824C911.828 58.2331 911.543 58.5174 911.193 58.5174Z" fill="white"/>
<path d="M912.448 69.069H890.104C889.761 69.069 889.483 68.7915 889.483 68.4482C889.483 68.105 889.761 67.8275 890.104 67.8275H912.448C912.791 67.8275 913.069 68.105 913.069 68.4482C913.069 68.7915 912.791 69.069 912.448 69.069Z" fill="#BDC3C7"/>
<path d="M919.897 69.069H915.552C915.209 69.069 914.931 68.7915 914.931 68.4482C914.931 68.105 915.209 67.8275 915.552 67.8275H919.897C920.239 67.8275 920.517 68.105 920.517 68.4482C920.517 68.7915 920.239 69.069 919.897 69.069Z" fill="#BDC3C7"/>
<path d="M919.897 71.5516H897.552C897.209 71.5516 896.931 71.2742 896.931 70.9309C896.931 70.5876 897.209 70.3102 897.552 70.3102H919.897C920.239 70.3102 920.517 70.5876 920.517 70.9309C920.517 71.2742 920.239 71.5516 919.897 71.5516Z" fill="#BDC3C7"/>
<path d="M894.448 71.5516H890.104C889.761 71.5516 889.483 71.2742 889.483 70.9309C889.483 70.5876 889.761 70.3102 890.104 70.3102H894.448C894.791 70.3102 895.069 70.5876 895.069 70.9309C895.069 71.2742 894.791 71.5516 894.448 71.5516Z" fill="#BDC3C7"/>
<path d="M912.448 74.0343H890.104C889.761 74.0343 889.483 73.7568 889.483 73.4136C889.483 73.0703 889.761 72.7928 890.104 72.7928H912.448C912.791 72.7928 913.069 73.0703 913.069 73.4136C913.069 73.7568 912.791 74.0343 912.448 74.0343Z" fill="#BDC3C7"/>
<path d="M919.897 74.0343H915.552C915.209 74.0343 914.931 73.7568 914.931 73.4136C914.931 73.0703 915.209 72.7928 915.552 72.7928H919.897C920.239 72.7928 920.517 73.0703 920.517 73.4136C920.517 73.7568 920.239 74.0343 919.897 74.0343Z" fill="#BDC3C7"/>
<path d="M919.897 76.5173H897.552C897.209 76.5173 896.931 76.2399 896.931 75.8966C896.931 75.5533 897.209 75.2759 897.552 75.2759H919.897C920.239 75.2759 920.517 75.5533 920.517 75.8966C920.517 76.2399 920.239 76.5173 919.897 76.5173Z" fill="#BDC3C7"/>
<path d="M894.448 76.5173H890.104C889.761 76.5173 889.483 76.2399 889.483 75.8966C889.483 75.5533 889.761 75.2759 890.104 75.2759H894.448C894.791 75.2759 895.069 75.5533 895.069 75.8966C895.069 76.2399 894.791 76.5173 894.448 76.5173Z" fill="#BDC3C7"/>
</g>
<path d="M567 229.014H605C617.833 228.68 662.1 234.314 690.5 259.514C726 291.014 731 310.514 757.5 342.014C778.7 367.214 796 379.18 800.5 381.014C807.5 385.18 826.3 394.114 845.5 396.514C869.5 399.514 876 397.014 897.5 397.514" stroke="#1D66FF" stroke-opacity="0.5" stroke-width="10"/>
<g filter="url(#filter1_d)">
<path d="M931.77 434.018H879C873.477 434.018 869 429.541 869 424.018V371.248C869 365.726 873.477 361.248 879 361.248H931.77C937.293 361.248 941.77 365.726 941.77 371.248V424.018C941.77 429.541 937.293 434.018 931.77 434.018Z" fill="#1E266D"/>
</g>
<path d="M923 400.483V395.517H920.828C919.854 395.517 918.967 394.897 918.692 393.963C918.406 392.988 918.018 392.057 917.54 391.181C917.073 390.323 917.255 389.256 917.946 388.565L919.484 387.028L915.972 383.516L914.435 385.054C913.744 385.745 912.677 385.926 911.819 385.459C910.944 384.982 910.012 384.594 909.037 384.307C908.103 384.033 907.483 383.146 907.483 382.172V380H902.517V382.172C902.517 383.146 901.897 384.033 900.963 384.308C899.988 384.594 899.057 384.982 898.181 385.46C897.323 385.927 896.256 385.745 895.565 385.054L894.027 383.517L890.516 387.028L892.054 388.566C892.744 389.256 892.926 390.323 892.46 391.181C891.982 392.057 891.594 392.989 891.308 393.964C891.033 394.897 890.146 395.517 889.172 395.517H887V400.483H889.172C890.146 400.483 891.033 401.103 891.308 402.037C891.594 403.012 891.982 403.943 892.46 404.819C892.927 405.677 892.745 406.744 892.054 407.435L890.517 408.972L894.028 412.484L895.566 410.946C896.256 410.255 897.323 410.074 898.181 410.541C899.057 411.018 899.989 411.406 900.964 411.693C901.897 411.967 902.517 412.854 902.517 413.828V416H907.483V413.828C907.483 412.854 908.103 411.967 909.037 411.692C910.012 411.406 910.943 411.018 911.82 410.54C912.677 410.073 913.744 410.255 914.435 410.946L915.973 412.483L919.484 408.972L917.946 407.434C917.256 406.744 917.074 405.677 917.541 404.819C918.018 403.943 918.406 403.011 918.693 402.036C918.967 401.103 919.854 400.483 920.828 400.483H923Z" fill="#EBBA16"/>
<path d="M905 407.31C910.142 407.31 914.31 403.142 914.31 398C914.31 392.858 910.142 388.69 905 388.69C899.858 388.69 895.69 392.858 895.69 398C895.69 403.142 899.858 407.31 905 407.31Z" fill="white"/>
<path d="M901.276 401.104C901.117 401.104 900.958 401.043 900.837 400.922L898.354 398.439C898.112 398.196 898.112 397.804 898.354 397.561L900.837 395.079C901.08 394.836 901.472 394.836 901.715 395.079C901.957 395.321 901.957 395.714 901.715 395.956L899.671 398L901.715 400.044C901.957 400.287 901.957 400.679 901.715 400.922C901.594 401.043 901.435 401.104 901.276 401.104Z" fill="#DD352E"/>
<path d="M908.724 401.104C908.565 401.104 908.406 401.043 908.285 400.922C908.043 400.679 908.043 400.287 908.285 400.044L910.329 398L908.285 395.956C908.043 395.713 908.043 395.321 908.285 395.079C908.528 394.836 908.92 394.836 909.163 395.079L911.646 397.561C911.889 397.804 911.889 398.196 911.646 398.439L909.163 400.922C909.042 401.043 908.883 401.104 908.724 401.104Z" fill="#DD352E"/>
<path d="M903.759 402.345C903.698 402.345 903.636 402.336 903.576 402.317C903.248 402.216 903.065 401.869 903.165 401.541L905.648 393.472C905.748 393.144 906.098 392.959 906.424 393.061C906.751 393.162 906.935 393.509 906.835 393.837L904.352 401.906C904.27 402.174 904.024 402.345 903.759 402.345Z" fill="#DD352E"/>
<path d="M567 229H874" stroke="#1D66FF" stroke-opacity="0.5" stroke-width="10"/>
<g filter="url(#filter2_d)">
<path d="M931.77 264.77H879C873.477 264.77 869 260.293 869 254.77V202C869 196.477 873.477 192 879 192H931.77C937.293 192 941.77 196.477 941.77 202V254.77C941.77 260.293 937.293 264.77 931.77 264.77Z" fill="#1E266D"/>
</g>
<g clip-path="url(#clip1)">
<g filter="url(#filter3_d)">
<path d="M915.2 215.4H894.8V240.6H915.2V215.4Z" fill="#687492"/>
</g>
<path d="M912.8 217.8H897.2V238.2H912.8V217.8Z" fill="#EAEFF0"/>
<path d="M902.6 234H899.6C899.269 234 899 233.731 899 233.4C899 233.069 899.269 232.8 899.6 232.8H902.6C902.931 232.8 903.2 233.069 903.2 233.4C903.2 233.731 902.931 234 902.6 234Z" fill="#BDC3C7"/>
<path d="M910.4 234H908.6C908.269 234 908 233.731 908 233.4C908 233.069 908.269 232.8 908.6 232.8H910.4C910.731 232.8 911 233.069 911 233.4C911 233.731 910.731 234 910.4 234Z" fill="#BDC3C7"/>
<path d="M906.2 234H905C904.669 234 904.4 233.731 904.4 233.4C904.4 233.069 904.669 232.8 905 232.8H906.2C906.531 232.8 906.8 233.069 906.8 233.4C906.8 233.731 906.531 234 906.2 234Z" fill="#BDC3C7"/>
<path d="M910.4 231.6H903.2C902.869 231.6 902.6 231.331 902.6 231C902.6 230.669 902.869 230.4 903.2 230.4H910.4C910.731 230.4 911 230.669 911 231C911 231.331 910.731 231.6 910.4 231.6Z" fill="#BDC3C7"/>
<path d="M900.782 231.6H899.6C899.269 231.6 899 231.331 899 231C899 230.669 899.269 230.4 899.6 230.4H900.782C901.113 230.4 901.382 230.669 901.382 231C901.382 231.331 901.113 231.6 900.782 231.6Z" fill="#BDC3C7"/>
<path d="M910.4 236.4H903.2C902.869 236.4 902.6 236.131 902.6 235.8C902.6 235.469 902.869 235.2 903.2 235.2H910.4C910.731 235.2 911 235.469 911 235.8C911 236.131 910.731 236.4 910.4 236.4Z" fill="#BDC3C7"/>
<path d="M900.782 236.4H899.6C899.269 236.4 899 236.131 899 235.8C899 235.469 899.269 235.2 899.6 235.2H900.782C901.113 235.2 901.382 235.469 901.382 235.8C901.382 236.131 901.113 236.4 900.782 236.4Z" fill="#BDC3C7"/>
<path d="M913.24 245.4H896.76C895.677 245.4 894.8 244.523 894.8 243.441V240.6H915.2V243.441C915.2 244.523 914.323 245.4 913.24 245.4Z" fill="#EAEFF0"/>
<path d="M906.8 243.6H903.2C902.869 243.6 902.6 243.331 902.6 243C902.6 242.669 902.869 242.4 903.2 242.4H906.8C907.131 242.4 907.4 242.669 907.4 243C907.4 243.331 907.131 243.6 906.8 243.6Z" fill="#B8BEC3"/>
<path d="M912.2 243.6H909.8C909.469 243.6 909.2 243.331 909.2 243C909.2 242.669 909.469 242.4 909.8 242.4H912.2C912.531 242.4 912.8 242.669 912.8 243C912.8 243.331 912.531 243.6 912.2 243.6Z" fill="#B8BEC3"/>
<path d="M900.2 243.6H897.8C897.469 243.6 897.2 243.331 897.2 243C897.2 242.669 897.469 242.4 897.8 242.4H900.2C900.531 242.4 900.8 242.669 900.8 243C900.8 243.331 900.531 243.6 900.2 243.6Z" fill="#B8BEC3"/>
<path d="M896.76 210.6H913.241C914.323 210.6 915.2 211.477 915.2 212.56V215.4H894.8V212.56C894.8 211.477 895.677 210.6 896.76 210.6Z" fill="#EAEFF0"/>
<path d="M908 213.6H902C901.669 213.6 901.4 213.331 901.4 213C901.4 212.669 901.669 212.4 902 212.4H908C908.331 212.4 908.6 212.669 908.6 213C908.6 213.331 908.331 213.6 908 213.6Z" fill="#B8BEC3"/>
<path d="M912.8 217.8H897.2V228.6H912.8V217.8Z" fill="#26B99A"/>
<path d="M900.8 225.6C900.646 225.6 900.493 225.541 900.376 225.424C900.141 225.19 900.141 224.811 900.376 224.576L902.776 222.176C903.01 221.941 903.39 221.941 903.624 222.176C903.859 222.411 903.859 222.79 903.624 223.024L901.224 225.424C901.107 225.541 900.954 225.6 900.8 225.6Z" fill="white"/>
<path d="M905.6 225.6C905.446 225.6 905.293 225.541 905.176 225.424L902.776 223.024C902.541 222.79 902.541 222.411 902.776 222.176C903.01 221.941 903.39 221.941 903.624 222.176L906.024 224.576C906.259 224.811 906.259 225.19 906.024 225.424C905.907 225.541 905.754 225.6 905.6 225.6Z" fill="white"/>
<path d="M904.4 224.4C904.246 224.4 904.093 224.341 903.976 224.224C903.741 223.99 903.741 223.61 903.976 223.376L906.376 220.976C906.61 220.741 906.99 220.741 907.224 220.976C907.459 221.211 907.459 221.59 907.224 221.824L904.824 224.224C904.707 224.341 904.554 224.4 904.4 224.4Z" fill="white"/>
<path d="M909.2 224.4C909.046 224.4 908.893 224.341 908.776 224.224L906.376 221.824C906.141 221.59 906.141 221.21 906.376 220.976C906.61 220.741 906.99 220.741 907.224 220.976L909.624 223.376C909.859 223.611 909.859 223.99 909.624 224.224C909.507 224.341 909.354 224.4 909.2 224.4Z" fill="white"/>
</g>
<path d="M424.77 230.005H386.77C373.937 230.338 329.67 224.705 301.27 199.505C265.77 168.005 260.77 148.505 234.27 117.005C213.07 91.8046 195.77 79.8379 191.27 78.0046C184.27 73.8379 165.47 64.9046 146.27 62.5046C122.27 59.5046 115.77 62.0046 94.2699 61.5046" stroke="url(#paint0_linear)" stroke-opacity="0.5" stroke-width="10"/>
<g filter="url(#filter4_d)">
<path d="M60 25H112.77C118.293 25 122.77 29.4772 122.77 35V87.7699C122.77 93.2927 118.293 97.7699 112.77 97.7699H60C54.4771 97.7699 50 93.2927 50 87.7699V35C50 29.4772 54.4771 25 60 25Z" fill="#1E266D"/>
</g>
<g clip-path="url(#clip2)">
<path d="M103.86 64.555C103.645 63.9211 103.079 63.4796 102.348 63.3736C102.003 63.3237 101.608 63.345 101.141 63.4384C100.326 63.6013 99.7221 63.6634 99.2811 63.6754C100.946 60.9504 102.299 57.843 103.078 54.9179C104.338 50.1881 103.665 48.0333 102.878 47.0587C100.796 44.479 97.7581 43.0931 94.0932 43.0507C92.1381 43.0275 90.4217 43.4018 89.5264 43.671C88.6928 43.5283 87.7964 43.4487 86.8559 43.434C85.0929 43.4067 83.5352 43.7794 82.2042 44.5452C81.4673 44.3036 80.2847 43.963 78.9189 43.7457C75.7068 43.2344 73.1179 43.6328 71.2242 44.9299C68.9312 46.5004 67.8682 49.229 68.0648 53.04C68.1273 54.2499 68.8253 57.9314 69.9245 61.4227C70.5561 63.4295 71.2297 65.096 71.9265 66.3763C72.9147 68.1918 73.9721 69.2609 75.1591 69.6449C75.8244 69.8598 77.0332 70.0103 78.3046 68.9836C78.4657 69.1729 78.6807 69.3609 78.9661 69.5355C79.3284 69.7571 79.7716 69.9382 80.2141 70.0455C81.8089 70.432 83.3028 70.3354 84.5773 69.7935C84.5851 70.0133 84.5912 70.2233 84.5962 70.4046C84.6047 70.6987 84.6131 70.9871 84.6242 71.2568C84.6997 73.0804 84.8277 74.4983 85.2068 75.4903C85.2276 75.5449 85.2556 75.6281 85.2852 75.7163C85.4743 76.2778 85.7906 77.2178 86.5952 77.9539C87.4284 78.7165 88.4363 78.9504 89.3593 78.9504C89.8223 78.9504 90.264 78.8915 90.6514 78.811C92.0323 78.524 93.6007 78.0869 94.7353 76.5205C95.808 75.0397 96.3294 72.8094 96.4237 69.2953C96.436 69.1959 96.4472 69.101 96.4581 69.0106L96.4806 68.8249L96.7333 68.8464L96.7984 68.8507C98.2049 68.9128 99.9247 68.6236 100.981 68.1479C101.816 67.7724 104.49 66.4033 103.86 64.555Z" fill="black"/>
<path d="M101.456 64.9144C97.2733 65.7509 96.9858 64.378 96.9858 64.378C101.401 58.0251 103.247 49.9609 101.655 47.9872C97.3086 42.6034 89.7859 45.1496 89.6603 45.2156L89.62 45.2227C88.7936 45.0564 87.869 44.9574 86.8297 44.9409C84.9374 44.9109 83.5019 45.4219 82.4126 46.2229C82.4126 46.2229 68.9928 40.8624 69.617 52.9646C69.7498 55.5391 73.4229 72.4453 77.8039 67.3389C79.4052 65.4715 80.9525 63.8927 80.9525 63.8927C81.7209 64.3877 82.6409 64.6402 83.6053 64.5495L83.6802 64.4879C83.6569 64.7197 83.6676 64.9465 83.7102 65.2149C82.5815 66.4376 82.9133 66.6522 80.6571 67.1026C78.374 67.5588 79.7152 68.3709 80.5909 68.5833C81.6524 68.8406 84.1083 69.2052 85.7677 66.9528L85.7016 67.2099C86.1437 67.5533 86.4542 69.4437 86.4022 71.1575C86.3501 72.8711 86.3154 74.0477 86.6637 74.9667C87.0124 75.8857 87.3596 77.9534 90.3256 77.3373C92.8038 76.8223 94.0882 75.4878 94.2669 73.2618C94.3936 71.6793 94.6806 71.9133 94.6986 70.4984L94.9288 69.8286C95.1942 67.6834 94.971 66.9913 96.4978 67.3132L96.869 67.3449C97.9926 67.3943 99.4636 67.1695 100.327 66.7805C102.186 65.9441 103.288 64.5475 101.455 64.9144H101.456Z" fill="#336791"/>
<path d="M83.1982 54.1159C82.8213 54.0651 82.48 54.1121 82.3073 54.2389C82.2103 54.3102 82.1802 54.3928 82.1721 54.4497C82.1504 54.6004 82.2592 54.767 82.3262 54.8529C82.5155 55.0961 82.7919 55.2633 83.0656 55.3001C83.1052 55.3056 83.1448 55.308 83.184 55.308C83.6403 55.308 84.0553 54.9635 84.0919 54.7092C84.1376 54.3907 83.6607 54.1784 83.1982 54.1161V54.1159ZM95.6834 54.126C95.6474 53.8764 95.1893 53.8052 94.7545 53.8638C94.3202 53.9224 93.8992 54.1125 93.9344 54.3627C93.9625 54.5573 94.3249 54.8894 94.7538 54.8894C94.7901 54.8894 94.8266 54.8871 94.8635 54.8821C95.1498 54.8436 95.3599 54.6673 95.4597 54.5657C95.6116 54.4108 95.6996 54.2382 95.6834 54.126Z" fill="white"/>
<path d="M102.847 64.8195C102.688 64.3519 102.175 64.2015 101.322 64.3723C98.7898 64.8789 97.883 64.528 97.5853 64.3154C99.5534 61.4084 101.172 57.8944 102.046 54.6158C102.46 53.0628 102.688 51.6205 102.707 50.4449C102.727 49.1546 102.501 48.2064 102.033 47.6272C100.149 45.2922 97.3826 44.0397 94.0343 44.0053C91.7324 43.9802 89.7875 44.5514 89.4105 44.712C88.6165 44.5206 87.751 44.4031 86.8086 44.3881C85.0806 44.3609 83.5869 44.7621 82.3503 45.5798C81.8131 45.3859 80.4248 44.9238 78.727 44.6586C75.7919 44.2004 73.4595 44.5476 71.795 45.6909C69.809 47.0552 68.8921 49.494 69.0697 52.9393C69.1295 54.0984 69.8107 57.6642 70.8856 61.0791C72.3006 65.5738 73.8388 68.1182 75.4571 68.6417C75.6465 68.7029 75.8649 68.7457 76.1058 68.7457C76.6961 68.7457 77.4199 68.4877 78.173 67.6099C79.0915 66.5415 80.0416 65.4991 81.0222 64.4839C81.6584 64.815 82.3573 64.9999 83.0721 65.0184C83.0735 65.0366 83.0753 65.0547 83.077 65.0727C82.954 65.215 82.8335 65.3593 82.7156 65.5056C82.2203 66.1152 82.1172 66.2422 80.523 66.5604C80.0695 66.6512 78.865 66.8919 78.8473 67.7105C78.8282 68.605 80.2711 68.9806 80.4355 69.0204C81.0084 69.1595 81.5604 69.2281 82.0867 69.2281C83.3668 69.2281 84.4934 68.8201 85.3937 68.0308C85.366 71.2195 85.5031 74.3616 85.898 75.3189C86.2214 76.1026 87.0114 78.0179 89.507 78.0178C89.8732 78.0178 90.2762 77.9765 90.7196 77.8843C93.3241 77.343 94.4552 76.2268 94.8926 73.7661C95.1268 72.451 95.5286 69.3107 95.7176 67.6263C96.1164 67.7469 96.6298 67.8022 97.1848 67.802C98.3425 67.802 99.6783 67.5635 100.516 67.1865C101.457 66.7628 103.155 65.7229 102.847 64.8195ZM96.6448 53.437C96.6363 53.9342 96.5657 54.3857 96.4909 54.8569C96.4103 55.3637 96.327 55.8877 96.3061 56.5238C96.2854 57.1428 96.3651 57.7864 96.4422 58.4088C96.598 59.666 96.7579 60.9602 96.139 62.2373C96.0362 62.0607 95.9446 61.8781 95.8648 61.6907C95.7879 61.5099 95.6208 61.2194 95.3895 60.8175C94.4896 59.2527 92.3823 55.5884 93.4611 54.0932C93.7824 53.6482 94.5979 53.1906 96.6448 53.437ZM94.1636 45.0123C97.1637 45.0765 99.5369 46.1647 101.217 48.2465C102.506 49.8433 101.087 57.109 96.9787 63.3772C96.9374 63.3262 96.8958 63.2755 96.8541 63.2249L96.8021 63.1619C97.8636 61.462 97.6561 59.7801 97.4713 58.289C97.3954 57.677 97.3236 57.0991 97.3419 56.5561C97.3608 55.9807 97.4392 55.4871 97.5152 55.0099C97.6084 54.4218 97.7033 53.8133 97.6772 53.0959C97.6967 53.0207 97.7046 52.9318 97.6943 52.8262C97.6275 52.1384 96.8175 50.0796 95.1666 48.2162C94.2635 47.197 92.9465 46.0564 91.1483 45.2871C91.9218 45.1317 92.9794 44.9868 94.1636 45.0123ZM77.3761 66.9674C76.5464 67.9347 75.9735 67.7492 75.785 67.6884C74.5574 67.2914 73.1328 64.7754 71.8769 60.7858C70.7901 57.3337 70.1551 53.8624 70.1047 52.889C69.9461 49.8104 70.7157 47.665 72.3924 46.512C75.1211 44.6358 79.6074 45.7588 81.41 46.3283C81.3842 46.3531 81.3572 46.3763 81.3316 46.4015C78.3734 49.2982 78.4435 54.2471 78.4509 54.5497C78.4506 54.6664 78.4607 54.8317 78.4745 55.059C78.5254 55.8914 78.6202 57.4406 78.367 59.195C78.1319 60.8254 78.6503 62.4211 79.7889 63.5731C79.9058 63.6911 80.0286 63.8034 80.1569 63.9096C79.6501 64.4359 78.5486 65.5998 77.3761 66.9674ZM80.5372 62.8779C79.6194 61.9493 79.2026 60.6578 79.3935 59.3341C79.6607 57.4808 79.5621 55.8667 79.5091 54.9995C79.5016 54.8782 79.495 54.7718 79.4912 54.688C79.9233 54.3164 81.926 53.2761 83.3542 53.5933C84.0058 53.738 84.403 54.1683 84.5681 54.9084C85.4225 58.7403 84.6811 60.3374 84.0854 61.6208C83.9627 61.8852 83.8467 62.1352 83.7477 62.3937L83.6709 62.5936C83.4765 63.0989 83.2957 63.5687 83.1836 64.0149C82.2079 64.0122 81.2589 63.608 80.5372 62.8777V62.8779ZM80.6869 68.0455C80.402 67.9765 80.1458 67.8567 79.9955 67.7573C80.1211 67.7 80.3445 67.622 80.7321 67.5446C82.6076 67.1703 82.8973 66.9061 83.5298 66.1274C83.6748 65.9487 83.8392 65.7464 84.0669 65.4999L84.0672 65.4996C84.4062 65.1315 84.5613 65.1939 84.8426 65.3071C85.0705 65.3984 85.2926 65.6755 85.3826 65.9804C85.4252 66.1244 85.473 66.3976 85.3165 66.6103C83.9952 68.4041 82.0697 68.3811 80.6869 68.0455ZM90.5025 76.9018C88.208 77.3785 87.3956 76.2433 86.8603 74.9457C86.5147 74.108 86.3449 70.3302 86.4654 66.1583C86.4669 66.1028 86.4588 66.0492 86.443 65.9988C86.4289 65.8992 86.4075 65.8006 86.3789 65.704C86.1997 65.097 85.7631 64.5892 85.2393 64.3787C85.0311 64.2951 84.6492 64.1417 84.1902 64.2555C84.2881 63.8645 84.4578 63.4228 84.6419 62.9447L84.7191 62.7436C84.806 62.5168 84.9151 62.2819 85.0304 62.0332C85.6538 60.6904 86.5076 58.8512 85.581 54.6961C85.2339 53.1398 84.0749 52.3798 82.3179 52.5564C81.2646 52.6621 80.3009 53.0741 79.8203 53.3104C79.7169 53.3611 79.6224 53.4102 79.5341 53.4579C79.6682 51.8899 80.1751 48.9595 82.071 47.1054C83.2647 45.9382 84.8545 45.3617 86.7915 45.3928C90.6081 45.4534 93.0555 47.3524 94.4367 48.9351C95.627 50.2987 96.2715 51.6724 96.5287 52.4134C94.5944 52.2226 93.2788 52.5928 92.612 53.5173C91.1611 55.5282 93.4057 59.4311 94.4844 61.3068C94.6823 61.6506 94.853 61.9477 94.9067 62.0739C95.258 62.8994 95.7128 63.4505 96.0448 63.8528C96.1466 63.976 96.2453 64.0956 96.3204 64.2C95.7346 64.3638 94.6823 64.7422 94.7782 66.6335C94.7008 67.5825 94.1508 72.0256 93.8714 73.5954C93.5026 75.6693 92.7155 76.4417 90.5025 76.9019V76.9018ZM100.08 66.2752C99.4805 66.5447 98.478 66.7469 97.5257 66.7904C96.4738 66.8382 95.9383 66.6762 95.8123 66.5765C95.7533 65.3979 96.2057 65.2748 96.6845 65.1444C96.7597 65.124 96.8331 65.1039 96.904 65.0799C96.948 65.1147 96.9963 65.1492 97.0491 65.183C97.8946 65.724 99.4025 65.7824 101.531 65.3563L101.555 65.3518C101.268 65.6121 100.776 65.9614 100.08 66.2752Z" fill="white"/>
</g>
<path d="M425 229.993H386.943C374.09 230.161 329.756 227.328 301.313 214.655C265.759 198.813 260.752 189.006 234.212 173.165C212.98 160.492 195.654 154.474 191.147 153.552C184.136 151.456 165.308 146.964 146.079 145.757C122.042 144.248 115.533 145.505 94 145.254" stroke="url(#paint1_linear)" stroke-opacity="0.5" stroke-width="10"/>
<g filter="url(#filter5_d)">
<path d="M60 109H112.77C118.293 109 122.77 113.477 122.77 119V171.77C122.77 177.293 118.293 181.77 112.77 181.77H60C54.4771 181.77 50 177.293 50 171.77V119C50 113.477 54.4771 109 60 109Z" fill="#1E266D"/>
</g>
<g clip-path="url(#clip3)">
<path d="M101.138 154.311C99.1809 154.262 97.664 154.458 96.3918 154.996C96.0248 155.143 95.4375 155.143 95.3886 155.608C95.5843 155.804 95.6088 156.122 95.7801 156.391C96.074 156.88 96.5874 157.541 97.0523 157.883C97.566 158.275 98.08 158.666 98.618 159.009C99.5723 159.596 100.649 159.938 101.579 160.526C102.117 160.868 102.655 161.309 103.193 161.675C103.462 161.871 103.634 162.189 103.976 162.312V162.238C103.805 162.018 103.756 161.7 103.585 161.455C103.34 161.211 103.095 160.99 102.851 160.746C102.141 159.792 101.261 158.96 100.306 158.275C99.5235 157.736 97.8107 157.002 97.4927 156.097C97.4927 156.097 97.4681 156.073 97.4438 156.048C97.982 155.999 98.618 155.804 99.132 155.657C99.9638 155.436 100.722 155.486 101.579 155.265C101.97 155.167 102.361 155.045 102.753 154.923V154.703C102.313 154.262 101.995 153.675 101.53 153.259C100.282 152.182 98.9117 151.131 97.4927 150.25C96.7342 149.76 95.7555 149.442 94.9481 149.027C94.6548 148.88 94.1653 148.806 93.9941 148.562C93.5535 148.023 93.3089 147.314 92.9909 146.678C92.2816 145.332 91.5963 143.84 90.9846 142.421C90.5444 141.467 90.2753 140.512 89.737 139.632C87.217 135.472 84.4767 132.952 80.2687 130.481C79.3633 129.967 78.2868 129.747 77.1369 129.478C76.5255 129.454 75.9136 129.405 75.3021 129.38C74.9106 129.209 74.5191 128.744 74.1765 128.524C72.7822 127.643 69.1854 125.735 68.1579 128.255C67.4972 129.845 69.1366 131.411 69.6991 132.218C70.1154 132.781 70.6534 133.417 70.947 134.053C71.1183 134.469 71.1671 134.91 71.3384 135.35C71.73 136.426 72.0968 137.625 72.6108 138.629C72.8799 139.142 73.1734 139.68 73.516 140.145C73.7117 140.414 74.0541 140.537 74.1277 140.977C73.7853 141.467 73.7607 142.201 73.5648 142.812C72.684 145.577 73.0267 149.002 74.2744 151.033C74.6657 151.644 75.5955 152.99 76.8433 152.476C77.9444 152.036 77.6997 150.641 78.0175 149.418C78.0912 149.124 78.0423 148.929 78.189 148.733V148.782C78.5315 149.467 78.8739 150.128 79.192 150.813C79.9506 152.011 81.2716 153.259 82.3726 154.091C82.96 154.531 83.4247 155.29 84.1588 155.559V155.485H84.1097C83.9629 155.265 83.7427 155.167 83.5471 154.996C83.1068 154.556 82.6172 154.018 82.2748 153.528C81.2474 152.158 80.3419 150.641 79.5346 149.075C79.1432 148.317 78.8005 147.485 78.4826 146.727C78.3356 146.433 78.3356 145.993 78.0911 145.846C77.724 146.384 77.1859 146.849 76.9167 147.51C76.4521 148.562 76.403 149.858 76.2317 151.204C76.1339 151.229 76.1827 151.204 76.1337 151.253C75.351 151.057 75.0818 150.25 74.7881 149.565C74.054 147.828 73.9317 145.039 74.568 143.032C74.7393 142.519 75.4733 140.904 75.1797 140.414C75.0329 139.95 74.5434 139.68 74.2744 139.314C73.9564 138.849 73.6137 138.262 73.3936 137.748C72.8064 136.378 72.5128 134.861 71.8767 133.491C71.5831 132.854 71.0695 132.194 70.6534 131.607C70.1886 130.946 69.6748 130.481 69.3078 129.698C69.1856 129.429 69.0141 128.989 69.2099 128.695C69.2588 128.499 69.3566 128.426 69.5524 128.377C69.8705 128.108 70.7759 128.451 71.0937 128.597C71.999 128.964 72.7574 129.307 73.516 129.821C73.8584 130.065 74.2254 130.53 74.6657 130.653H75.1796C75.9626 130.824 76.8432 130.702 77.5772 130.922C78.8741 131.337 80.0483 131.949 81.1005 132.61C84.3056 134.64 86.9477 137.527 88.7339 140.977C89.0275 141.54 89.1497 142.054 89.4189 142.641C89.9329 143.84 90.5689 145.063 91.0825 146.237C91.5963 147.387 92.0856 148.562 92.8196 149.516C93.1867 150.029 94.6545 150.299 95.3152 150.568C95.8045 150.788 96.5631 150.984 97.0034 151.253C97.8352 151.766 98.667 152.354 99.45 152.916C99.8415 153.21 101.065 153.822 101.138 154.311Z" fill="#FC800E"/>
<path d="M76.1824 133.05C75.7666 133.05 75.4731 133.099 75.1795 133.173V133.221H75.2284C75.4243 133.613 75.7666 133.882 76.0111 134.225C76.207 134.616 76.3782 135.008 76.5741 135.399C76.5984 135.374 76.6228 135.35 76.6228 135.35C76.9656 135.105 77.1367 134.714 77.1367 134.127C76.9899 133.956 76.9654 133.784 76.8431 133.613C76.6964 133.368 76.3782 133.246 76.1824 133.05Z" fill="#FC800E"/>
</g>
<path d="M424.77 229H117.77" stroke="url(#paint2_diamond)" stroke-opacity="0.5" stroke-width="10" style="mix-blend-mode:darken"/>
<g filter="url(#filter6_d)">
<path d="M60 264.77H112.77C118.293 264.77 122.77 260.293 122.77 254.77V202C122.77 196.477 118.293 192 112.77 192H60C54.4771 192 50 196.477 50 202V254.77C50 260.293 54.4771 264.77 60 264.77Z" fill="#1E266D"/>
</g>
<path fill-rule="evenodd" clip-rule="evenodd" d="M83.892 247.626L82.6792 247.385C82.6792 247.385 83.0999 242.633 80.867 242.434C79.4411 241.211 84.2903 186.601 86.5227 241.9C86.5227 241.9 84.6208 242.719 84.2219 243.943C83.7942 245.145 83.892 247.626 83.892 247.626Z" fill="white"/>
<path fill-rule="evenodd" clip-rule="evenodd" d="M83.892 247.626L82.6792 247.385C82.6792 247.385 83.0999 242.633 80.867 242.434C79.4411 241.211 84.2903 186.601 86.5227 241.9C86.5227 241.9 84.6208 242.719 84.2219 243.943C83.7942 245.145 83.892 247.626 83.892 247.626Z" fill="#A6A385"/>
<path fill-rule="evenodd" clip-rule="evenodd" d="M83.7251 243.04C83.7251 243.04 94.0904 237.044 92.4317 226.233C90.6693 218.413 85.4952 216.179 84.9714 215.215C84.3736 214.545 83.8371 213.337 83.8371 213.337L82.8624 235.511C82.861 235.534 81.5691 242.371 83.7253 243.04" fill="white"/>
<path fill-rule="evenodd" clip-rule="evenodd" d="M83.7251 243.04C83.7251 243.04 94.0904 237.044 92.4317 226.233C90.6693 218.413 85.4952 216.179 84.9714 215.215C84.3736 214.545 83.8371 213.337 83.8371 213.337L82.8624 235.511C82.861 235.534 81.5691 242.371 83.7253 243.04" fill="#499D4A"/>
<path fill-rule="evenodd" clip-rule="evenodd" d="M82.9131 242.692C82.9131 242.692 73.8282 238.226 74.9559 229.133C76.0554 220.042 82.9791 215.116 84.3139 214.219C85.1965 213.444 85.2412 213.173 85.3421 212.454C85.8652 213.418 84.8709 227.464 84.8504 229.112C84.701 235.465 83.6309 241.439 82.9131 242.692Z" fill="white"/>
<path fill-rule="evenodd" clip-rule="evenodd" d="M82.9131 242.692C82.9131 242.692 73.8282 238.226 74.9559 229.133C76.0554 220.042 82.9791 215.116 84.3139 214.219C85.1965 213.444 85.2412 213.173 85.3421 212.454C85.8652 213.418 84.8709 227.464 84.8504 229.112C84.701 235.465 83.6309 241.439 82.9131 242.692Z" fill="#58AA50"/>
<path d="M425 228.007H386.943C374.09 227.839 329.756 230.672 301.313 243.345C265.759 259.187 260.752 268.994 234.212 284.835C212.98 297.508 195.654 303.526 191.147 304.448C184.136 306.544 165.308 311.036 146.079 312.243C122.042 313.752 115.533 312.495 94 312.746" stroke="url(#paint3_linear)" stroke-opacity="0.5" stroke-width="10"/>
<g filter="url(#filter7_d)">
<path d="M60 349H112.77C118.293 349 122.77 344.523 122.77 339V286.23C122.77 280.707 118.293 276.23 112.77 276.23H60C54.4771 276.23 50 280.707 50 286.23V339C50 344.523 54.4771 349 60 349Z" fill="#1E266D"/>
</g>
<path d="M91.1316 313.026L83.1315 315.73L76.1289 318.729L74.1882 319.289C73.6758 319.707 73.1395 320.131 72.5611 320.564C71.9267 321.04 71.3365 321.473 70.884 321.79C70.3821 322.139 69.6305 322.779 69.2436 323.178C68.6661 323.776 68.1994 324.399 67.9852 324.868C67.6043 325.714 67.71 326.533 68.2893 327.253C69.033 328.169 70.5776 329.045 72.4103 329.583C73.3442 329.858 74.9251 330.181 76.1208 330.339C78.1073 330.608 81.9752 330.769 84.1156 330.675C84.5484 330.657 85.1307 330.613 85.1554 330.597C85.2046 330.569 85.5718 330.021 86.0009 329.342C87.4659 327.028 88.5534 324.879 89.1872 323.065C89.567 321.967 89.9049 320.516 90.177 318.808C90.2499 318.331 90.3724 316.741 90.3721 316.206C90.3766 315.33 90.3285 314.623 90.2261 313.936C90.2091 313.835 90.2092 313.742 90.2215 313.736C90.2462 313.72 90.3187 313.695 91.3024 313.392L91.1315 313.026L91.1315 313.026L91.1316 313.026L91.1316 313.026ZM89.2802 314.026C89.3515 314.021 89.4427 315.507 89.4278 316.452C89.4265 316.651 89.4118 316.784 89.4 316.785C89.3525 316.788 88.4264 316.396 87.7664 316.096C87.1924 315.833 86.1041 315.302 85.9336 315.198C85.8763 315.168 85.8825 315.163 86.3789 314.989C87.2198 314.697 89.2149 314.031 89.2802 314.026ZM85.2039 315.413C85.2574 315.409 85.3898 315.462 85.7057 315.604C86.8881 316.142 88.5017 316.779 89.1979 316.98C89.4126 317.042 89.4382 317.01 88.9146 317.332C87.7932 318.02 86.4051 318.718 84.7136 319.443C84.4155 319.573 84.1664 319.674 84.1605 319.675C84.1487 319.676 84.1922 319.551 84.2494 319.401C84.7277 318.153 85.0347 316.905 85.1117 315.916C85.1498 315.427 85.1498 315.427 85.2043 315.408C85.192 315.414 85.1979 315.414 85.2039 315.413ZM84.361 315.735C84.3946 315.761 84.2988 316.858 84.2315 317.16C84.0776 317.881 83.8674 318.559 83.5449 319.327C83.4676 319.513 83.3981 319.669 83.3857 319.68C83.3602 319.706 82.5894 319.112 82.3387 318.878C81.9042 318.473 81.5708 318.061 81.3318 317.651C81.2096 317.441 81.0241 317.027 81.0428 317.011C81.1414 316.95 84.3385 315.717 84.361 315.735ZM80.3922 317.284C80.3981 317.283 80.404 317.283 80.4098 317.287C80.4209 317.296 80.4575 317.371 80.4873 317.457C80.6494 317.868 81.0359 318.461 81.378 318.834C81.753 319.244 82.251 319.673 82.6703 319.948C82.8065 320.035 82.9311 320.118 82.9479 320.131C82.9817 320.158 82.9939 320.152 82.0053 320.528C80.8593 320.965 79.612 321.409 78.1852 321.886C77.8444 322 77.5038 322.115 77.1635 322.23C77.109 322.249 77.1284 322.223 77.2961 322.011C78.0502 321.064 79.2234 319.23 79.8994 317.944C80.0146 317.721 80.1298 317.498 80.1509 317.448C80.1792 317.378 80.2104 317.351 80.2899 317.311C80.3321 317.298 80.3744 317.285 80.3922 317.284ZM79.1772 317.779C79.1944 317.788 78.8569 318.333 78.5282 318.835C77.891 319.802 77.2013 320.759 76.2848 321.927C76.1296 322.128 75.9814 322.315 75.9622 322.336C75.9303 322.372 75.919 322.363 75.8339 322.219C75.6535 321.907 75.5148 321.499 75.4511 321.119C75.3871 320.745 75.4487 320.079 75.5768 319.66C75.6739 319.352 75.6678 319.357 75.8508 319.27C76.6323 318.895 79.1547 317.761 79.1772 317.779ZM89.4042 317.349L89.3907 317.554C89.3189 318.644 89.0778 320.15 88.7979 321.256C88.7497 321.449 88.7096 321.608 88.7035 321.613C88.7035 321.613 88.5337 321.587 88.3349 321.554C87.4588 321.391 86.5125 321.127 85.6651 320.797C85.1058 320.581 84.296 320.219 84.3211 320.198C84.3273 320.192 84.584 320.066 84.8835 319.917C86.0811 319.331 87.2334 318.709 88.2371 318.103C88.6127 317.875 89.1805 317.511 89.3053 317.414L89.4042 317.349ZM74.5732 319.906C74.597 319.905 74.5884 319.944 74.5412 320.123C74.509 320.252 74.4639 320.489 74.4415 320.651C74.3468 321.368 74.4547 321.885 74.8349 322.576C74.9405 322.768 75.0247 322.927 75.0183 322.932C74.9748 322.965 70.9789 324.209 69.7246 324.581C69.3507 324.692 69.0251 324.79 69.0009 324.796C68.9588 324.809 68.9531 324.805 68.9764 324.72C69.1604 323.991 69.8877 323.003 70.8668 322.141C71.5195 321.566 72.033 321.221 72.9028 320.762C73.5275 320.433 74.4884 319.937 74.561 319.912C74.5614 319.907 74.5673 319.907 74.5732 319.906ZM83.7526 320.571C83.7589 320.566 83.8973 320.619 84.0641 320.689C85.2957 321.199 87.0293 321.628 88.5195 321.802L88.6546 321.817L88.4586 321.919C87.6446 322.34 84.9894 323.425 82.2797 324.442C81.8857 324.588 81.4977 324.734 81.4247 324.764C81.3518 324.794 81.2855 324.814 81.2858 324.809C81.2861 324.804 81.4044 324.625 81.5548 324.404C82.3729 323.204 83.2134 321.755 83.6574 320.758C83.7112 320.662 83.7463 320.577 83.7526 320.571ZM82.7911 320.897C82.7968 320.901 82.7425 321.007 82.6753 321.129C82.0904 322.2 81.3389 323.375 80.3884 324.701C80.1473 325.041 79.946 325.314 79.94 325.314C79.9342 325.314 79.7616 325.24 79.5548 325.148C78.337 324.608 77.2715 323.91 76.5906 323.208L76.4907 323.108L77.0394 322.945C79.0051 322.364 80.6818 321.771 82.3539 321.071C82.5908 320.975 82.7852 320.897 82.7911 320.897ZM88.5505 322.141C88.5505 322.141 88.5562 322.145 88.5505 322.141C88.549 322.252 88.1797 323.282 87.8821 324.029C87.6339 324.656 87.424 325.149 87.0416 326.019C86.8745 326.401 86.7295 326.718 86.7235 326.719C86.7176 326.719 86.6823 326.717 86.6473 326.71C84.9 326.579 83.3436 326.332 81.8903 325.955C81.4834 325.849 80.9037 325.674 80.8697 325.652C80.8585 325.643 81.224 325.48 81.6862 325.284C84.4538 324.108 87.3311 322.792 88.3249 322.245C88.4416 322.178 88.5327 322.142 88.5505 322.141ZM74.9722 323.544C74.9834 323.552 74.1699 324.504 73.032 325.801C72.6356 326.254 72.175 326.785 72.0023 326.982C71.8296 327.18 71.5667 327.492 71.4185 327.678L71.1479 328.015L70.8927 327.849C70.592 327.658 70.0756 327.24 69.8488 327.004C69.3722 326.519 69.064 325.993 68.9605 325.5C68.9106 325.27 68.9183 325.153 68.9787 325.134C69.069 325.107 70.6758 324.68 72.18 324.284C73.0163 324.066 73.985 323.808 74.3342 323.713C74.6834 323.619 74.9662 323.544 74.9722 323.544ZM75.7169 323.726L75.8954 323.887C76.6993 324.61 77.5344 325.126 78.5585 325.554C78.7429 325.628 78.8803 325.695 78.868 325.701C78.8249 325.729 75.1245 327.063 73.4115 327.669C72.4487 328.014 71.6558 328.293 71.65 328.293C71.644 328.293 71.5925 328.268 71.5352 328.238L71.4325 328.183L71.6183 327.965C72.2206 327.258 72.9698 326.477 74.5967 324.846L75.7169 323.726ZM80.2747 326.159C80.2808 326.154 80.5371 326.212 80.8515 326.286C81.6083 326.467 82.2102 326.573 83.019 326.682C84.0152 326.816 85.4634 326.911 86.3211 326.905C86.4512 326.905 86.5218 326.909 86.4971 326.926C86.4541 326.948 85.565 327.254 84.9123 327.468C83.8729 327.809 80.7036 328.802 78.1209 329.595C77.6441 329.743 77.2339 329.866 77.2098 329.873C77.1498 329.887 76.9566 329.858 76.9578 329.838C76.9585 329.829 77.1111 329.666 77.2943 329.487C78.2053 328.582 79.1169 327.579 79.8826 326.636C80.0947 326.377 80.2743 326.164 80.2747 326.159ZM79.2272 326.263C79.2328 326.267 78.7743 326.856 77.9745 327.87C77.6327 328.299 77.2519 328.785 77.1164 328.956C76.9873 329.121 76.793 329.379 76.683 329.523L76.4942 329.786L76.4064 329.773C76.1957 329.74 74.7211 329.418 74.3317 329.317C73.8491 329.192 73.351 329.035 72.9816 328.898C72.5202 328.724 71.9467 328.455 71.9948 328.442C72.007 328.436 72.8329 328.194 73.8278 327.9C76.4686 327.122 77.9347 326.676 78.8956 326.361C79.0708 326.304 79.2216 326.258 79.2272 326.263ZM86.5307 327.132L86.5367 327.132C86.5572 327.179 85.4498 329.451 85.0534 330.172C84.9659 330.334 84.9337 330.375 84.8924 330.373C84.7917 330.376 83.406 330.32 82.563 330.282C81.0958 330.207 78.6356 330.038 78.0195 329.967L77.8785 329.954L78.7747 329.721C80.6993 329.225 81.6269 328.966 82.5692 328.661C83.7591 328.28 84.942 327.826 86.1421 327.288C86.3308 327.206 86.4888 327.14 86.5307 327.132Z" fill="url(#paint4_linear)"/>
<path d="M82.9627 295.918C82.8352 295.913 80.7258 296.651 79.3621 297.175C77.5217 297.885 76.0859 298.539 75.1917 299.082C74.8593 299.286 74.4363 299.634 74.3643 299.764C74.3381 299.812 74.3228 299.869 74.3193 299.924L75.0642 300.46L76.8961 300.806L81.2861 301.131L86.3084 301.474L86.3829 301.122C86.3655 301.123 86.354 301.119 86.3367 301.12L85.6764 301.082L85.5543 300.901C84.9264 299.982 84.2432 298.836 83.8506 298.058C83.5458 297.455 83.2646 296.753 83.1164 296.245C83.0371 295.936 83.0267 295.918 82.9628 295.918L82.9629 295.918L82.9627 295.918L82.9627 295.918ZM82.8543 296.161L82.8603 296.161C82.8657 296.165 82.8809 296.294 82.8946 296.445C82.9528 297.089 83.0943 297.704 83.3375 298.362C83.5212 298.858 83.523 298.83 83.2759 298.787C82.6888 298.698 80.0447 298.516 78.1263 298.435C77.819 298.424 77.5584 298.41 77.5587 298.405C77.5366 298.388 78.9919 297.7 79.6311 297.425C80.4491 297.077 82.6895 296.196 82.8543 296.161ZM77.097 298.631L77.3209 298.676C78.537 298.925 81.6179 299.184 83.3268 299.177C83.5185 299.178 83.6811 299.18 83.6868 299.18C83.6924 299.184 83.5247 299.265 83.3095 299.359C82.4601 299.746 81.5241 300.213 80.8741 300.568C80.6816 300.674 80.5075 300.76 80.4843 300.761C80.4609 300.763 80.3396 300.753 80.212 300.748L79.9803 300.736L79.4255 300.321C78.4483 299.597 77.6815 299.04 77.3868 298.829L77.097 298.631ZM76.8545 298.792L77.6259 299.552C78.0469 299.972 78.4743 300.382 78.5675 300.473C78.6604 300.563 78.7372 300.637 78.7311 300.642C78.7069 300.657 77.5511 300.557 76.9394 300.488C76.3106 300.416 76.0514 300.378 75.6666 300.308L75.3508 300.246L75.3549 300.181C75.3803 299.87 75.9058 299.371 76.776 298.839L76.8545 298.792ZM83.7762 299.424C83.7996 299.422 83.826 299.462 83.8882 299.582C84.0646 299.917 84.6243 300.813 84.7645 300.984C84.8075 301.041 84.8888 301.04 84.0727 300.99C82.1103 300.871 81.4793 300.831 81.4799 300.822C81.4802 300.817 81.5406 300.781 81.6186 300.743C82.2484 300.431 82.8886 300.045 83.4604 299.64C83.6002 299.542 83.7281 299.45 83.7522 299.434C83.7586 299.425 83.7707 299.419 83.7762 299.424Z" fill="url(#paint5_linear)"/>
<path d="M74.4251 302.013C74.4251 302.013 74.2854 302.188 74.3928 302.426C74.4594 302.572 74.6706 302.741 74.9108 302.912C74.9108 302.912 77.3909 304.782 77.6891 305.053C79.0466 306.295 79.5895 307.577 79.5307 309.403C79.4903 310.576 79.148 311.629 78.3841 312.877C77.0248 315.117 74.295 317.676 70.1515 320.597L70.7428 320.399C71.1331 320.144 71.6594 319.866 72.891 319.249C75.7345 317.828 78.918 316.481 82.8081 315.051C88.4099 312.988 97.57 310.387 102.753 309.383L103.292 309.278L103.216 309.18C102.784 308.626 102.485 308.284 102.122 307.923C101.068 306.876 99.7589 306.059 98.1345 305.421C95.9 304.548 92.9757 303.951 89.2457 303.62C88.5427 303.557 86.9952 303.451 85.7372 303.386C83.0702 303.242 81.3475 303.134 79.4508 303.006C78.7701 302.961 77.7519 302.892 77.0785 302.823C76.7302 302.786 76.0634 302.707 75.5445 302.598C75.1304 302.495 74.5284 302.406 74.4251 302.013ZM75.8636 303.089C75.8697 303.084 75.9618 303.106 76.083 303.13C76.3021 303.176 76.5852 303.226 76.9209 303.277C77.1749 303.316 77.4296 303.353 77.6851 303.388C78.0327 303.434 78.322 303.479 78.3278 303.478C78.3668 303.509 78.8614 304.997 79.0232 305.57C79.0851 305.788 79.1318 305.973 79.1259 305.974C79.1195 305.979 79.0602 305.903 78.991 305.799C78.3668 304.872 77.3445 303.959 76.1393 303.253C75.9811 303.17 75.8633 303.094 75.8636 303.089ZM78.7104 303.526C78.7398 303.524 78.868 303.529 79.0246 303.546C80.011 303.655 81.7839 303.801 82.9185 303.876C83.1107 303.885 83.2616 303.903 83.261 303.912C83.2604 303.922 83.1877 303.96 83.0972 304.004C82.8984 304.099 82.0935 304.529 81.8261 304.69C81.1519 305.087 80.5406 305.509 80.0959 305.88C79.9169 306.03 79.7627 306.154 79.7627 306.154C79.7627 306.154 79.7328 306.076 79.7097 305.979C79.5409 305.335 79.1632 304.39 78.8082 303.732C78.7506 303.627 78.7042 303.532 78.7048 303.522C78.7042 303.532 78.7045 303.527 78.7104 303.526ZM83.7439 303.944C83.7785 303.951 83.8269 304.108 83.9214 304.455C84.0945 305.126 84.1449 305.887 84.0637 306.605C84.0391 306.805 84.0156 306.991 84.0022 307.015L83.9816 307.064L83.6816 307.005C83.0638 306.889 82.0579 306.721 81.196 306.585C80.704 306.511 80.3054 306.441 80.306 306.431C80.3079 306.403 81.0736 305.763 81.399 305.518C82.0189 305.054 83.6919 303.933 83.7439 303.944ZM84.1459 303.962C84.1645 303.947 86.5556 304.11 87.6424 304.202C88.4502 304.271 89.6232 304.385 89.6921 304.404C89.7267 304.411 89.5997 304.476 89.1972 304.647C87.6113 305.322 86.428 305.912 85.2438 306.61C84.934 306.793 84.6731 306.944 84.6672 306.944C84.6614 306.945 84.6643 306.808 84.675 306.642C84.7329 305.741 84.5682 304.847 84.2066 304.109C84.1704 304.036 84.1397 303.967 84.1459 303.962ZM90.3222 304.51C90.3389 304.523 90.2379 304.912 90.1528 305.145C89.8961 305.866 89.2594 306.954 88.4975 307.99C88.3629 308.175 88.2422 308.325 88.2301 308.33C88.2182 308.336 88.0642 308.276 87.8877 308.204C87.2275 307.93 86.4721 307.683 85.645 307.459C85.4154 307.395 85.2142 307.344 85.2089 307.335C85.1696 307.309 87.1247 306.164 88.1538 305.609C88.9713 305.163 90.2999 304.492 90.3222 304.51ZM90.7646 304.534C90.8175 304.531 91.8707 304.691 92.4198 304.784C93.778 305.017 95.3329 305.372 96.3417 305.677L96.7601 305.803L96.4572 305.881C93.9028 306.531 91.7077 307.227 89.5799 308.059C89.406 308.128 89.2503 308.186 89.2386 308.187C89.2268 308.188 89.2926 308.075 89.3774 307.937C90.0747 306.816 90.5519 305.663 90.7132 304.699C90.7249 304.608 90.747 304.536 90.7646 304.534ZM80.0008 307.27C80.0193 307.254 80.8253 307.352 81.2592 307.42C81.9186 307.524 83.3146 307.805 83.3127 307.834C83.3124 307.839 83.147 307.959 82.9507 308.105C82.1484 308.677 81.3737 309.275 80.4427 310.031C80.1654 310.254 79.9318 310.436 79.9201 310.436C79.9083 310.437 79.9043 310.409 79.9125 310.371C80.0987 309.565 80.1352 308.543 80.0141 307.519C80.0049 307.387 79.9947 307.275 80.0008 307.27ZM97.1474 306.053C97.1584 306.062 96.7393 306.583 96.4748 306.88C96.0965 307.313 95.545 307.89 94.3006 309.159C93.6442 309.829 92.906 310.585 92.6619 310.838C92.4117 311.092 92.2053 311.305 92.1994 311.306C92.1935 311.306 92.1228 311.226 92.0472 311.128C91.4409 310.379 90.699 309.738 89.8058 309.18C89.6373 309.074 89.4519 308.96 89.3898 308.926C89.3276 308.893 89.2772 308.859 89.2775 308.854C89.2784 308.84 90.2985 308.422 91.0717 308.122C92.4265 307.59 94.2679 306.939 95.6457 306.505C96.3676 306.274 97.1362 306.045 97.1474 306.053ZM97.5933 306.116C97.617 306.109 97.7543 306.156 97.9193 306.224C99.3036 306.781 100.646 307.529 101.694 308.322C101.989 308.546 102.717 309.135 102.705 309.141C102.705 309.141 102.433 309.179 102.115 309.221C99.6339 309.55 96.4428 310.199 93.3638 311.01C93.1559 311.062 92.9718 311.108 92.96 311.109C92.9484 311.11 93.1891 310.909 93.4911 310.666C95.3649 309.149 96.2373 308.213 97.3005 306.58C97.4504 306.338 97.5806 306.131 97.5933 306.116C97.5874 306.116 97.5874 306.116 97.5933 306.116ZM84.4504 308.135C84.5317 308.143 85.2763 308.377 85.8367 308.568C86.3513 308.743 87.1219 309.028 87.1612 309.053C87.1667 309.058 86.8773 309.196 86.5222 309.359C85.3899 309.883 84.4177 310.373 83.4003 310.927C83.1097 311.085 82.8676 311.216 82.8617 311.216C82.8383 311.218 82.8453 311.198 83.0188 310.955C83.5971 310.14 84.0794 309.18 84.3783 308.258C84.4063 308.185 84.4328 308.136 84.4504 308.135ZM83.6799 308.303C83.6967 308.316 83.4596 308.913 83.316 309.24C83.0365 309.859 82.5831 310.642 82.1533 311.239C82.0507 311.378 81.8974 311.582 81.8141 311.697L81.6551 311.897L81.3428 311.665C80.9805 311.393 80.6812 311.231 80.2927 311.094C80.1384 311.039 80.0188 310.991 80.0194 310.981C80.0219 310.943 81.0729 310.137 81.876 309.551C82.4525 309.127 83.6633 308.29 83.6799 308.303ZM88.2474 309.518L88.5254 309.649C89.1604 309.948 89.9058 310.352 90.4729 310.712C90.7931 310.911 91.4087 311.334 91.5306 311.438L91.597 311.495L91.1146 311.638C88.3873 312.433 86.2747 313.118 83.8039 314.012C83.5287 314.112 83.2955 314.195 83.2779 314.196C83.2427 314.199 83.2118 314.225 83.8454 313.731C85.4693 312.468 86.9245 311.099 88.0255 309.789L88.2474 309.518ZM87.0046 309.853C87.0157 309.861 86.1527 310.834 85.6381 311.385C85.0232 312.042 83.9353 313.149 83.1877 313.872C82.8763 314.173 82.6089 314.423 82.5968 314.429C82.5789 314.435 82.5776 314.364 82.5846 314.255C82.6215 313.682 82.4788 313.083 82.1953 312.585C82.0742 312.377 82.0541 312.326 82.0851 312.3C82.2018 312.212 83.9606 311.302 85.0709 310.756C85.8189 310.39 86.9875 309.844 87.0046 309.853ZM79.49 311.854C79.5076 311.853 79.639 311.9 79.7874 311.956C80.1524 312.095 80.4751 312.255 80.7617 312.433C80.7728 312.442 80.6138 312.552 80.4066 312.685C79.8282 313.047 78.9497 313.625 78.4363 313.978C77.8982 314.346 77.8801 314.357 77.9433 314.282C78.3616 313.775 78.5726 313.491 78.8004 313.131C79.0021 312.809 79.2075 312.431 79.3571 312.105C79.4128 311.964 79.4783 311.855 79.49 311.854ZM81.388 312.964C81.4175 312.957 81.4501 312.997 81.5963 313.175C81.9051 313.554 82.1287 314.076 82.1653 314.507L82.1708 314.601L81.3506 314.91C79.8833 315.464 78.528 316.004 77.6084 316.401C77.35 316.514 76.8987 316.716 76.6038 316.85C76.3085 316.989 76.0679 317.096 76.0682 317.091C76.0685 317.087 76.2575 316.965 76.4891 316.816C78.3105 315.661 79.9034 314.424 81.1147 313.214C81.2456 313.087 81.3642 312.97 81.3762 312.965L81.388 312.964ZM80.4665 313.209C80.4888 313.226 79.7803 313.886 79.2983 314.293C78.1053 315.308 76.9371 316.119 75.5001 316.929C75.3182 317.032 75.1546 317.124 75.1363 317.135C75.094 317.157 75.1499 317.105 75.7948 316.526C76.2039 316.162 76.5157 315.856 76.8729 315.482C77.1108 315.233 77.1541 315.197 77.4889 314.989C78.3841 314.425 80.4442 313.192 80.4665 313.209Z" fill="url(#paint6_radial)"/>
<path d="M424.77 229.014H386.77C373.937 228.68 329.67 234.314 301.27 259.514C265.77 291.014 260.77 310.514 234.27 342.014C213.07 367.214 195.77 379.18 191.27 381.014C184.27 385.18 165.47 394.114 146.27 396.514C122.27 399.514 115.77 397.014 94.2699 397.514" stroke="url(#paint7_linear)" stroke-opacity="0.5" stroke-width="10"/>
<g filter="url(#filter8_d)">
<path d="M60 434.018H112.77C118.293 434.018 122.77 429.541 122.77 424.018V371.248C122.77 365.726 118.293 361.248 112.77 361.248H60C54.4771 361.248 50 365.726 50 371.248V424.018C50 429.541 54.4771 434.018 60 434.018Z" fill="#1E266D"/>
</g>
<path d="M61.704 400.928C61.704 401.808 61.336 403.264 61.336 404.432C61.336 406.432 62.68 407.536 64.68 407.536H65.864V404.992H65.288C64.584 404.992 64.328 404.672 64.328 404.112C64.328 403.344 64.6 401.808 64.6 400.8C64.6 399.616 64.072 398.768 62.888 398.544V398.512C64.072 398.288 64.6 397.44 64.6 396.256C64.6 395.248 64.328 393.712 64.328 392.96C64.328 392.384 64.584 392.064 65.288 392.064H65.864V389.52H64.68C62.68 389.52 61.336 390.624 61.336 392.624C61.336 393.792 61.704 395.248 61.704 396.144C61.704 396.848 61.304 397.232 60.216 397.248V399.792C61.304 399.824 61.704 400.256 61.704 400.928Z" fill="#E128CF"/>
<path d="M73.739 396.512C73.739 397.28 73.307 397.696 72.459 397.696H70.907V395.344H72.459C73.307 395.344 73.739 395.808 73.739 396.512ZM67.771 392.72V404H70.907V399.84H71.243L73.483 404H76.987L74.443 399.6C76.123 399.088 76.923 397.808 76.923 396.336C76.923 394.32 75.515 392.72 72.715 392.72H67.771Z" fill="#E128CF"/>
<path d="M85.5651 392.72H78.3491V404H85.5651V401.488H81.4851V399.456H85.0851V397.072H81.4851V395.232H85.5651V392.72Z" fill="#E128CF"/>
<path d="M95.5788 400.576C95.5788 396.96 90.1548 397.504 90.1548 395.824C90.1548 395.28 90.5228 395.008 90.9868 395.024C91.5628 395.024 91.9948 395.344 92.0268 396.048H95.4348C95.3228 393.808 93.6268 392.544 91.0348 392.544C88.6508 392.544 86.8108 393.728 86.8108 395.936C86.7628 399.856 92.2348 399.008 92.2508 400.816C92.2508 401.344 91.8188 401.632 91.2588 401.632C90.6828 401.632 90.1868 401.344 90.1228 400.496H86.7788C86.9068 402.912 88.8588 404.112 91.3708 404.112C94.0428 404.112 95.5788 402.56 95.5788 400.576Z" fill="#E128CF"/>
<path d="M96.4126 395.216H99.3886V404H102.525V395.216H105.533V392.72H96.4126V395.216Z" fill="#E128CF"/>
<path d="M110.965 400.928C110.965 401.808 111.333 403.264 111.333 404.432C111.333 406.432 109.989 407.536 107.989 407.536H106.805V404.992H107.381C108.085 404.992 108.341 404.672 108.341 404.112C108.341 403.344 108.069 401.808 108.069 400.8C108.069 399.616 108.597 398.768 109.781 398.544V398.512C108.597 398.288 108.069 397.44 108.069 396.256C108.069 395.248 108.341 393.712 108.341 392.96C108.341 392.384 108.085 392.064 107.381 392.064H106.805V389.52H107.989C109.989 389.52 111.333 390.624 111.333 392.624C111.333 393.792 110.965 395.248 110.965 396.144C110.965 396.848 111.365 397.232 112.453 397.248V399.792C111.365 399.824 110.965 400.256 110.965 400.928Z" fill="#E128CF"/>
<path opacity="0.08" d="M498.522 378C584.966 378 655.043 310.842 655.043 228C655.043 145.157 584.966 78 498.522 78C412.077 78 342 145.157 342 228C342 310.842 412.077 378 498.522 378Z" fill="#1D66FF"/>
<path opacity="0.08" d="M495.762 338C559.143 338 610.524 288.751 610.524 228C610.524 167.249 559.143 118 495.762 118C432.381 118 381 167.249 381 228C381 288.751 432.381 338 495.762 338Z" fill="#1D66FF"/>
<path d="M496 300C535.765 300 568 267.765 568 228C568 188.236 535.765 156 496 156C456.236 156 424 188.236 424 228C424 267.765 456.236 300 496 300Z" fill="#1D66FF"/>
<path fill-rule="evenodd" clip-rule="evenodd" d="M536.956 218.156C536.956 224.729 531.628 230.057 525.055 230.057H520.686V243.148H525.055C531.628 243.148 536.956 248.476 536.956 255.049C536.956 255.706 536.423 256.239 535.766 256.239H519.938H499.553C498.52 256.239 497.683 255.402 497.683 254.369V243.896V229.309V218.836C497.683 217.803 498.52 216.966 499.553 216.966H519.938H535.766C536.423 216.966 536.956 217.499 536.956 218.156Z" fill="white"/>
<path fill-rule="evenodd" clip-rule="evenodd" d="M492.753 216.966C493.41 216.966 493.943 217.499 493.943 218.156V243.896V255.491C493.943 255.904 493.608 256.239 493.195 256.239H481.6H455.86C455.203 256.239 454.67 255.706 454.67 255.049C454.67 248.476 459.998 243.148 466.571 243.148H467.2C474.74 243.148 480.852 237.036 480.852 229.496V228.867C480.852 222.294 486.18 216.966 492.753 216.966Z" fill="white"/>
<path fill-rule="evenodd" clip-rule="evenodd" d="M503.481 200.951C503.481 207.524 498.153 212.852 491.58 212.852H490.951C483.415 212.852 477.304 218.958 477.299 226.493V227.133C477.299 233.706 471.971 239.034 465.398 239.034C464.741 239.034 464.208 238.501 464.208 237.844V212.104V201.631C464.208 200.598 465.045 199.761 466.078 199.761H476.551H502.291C502.948 199.761 503.481 200.294 503.481 200.951Z" fill="white"/>
<path d="M511.335 236.603C511.335 232.988 514.266 230.057 517.88 230.057H524.613V243.148H517.88C514.266 243.148 511.335 240.218 511.335 236.603Z" fill="#1D66FF"/>
<path d="M891.104 121.016L893.152 121L895.632 112.584L897.968 121H900.032L903.328 109.88H901.376L899.056 118.888L896.736 109.88H894.688L892.192 118.936L889.888 109.88H887.952L891.104 121.016ZM908.545 113.576C909.905 113.576 910.977 114.44 911.009 115.8H906.129C906.321 114.408 907.313 113.576 908.545 113.576ZM912.673 118.376H910.705C910.369 119.064 909.745 119.608 908.625 119.608C907.281 119.608 906.241 118.728 906.113 117.272H912.849C912.897 116.968 912.913 116.68 912.913 116.376C912.913 113.784 911.137 112.04 908.625 112.04C906.017 112.04 904.225 113.816 904.225 116.584C904.225 119.352 906.097 121.144 908.625 121.144C910.785 121.144 912.177 119.912 912.673 118.376ZM916.532 113.496V109.16H914.708V121H916.532V119.72C917.108 120.488 918.148 121.144 919.604 121.144C921.924 121.144 923.748 119.272 923.748 116.552C923.748 113.832 921.94 112.04 919.604 112.04C918.212 112.04 917.108 112.696 916.532 113.496ZM921.892 116.552C921.892 118.456 920.58 119.56 919.204 119.56C917.844 119.56 916.532 118.488 916.532 116.584C916.532 114.696 917.844 113.624 919.204 113.624C920.58 113.624 921.892 114.648 921.892 116.552ZM894.009 149H895.929L891.945 137.864H889.833L885.849 149H887.753L888.553 146.728H893.209L894.009 149ZM892.697 145.24H889.065L890.889 140.072L892.697 145.24ZM899.485 141.48V140.184H897.661V153.192H899.485V147.72C900.061 148.408 901.101 149.144 902.557 149.144C904.877 149.144 906.701 147.272 906.701 144.552C906.701 141.832 904.877 140.04 902.557 140.04C901.117 140.04 900.045 140.744 899.485 141.48ZM904.845 144.552C904.845 146.456 903.533 147.56 902.157 147.56C900.797 147.56 899.485 146.488 899.485 144.584C899.485 142.696 900.797 141.624 902.157 141.624C903.533 141.624 904.845 142.648 904.845 144.552ZM910.329 141.48V140.184H908.505V153.192H910.329V147.72C910.905 148.408 911.945 149.144 913.401 149.144C915.721 149.144 917.545 147.272 917.545 144.552C917.545 141.832 915.721 140.04 913.401 140.04C911.961 140.04 910.889 140.744 910.329 141.48ZM915.689 144.552C915.689 146.456 914.377 147.56 913.001 147.56C911.641 147.56 910.329 146.488 910.329 144.584C910.329 142.696 911.641 141.624 913.001 141.624C914.377 141.624 915.689 142.648 915.689 144.552ZM925.924 146.536C925.828 143.352 920.852 144.344 920.852 142.568C920.852 141.976 921.364 141.576 922.34 141.576C923.332 141.576 923.924 142.104 923.988 142.872H925.812C925.716 141.112 924.404 140.04 922.404 140.04C920.324 140.04 919.012 141.176 919.012 142.584C919.012 145.816 924.132 144.824 924.132 146.552C924.132 147.16 923.572 147.608 922.516 147.608C921.508 147.608 920.82 147.016 920.756 146.296H918.868C918.948 147.896 920.436 149.144 922.548 149.144C924.628 149.144 925.924 148.024 925.924 146.536Z" fill="#455880"/>
<path d="M880.466 297H882.29V289.384L885.698 297H886.962L890.354 289.384V297H892.178V285.88H890.226L886.338 294.6L882.434 285.88H880.466V297ZM902.975 292.584C902.975 289.816 900.991 288.04 898.479 288.04C895.967 288.04 893.983 289.816 893.983 292.584C893.983 295.352 895.887 297.144 898.399 297.144C900.927 297.144 902.975 295.352 902.975 292.584ZM895.839 292.584C895.839 290.584 897.071 289.624 898.447 289.624C899.807 289.624 901.103 290.584 901.103 292.584C901.103 294.584 899.759 295.56 898.399 295.56C897.023 295.56 895.839 294.584 895.839 292.584ZM906.602 289.496V285.16H904.778V297H906.602V295.72C907.178 296.488 908.218 297.144 909.674 297.144C911.994 297.144 913.818 295.272 913.818 292.552C913.818 289.832 912.01 288.04 909.674 288.04C908.282 288.04 907.178 288.696 906.602 289.496ZM911.962 292.552C911.962 294.456 910.65 295.56 909.274 295.56C907.914 295.56 906.602 294.488 906.602 292.584C906.602 290.696 907.914 289.624 909.274 289.624C910.65 289.624 911.962 290.648 911.962 292.552ZM915.622 297H917.446V288.184H915.622V297ZM916.55 287.016C917.19 287.016 917.702 286.504 917.702 285.848C917.702 285.192 917.19 284.68 916.55 284.68C915.894 284.68 915.382 285.192 915.382 285.848C915.382 286.504 915.894 287.016 916.55 287.016ZM919.841 297H921.665V285.16H919.841V297ZM927.771 289.576C929.131 289.576 930.203 290.44 930.235 291.8H925.355C925.547 290.408 926.539 289.576 927.771 289.576ZM931.899 294.376H929.931C929.595 295.064 928.971 295.608 927.851 295.608C926.507 295.608 925.467 294.728 925.339 293.272H932.075C932.123 292.968 932.139 292.68 932.139 292.376C932.139 289.784 930.363 288.04 927.851 288.04C925.243 288.04 923.451 289.816 923.451 292.584C923.451 295.352 925.323 297.144 927.851 297.144C930.011 297.144 931.403 295.912 931.899 294.376ZM894.009 325H895.929L891.945 313.864H889.833L885.849 325H887.753L888.553 322.728H893.209L894.009 325ZM892.697 321.24H889.065L890.889 316.072L892.697 321.24ZM899.485 317.48V316.184H897.661V329.192H899.485V323.72C900.061 324.408 901.101 325.144 902.557 325.144C904.877 325.144 906.701 323.272 906.701 320.552C906.701 317.832 904.877 316.04 902.557 316.04C901.117 316.04 900.045 316.744 899.485 317.48ZM904.845 320.552C904.845 322.456 903.533 323.56 902.157 323.56C900.797 323.56 899.485 322.488 899.485 320.584C899.485 318.696 900.797 317.624 902.157 317.624C903.533 317.624 904.845 318.648 904.845 320.552ZM910.329 317.48V316.184H908.505V329.192H910.329V323.72C910.905 324.408 911.945 325.144 913.401 325.144C915.721 325.144 917.545 323.272 917.545 320.552C917.545 317.832 915.721 316.04 913.401 316.04C911.961 316.04 910.889 316.744 910.329 317.48ZM915.689 320.552C915.689 322.456 914.377 323.56 913.001 323.56C911.641 323.56 910.329 322.488 910.329 320.584C910.329 318.696 911.641 317.624 913.001 317.624C914.377 317.624 915.689 318.648 915.689 320.552ZM925.924 322.536C925.828 319.352 920.852 320.344 920.852 318.568C920.852 317.976 921.364 317.576 922.34 317.576C923.332 317.576 923.924 318.104 923.988 318.872H925.812C925.716 317.112 924.404 316.04 922.404 316.04C920.324 316.04 919.012 317.176 919.012 318.584C919.012 321.816 924.132 320.824 924.132 322.552C924.132 323.16 923.572 323.608 922.516 323.608C921.508 323.608 920.82 323.016 920.756 322.296H918.868C918.948 323.896 920.436 325.144 922.548 325.144C924.628 325.144 925.924 324.024 925.924 322.536Z" fill="#455880"/>
<path d="M840.677 473H842.501V461.88H840.677V473ZM851.151 473H852.959V467.8C852.959 465.336 851.407 464.04 849.343 464.04C848.287 464.04 847.311 464.472 846.719 465.192V464.184H844.895V473H846.719V468.072C846.719 466.456 847.599 465.624 848.943 465.624C850.271 465.624 851.151 466.456 851.151 468.072V473ZM855.574 470.552C855.574 472.344 856.55 473 858.118 473H859.558V471.48H858.438C857.67 471.48 857.414 471.208 857.414 470.552V465.672H859.558V464.184H857.414V461.992H855.574V464.184H854.534V465.672H855.574V470.552ZM864.951 465.576C866.311 465.576 867.383 466.44 867.415 467.8H862.535C862.727 466.408 863.719 465.576 864.951 465.576ZM869.079 470.376H867.111C866.775 471.064 866.151 471.608 865.031 471.608C863.687 471.608 862.647 470.728 862.519 469.272H869.255C869.303 468.968 869.319 468.68 869.319 468.376C869.319 465.784 867.543 464.04 865.031 464.04C862.423 464.04 860.631 465.816 860.631 468.584C860.631 471.352 862.503 473.144 865.031 473.144C867.191 473.144 868.583 471.912 869.079 470.376ZM872.938 468.36C872.938 466.488 873.77 465.928 875.114 465.928H875.578V464.04C874.33 464.04 873.45 464.584 872.938 465.464V464.184H871.114V473H872.938V468.36ZM883.511 473H885.319V467.8C885.319 465.336 883.767 464.04 881.703 464.04C880.647 464.04 879.671 464.472 879.079 465.192V464.184H877.255V473H879.079V468.072C879.079 466.456 879.959 465.624 881.303 465.624C882.631 465.624 883.511 466.456 883.511 468.072V473ZM887.037 468.552C887.037 471.272 888.877 473.144 891.165 473.144C892.637 473.144 893.693 472.44 894.253 471.688V473H896.093V464.184H894.253V465.464C893.709 464.744 892.685 464.04 891.197 464.04C888.877 464.04 887.037 465.832 887.037 468.552ZM894.253 468.584C894.253 470.488 892.957 471.56 891.581 471.56C890.221 471.56 888.909 470.456 888.909 468.552C888.909 466.648 890.221 465.624 891.581 465.624C892.957 465.624 894.253 466.696 894.253 468.584ZM898.489 473H900.313V461.16H898.489V473ZM902.484 475.8H904.276L908.628 457.896H906.82L902.484 475.8ZM917.071 461.864H910.927V473H917.071V471.512H912.751V468.104H916.591V466.616H912.751V463.352H917.071V461.864ZM923.877 473H925.941L923.093 468.536L925.941 464.184H924.037L922.245 467.176L920.341 464.184H918.277L921.125 468.664L918.277 473H920.181L921.973 470.008L923.877 473ZM927.59 470.552C927.59 472.344 928.566 473 930.134 473H931.574V471.48H930.454C929.686 471.48 929.43 471.208 929.43 470.552V465.672H931.574V464.184H929.43V461.992H927.59V464.184H926.55V465.672H927.59V470.552ZM936.967 465.576C938.327 465.576 939.399 466.44 939.431 467.8H934.551C934.743 466.408 935.735 465.576 936.967 465.576ZM941.095 470.376H939.127C938.791 471.064 938.167 471.608 937.047 471.608C935.703 471.608 934.663 470.728 934.535 469.272H941.271C941.319 468.968 941.335 468.68 941.335 468.376C941.335 465.784 939.559 464.04 937.047 464.04C934.439 464.04 932.647 465.816 932.647 468.584C932.647 471.352 934.519 473.144 937.047 473.144C939.207 473.144 940.599 471.912 941.095 470.376ZM944.954 468.36C944.954 466.488 945.786 465.928 947.13 465.928H947.594V464.04C946.346 464.04 945.466 464.584 944.954 465.464V464.184H943.13V473H944.954V468.36ZM955.526 473H957.334V467.8C957.334 465.336 955.782 464.04 953.718 464.04C952.662 464.04 951.686 464.472 951.094 465.192V464.184H949.27V473H951.094V468.072C951.094 466.456 951.974 465.624 953.318 465.624C954.646 465.624 955.526 466.456 955.526 468.072V473ZM959.053 468.552C959.053 471.272 960.893 473.144 963.181 473.144C964.653 473.144 965.709 472.44 966.269 471.688V473H968.109V464.184H966.269V465.464C965.725 464.744 964.701 464.04 963.213 464.04C960.893 464.04 959.053 465.832 959.053 468.552ZM966.269 468.584C966.269 470.488 964.973 471.56 963.597 471.56C962.237 471.56 960.925 470.456 960.925 468.552C960.925 466.648 962.237 465.624 963.597 465.624C964.973 465.624 966.269 466.696 966.269 468.584ZM970.505 473H972.329V461.16H970.505V473ZM898.485 501H900.405L896.421 489.864H894.309L890.325 501H892.229L893.029 498.728H897.685L898.485 501ZM897.173 497.24H893.541L895.365 492.072L897.173 497.24ZM903.962 495V491.368H905.978C907.402 491.368 908.042 492.04 908.042 493.192C908.042 494.312 907.402 495 905.978 495H903.962ZM909.914 493.192C909.914 491.384 908.618 489.88 905.978 489.88H902.138V501H903.962V496.488H905.978C908.874 496.488 909.914 494.776 909.914 493.192ZM911.653 501H913.477V489.88H911.653V501ZM922.448 498.536C922.352 495.352 917.376 496.344 917.376 494.568C917.376 493.976 917.888 493.576 918.864 493.576C919.856 493.576 920.448 494.104 920.512 494.872H922.336C922.24 493.112 920.928 492.04 918.928 492.04C916.848 492.04 915.536 493.176 915.536 494.584C915.536 497.816 920.656 496.824 920.656 498.552C920.656 499.16 920.096 499.608 919.04 499.608C918.032 499.608 917.344 499.016 917.28 498.296H915.392C915.472 499.896 916.96 501.144 919.072 501.144C921.152 501.144 922.448 500.024 922.448 498.536Z" fill="#455880"/>
<path d="M20.848 257.187C16.784 257.187 18.352 263.075 15.84 263.075C14.768 263.075 14.256 262.259 14.288 261.203C14.32 260.051 15.008 259.395 15.76 259.331V257.315C13.856 257.475 12.736 258.979 12.736 261.107C12.736 263.379 13.952 264.931 15.904 264.931C20 264.931 18.256 259.027 20.944 259.027C21.888 259.027 22.576 259.747 22.576 261.027C22.576 262.291 21.84 262.931 20.928 263.011V264.963C22.896 264.963 24.112 263.251 24.112 261.027C24.112 258.547 22.512 257.187 20.848 257.187ZM18.416 244.282C15.088 244.282 12.736 246.794 12.736 249.962C12.736 253.098 15.088 255.642 18.416 255.642C21.76 255.642 24.112 253.098 24.112 249.962C24.112 246.794 21.76 244.282 18.416 244.282ZM18.416 253.77C15.904 253.77 14.336 252.17 14.336 249.962C14.336 247.754 15.904 246.154 18.416 246.154C20.928 246.154 22.528 247.754 22.528 249.962C22.528 252.17 20.928 253.77 18.416 253.77ZM19.936 242.503C22.768 242.503 24.112 240.519 24.112 238.183C24.112 235.863 22.768 233.815 19.936 233.815H12.88V235.639H19.968C21.696 235.639 22.512 236.615 22.512 238.167C22.512 239.703 21.696 240.679 19.968 240.679H12.88V242.503H19.936ZM16.208 225.537C17.312 225.537 18.096 226.177 18.096 227.601V229.617H14.368V227.601C14.368 226.177 15.088 225.537 16.208 225.537ZM12.88 231.441H24V229.617H19.552V228.225L24 225.665V223.489L19.392 226.241C18.928 224.369 17.52 223.665 16.208 223.665C14.4 223.665 12.88 224.961 12.88 227.601V231.441ZM18.416 221.939C21.76 221.939 24.096 219.395 24.096 216.259C24.096 213.939 22.944 211.939 20.768 211.091V213.283C21.952 213.875 22.512 214.931 22.512 216.259C22.512 218.467 20.928 220.067 18.416 220.067C15.904 220.067 14.336 218.467 14.336 216.259C14.336 214.931 14.896 213.875 16.08 213.283V211.091C13.904 211.939 12.736 213.939 12.736 216.259C12.736 219.395 15.088 221.939 18.416 221.939ZM12.864 202.812V208.956H24V202.812H22.512V207.132H19.104V203.292H17.616V207.132H14.352V202.812H12.864ZM20.848 193.062C16.784 193.062 18.352 198.95 15.84 198.95C14.768 198.95 14.256 198.134 14.288 197.078C14.32 195.926 15.008 195.27 15.76 195.206V193.19C13.856 193.35 12.736 194.854 12.736 196.982C12.736 199.254 13.952 200.806 15.904 200.806C20 200.806 18.256 194.902 20.944 194.902C21.888 194.902 22.576 195.622 22.576 196.902C22.576 198.166 21.84 198.806 20.928 198.886V200.838C22.896 200.838 24.112 199.126 24.112 196.902C24.112 194.422 22.512 193.062 20.848 193.062Z" fill="#455880" fill-opacity="0.36"/>
<path d="M979.12 177.676V174.044H968V177.676C968 181.244 970.096 183.58 973.52 183.58C976.96 183.58 979.12 181.244 979.12 177.676ZM969.488 175.868H977.632V177.676C977.632 180.3 976.064 181.708 973.52 181.708C970.992 181.708 969.488 180.3 969.488 177.676V175.868ZM979.136 191.532V185.388H968V191.532H969.488V187.212H972.896V191.052H974.384V187.212H977.648V191.532H979.136ZM971.152 201.282C975.216 201.282 973.648 195.394 976.16 195.394C977.232 195.394 977.744 196.21 977.712 197.266C977.68 198.418 976.992 199.074 976.24 199.138V201.154C978.144 200.994 979.264 199.49 979.264 197.362C979.264 195.09 978.048 193.538 976.096 193.538C972 193.538 973.744 199.442 971.056 199.442C970.112 199.442 969.424 198.722 969.424 197.442C969.424 196.178 970.16 195.538 971.072 195.458V193.506C969.104 193.506 967.888 195.218 967.888 197.442C967.888 199.922 969.488 201.282 971.152 201.282ZM977.632 202.858V205.834H968V207.658H977.632V210.618H979.12V202.858H977.632ZM968 212.466V214.29H979.12V212.466H968ZM979.136 223.996H970.848L979.136 218.508V216.684H968V218.508H976.304L968 223.996V225.82H979.136V223.996ZM968 235.72V237.64L979.136 233.656V231.544L968 227.56V229.464L970.272 230.264V234.92L968 235.72ZM971.76 234.408V230.776L976.928 232.6L971.76 234.408ZM977.632 238.796V241.772H968V243.596H977.632V246.556H979.12V238.796H977.632ZM968 248.403V250.227H979.12V248.403H968ZM973.584 263.374C976.912 263.374 979.264 260.862 979.264 257.694C979.264 254.558 976.912 252.014 973.584 252.014C970.24 252.014 967.888 254.558 967.888 257.694C967.888 260.862 970.24 263.374 973.584 263.374ZM973.584 253.886C976.096 253.886 977.664 255.486 977.664 257.694C977.664 259.902 976.096 261.502 973.584 261.502C971.072 261.502 969.472 259.902 969.472 257.694C969.472 255.486 971.072 253.886 973.584 253.886ZM979.136 272.481H970.848L979.136 266.993V265.169H968V266.993H976.304L968 272.481V274.305H979.136V272.481ZM971.152 284.204C975.216 284.204 973.648 278.316 976.16 278.316C977.232 278.316 977.744 279.132 977.712 280.188C977.68 281.34 976.992 281.996 976.24 282.06V284.076C978.144 283.916 979.264 282.412 979.264 280.284C979.264 278.012 978.048 276.46 976.096 276.46C972 276.46 973.744 282.364 971.056 282.364C970.112 282.364 969.424 281.644 969.424 280.364C969.424 279.1 970.16 278.46 971.072 278.38V276.428C969.104 276.428 967.888 278.14 967.888 280.364C967.888 282.844 969.488 284.204 971.152 284.204Z" fill="#455880" fill-opacity="0.36"/>
<circle cx="265" cy="157" r="12" fill="#1D66FF"/>
<circle cx="183" cy="152" r="12" fill="#1D66FF"/>
<circle cx="227" cy="350" r="12" fill="#1D66FF"/>
<circle cx="708" cy="182" r="12" fill="#1D66FF"/>
<circle cx="833" cy="229" r="12" fill="#1D66FF"/>
<path d="M399 234L404 229L399 224" stroke="white" stroke-width="2" stroke-linecap="round" stroke-linejoin="round"/>
<path d="M405 234L410 229L405 224" stroke="white" stroke-width="2" stroke-linecap="round" stroke-linejoin="round"/>
<path d="M581 234L586 229L581 224" stroke="white" stroke-width="2" stroke-linecap="round" stroke-linejoin="round"/>
<path d="M587 234L592 229L587 224" stroke="white" stroke-width="2" stroke-linecap="round" stroke-linejoin="round"/>
<defs>
<filter id="filter0_d" x="819" y="0" width="172.77" height="172.77" filterUnits="userSpaceOnUse" color-interpolation-filters="sRGB">
<feFlood flood-opacity="0" result="BackgroundImageFix"/>
<feColorMatrix in="SourceAlpha" type="matrix" values="0 0 0 0 0 0 0 0 0 0 0 0 0 0 0 0 0 0 127 0"/>
<feOffset dy="25"/>
<feGaussianBlur stdDeviation="25"/>
<feColorMatrix type="matrix" values="0 0 0 0 0.113725 0 0 0 0 0.4 0 0 0 0 1 0 0 0 0.05 0"/>
<feBlend mode="normal" in2="BackgroundImageFix" result="effect1_dropShadow"/>
<feBlend mode="normal" in="SourceGraphic" in2="effect1_dropShadow" result="shape"/>
</filter>
<filter id="filter1_d" x="819" y="336.248" width="172.77" height="172.77" filterUnits="userSpaceOnUse" color-interpolation-filters="sRGB">
<feFlood flood-opacity="0" result="BackgroundImageFix"/>
<feColorMatrix in="SourceAlpha" type="matrix" values="0 0 0 0 0 0 0 0 0 0 0 0 0 0 0 0 0 0 127 0"/>
<feOffset dy="25"/>
<feGaussianBlur stdDeviation="25"/>
<feColorMatrix type="matrix" values="0 0 0 0 0.113725 0 0 0 0 0.4 0 0 0 0 1 0 0 0 0.05 0"/>
<feBlend mode="normal" in2="BackgroundImageFix" result="effect1_dropShadow"/>
<feBlend mode="normal" in="SourceGraphic" in2="effect1_dropShadow" result="shape"/>
</filter>
<filter id="filter2_d" x="819" y="167" width="172.77" height="172.77" filterUnits="userSpaceOnUse" color-interpolation-filters="sRGB">
<feFlood flood-opacity="0" result="BackgroundImageFix"/>
<feColorMatrix in="SourceAlpha" type="matrix" values="0 0 0 0 0 0 0 0 0 0 0 0 0 0 0 0 0 0 127 0"/>
<feOffset dy="25"/>
<feGaussianBlur stdDeviation="25"/>
<feColorMatrix type="matrix" values="0 0 0 0 0.113725 0 0 0 0 0.4 0 0 0 0 1 0 0 0 0.05 0"/>
<feBlend mode="normal" in2="BackgroundImageFix" result="effect1_dropShadow"/>
<feBlend mode="normal" in="SourceGraphic" in2="effect1_dropShadow" result="shape"/>
</filter>
<filter id="filter3_d" x="890.8" y="215.4" width="28.4" height="33.2" filterUnits="userSpaceOnUse" color-interpolation-filters="sRGB">
<feFlood flood-opacity="0" result="BackgroundImageFix"/>
<feColorMatrix in="SourceAlpha" type="matrix" values="0 0 0 0 0 0 0 0 0 0 0 0 0 0 0 0 0 0 127 0"/>
<feOffset dy="4"/>
<feGaussianBlur stdDeviation="2"/>
<feColorMatrix type="matrix" values="0 0 0 0 0 0 0 0 0 0 0 0 0 0 0 0 0 0 0.25 0"/>
<feBlend mode="normal" in2="BackgroundImageFix" result="effect1_dropShadow"/>
<feBlend mode="normal" in="SourceGraphic" in2="effect1_dropShadow" result="shape"/>
</filter>
<filter id="filter4_d" x="0" y="0" width="172.77" height="172.77" filterUnits="userSpaceOnUse" color-interpolation-filters="sRGB">
<feFlood flood-opacity="0" result="BackgroundImageFix"/>
<feColorMatrix in="SourceAlpha" type="matrix" values="0 0 0 0 0 0 0 0 0 0 0 0 0 0 0 0 0 0 127 0"/>
<feOffset dy="25"/>
<feGaussianBlur stdDeviation="25"/>
<feColorMatrix type="matrix" values="0 0 0 0 0.113725 0 0 0 0 0.4 0 0 0 0 1 0 0 0 0.05 0"/>
<feBlend mode="normal" in2="BackgroundImageFix" result="effect1_dropShadow"/>
<feBlend mode="normal" in="SourceGraphic" in2="effect1_dropShadow" result="shape"/>
</filter>
<filter id="filter5_d" x="0" y="84" width="172.77" height="172.77" filterUnits="userSpaceOnUse" color-interpolation-filters="sRGB">
<feFlood flood-opacity="0" result="BackgroundImageFix"/>
<feColorMatrix in="SourceAlpha" type="matrix" values="0 0 0 0 0 0 0 0 0 0 0 0 0 0 0 0 0 0 127 0"/>
<feOffset dy="25"/>
<feGaussianBlur stdDeviation="25"/>
<feColorMatrix type="matrix" values="0 0 0 0 0.113725 0 0 0 0 0.4 0 0 0 0 1 0 0 0 0.05 0"/>
<feBlend mode="normal" in2="BackgroundImageFix" result="effect1_dropShadow"/>
<feBlend mode="normal" in="SourceGraphic" in2="effect1_dropShadow" result="shape"/>
</filter>
<filter id="filter6_d" x="0" y="167" width="172.77" height="172.77" filterUnits="userSpaceOnUse" color-interpolation-filters="sRGB">
<feFlood flood-opacity="0" result="BackgroundImageFix"/>
<feColorMatrix in="SourceAlpha" type="matrix" values="0 0 0 0 0 0 0 0 0 0 0 0 0 0 0 0 0 0 127 0"/>
<feOffset dy="25"/>
<feGaussianBlur stdDeviation="25"/>
<feColorMatrix type="matrix" values="0 0 0 0 0.113725 0 0 0 0 0.4 0 0 0 0 1 0 0 0 0.05 0"/>
<feBlend mode="normal" in2="BackgroundImageFix" result="effect1_dropShadow"/>
<feBlend mode="normal" in="SourceGraphic" in2="effect1_dropShadow" result="shape"/>
</filter>
<filter id="filter7_d" x="0" y="251.23" width="172.77" height="172.77" filterUnits="userSpaceOnUse" color-interpolation-filters="sRGB">
<feFlood flood-opacity="0" result="BackgroundImageFix"/>
<feColorMatrix in="SourceAlpha" type="matrix" values="0 0 0 0 0 0 0 0 0 0 0 0 0 0 0 0 0 0 127 0"/>
<feOffset dy="25"/>
<feGaussianBlur stdDeviation="25"/>
<feColorMatrix type="matrix" values="0 0 0 0 0.113725 0 0 0 0 0.4 0 0 0 0 1 0 0 0 0.05 0"/>
<feBlend mode="normal" in2="BackgroundImageFix" result="effect1_dropShadow"/>
<feBlend mode="normal" in="SourceGraphic" in2="effect1_dropShadow" result="shape"/>
</filter>
<filter id="filter8_d" x="0" y="336.248" width="172.77" height="172.77" filterUnits="userSpaceOnUse" color-interpolation-filters="sRGB">
<feFlood flood-opacity="0" result="BackgroundImageFix"/>
<feColorMatrix in="SourceAlpha" type="matrix" values="0 0 0 0 0 0 0 0 0 0 0 0 0 0 0 0 0 0 127 0"/>
<feOffset dy="25"/>
<feGaussianBlur stdDeviation="25"/>
<feColorMatrix type="matrix" values="0 0 0 0 0.113725 0 0 0 0 0.4 0 0 0 0 1 0 0 0 0.05 0"/>
<feBlend mode="normal" in2="BackgroundImageFix" result="effect1_dropShadow"/>
<feBlend mode="normal" in="SourceGraphic" in2="effect1_dropShadow" result="shape"/>
</filter>
<linearGradient id="paint0_linear" x1="259.52" y1="61" x2="259.52" y2="230.018" gradientUnits="userSpaceOnUse">
<stop stop-color="#336791"/>
<stop offset="1" stop-color="#1D66FF"/>
</linearGradient>
<linearGradient id="paint1_linear" x1="259.5" y1="145" x2="259.5" y2="230" gradientUnits="userSpaceOnUse">
<stop stop-color="#FC800E"/>
<stop offset="1" stop-color="#1D66FF"/>
</linearGradient>
<radialGradient id="paint2_diamond" cx="0" cy="0" r="1" gradientUnits="userSpaceOnUse" gradientTransform="translate(271.27 229.5) rotate(90) scale(0.5 153.5)">
<stop stop-color="#1D66FF" stop-opacity="0.5"/>
<stop offset="1" stop-color="#58AA50"/>
</radialGradient>
<linearGradient id="paint3_linear" x1="259.5" y1="313" x2="259.5" y2="228" gradientUnits="userSpaceOnUse">
<stop stop-color="#C12D32"/>
<stop offset="1" stop-color="#1D66FF"/>
</linearGradient>
<linearGradient id="paint4_linear" x1="73.479" y1="328.31" x2="76.2128" y2="326.424" gradientUnits="userSpaceOnUse">
<stop stop-color="#909CA9"/>
<stop offset="1" stop-color="#EDEDEE"/>
</linearGradient>
<linearGradient id="paint5_linear" x1="74.373" y1="299.396" x2="76.601" y2="299.536" gradientUnits="userSpaceOnUse">
<stop stop-color="#939FAB"/>
<stop offset="1" stop-color="#DCDEE1"/>
</linearGradient>
<radialGradient id="paint6_radial" cx="0" cy="0" r="1" gradientUnits="userSpaceOnUse" gradientTransform="translate(85.2541 309.256) rotate(-177.143) scale(2.86216 4.76784)">
<stop stop-color="#EE352C"/>
<stop offset="1" stop-color="#A91D22"/>
</radialGradient>
<linearGradient id="paint7_linear" x1="259.52" y1="398.018" x2="259.52" y2="229" gradientUnits="userSpaceOnUse">
<stop stop-color="#E128CF"/>
<stop offset="1" stop-color="#1D66FF"/>
</linearGradient>
<clipPath id="clip0">
<rect width="36" height="36" fill="white" transform="translate(887 43)"/>
</clipPath>
<clipPath id="clip1">
<rect width="36" height="36" fill="white" transform="translate(887 210)"/>
</clipPath>
<clipPath id="clip2">
<rect width="36" height="36" fill="white" transform="translate(68 43)"/>
</clipPath>
<clipPath id="clip3">
<rect width="36" height="35.4384" fill="white" transform="translate(68 127)"/>
</clipPath>
</defs>
</svg>
