<svg width="48" height="48" viewBox="0 0 48 48" fill="none" xmlns="http://www.w3.org/2000/svg">
<path d="M31.9821 23.9196C31.9787 21.0983 30.4946 18.486 28.0738 17.0377C27.8447 16.9005 27.6099 16.774 27.3673 16.6592C23.4973 14.8288 18.8714 16.3584 16.8562 20.1356C14.8407 23.9123 16.1455 28.6066 19.8212 30.802C20.0491 30.9395 20.2845 31.0654 20.5266 31.1806C23.0135 32.3618 25.9321 32.1841 28.2575 30.7104C30.5825 29.2366 31.9887 26.6724 31.9821 23.9196Z" fill="#CB1DE8"/>
<path d="M36.8036 41.5979C36.8036 43.8168 35.0046 45.6158 32.7857 45.6158C30.5668 45.6158 28.7679 43.8168 28.7679 41.5979C28.7679 39.379 30.5668 37.5801 32.7857 37.5801C35.0046 37.5801 36.8036 39.379 36.8036 41.5979Z" fill="#CB1DE8"/>
<path d="M19.125 41.5979C19.125 43.8168 17.3261 45.6158 15.1072 45.6158C12.8882 45.6158 11.0893 43.8168 11.0893 41.5979C11.0893 39.379 12.8882 37.5801 15.1072 37.5801C17.3261 37.5801 19.125 39.379 19.125 41.5979Z" fill="#CB1DE8"/>
<path d="M46.4464 23.9197C46.4464 26.1386 44.6475 27.9376 42.4286 27.9376C40.2096 27.9376 38.4107 26.1386 38.4107 23.9197C38.4107 21.7008 40.2096 19.9019 42.4286 19.9019C44.6475 19.9019 46.4464 21.7008 46.4464 23.9197Z" fill="#CB1DE8"/>
<path d="M9.48215 23.9197C9.48215 26.1386 7.68322 27.9376 5.4643 27.9376C3.24537 27.9376 1.44644 26.1386 1.44644 23.9197C1.44644 21.7008 3.24537 19.9019 5.4643 19.9019C7.68322 19.9019 9.48215 21.7008 9.48215 23.9197Z" fill="#CB1DE8"/>
<path d="M36.8036 6.241C36.8036 8.45993 35.0046 10.2589 32.7857 10.2589C30.5668 10.2589 28.7679 8.45993 28.7679 6.241C28.7679 4.02208 30.5668 2.22314 32.7857 2.22314C35.0046 2.22314 36.8036 4.02208 36.8036 6.241Z" fill="#CB1DE8"/>
<path d="M19.125 6.241C19.125 8.45993 17.3261 10.2589 15.1072 10.2589C12.8882 10.2589 11.0893 8.45993 11.0893 6.241C11.0893 4.02208 12.8882 2.22314 15.1072 2.22314C17.3261 2.22314 19.125 4.02208 19.125 6.241Z" fill="#CB1DE8"/>
<path d="M30.6964 11.4641C30.1948 11.262 29.7252 10.9892 29.3015 10.6533L27.3048 14.8962C27.8077 15.0836 28.2939 15.3125 28.7588 15.5809L30.6964 11.4641Z" fill="#CB1DE8"/>
<path d="M14.3444 24.7228C14.3221 24.4567 14.3036 24.1908 14.3036 23.9193C14.3036 23.6478 14.3221 23.3816 14.3444 23.1157H11.0249C11.1109 23.6481 11.1109 24.1905 11.0249 24.7228H14.3444Z" fill="#CB1DE8"/>
<path d="M33.5485 23.1157C33.5707 23.3816 33.5893 23.6478 33.5893 23.9193C33.5893 24.1908 33.5707 24.4567 33.5485 24.7228H36.868C36.7819 24.1905 36.7819 23.6481 36.868 23.1157H33.5485Z" fill="#CB1DE8"/>
<path d="M17.1964 11.4641L19.1341 15.5809C19.599 15.3125 20.0852 15.0836 20.5881 14.8962L18.5914 10.6533C18.1676 10.9892 17.698 11.262 17.1964 11.4641Z" fill="#CB1DE8"/>
<path d="M17.1964 36.379C17.698 36.5811 18.1676 36.8542 18.5914 37.1901L20.5881 32.9471C20.0852 32.7597 19.599 32.5306 19.1341 32.2622L17.1964 36.379Z" fill="#CB1DE8"/>
<path d="M30.6964 36.379L28.7588 32.2622C28.2939 32.5306 27.8077 32.7597 27.3048 32.9471L29.3015 37.1901C29.7252 36.8542 30.1948 36.5811 30.6964 36.379Z" fill="#CB1DE8"/>
</svg>
