<svg xmlns="http://www.w3.org/2000/svg" xmlns:xlink="http://www.w3.org/1999/xlink" viewBox="0 0 963.28 728.31"><defs><linearGradient id="a" x1="772.14" y1="250.53" x2="772.14" y2="378.97" gradientUnits="userSpaceOnUse"><stop offset="0" stop-color="#2484c6" stop-opacity="0"/><stop offset="1" stop-color="#00d7ff"/></linearGradient><linearGradient id="b" x1="771.24" y1="173.16" x2="771.24" y2="302.89" xlink:href="#a"/><linearGradient id="c" x1="770.46" y1="110.23" x2="770.46" y2="225.26" xlink:href="#a"/></defs><title>Language</title><line x1="387.04" y1="437.31" x2="278.95" y2="500.8" style="fill:none;stroke:#c7c9c5;stroke-miterlimit:10;stroke-width:2px;stroke-dasharray:12"/><line x1="400.18" y1="446.18" x2="166.01" y2="584.1" style="fill:none;stroke:#c7c9c5;stroke-miterlimit:10;stroke-width:2px;stroke-dasharray:12"/><line x1="414.42" y1="453.43" x2="175.18" y2="589.75" style="fill:none;stroke:#c7c9c5;stroke-miterlimit:10;stroke-width:2px;stroke-dasharray:12"/><line x1="426.35" y1="459.29" x2="317.07" y2="522.69" style="fill:none;stroke:#c7c9c5;stroke-miterlimit:10;stroke-width:2px;stroke-dasharray:12"/><line x1="175.18" y1="589.75" x2="238.71" y2="627.16" style="fill:none;stroke:#c7c9c5;stroke-miterlimit:10;stroke-width:2px;stroke-dasharray:12"/><line x1="166.01" y1="584.1" x2="123.66" y2="559.39" style="fill:none;stroke:#c7c9c5;stroke-miterlimit:10;stroke-width:2px;stroke-dasharray:12"/><g style="isolation:isolate"><path d="M457,627.8l.06-24.46c0,1.45,1,2.9,2.87,4l-.07,24.45C457.94,630.7,457,629.25,457,627.8Z" transform="translate(-149.56 -231.24)" style="fill:#161012"/><path d="M791.05,658.1,791,682.56c0,1.43-.94,2.86-2.82,4l.07-24.45C790.11,661,791.05,659.53,791.05,658.1Z" transform="translate(-149.56 -231.24)" style="fill:#161012"/><polygon points="638.66 430.82 638.59 455.27 529.05 518.94 529.12 494.48 638.66 430.82" style="fill:#161012"/><polygon points="515.38 494.48 515.31 518.94 310.29 400.56 310.36 376.11 515.38 494.48" style="fill:#161012"/><path d="M788.19,654.1c3.8,2.2,3.82,5.76,0,8L678.68,725.72a15.11,15.11,0,0,1-13.73,0l-205-118.37c-3.8-2.2-3.82-5.76,0-8l109.54-63.66a15.13,15.13,0,0,1,13.74,0Z" transform="translate(-149.56 -231.24)" style="fill:#161012"/><path d="M678.68,725.72l-.07,24.45a15.11,15.11,0,0,1-13.73,0l.07-24.45A15.11,15.11,0,0,0,678.68,725.72Z" transform="translate(-149.56 -231.24)" style="fill:#161012"/></g><path d="M785.55,653.27c3.76,2.18,3.78,5.71,0,7.88l-108.44,63a15,15,0,0,1-13.6,0L460.56,607c-3.77-2.17-3.79-5.7,0-7.88l108.45-63a15,15,0,0,1,13.6,0ZM591,559.43a11.36,11.36,0,0,0,10.31,0c2.83-1.65,2.82-4.32,0-6a11.37,11.37,0,0,0-10.3,0c-2.83,1.65-2.82,4.32,0,6M574.64,550A11.36,11.36,0,0,0,585,550c2.83-1.65,2.82-4.32,0-6a11.33,11.33,0,0,0-10.3,0c-2.83,1.65-2.82,4.32,0,6m31.88,18.4a11.33,11.33,0,0,0,10.3,0c2.84-1.65,2.83-4.32,0-6a11.42,11.42,0,0,0-10.31,0c-2.83,1.65-2.81,4.32,0,6" transform="translate(-149.56 -231.24)"/><path d="M601.28,553.46c2.86,1.65,2.87,4.32,0,6a11.36,11.36,0,0,1-10.31,0c-2.85-1.65-2.86-4.32,0-6A11.37,11.37,0,0,1,601.28,553.46Z" transform="translate(-149.56 -231.24)" style="fill:#f0c419"/><path d="M584.91,544c2.86,1.65,2.87,4.32,0,6a11.36,11.36,0,0,1-10.31,0c-2.85-1.65-2.86-4.32,0-6A11.33,11.33,0,0,1,584.91,544Z" transform="translate(-149.56 -231.24)" style="fill:#e64c3c"/><path d="M616.79,562.41c2.86,1.65,2.87,4.32,0,6a11.33,11.33,0,0,1-10.3,0c-2.85-1.65-2.87-4.32,0-6A11.42,11.42,0,0,1,616.79,562.41Z" transform="translate(-149.56 -231.24)" style="fill:#24ae5f"/><path d="M556.84,553.81q.25.15.27.33c0,.1-.07.21-.25.31l-.09,0-.72.36c.08.08.16.15.23.23l.23.28a1.36,1.36,0,0,1,.44,0,1.06,1.06,0,0,1,.39.13c.21.12.29.24.25.36s-.21.28-.53.47l-.92.55,0,0a1.42,1.42,0,0,1-.74.23,1.28,1.28,0,0,1-.71-.18c-.15-.08-.23-.16-.25-.25a.7.7,0,0,1,.17-.39.7.7,0,0,0,.13-.62.86.86,0,0,0-.46-.49,2.18,2.18,0,0,0-1.09-.32,1.76,1.76,0,0,0-1,.24c-.23.13-.36.27-.38.43a1.25,1.25,0,0,0,.29.75l.66,1a1.53,1.53,0,0,1,.29,1.28,2.12,2.12,0,0,1-1,1,5.18,5.18,0,0,1-2.53.76,4.52,4.52,0,0,1-2.42-.63l0,0-1.75.92a1.48,1.48,0,0,1-.65.19,1.26,1.26,0,0,1-.63-.18c-.17-.1-.26-.2-.24-.3s.14-.22.37-.35l.12-.07,1.84-1a1.87,1.87,0,0,1-.3-.33,2.55,2.55,0,0,1-.24-.39,1.54,1.54,0,0,1-.43,0,1.12,1.12,0,0,1-.41-.17c-.23-.13-.32-.26-.28-.38s.25-.3.61-.51l.91-.53a2.33,2.33,0,0,1,.87-.32,1.19,1.19,0,0,1,.71.15c.33.2.36.45.07.78l-.16.18a.55.55,0,0,0,0,.65,1.8,1.8,0,0,0,.72.66,2,2,0,0,0,1,.29,2,2,0,0,0,1-.26c.41-.24.4-.67,0-1.29l0,0-.64-1a1.16,1.16,0,0,1-.17-1.12,2.44,2.44,0,0,1,1.08-1,4.73,4.73,0,0,1,2.31-.7,5,5,0,0,1,2.38.57l.65-.32a1.43,1.43,0,0,1,.64-.17A1.17,1.17,0,0,1,556.84,553.81Z" transform="translate(-149.56 -231.24)" style="fill:#fff"/><path d="M582.63,579.09c0,.16-.16.31-.43.47a1.65,1.65,0,0,1-.83.25,1.61,1.61,0,0,1-.81-.25l-.61-.35c-.22-.12-.33-.24-.34-.36a.69.69,0,0,1,.27-.45,9.35,9.35,0,0,1-1.77-.29,5.93,5.93,0,0,1-1.44-.57q-1-.6-1-1.29c0-.47.36-.9,1.06-1.31a4.45,4.45,0,0,1,2.53-.58,6.23,6.23,0,0,1,2.78.88,7.2,7.2,0,0,1,.62.4c.21.15.42.32.65.52l.15-.08c.46-.27.71-.52.75-.77s-.1-.47-.46-.68a4.54,4.54,0,0,0-1.46-.42,4.7,4.7,0,0,1-1.34-.34c-.2-.12-.3-.25-.29-.4s.14-.3.37-.43a2.47,2.47,0,0,1,1.73-.12,8,8,0,0,1,2.44,1c.92.53,1.37,1,1.35,1.49s-.52,1-1.51,1.57l-2.81,1.63.11.06C582.55,578.79,582.65,578.94,582.63,579.09ZM581,577.52l1.16-.67a4.3,4.3,0,0,0-.47-.41,4.25,4.25,0,0,0-.46-.32,3.45,3.45,0,0,0-1.39-.48,1.92,1.92,0,0,0-1.17.21c-.3.17-.44.36-.41.55s.18.37.51.56a3.65,3.65,0,0,0,1,.39,5.54,5.54,0,0,0,1.24.17" transform="translate(-149.56 -231.24)" style="fill:#fff"/><path d="M578.82,571.4a2.78,2.78,0,0,1-1.63,2,7.63,7.63,0,0,1-3.45,1,5.41,5.41,0,0,1-3.15-.63,2.82,2.82,0,0,1-.82-.66,1.33,1.33,0,0,1-.29-.74l-2.05,1.19.81.47c.3.17.44.33.43.48s-.15.31-.45.49a1.47,1.47,0,0,1-1.64,0l-2.73-1.58c-.29-.17-.44-.33-.43-.47s.15-.3.44-.47a1.87,1.87,0,0,1,.84-.27,1.72,1.72,0,0,1,.81.24l.39.22,6.67-3.88-.1-.06c-.23-.13-.33-.27-.31-.42s.17-.31.44-.46a1.61,1.61,0,0,1,.81-.27,1.64,1.64,0,0,1,.82.25l1,.57c.13.08.19.15.2.21s0,.13-.14.19l-.55.31a5.48,5.48,0,0,1,1.57,0,4,4,0,0,1,1.32.46C578.5,570.07,578.9,570.68,578.82,571.4ZM573.49,573a4.23,4.23,0,0,0,1.83-.58,1.87,1.87,0,0,0,1-1.06c.1-.37-.07-.68-.5-.93a2.68,2.68,0,0,0-1.6-.29,4.38,4.38,0,0,0-1.83.59,1.91,1.91,0,0,0-1,1.06.8.8,0,0,0,.49.92,2.66,2.66,0,0,0,1.61.29" transform="translate(-149.56 -231.24)" style="fill:#fff"/><path d="M571.27,565.84c.17.11.25.22.21.35s-.18.26-.44.41l-.93.54a1.52,1.52,0,0,1-.65.22,1.09,1.09,0,0,1-.57-.13c-.17-.1-.3-.38-.37-.84a1.44,1.44,0,0,0-.74-1.06,2.47,2.47,0,0,0-1-.33,1.27,1.27,0,0,0-.81.14c-.35.21-.2.57.45,1.09.2.14.35.26.46.35.8.65,1.21,1.18,1.25,1.59s-.27.79-.92,1.16a4.51,4.51,0,0,1-2.49.62,5.76,5.76,0,0,1-2.66-.82,6.57,6.57,0,0,1-.91-.62,4.91,4.91,0,0,1-.69-.67,2,2,0,0,1-.58-.07,1.34,1.34,0,0,1-.44-.15c-.19-.11-.26-.22-.23-.33a1.37,1.37,0,0,1,.55-.44l1-.59a2.27,2.27,0,0,1,.85-.32,1.12,1.12,0,0,1,.7.15.41.41,0,0,1,.19.61,1.59,1.59,0,0,0-.11.34,1.16,1.16,0,0,0,.23.72,2.68,2.68,0,0,0,.79.64,2.17,2.17,0,0,0,1,.31,1.37,1.37,0,0,0,.83-.16c.41-.24.2-.69-.64-1.35l-.43-.35q-.95-.75-1-1.38c0-.42.29-.8.89-1.15a4.32,4.32,0,0,1,2.31-.58,5.2,5.2,0,0,1,2.45.75,5.4,5.4,0,0,1,.78.54,4.18,4.18,0,0,1,.66.67,1.81,1.81,0,0,1,.57,0A1.21,1.21,0,0,1,571.27,565.84Z" transform="translate(-149.56 -231.24)" style="fill:#fff"/><path d="M595.6,579.94c.23.14.32.28.25.43a1.69,1.69,0,0,1-.7.58l-1.24.72a2,2,0,0,1-.84.3,1.21,1.21,0,0,1-.72-.15.55.55,0,0,1-.27-.31.8.8,0,0,1,.15-.48.87.87,0,0,0,.08-.83,1.83,1.83,0,0,0-.77-.74,3.23,3.23,0,0,0-1.82-.38,4.35,4.35,0,0,0-2,.59q-.94.54-1,1.17c0,.41.2.78.76,1.1a5.38,5.38,0,0,0,2,.59,5.85,5.85,0,0,1,1.42.24c.16.09.22.21.17.35a.71.71,0,0,1-.37.41,3.64,3.64,0,0,1-2.2.21,7.45,7.45,0,0,1-2.73-.94c-1-.6-1.55-1.29-1.51-2.06s.6-1.48,1.68-2.1a7.45,7.45,0,0,1,3.59-1,6.63,6.63,0,0,1,3.49.8,3.89,3.89,0,0,1,.82.64.73.73,0,0,0,1.17.68A1.25,1.25,0,0,1,595.6,579.94Z" transform="translate(-149.56 -231.24)" style="fill:#fff"/><g style="isolation:isolate"><path d="M598.77,587.42a.32.32,0,0,1,.18.35.75.75,0,0,1-.38.4,3.31,3.31,0,0,1-2.12.19,7.85,7.85,0,0,1-2.74-1c-1-.6-1.54-1.29-1.51-2.06s.6-1.48,1.68-2.11a7.32,7.32,0,0,1,3.61-1,6.8,6.8,0,0,1,3.57.87c.93.54,1.37,1.17,1.34,1.9a2.47,2.47,0,0,1-1.45,1.9,1.51,1.51,0,0,1-.79.24,2,2,0,0,1-.92-.34l-4.16-2.4a1.35,1.35,0,0,0-.61,1.11c0,.34.33.67.87,1a5.78,5.78,0,0,0,2,.65A7.74,7.74,0,0,1,598.77,587.42Zm-.81-4a4.28,4.28,0,0,0-1.7.3l3.47,2a1.08,1.08,0,0,0,.52-1c0-.33-.31-.63-.79-.91a3.22,3.22,0,0,0-1.5-.44" transform="translate(-149.56 -231.24)" style="fill:#fff"/><path d="M608.72,590.78c.1.06.15.12.13.19s-.06.13-.18.2l-.94.55a.9.9,0,0,1-.39.11.66.66,0,0,1-.34-.05l-5.34-3.09a.15.15,0,0,1-.1-.18.58.58,0,0,1,.24-.22l.94-.54a.72.72,0,0,1,.33-.11.56.56,0,0,1,.3.05Z" transform="translate(-149.56 -231.24)" style="fill:#fff"/><path d="M619.39,593.68q.35.2.24.42c0,.16-.29.35-.69.59l-1.24.72a2,2,0,0,1-.85.29,1.11,1.11,0,0,1-.71-.15.54.54,0,0,1-.28-.31.8.8,0,0,1,.15-.48.87.87,0,0,0,.08-.83,1.77,1.77,0,0,0-.77-.74,3.31,3.31,0,0,0-1.82-.38,4.44,4.44,0,0,0-2,.59c-.63.36-1,.75-1,1.17s.21.78.76,1.1a5.25,5.25,0,0,0,2,.59,6.11,6.11,0,0,1,1.43.24.27.27,0,0,1,.16.35.68.68,0,0,1-.36.41,3.58,3.58,0,0,1-2.2.21,7.5,7.5,0,0,1-2.74-.94c-1-.6-1.55-1.29-1.51-2.06s.6-1.47,1.68-2.1a7.38,7.38,0,0,1,3.6-1,6.41,6.41,0,0,1,3.48.8,3.69,3.69,0,0,1,.83.63,2.56,2.56,0,0,1,.48.81,1.75,1.75,0,0,1,.68-.12A1.15,1.15,0,0,1,619.39,593.68Z" transform="translate(-149.56 -231.24)" style="fill:#fff"/></g><path d="M633.5,600.81q-.5-.28-.48-.48c0-.12.21-.28.56-.48a5.29,5.29,0,0,1,1.37-.63,1.42,1.42,0,0,1,.93.22c.31.18.45.35.41.49s-.33.36-.86.67a3.25,3.25,0,0,1-1.1.48A1.5,1.5,0,0,1,633.5,600.81Z" transform="translate(-149.56 -231.24)" style="fill:#fff"/><path d="M629.88,606.34c0,.15-.15.31-.44.47a1.6,1.6,0,0,1-.84.26,1.47,1.47,0,0,1-.81-.24l-4.37-2.52c-.29-.17-.44-.33-.43-.48s.16-.3.45-.48a1.77,1.77,0,0,1,.81-.26,1.7,1.7,0,0,1,.83.26l1.39.8,3.67-2.14-.72-.42c-.29-.16-.44-.32-.44-.46s.17-.31.46-.49a1.69,1.69,0,0,1,.82-.26,1.64,1.64,0,0,1,.81.25l1.94,1.12q.18.11.18.21c0,.07,0,.13-.14.2l-5,2.9,1.39.81C629.73,606,629.88,606.2,629.88,606.34Z" transform="translate(-149.56 -231.24)" style="fill:#fff"/><path d="M627.88,595.41c.12.07.18.14.19.22s0,.14-.13.19L620,600.43l1.38.8c.3.17.44.32.44.47s-.16.3-.45.47a1.81,1.81,0,0,1-.83.26,1.56,1.56,0,0,1-.81-.24l-4.38-2.53c-.28-.16-.42-.32-.42-.47s.16-.3.46-.47a1.61,1.61,0,0,1,.8-.27,1.64,1.64,0,0,1,.82.25l1.38.8,6.57-3.81-.71-.41c-.29-.17-.43-.33-.43-.48s.16-.31.45-.48a1.87,1.87,0,0,1,.83-.27,1.65,1.65,0,0,1,.83.25Z" transform="translate(-149.56 -231.24)" style="fill:#fff"/><path d="M675.45,622.88c.12.07.18.14.19.21s0,.14-.13.19l-7.93,4.61,1.39.8c.29.17.44.33.43.47s-.15.3-.45.47a1.66,1.66,0,0,1-.82.26,1.53,1.53,0,0,1-.82-.24L663,627.13c-.29-.17-.44-.32-.43-.47s.16-.31.46-.48a1.66,1.66,0,0,1,.81-.26,1.48,1.48,0,0,1,.81.25l1.39.8,6.56-3.82-.71-.41c-.29-.17-.43-.33-.43-.48s.16-.31.45-.48a1.7,1.7,0,0,1,.84-.26,1.49,1.49,0,0,1,.82.25Z" transform="translate(-149.56 -231.24)" style="fill:#fff"/><path d="M666,621.75a2.78,2.78,0,0,1-1.63,2,7.63,7.63,0,0,1-3.45,1,5.47,5.47,0,0,1-3.16-.63,3,3,0,0,1-.82-.66,1.39,1.39,0,0,1-.28-.75l-2.05,1.2.81.47c.3.17.44.33.44.48s-.16.31-.46.49a1.61,1.61,0,0,1-.82.25,1.67,1.67,0,0,1-.82-.25l-2.73-1.58c-.3-.17-.44-.33-.43-.47s.14-.3.44-.47a1.87,1.87,0,0,1,.83-.27,1.7,1.7,0,0,1,.83.25l.37.21,6.68-3.88-.1-.06c-.23-.13-.33-.27-.31-.42s.17-.31.44-.46a1.58,1.58,0,0,1,.81-.27,1.67,1.67,0,0,1,.82.25l1,.57a.42.42,0,0,1,.2.21c0,.07,0,.13-.14.19l-.55.31a5.48,5.48,0,0,1,1.57,0,4,4,0,0,1,1.32.46C665.71,620.42,666.11,621,666,621.75Zm-5.33,1.56a4.23,4.23,0,0,0,1.83-.58,1.87,1.87,0,0,0,1-1.06c.1-.37-.07-.68-.5-.93a2.7,2.7,0,0,0-1.6-.29,4.29,4.29,0,0,0-1.83.59,1.91,1.91,0,0,0-1,1.06c-.1.37.07.68.5.93a2.67,2.67,0,0,0,1.6.28" transform="translate(-149.56 -231.24)" style="fill:#fff"/><path d="M654.26,619.46a.29.29,0,0,1,.18.35.75.75,0,0,1-.38.4,3.3,3.3,0,0,1-2.12.19,7.87,7.87,0,0,1-2.73-1c-1-.6-1.54-1.29-1.51-2.06s.6-1.48,1.67-2.11a7.46,7.46,0,0,1,3.62-1,6.8,6.8,0,0,1,3.57.87c.92.54,1.37,1.17,1.33,1.9a2.41,2.41,0,0,1-1.44,1.9,1.51,1.51,0,0,1-.8.24,2,2,0,0,1-.92-.34l-4.15-2.4c-.46.39-.66.76-.61,1.11s.33.67.86,1a5.84,5.84,0,0,0,2,.65A7.52,7.52,0,0,1,654.26,619.46Zm-.8-4a4.32,4.32,0,0,0-1.71.3l3.47,2c.4-.32.58-.64.53-1s-.31-.63-.8-.91a3.15,3.15,0,0,0-1.49-.44" transform="translate(-149.56 -231.24)" style="fill:#fff"/><path d="M646.18,615.77c0,.15-.17.3-.44.46a1.81,1.81,0,0,1-.83.26,1.5,1.5,0,0,1-.81-.24l-1-.57a.4.4,0,0,1-.21-.22c0-.07.05-.13.15-.19l.53-.31a5,5,0,0,1-1.6,0,4.14,4.14,0,0,1-1.37-.49,1.75,1.75,0,0,1-1.11-1.8,2.94,2.94,0,0,1,1.67-2,7.54,7.54,0,0,1,3.47-1,5.73,5.73,0,0,1,3.23.66,1.94,1.94,0,0,1,.7.62,1.38,1.38,0,0,1,.31.75l1.91-1.11-.86-.5c-.29-.17-.43-.33-.43-.48s.16-.31.45-.48a1.87,1.87,0,0,1,.83-.27,1.75,1.75,0,0,1,.83.25l2,1.16c.14.09.21.17.19.24s-.12.16-.31.27l-7.75,4.51.11.06C646.09,615.48,646.2,615.62,646.18,615.77ZM644.1,614a4.52,4.52,0,0,0,1.85-.59,1.86,1.86,0,0,0,1-1.06.82.82,0,0,0-.49-.94,2.71,2.71,0,0,0-1.61-.27,4.26,4.26,0,0,0-1.82.57,2,2,0,0,0-1,1.08c-.1.37.07.68.49.92a2.73,2.73,0,0,0,1.61.29" transform="translate(-149.56 -231.24)" style="fill:#fff"/><path d="M690.74,635.08c.3.17.44.34.43.48s-.14.3-.43.47a1.92,1.92,0,0,1-.81.26,1.37,1.37,0,0,1-.73-.18l-.12-.07-9.33,2.35.3.17c.29.17.42.33.43.48s-.16.31-.46.48a1.46,1.46,0,0,1-1.65,0l-2.82-1.63c-.3-.17-.45-.33-.44-.47s.15-.31.45-.48a1.62,1.62,0,0,1,.84-.27,1.7,1.7,0,0,1,.82.25l1,.58,2.12-.53,3.21-4.13-.1-.06c-.23-.13-.34-.28-.33-.43s.17-.31.45-.47a1.66,1.66,0,0,1,.82-.26,1.78,1.78,0,0,1,.82.25l1.64,1c.29.17.43.33.43.48s-.15.3-.44.47a1.71,1.71,0,0,1-.81.26,1.34,1.34,0,0,1-.73-.18l-.11-.07-2.06,2.54,4.44-1.16-.1-.06c-.23-.14-.34-.28-.33-.43s.17-.31.44-.47a1.69,1.69,0,0,1,.82-.26,1.67,1.67,0,0,1,.82.25Z" transform="translate(-149.56 -231.24)" style="fill:#fff"/><path d="M681.73,630.87c0,.78-.59,1.48-1.66,2.1a7.33,7.33,0,0,1-3.63,1,6.79,6.79,0,0,1-3.56-.87c-1-.6-1.55-1.29-1.51-2.06s.59-1.48,1.67-2.1a7.22,7.22,0,0,1,3.62-1,6.79,6.79,0,0,1,3.56.86C681.26,629.41,681.77,630.1,681.73,630.87Zm-5.43,1.66a4.44,4.44,0,0,0,2-.59c.6-.35.93-.73,1-1.15s-.15-.76-.66-1a3.21,3.21,0,0,0-1.82-.38,4.3,4.3,0,0,0-2,.58,1.8,1.8,0,0,0-1,1.15c-.07.42.15.77.65,1.06a3.22,3.22,0,0,0,1.83.38" transform="translate(-149.56 -231.24)" style="fill:#fff"/><path d="M550.18,668.54c2.77,1.6,5,5.73,5,9.23s-2.26,5-5,3.43-5-5.73-5-9.22S547.41,666.94,550.18,668.54Z" transform="translate(-149.56 -231.24)" style="fill:#fff"/><path d="M562.59,675.71c2.77,1.6,5,5.73,5,9.22s-2.26,5-5,3.43-5-5.72-5-9.21S559.83,674.11,562.59,675.71Z" transform="translate(-149.56 -231.24)" style="fill:#fff"/><path d="M575.48,683.12c2.77,1.6,5,5.73,5,9.23s-2.26,5-5,3.43-5-5.73-5-9.22S572.71,681.53,575.48,683.12Z" transform="translate(-149.56 -231.24)" style="fill:#fff"/><path d="M538.06,661.42c2.78,1.6,5,5.72,5,9.22s-2.26,5-5,3.43-5-5.72-5-9.21S535.3,659.82,538.06,661.42Z" transform="translate(-149.56 -231.24)" style="fill:#fff"/><path d="M550.34,671.25a7.18,7.18,0,0,1,3.09,5.72c0,2.17-1.4,3.12-3.11,2.14a7.2,7.2,0,0,1-3.09-5.72C547.24,671.22,548.63,670.26,550.34,671.25Z" transform="translate(-149.56 -231.24)"/><path d="M550.34,671a7.61,7.61,0,0,1,3.27,6c0,2.28-1.48,3.28-3.29,2.24a7.55,7.55,0,0,1-3.26-6C547.06,671,548.54,670,550.34,671Zm0,8.07c1.71,1,3.11,0,3.11-2.14a7.18,7.18,0,0,0-3.09-5.72c-1.71-1-3.1,0-3.11,2.14a7.2,7.2,0,0,0,3.09,5.72" transform="translate(-149.56 -231.24)" style="fill:#fff"/><g style="isolation:isolate"><path d="M575.46,685.8a7.57,7.57,0,0,1,3.27,6c0,2.28-1.48,3.28-3.29,2.24a7.57,7.57,0,0,1-3.26-6C572.18,685.76,573.66,684.76,575.46,685.8Zm0,8.06c1.71,1,3.11,0,3.11-2.13a7.2,7.2,0,0,0-3.09-5.73c-1.7-1-3.1,0-3.11,2.15a7.21,7.21,0,0,0,3.09,5.71" transform="translate(-149.56 -231.24)" style="fill:#fff"/><path d="M575.46,686a7.2,7.2,0,0,1,3.09,5.73c0,2.16-1.4,3.12-3.11,2.13a7.21,7.21,0,0,1-3.09-5.71C572.36,686,573.76,685,575.46,686Z" transform="translate(-149.56 -231.24)"/></g><g style="isolation:isolate"><path d="M538.05,663.56a7.58,7.58,0,0,1,3.27,6c0,2.27-1.49,3.28-3.29,2.23a7.59,7.59,0,0,1-3.27-6C534.77,663.53,536.24,662.52,538.05,663.56Zm0,8.07c1.71,1,3.11,0,3.11-2.14a7.18,7.18,0,0,0-3.09-5.72c-1.7-1-3.1,0-3.11,2.14a7.2,7.2,0,0,0,3.09,5.72" transform="translate(-149.56 -231.24)" style="fill:#fff"/><path d="M538.05,663.77a7.18,7.18,0,0,1,3.09,5.72c0,2.17-1.4,3.12-3.11,2.14a7.2,7.2,0,0,1-3.09-5.72C535,663.74,536.35,662.78,538.05,663.77Z" transform="translate(-149.56 -231.24)"/></g><g style="isolation:isolate"><path d="M562.58,678.21a7.57,7.57,0,0,1,3.27,6c0,2.28-1.49,3.28-3.29,2.24a7.59,7.59,0,0,1-3.27-6C559.3,678.18,560.77,677.17,562.58,678.21Zm0,8.06c1.71,1,3.11,0,3.11-2.13a7.16,7.16,0,0,0-3.09-5.72c-1.7-1-3.1,0-3.11,2.14a7.19,7.19,0,0,0,3.09,5.71" transform="translate(-149.56 -231.24)" style="fill:#fff"/><path d="M562.58,678.42a7.16,7.16,0,0,1,3.09,5.72c0,2.16-1.4,3.12-3.11,2.13a7.19,7.19,0,0,1-3.09-5.71C559.48,678.39,560.88,677.43,562.58,678.42Z" transform="translate(-149.56 -231.24)"/></g><g style="isolation:isolate"><path d="M674.48,842.65l-.12,40.76c0,8.38-5.42,16.65-16.26,23-22.26,12.93-59,12.61-82.11-.72-11.85-6.84-17.8-15.78-17.77-24.61l.11-40.76c0,8.83,5.93,17.77,17.78,24.61,23.09,13.33,59.85,13.66,82.11.72C669.05,859.3,674.45,851,674.48,842.65Z" transform="translate(-149.56 -231.24)" style="fill:#fc449c"/><ellipse cx="616.4" cy="841.46" rx="33.6" ry="58.09" transform="translate(-392.3 1201.74) rotate(-88.32)" style="fill:#fc449c"/></g><path d="M656.44,818.31C679.54,831.65,680.22,853,658,866s-59.18,12.62-82.29-.72-23.78-34.72-1.5-47.66S633.34,805,656.44,818.31Zm-80.6,46.83c23,13.29,59.77,13.62,81.94.73s21.49-34.18-1.52-47.46-59.76-13.61-81.93-.72-21.49,34.17,1.51,47.45" transform="translate(-149.56 -231.24)" style="fill:#fff"/><path d="M656.26,818.41c23,13.29,23.69,34.58,1.52,47.46s-58.93,12.56-81.94-.73-23.69-34.57-1.51-47.45S633.26,805.13,656.26,818.41Z" transform="translate(-149.56 -231.24)" style="fill:#fc449c"/><path d="M630.47,831.52l15.47,8.93c.22.13.33.27.33.44s-.11.31-.32.44l-15.38,8.94a1.53,1.53,0,0,1-.76.19,1.49,1.49,0,0,1-.76-.2l-1.66-1a.52.52,0,0,1-.33-.43.53.53,0,0,1,.32-.44l13-7.54-13.05-7.53a.55.55,0,0,1-.33-.45c0-.16.1-.31.33-.44l1.64-1a1.45,1.45,0,0,1,.76-.18A1.52,1.52,0,0,1,630.47,831.52Z" transform="translate(-149.56 -231.24)" style="fill:#fff"/><path d="M602.28,850.46a1.75,1.75,0,0,1-.77-.19L586,841.33c-.22-.13-.34-.27-.33-.44s.11-.31.33-.44l15.37-8.93a1.61,1.61,0,0,1,1.52,0l1.66,1c.22.12.34.27.33.43a.53.53,0,0,1-.33.45l-13,7.53,13,7.54a.56.56,0,0,1,.34.43.57.57,0,0,1-.33.45l-1.65,1A1.74,1.74,0,0,1,602.28,850.46Z" transform="translate(-149.56 -231.24)" style="fill:#fff"/><path d="M607.93,853.4a.39.39,0,0,1-.08-.47l12.2-24.75a.81.81,0,0,1,.52-.37,1.44,1.44,0,0,1,.77,0l2.06.33a1.38,1.38,0,0,1,.46.15,1.33,1.33,0,0,1,.19.14.39.39,0,0,1,.08.47L611.92,853.6a.83.83,0,0,1-.51.37,1.44,1.44,0,0,1-.77,0l-2.06-.33a1.3,1.3,0,0,1-.47-.16A1.18,1.18,0,0,1,607.93,853.4Z" transform="translate(-149.56 -231.24)" style="fill:#fff"/><g style="isolation:isolate"><path d="M321.43,598.7l-.12,40.76c0,8.37-5.42,16.65-16.26,22.95-22.25,12.93-59,12.61-82.11-.73-11.85-6.84-17.8-15.78-17.77-24.61l.11-40.75c0,8.83,5.92,17.76,17.77,24.61,23.1,13.33,59.86,13.65,82.12.72C316,615.35,321.4,607.07,321.43,598.7Z" transform="translate(-149.56 -231.24)" style="fill:#7ad357"/><ellipse cx="263.35" cy="597.51" rx="33.6" ry="58.09" transform="translate(-491.17 612.02) rotate(-88.32)" style="fill:#7ad357"/></g><ellipse cx="263" cy="597" rx="33.53" ry="57.96" transform="translate(-491.02 611.14) rotate(-88.32)" style="fill:#7ad357"/><path d="M303.38,573.53c23.11,13.34,23.79,34.72,1.52,47.66s-59.18,12.62-82.29-.72-23.78-34.72-1.51-47.66S280.28,560.19,303.38,573.53Zm-80.59,46.84c23,13.28,59.76,13.61,81.93.72s21.5-34.17-1.51-47.46-59.76-13.6-81.93-.72-21.49,34.18,1.51,47.46" transform="translate(-149.56 -231.24)" style="fill:#fff"/><path d="M279.07,591a4,4,0,0,1,2.24,3.17c-.06.21-.43.32-.76.31-1,0-2,0-2.95,0a1,1,0,0,1-.46-.1.58.58,0,0,1-.26-.33,2.91,2.91,0,0,0-1.28-1.42,3.86,3.86,0,0,0-.87-.37,21.29,21.29,0,0,0-5.9-.49,12.73,12.73,0,0,0-4.21.61c-.94.37-1.22,1.12-.88,1.73a1,1,0,0,0,.31.26,5.29,5.29,0,0,0,1.59.44c4.08.62,8.41.56,12.41,1.37a9.34,9.34,0,0,1,2.73,1,3,3,0,0,1,1.14,1,2.94,2.94,0,0,1-1.23,4,12.69,12.69,0,0,1-5.23,1.64,42.78,42.78,0,0,1-7.93.2,19,19,0,0,1-7-1.52l-.32-.18a3.56,3.56,0,0,1-2.05-3.16c0-.21.38-.36.72-.34h3a.9.9,0,0,1,.48.11.39.39,0,0,1,.22.29,2.59,2.59,0,0,0,1.24,1.61,4.71,4.71,0,0,0,.45.22c2,.75,4.53.7,6.84.72a15,15,0,0,0,5.61-.8,1.36,1.36,0,0,0,.82-1.71,1,1,0,0,0-.43-.42,5.21,5.21,0,0,0-1.52-.47c-4-.74-8.4-.48-12.39-1.31a9.38,9.38,0,0,1-2.72-1,3.19,3.19,0,0,1-1.1-1c-.88-1.37-.49-3,1.34-4.1a15.87,15.87,0,0,1,6.79-1.58,30.43,30.43,0,0,1,10.06.89A7.27,7.27,0,0,1,279.07,591Z" transform="translate(-149.56 -231.24)" style="fill:#fff"/><path d="M290.24,586.93a2.43,2.43,0,0,1,1.42,2l.1,15.34c0,1-1.06,2-2.61,2.45l-23.24,7.62a8.41,8.41,0,0,1-5.18-.09l-7-2.34a6.57,6.57,0,0,1-1.18-.45l-.17-.11a3.58,3.58,0,0,1,1.27-.36,23.42,23.42,0,0,0,2.74-.75,1.11,1.11,0,0,1,.72,0c2,.66,4,1.34,6,2a1.91,1.91,0,0,0,1.23-.16l22.83-7.48c.28-.07.43-.25.41-.43q0-7.59-.08-15.19c0-.14-.08-.27-.24-.37a1.45,1.45,0,0,0-.25-.1l-23.26-7.58a1.3,1.3,0,0,0-.91,0l-23.17,7.59c-.32.08-.53.26-.49.46,0,5.07.05,10.13.09,15.19a.36.36,0,0,0,.21.35,1,1,0,0,0,.21.08l6.21,2a7.92,7.92,0,0,0,3.88.3c1.12-.24,1.92-.91,1.89-1.6,0-5-.06-10.07-.07-15.1,0-.22.33-.41.7-.39h3a.82.82,0,0,1,.44.11.35.35,0,0,1,.21.36c0,5.06.07,10.13.08,15.19,0,1.35-.94,2.81-3.08,3.48a16,16,0,0,1-8.56-.14c-2.29-.65-4.45-1.43-6.69-2.13a5.31,5.31,0,0,1-1.18-.51,2.43,2.43,0,0,1-1.44-1.95l-.08-15.34c0-1,1-2,2.49-2.44q11.63-3.8,23.25-7.62a8.76,8.76,0,0,1,5.12,0l23.43,7.66A5.49,5.49,0,0,1,290.24,586.93Z" transform="translate(-149.56 -231.24)" style="fill:#fff"/><g style="isolation:isolate"><path d="M299.19,727.87l-.12,40.76c0,8.38-5.42,16.66-16.26,23-22.25,12.93-59,12.61-82.11-.72-11.85-6.84-17.8-15.78-17.77-24.61l.11-40.76c0,8.83,5.93,17.77,17.78,24.61,23.09,13.34,59.86,13.66,82.11.72C293.76,744.53,299.16,736.25,299.19,727.87Z" transform="translate(-149.56 -231.24)" style="fill:#74c7ff"/><ellipse cx="241.11" cy="726.68" rx="33.6" ry="58.09" transform="translate(-641.88 715.19) rotate(-88.32)" style="fill:#74c7ff"/></g><path d="M281.44,702.12c23.11,13.34,23.79,34.72,1.52,47.66s-59.18,12.62-82.29-.72-23.79-34.72-1.52-47.66S258.34,688.78,281.44,702.12ZM200.85,749c23,13.28,59.76,13.6,81.93.72s21.5-34.17-1.51-47.46-59.77-13.6-81.94-.72-21.49,34.17,1.52,47.46" transform="translate(-149.56 -231.24)" style="fill:#fff"/><ellipse cx="241.06" cy="725.59" rx="33.53" ry="57.96" transform="translate(-640.85 714.03) rotate(-88.32)" style="fill:#74c7ff"/><path d="M281.36,724.44c.72,3.23-.88,5.86-4.71,8.11a25.19,25.19,0,0,1-9.9,3.07c-1.12.12-2.23.14-3.3.21a23.46,23.46,0,0,1-10.1-2.1l-.78-.42a8.1,8.1,0,0,1-3.38-3.31,5.74,5.74,0,0,1-.34-.9,5.38,5.38,0,0,1,.47-4.11,10.15,10.15,0,0,1,2.85-3.12c3-2.3,6.63-3.49,11.55-4a24.92,24.92,0,0,1,11.78,1.22,16.39,16.39,0,0,1,2.22,1A7,7,0,0,1,281.36,724.44ZM268,730.73c3.25-1,5-2.51,5.22-4.57a5,5,0,0,0-.13-.79,4,4,0,0,0-1.93-2.16,10.69,10.69,0,0,0-6.52-1c-3.84.5-6.31,1.91-7.21,4.16-.55,1.39.18,2.79,1.82,3.73a7.88,7.88,0,0,0,2,.8,12.63,12.63,0,0,0,6.74-.15" transform="translate(-149.56 -231.24)" style="fill:#fff"/><path d="M247.27,719.74a9.26,9.26,0,0,1,2.83,2.45c.25.21.08.33-.41.4l-6.94,1.06c-.49.07-.62.1-.93-.08a1.88,1.88,0,0,1-.27-.17c-.18-.11-.34-.22-.51-.31a5.58,5.58,0,0,0-1.44-.59,11.67,11.67,0,0,0-7.47.36c-2.81,1-4.25,2.61-4.19,4.54a3.37,3.37,0,0,0,1.94,2.72,8.63,8.63,0,0,0,3.65,1,11,11,0,0,0,7-1.58c.37-.26.69-.55,1.1-.88h-8a1.39,1.39,0,0,1-.74-.13c-.22-.12-.23-.33-.06-.58.54-.74,1.53-2,2.1-2.61a1.28,1.28,0,0,1,1-.38h13.3a5.38,5.38,0,0,0-.47,4.11,5.74,5.74,0,0,0,.34.9,11.69,11.69,0,0,1-1.72,1.62,21.64,21.64,0,0,1-11.76,4.07,23.42,23.42,0,0,1-11.13-1.58c-.54-.24-1.05-.5-1.52-.76a7.11,7.11,0,0,1-3.76-4.56c-.55-2.61.77-4.95,3.48-7a22.66,22.66,0,0,1,11.54-4.14,23.16,23.16,0,0,1,11,1.17A15.15,15.15,0,0,1,247.27,719.74Z" transform="translate(-149.56 -231.24)" style="fill:#fff"/><g style="isolation:isolate"><path d="M219.11,722.16s0,.08,0,.12l-.7.62a.73.73,0,0,1-.41.15l-15,0a.22.22,0,0,1-.14,0s0,0,0-.09l.86-.65a.81.81,0,0,1,.46-.12H219Z" transform="translate(-149.56 -231.24)" style="fill:#fff"/><path d="M217,724.38a.07.07,0,0,1,0,.1l-.33.58c0,.09-.2.14-.37.14l-19.55,0a.22.22,0,0,1-.14,0s0-.05,0-.09l.86-.65a.89.89,0,0,1,.46-.12h18.85A.39.39,0,0,1,217,724.38Z" transform="translate(-149.56 -231.24)" style="fill:#fff"/><path d="M216.12,726.58a.14.14,0,0,1,.07.13l-.08.58c0,.09-.17.16-.28.16l-9,0a.26.26,0,0,1-.14,0s0-.07,0-.12l.57-.59a.66.66,0,0,1,.42-.14h8.26A.44.44,0,0,1,216.12,726.58Z" transform="translate(-149.56 -231.24)" style="fill:#fff"/></g><g style="isolation:isolate"><path d="M480.6,886.35l-.12,40.76c0,8.37-5.42,16.65-16.26,22.95-22.25,12.93-59,12.6-82.11-.73-11.85-6.84-17.8-15.78-17.77-24.61l.11-40.76c0,8.83,5.93,17.77,17.78,24.62,23.08,13.33,59.86,13.65,82.11.72C475.17,903,480.57,894.72,480.6,886.35Z" transform="translate(-149.56 -231.24)" style="fill:#f7a411"/><path d="M462.82,861.74c23.09,13.33,23.78,34.62,1.52,47.56s-59,12.61-82.11-.72-23.78-34.64-1.52-47.57S439.73,848.41,462.82,861.74Z" transform="translate(-149.56 -231.24)" style="fill:#f7a411"/></g><path d="M462.56,861.36c23.1,13.34,23.79,34.72,1.51,47.66s-59.18,12.62-82.28-.72-23.79-34.72-1.52-47.67S439.45,848,462.56,861.36ZM382,908.19c23,13.28,59.77,13.61,81.94.73s21.49-34.18-1.52-47.46-59.76-13.61-81.93-.72S359,894.91,382,908.19" transform="translate(-149.56 -231.24)" style="fill:#fff"/><ellipse cx="422.17" cy="884.83" rx="33.53" ry="57.96" transform="translate(-624.22 1049.63) rotate(-88.32)" style="fill:#f7a411"/><path d="M437.62,878.3c0,4.79-8,4.72-8.42,4.72h-15c-9,0-8.71,4.88-8.7,5.14l0,4.3h-5.29a10.05,10.05,0,0,1-5-1.28c-2-1.18-3.91-3.41-3.93-7.67-.06-9.28,9.6-8.64,10.11-8.61h21.17v-1.24H407.42l0-4.13c-.05-.2-1-4,14.86-4,7.7,0,11.56,1,13.48,2.15,2.22,1.28,1.87,2.59,1.86,2.66S437.59,873.49,437.62,878.3Zm-23.7-6.82c1.5,0,2.72-.71,2.72-1.58a1.38,1.38,0,0,0-.81-1.12,3.85,3.85,0,0,0-1.93-.46c-1.5,0-2.72.7-2.71,1.58A1.34,1.34,0,0,0,412,871a3.85,3.85,0,0,0,1.93.47" transform="translate(-149.56 -231.24)" style="fill:#fff"/><path d="M437.75,897.59c.05.2,1,4-14.86,4-7.7,0-11.55-1-13.48-2.14-2.21-1.28-1.87-2.59-1.86-2.66s0-3.14,0-7.95,8-4.73,8.42-4.72h15c9,0,8.71-4.87,8.7-5.13l0-4.31h5.3a10.09,10.09,0,0,1,5,1.29c2,1.17,3.91,3.4,3.93,7.67.06,9.27-9.6,8.64-10.11,8.6H422.55l0,1.25h15.14Zm-6.52,1.21c1.51,0,2.72-.71,2.72-1.58a1.39,1.39,0,0,0-.81-1.12,4,4,0,0,0-1.93-.46c-1.5,0-2.72.7-2.72,1.58a1.4,1.4,0,0,0,.81,1.11,3.91,3.91,0,0,0,1.93.47" transform="translate(-149.56 -231.24)" style="fill:#fff"/><g style="isolation:isolate"><polygon points="876.3 340.13 782.82 394.45 668.52 328.46 762 274.14 876.3 340.13" style="fill:#1d66ff"/><polygon points="876.3 340.13 876.18 380.89 782.7 435.21 782.82 394.45 876.3 340.13" style="fill:#1d66ff"/><polygon points="782.82 394.45 782.7 435.21 668.4 369.22 668.52 328.46 782.82 394.45" style="fill:#1d66ff"/></g><polygon points="876.19 339.86 782.98 394.03 668.96 328.2 762.17 274.03 876.19 339.86" style="fill:#1d66ff"/><path d="M911.74,505.06l114.37,66-93.57,54.37-114.37-66Zm20.8,120.21,93.21-54.17-114-65.83-93.22,54.17,114,65.83" transform="translate(-149.56 -231.24)" style="fill:#fff"/><g style="isolation:isolate"><polygon points="850.2 339.24 781.18 379.35 694.65 329.39 763.67 289.28 850.2 339.24" style="fill:#fff"/><path d="M913.18,509.05l106.39,61.43-88.76,51.58L824.42,560.63Zm17.57,101.54,69-40.11-86.53-50-69,40.11,86.53,50" transform="translate(-149.56 -231.24)" style="fill:#1d66ff"/></g><polygon points="849 339.51 848.48 250.53 695.28 254.66 695.54 329.19 780.91 378.97 849 339.51" style="fill:url(#a)"/><g style="isolation:isolate"><polygon points="875.27 263.28 781.79 317.6 667.49 251.6 760.96 197.28 875.27 263.28" style="fill:#1d66ff"/><polygon points="875.27 263.28 875.15 304.04 781.68 358.36 781.79 317.6 875.27 263.28" style="fill:#1d66ff"/><polygon points="781.79 317.6 781.68 358.36 667.37 292.36 667.49 251.6 781.79 317.6" style="fill:#1d66ff"/></g><path d="M910.71,428.21l114.38,66-93.57,54.37-114.38-66Zm20.81,120.21,93.21-54.17-114-65.84-93.22,54.17,114,65.84" transform="translate(-149.56 -231.24)" style="fill:#fff"/><polygon points="875.16 263.01 781.95 317.18 667.93 251.35 761.14 197.18 875.16 263.01" style="fill:#1d66ff"/><path d="M912.14,432.2l106.39,61.42L929.78,545.2,823.39,483.78Zm17.58,101.54,69-40.11-86.54-50-69,40.11,86.54,50" transform="translate(-149.56 -231.24)" style="fill:#1d66ff"/><polygon points="849.17 262.39 780.15 302.5 693.62 252.54 762.63 212.43 849.17 262.39" style="fill:#fff"/><polygon points="847.96 263.43 846.93 173.16 694.51 175.48 694.51 253.11 779.88 302.89 847.96 263.43" style="fill:url(#b)"/><g style="isolation:isolate"><polygon points="874.18 187.39 780.71 241.71 666.4 175.72 759.87 121.4 874.18 187.39" style="fill:#1d66ff"/><polygon points="874.18 187.39 874.06 228.15 780.59 282.47 780.71 241.71 874.18 187.39" style="fill:#1d66ff"/><polygon points="780.71 241.71 780.59 282.47 666.28 216.47 666.4 175.72 780.71 241.71" style="fill:#1d66ff"/></g><path d="M909.62,351.32l114.37,66-93.56,54.37-114.37-66Zm20.8,120.21,93.22-54.17-114-65.84L816.4,405.69l114,65.84" transform="translate(-149.56 -231.24)" style="fill:#fff"/><polygon points="874.07 186.12 780.86 240.29 666.84 174.46 760.05 120.29 874.07 186.12" style="fill:#1d66ff"/><path d="M911.05,355.31l106.4,61.43-88.76,51.58L822.3,406.89Zm17.58,101.54,69-40.11-86.53-50-69,40.11,86.53,50" transform="translate(-149.56 -231.24)" style="fill:#1d66ff"/><polygon points="848.08 185.5 779.07 225.61 692.54 175.65 761.55 135.54 848.08 185.5" style="fill:#fff"/><polygon points="846.93 185.8 847.45 110.23 694.25 114.1 693.48 175.48 778.85 225.26 846.93 185.8" style="fill:url(#c)"/><g style="isolation:isolate"><polygon points="869.07 112.69 780.21 167.01 665.91 101.01 754.76 46.69 869.07 112.69" style="fill:#1d66ff"/><polygon points="869.07 112.69 868.95 153.44 780.1 207.76 780.21 167.01 869.07 112.69" style="fill:#1d66ff"/><polygon points="780.21 167.01 780.1 207.76 665.79 141.77 665.91 101.01 780.21 167.01" style="fill:#1d66ff"/></g><path d="M902.78,277.73l116.47,64.63-91.57,53.21L815.75,331Zm24.9,117.64,91.21-53L902.8,277.94l-86.7,53,111.58,64.42" transform="translate(-149.56 -231.24)" style="fill:#fff"/><polygon points="869.33 111.12 778.12 164.13 666.54 99.71 753.23 46.7 869.33 111.12" style="fill:#1d66ff"/><path d="M1010.83,339.45,927,391.19,820.6,329.76,904.42,278ZM840.1,329.59l86.53,50,64.7-39.94L904.8,289.66l-64.7,39.93" transform="translate(-149.56 -231.24)" style="fill:#1d66ff"/><polygon points="841.76 108.37 777.07 148.31 690.54 98.36 755.24 58.42 841.76 108.37" style="fill:#fff"/><path d="M867.68,369.61c5.86,3.39,10.59,11.58,10.57,18.31s-4.78,9.44-10.64,6.06-10.58-11.57-10.56-18.3S861.82,366.23,867.68,369.61Z" transform="translate(-149.56 -231.24)" style="fill:#fff"/><path d="M867.67,375.61a12.29,12.29,0,0,1,5.6,9.68c0,3.56-2.53,5-5.63,3.2a12.31,12.31,0,0,1-5.59-9.68C862.06,375.25,864.58,373.82,867.67,375.61Z" transform="translate(-149.56 -231.24)" style="fill:#1d66ff"/><path d="M929.06,328.11a.31.31,0,0,1,0,.59,11.29,11.29,0,0,1-10.19,0l-.26-.16a12.86,12.86,0,0,0-11.68,0l-.28.16a11.27,11.27,0,0,1-10.18,0c-.28-.17-.28-.43,0-.59l11-6.38,4.47-2.6a1.8,1.8,0,0,1,1.6,0l4.5,2.6Z" transform="translate(-149.56 -231.24)" style="fill:#fff"/><g style="isolation:isolate"><path d="M917.63,330a.31.31,0,0,1,0,.59l-11,6.37-4.94,2.88a.69.69,0,0,1-.64,0l-5-2.87-11-6.38c-.28-.16-.29-.42,0-.58a11.21,11.21,0,0,1,10.18,0l.27.15a12.86,12.86,0,0,0,11.68,0l.27-.15A11.21,11.21,0,0,1,917.63,330Z" transform="translate(-149.56 -231.24)" style="fill:#fff"/><path d="M925.72,341.14l-5.58,3.25-1.69-1-1.2-.69c-1.55-.89-1.56-2.35,0-3.24a6.14,6.14,0,0,1,5.6,0Z" transform="translate(-149.56 -231.24)" style="fill:#1d66ff"/><path d="M936.09,340.66c.28.17.28.43,0,.59a11.21,11.21,0,0,1-10.18,0l-.19-.11-2.89-1.66a6.14,6.14,0,0,0-5.6,0c-1.54.89-1.53,2.35,0,3.24l1.2.69,1.88,1.09c2.82,1.63,2.83,4.27,0,5.9a1.12,1.12,0,0,1-1,0l-6.79-3.92-8.75-5.05c-.45-.26-.45-.67,0-.93l4.46-2.59,6.23-3.62,4.45-2.59a1.76,1.76,0,0,1,1.61,0l8.75,5.05Z" transform="translate(-149.56 -231.24)" style="fill:#fff"/></g><path d="M945.11,315.65c17.08,9.87,17.17,25.92.2,35.78s-44.69,9.87-61.78,0-17.17-25.92-.19-35.79S928,305.79,945.11,315.65Zm-61.4,35.68c17,9.81,44.54,9.81,61.42,0s16.79-25.76-.2-35.57-44.54-9.81-61.41,0-16.8,25.76.19,35.57" transform="translate(-149.56 -231.24)" style="fill:#fff"/><path d="M944.93,315.76c17,9.81,17.07,25.76.2,35.57s-44.43,9.81-61.42,0-17.07-25.76-.19-35.57S927.94,306,944.93,315.76Zm-26,12.94a11.29,11.29,0,0,0,10.19,0,.31.31,0,0,0,0-.59l-11-6.38-4.5-2.6a1.8,1.8,0,0,0-1.6,0l-4.47,2.6-11,6.38c-.28.16-.28.42,0,.59a11.27,11.27,0,0,0,10.18,0l.28-.16a12.86,12.86,0,0,1,11.68,0l.26.16M906.66,337l11-6.37a.31.31,0,0,0,0-.59,11.21,11.21,0,0,0-10.18,0l-.27.15a12.86,12.86,0,0,1-11.68,0l-.27-.15a11.21,11.21,0,0,0-10.18,0c-.28.16-.27.42,0,.58l11,6.38,5,2.87a.69.69,0,0,0,.64,0l4.94-2.88m13.67,7.53-.19-.11,5.58-3.25.19.11a11.21,11.21,0,0,0,10.18,0c.28-.16.28-.42,0-.59l-6.79-3.92-8.75-5.05a1.76,1.76,0,0,0-1.61,0l-4.45,2.59-6.23,3.62-4.46,2.59c-.44.26-.44.67,0,.93l8.75,5.05,6.79,3.92a1.12,1.12,0,0,0,1,0c2.8-1.63,2.79-4.27,0-5.9" transform="translate(-149.56 -231.24)" style="fill:#1d66ff"/><polygon points="693.22 370.12 693.23 365.21 697.61 367.74 697.59 372.63 693.22 370.12" style="fill:#fff"/><polygon points="687.03 366.55 687.04 363.39 689.86 365.01 689.85 368.17 687.03 366.55" style="fill:#fff"/><path d="M847.14,603.87c4.66,2.67,8.29-.42,6.52-6.94a15.24,15.24,0,0,0-3.92-6.66,12.8,12.8,0,0,0-2.56-2c-3.83-2.21-7-.52-7,3.77l-4.38-2.54c0-7,5.13-9.77,11.38-6.16a20.56,20.56,0,0,1,3.61,2.72A25.42,25.42,0,0,1,858,598.23c2.4,10.14-3.39,14.85-10.83,10.56Z" transform="translate(-149.56 -231.24)" style="fill:#fff"/><polygon points="689.84 371.95 689.85 368.17 693.22 370.12 693.21 373.9 689.84 371.95" style="fill:#fff"/><path d="M889.42,627.08a4.87,4.87,0,0,0,1.13.94l5.5,3.18v5.06h0l-5.47-3.17h0a13.94,13.94,0,0,1-4.29-4.13v0Z" transform="translate(-149.56 -231.24)" style="fill:#fff"/><g style="isolation:isolate"><path d="M893.76,619.34a16.56,16.56,0,0,1,2.51,3.83l-3.2,1.82a6.65,6.65,0,0,0-.81-1.65,6.1,6.1,0,0,0-1.19-1.32,4.22,4.22,0,0,0-.49-.33,2.48,2.48,0,0,0-.83-.33,1.53,1.53,0,0,0-1.13.12,1.59,1.59,0,0,0-.69.91,3.31,3.31,0,0,0-.08,1.46,5.89,5.89,0,0,0,.53,1.69,6.83,6.83,0,0,0,1,1.54l-3.19,1.82a16.24,16.24,0,0,1-2.48-5.56,9.13,9.13,0,0,1,.07-5,3.72,3.72,0,0,1,2.61-2.54l.25-.05a5.85,5.85,0,0,1,3.9.89,10.21,10.21,0,0,1,1.4,1A14.31,14.31,0,0,1,893.76,619.34Z" transform="translate(-149.56 -231.24)" style="fill:#fff"/><path d="M889,612.2a5.58,5.58,0,0,1,4.25-.51,10,10,0,0,1,2.62,1l.45.26a16.33,16.33,0,0,1,1.9,1.36,21.41,21.41,0,0,1,4.42,5.14v.06l-3.06,1.75,0,.07-.06,0a10.79,10.79,0,0,0-3.47-3.41l-.4-.22a3.62,3.62,0,0,0-3.66-.06.07.07,0,0,0-.06,0,10.37,10.37,0,0,0-1.36-.94l0,0a5.85,5.85,0,0,0-3.9-.89.45.45,0,0,0-.16,0A5.72,5.72,0,0,1,889,612.2Z" transform="translate(-149.56 -231.24)" style="fill:#fff"/><path d="M905.66,626.79a16.69,16.69,0,0,1,2.73,5.67,12.26,12.26,0,0,1,.4,2.77v.37a7.42,7.42,0,0,1-.33,2.07,3.8,3.8,0,0,1-2.62,2.7,5.79,5.79,0,0,1-4.21-.84l-.08,0-5.5-3.18v-5.06l5.51,3.17.13.08a2.59,2.59,0,0,0,1,.34,1.6,1.6,0,0,0,.93-.14,1.49,1.49,0,0,0,.63-.68,2.9,2.9,0,0,0,.22-1.12,4.52,4.52,0,0,0-.22-1.35,6.06,6.06,0,0,0-.62-1.41,6.54,6.54,0,0,0-.92-1.21,4.68,4.68,0,0,0-1-.78l-.09-.06v-.63a9.5,9.5,0,0,0-.49-3.05,12.88,12.88,0,0,0-1.46-3l0-.07,3.06-1.75,0,0A22.6,22.6,0,0,1,905.66,626.79Z" transform="translate(-149.56 -231.24)" style="fill:#fff"/></g><path d="M959.3,629.88a3.48,3.48,0,0,1-.22-1.42,5.86,5.86,0,0,1,.27-1.84,7.65,7.65,0,0,1,.85-1.87A8.84,8.84,0,0,1,963,622l.25-.13a11.47,11.47,0,0,1,1.32-.65c.47-.19.94-.35,1.44-.5V619.6a2.49,2.49,0,0,0-.6-2.05,2.16,2.16,0,0,0-1.74.3l-.29.19a8.86,8.86,0,0,0-1.34,1,16.06,16.06,0,0,0-1.34,1.28c-.14.15-.29.31-.44.45l-.2.16c-.17.1-.26,0-.26-.31v-.73a1.5,1.5,0,0,1,.09-.57,2.63,2.63,0,0,1,.35-.52,15.43,15.43,0,0,1,1.56-1.57,12.51,12.51,0,0,1,1.88-1.36l.07,0c1.48-.86,2.57-1.08,3.27-.68s1,1.42,1,3.06V623a5.13,5.13,0,0,0,.17,1.22,4.43,4.43,0,0,0,.4.85.47.47,0,0,1,.09.28,1.09,1.09,0,0,1-.07.3,1.17,1.17,0,0,1-.17.29L967.7,627a1.29,1.29,0,0,1-.33.33.35.35,0,0,1-.37,0,1.83,1.83,0,0,1-.45-.43q-.18-.27-.39-.66a11.09,11.09,0,0,1-1.63,2.48,7.92,7.92,0,0,1-1.95,1.64l-.08,0-.18.11a3.29,3.29,0,0,1-1.15.42,1.87,1.87,0,0,1-1.16-.17A1.81,1.81,0,0,1,959.3,629.88Zm2-2.82a1.8,1.8,0,0,0,.08.79.92.92,0,0,0,.38.51.87.87,0,0,0,.6.11,1.61,1.61,0,0,0,.53-.19l.18-.12a6.57,6.57,0,0,0,1.29-1,6.43,6.43,0,0,0,1.18-1.64,4.45,4.45,0,0,0,.42-1.19A7.33,7.33,0,0,0,966,623v-.62a10.56,10.56,0,0,0-1.15.41,12.7,12.7,0,0,0-1.17.58l-.21.11a5.47,5.47,0,0,0-1.64,1.56,4.43,4.43,0,0,0-.48,1,3.46,3.46,0,0,0-.13,1" transform="translate(-149.56 -231.24)" style="fill:#fff"/><path d="M991.15,620c.52-.3.84.23.28,1a50.13,50.13,0,0,1-15.16,14.29l-.21.13c-6.76,3.88-13.3,4.65-18.34,2.14-.3-.15-.15-.66.15-.84a.46.46,0,0,1,.28-.06c5.65.59,12.05-1.08,18.55-4.83a62.47,62.47,0,0,0,14.14-11.62A1.15,1.15,0,0,1,991.15,620Z" transform="translate(-149.56 -231.24)" style="fill:#fff"/><path d="M984.13,604.39l.11,0,.07.08,0,.15,0,.25a3.29,3.29,0,0,1-.09.43l-3,13.22a2.29,2.29,0,0,1-.26.73,1.53,1.53,0,0,1-.44.41l-1.1.63-.07.05a.6.6,0,0,1-.43.09.59.59,0,0,1-.24-.46l-2-8.47-1.89,10.68a2.21,2.21,0,0,1-.23.73,1.39,1.39,0,0,1-.42.39l-.08,0L973,624l-.07,0a.51.51,0,0,1-.4.08.65.65,0,0,1-.26-.43l-3-9.8a2.08,2.08,0,0,1-.12-.52l0-.16,0-.16.11-.14.12-.09,1.22-.71.08-.05a.58.58,0,0,1,.41-.08.69.69,0,0,1,.25.44l2.12,8.63,1.92-11a1.9,1.9,0,0,1,.23-.71,1.54,1.54,0,0,1,.44-.41l.06,0,1-.57.08-.05a.38.38,0,0,1,.65.35l2,8.82,2.13-11.2a2.21,2.21,0,0,1,.25-.72,1.42,1.42,0,0,1,.42-.4l.06,0,1.16-.67Z" transform="translate(-149.56 -231.24)" style="fill:#fff"/><path d="M986.57,603.61a8.7,8.7,0,0,1,1.29-1.52,8.87,8.87,0,0,1,1.46-1.1l.11-.06a8.22,8.22,0,0,1,.84-.42c.28-.12.54-.21.8-.3l.71-.18a1.93,1.93,0,0,1,.53,0,.57.57,0,0,1,.37.16.62.62,0,0,1,.11.42v.7a.7.7,0,0,1-.28.64,1,1,0,0,1-.48.1,5.13,5.13,0,0,0-2.31.75l-.09.05-.2.11a5.58,5.58,0,0,0-1.45,1.26,3.28,3.28,0,0,0-.45.82,2.18,2.18,0,0,0-.13.84,1.16,1.16,0,0,0,.09.52.57.57,0,0,0,.29.32,2.24,2.24,0,0,0,1.36,0l1.78-.35a2.1,2.1,0,0,1,1.93.31,2.36,2.36,0,0,1,.58,1.75,5.84,5.84,0,0,1-.32,1.91,7.88,7.88,0,0,1-.91,1.84,9.16,9.16,0,0,1-1.37,1.63,9.49,9.49,0,0,1-1.72,1.3l-.06,0a8.89,8.89,0,0,1-1.92.85,4.41,4.41,0,0,1-1.44.23.4.4,0,0,1-.38-.2.81.81,0,0,1-.08-.37v-.75a.66.66,0,0,1,.28-.63.61.61,0,0,1,.23-.09l.31,0a5,5,0,0,0,1.37-.27,8.53,8.53,0,0,0,1.49-.68l.19-.1a5.84,5.84,0,0,0,1.62-1.44,2.9,2.9,0,0,0,.48-.88,2.35,2.35,0,0,0,.17-.91,1.16,1.16,0,0,0-.09-.51A.67.67,0,0,0,991,609a1.89,1.89,0,0,0-1.25,0l-1.81.38a2.1,2.1,0,0,1-2-.37,2.47,2.47,0,0,1-.63-1.79,5.29,5.29,0,0,1,.33-1.85A7.77,7.77,0,0,1,986.57,603.61Z" transform="translate(-149.56 -231.24)" style="fill:#fff"/><path d="M992.4,615.91c1.25-.72,2.25-1,2.47-.81a1,1,0,0,1,.14.6v.39a17.72,17.72,0,0,1-2.43,7.81,1,1,0,0,1-.34.37c-.17.1-.27,0-.17-.36.49-1.76,1.59-5.72,1.07-6.21-.24-.22-1,.08-1.81.57-1,.6-2.26,1.48-3,2l-.08,0c-.33.19-.36-.17,0-.66A13.33,13.33,0,0,1,992.4,615.91Z" transform="translate(-149.56 -231.24)" style="fill:#fff"/><polygon points="719.35 220.09 719.31 234.2 712.61 231.61 719.35 220.09" style="fill:#fff"/><polygon points="720.42 234.84 720.49 210.48 730.47 241.93 720.42 234.84" style="fill:#fff"/><polygon points="719.29 240.62 712.6 232.9 730.47 243.21 719.29 240.62" style="fill:#fff"/><path d="M988.42,462.32c.49-.12.75.16.75.48a1.75,1.75,0,0,1-.75,1.06.46.46,0,0,1-.19.08L988,464a1.3,1.3,0,0,1-.42.05c-.07,0-.14,0-.21,0a5.52,5.52,0,0,0-1.26.32,1.24,1.24,0,0,0-.35.33l-.33.17a19.41,19.41,0,0,1-1,3,21.63,21.63,0,0,1-3.1,5.28l.12.27a1,1,0,0,0,0,.51,2.85,2.85,0,0,0,.61.91.79.79,0,0,0,.14.16,1.2,1.2,0,0,1,.26.29l.07.1a1,1,0,0,1,.08.68,1.68,1.68,0,0,1-.36.7,1.05,1.05,0,0,1-.28.24c-.28.16-.57.14-.71-.1l-.09-.14a2.47,2.47,0,0,1-.14-.41l-.08-.2a5,5,0,0,0-.49-1.1.26.26,0,0,0-.31-.06l-.18-.22c-.41.4-.81.76-1.23,1.11a13.57,13.57,0,0,1-2,1.46,9.24,9.24,0,0,1-3.29,1.2l-.17.44a1.7,1.7,0,0,0-.35.48,11.09,11.09,0,0,0-.49,1.64c0,.09,0,.18-.07.28s-.07.34-.14.57l-.07.17a2,2,0,0,1-.73,1,.6.6,0,0,1-.28.08c-.36,0-.5-.42-.31-1l.09-.24c.09-.22.16-.39.26-.59s.1-.19.14-.29c.26-.64.47-1.17.61-1.65a.53.53,0,0,0,0-.41l.12-.47a6.45,6.45,0,0,1-1-.2,5,5,0,0,1-3.11-3.31l-.32.24a.52.52,0,0,0-.36.05,9.18,9.18,0,0,0-1.27,1.14c-.09.08-.16.17-.24.24a4.32,4.32,0,0,1-.42.44l-.14.1a.88.88,0,0,1-.23.2c-.38.21-.69.14-.76-.19a1.66,1.66,0,0,1,.61-1.36l.21-.18c.17-.12.31-.22.45-.3a1.13,1.13,0,0,1,.23-.17,10.19,10.19,0,0,0,1.3-1,1.14,1.14,0,0,0,.25-.45l.34-.35a15.47,15.47,0,0,1,1.3-7.9,2.12,2.12,0,0,1,.11-.29l-.24-.11c0-.19,0-.32-.11-.39a4.08,4.08,0,0,0-1.06-.23.81.81,0,0,0-.22,0,1.36,1.36,0,0,1-.4,0l-.12,0c-.37-.13-.45-.63-.21-1.12a1.47,1.47,0,0,1,.54-.61.63.63,0,0,1,.52-.08l.16.06c.12.08.21.13.31.21s.11.07.17.09a2.82,2.82,0,0,0,.94.46.24.24,0,0,0,.21-.05l.14-.1.29,0a20.09,20.09,0,0,1,4.65-5.72c.42-.36.85-.66,1.27-1l0-.36a1.43,1.43,0,0,0,.24-.54,7.76,7.76,0,0,0-.08-1.42,1.08,1.08,0,0,0,0-.27,1.68,1.68,0,0,1-.07-.48v-.16a1.7,1.7,0,0,1,.72-1.36c.41-.24.74,0,.74.47v.24c0,.2,0,.38-.07.55a1.87,1.87,0,0,0-.05.3,12.27,12.27,0,0,0-.06,1.53.28.28,0,0,0,.19.24l.07.37a6.82,6.82,0,0,1,4.92-.6,5.43,5.43,0,0,1,1,.47l.29-.38.18-.08a.77.77,0,0,0,.21-.2,15.25,15.25,0,0,0,1-1.52,2.79,2.79,0,0,0,.16-.28,4.53,4.53,0,0,1,.31-.56l.11-.18a1.84,1.84,0,0,1,.57-.6c.21-.12.42-.13.54,0s.16.79-.16,1.31l-.17.25c-.14.19-.26.34-.4.51l-.21.25a15.76,15.76,0,0,0-1.06,1.45,1.06,1.06,0,0,0-.11.48l-.23.43a6.61,6.61,0,0,1,1.32,2.78,11.36,11.36,0,0,1,.18,3.72l.3-.07c.07.12.12.21.29.19a6.35,6.35,0,0,0,1.27-.49,1.29,1.29,0,0,0,.26-.12,3.78,3.78,0,0,1,.45-.21Zm-18.19,3.81a13.22,13.22,0,0,0-1.05,5.91l3.64-3.32a1.08,1.08,0,0,0,.28-.38c.22-.42.19-.87-.07-1l-2.8-1.25m12.57,1.71a10.85,10.85,0,0,0,.68-2l-3.77,1.44a1.34,1.34,0,0,0-.66,1.29l1.5,3.24a18.56,18.56,0,0,0,2.25-3.93m1.09-4.29a8.75,8.75,0,0,0-.17-2.64,5.24,5.24,0,0,0-.9-2.05L980,463.45a1.17,1.17,0,0,0-.14.38c-.07.42.12.69.45.61l3.6-.89m-9.9,8a1.15,1.15,0,0,0,0-.45c-.07-.29-.32-.38-.61-.21l0,0-3.74,2.88a3.77,3.77,0,0,0,2.95,2.55l1.43-4.8m4.23,2.68c.23-.22.47-.41.68-.61l-1.82-2.72a.44.44,0,0,0-.55-.06,1.56,1.56,0,0,0-.49.55l-1.85,4.95a8.64,8.64,0,0,0,2.38-.94,13.48,13.48,0,0,0,1.65-1.17m-3.37-14.64a15.93,15.93,0,0,0-3.5,4.24l3.14.76a.42.42,0,0,0,.28-.08,1.44,1.44,0,0,0,.64-1.07l.19-4.45-.75.6m6.83-1.72a4.63,4.63,0,0,0-4.24.09l.23,4.29c0,.09,0,.19.11.23a.44.44,0,0,0,.5,0,1.3,1.3,0,0,0,.33-.3l3.07-4.3m-5.73,8-.7,1.44.26,1.12,1,0,1-1.17.24-1.4-.71-.63-1.16.67" transform="translate(-149.56 -231.24)" style="fill:#fff"/><path d="M838.91,520.5a5.76,5.76,0,0,1,2.34,3.08c.61,1.84,0,3.29-1.26,3.24a2.4,2.4,0,0,1-1.1-.35,5.67,5.67,0,0,1-2.34-3.08c-.61-1.84,0-3.29,1.26-3.24A2.56,2.56,0,0,1,838.91,520.5Z" transform="translate(-149.56 -231.24)" style="fill:#fff"/><path d="M858.63,533.82A5.82,5.82,0,0,1,861,536.9c.6,1.84,0,3.29-1.27,3.24a2.4,2.4,0,0,1-1.09-.35,5.7,5.7,0,0,1-2.35-3.08c-.6-1.84,0-3.29,1.26-3.24A2.52,2.52,0,0,1,858.63,533.82Z" transform="translate(-149.56 -231.24)" style="fill:#fff"/><path d="M858.66,524.9a13.27,13.27,0,0,1,.13,7.86l-.16-.1a3.43,3.43,0,0,0-1.52-.49c-1.73-.07-2.52,1.76-1.86,4.16a5.74,5.74,0,0,1-1.74.19,9.37,9.37,0,0,1-4.22-1.36l-.22-.13.34-4.43a5.46,5.46,0,0,0,2.41.74c2.81.12,4.14-2.82,3.15-6.69Z" transform="translate(-149.56 -231.24)" style="fill:#fff"/><g style="isolation:isolate"><path d="M840.58,513l3.38,4.47c-.81,1.36-.91,3.52-.1,6a14,14,0,0,0,4,6.08l-.31,4.48a22.1,22.1,0,0,1-5.53-6.61,4.28,4.28,0,0,0,.16-3.75,8.2,8.2,0,0,0-2.78-4A9.77,9.77,0,0,1,840.58,513Z" transform="translate(-149.56 -231.24)" style="fill:#fff"/><path d="M846.86,511.05c0,.14.07.26.12.4a7.92,7.92,0,0,0,3.26,4.28,3.31,3.31,0,0,0,1.53.49,1.8,1.8,0,0,0,1.61-.78,24,24,0,0,1,4.64,7.5l-3.61,0a13,13,0,0,0-5.1-6.22,5.55,5.55,0,0,0-2.53-.81,3.07,3.07,0,0,0-2,.59l-3.28-4.58a5,5,0,0,1,3.61-1.18A7.51,7.51,0,0,1,846.86,511.05Z" transform="translate(-149.56 -231.24)" style="fill:#fff"/><path d="M850.25,508.6a5.71,5.71,0,0,1,2.35,3.07c.6,1.84,0,3.3-1.26,3.25a2.46,2.46,0,0,1-1.1-.36,5.74,5.74,0,0,1-2.35-3.08c-.6-1.84,0-3.29,1.27-3.23A2.36,2.36,0,0,1,850.25,508.6Z" transform="translate(-149.56 -231.24)" style="fill:#fff"/></g><path d="M904,551.17l3.38,5.89-3.45,2,0,6.5-5.72-3.3-3.46,1.91-3.44-5.9L885.61,555l0-6.52-3.52-6,3.54-2,0-6.57,5.82,3.36,3.37-1.95,3.39,5.9,5.75,3.32Zm-18.35-3.58v-2.17l6.8,3.93.82-.45-.91-1.56-6.71-3.87v-2.06l-2.74,1.51,2.72,4.67m9.07,15.68,2.68-1.48-1.78-1,0-7.7-.88-1.52-.8.43,0,7.82L892,558.71l2.66,4.56m2.47-11.18,6.74,3.89v2.17l2.67-1.54L904,552.07v2l-6.72-3.88-.87.5.79,1.38m-2.31-15.82-2.59,1.49,1.72,1,0,7.83.85,1.46.84-.48,0-7.79,1.78,1-2.61-4.54m-8.69,18.4,4.54,2.62-2-3.32,4.65-2.57v-.85l-.75-.43-4.59,2.55-1.89-3.24v5.24m.05-19.77v5.31l1.9-1,4.47,7.66.84.49v-.79L889,538.77l2-1.14-4.72-2.73m17.11,29.69,0-5.21-1.69,1-.19.1-4.53-7.87-.75-.43v1l4.31,7.4.21.34-2,1.07,4.59,2.65m.1-19.7-4.63-2.67,1.91,3.33-4.49,2.6V549l.8.47,4.48-2.58,1.91,3.33,0-5.31m-13.89,9.54,1.94,3.32,1.9,1.1,0-6.55-3.86,2.13m8.18-1.39,3.74,6.51,1.88-1.09v-2.17L897.72,553m-5.85-3.38-5.68-3.28v2.16l1.88,3.23,3.8-2.11m-.16-11.59-2,1.15,3.68,6.4,0-6.55-1.73-1m8.23,7L898,541.77l-1.77-1,0,6.52,3.71-2.15m-2,16.38,2-1.09L896.18,554l0,6.43,1.79,1m5.47-10.38-1.92-3.34-3.69,2.13,5.6,3.23v-2m-17.22-10v2l5.59,3.23-3.68-6.32-1.9,1.05m7,8.72.74.42v.86l.79-.43.88,1.51v-1l.76.43-.79-1.36.87-.5-.81-.47v-.83l-.65.38-.19.11-.85-1.48v.8l-.83-.48.71,1.23.2.34-.83.45" transform="translate(-149.56 -231.24)" style="fill:#fff"/><path d="M984.64,540.13c-8.5,4.9-14.87,2.49-14.87.64a1.17,1.17,0,0,1,0-.41c.19-.81,1.57-6.14,1.64-6.42.53-2,1.2-3.2,2.25-3.81s2,0,3.14-.68,1.5-2.38,2.51-3,4.8-1.13,6.5-1.11c2.18,0,2.45.49,2.76,1.74l1.32,5.75a2.85,2.85,0,0,1,.05.66C990,536.52,986.83,538.87,984.64,540.13Z" transform="translate(-149.56 -231.24)" style="fill:#fff"/><path d="M990.32,534.55c3.48-.27,5.41,1.52,5.42,4.07,0,3.25-2,8.52-9.89,13.09-10.33,6-23.39,5.7-23.41-.63,0-3.86,3.8-6.66,6.73-8.52a5.7,5.7,0,0,0-.26,1.63c0,3.63,7.18,5,15.35.28,3.63-2.09,6.38-5.25,6.37-8.06A8.87,8.87,0,0,0,990.32,534.55Z" transform="translate(-149.56 -231.24)" style="fill:#fff"/><line x1="637.95" y1="193.76" x2="638.04" y2="291.56" style="fill:none;stroke:#1d66ff;stroke-miterlimit:10;stroke-width:3px;stroke-dasharray:12"/><line x1="638.04" y1="291.56" x2="524.45" y2="356.46" style="fill:none;stroke:#1d66ff;stroke-miterlimit:10;stroke-width:3px;stroke-dasharray:12"/><line x1="155.24" y1="431.32" x2="278.95" y2="500.8" style="fill:none;stroke:#c7c9c5;stroke-miterlimit:10;stroke-width:2px;stroke-dasharray:12"/><line x1="317.07" y1="522.69" x2="424.75" y2="586.49" style="fill:none;stroke:#d1d1d1;stroke-miterlimit:10;stroke-width:2px;stroke-dasharray:12"/><line x1="718.09" y1="150.81" x2="637.95" y2="193.76" style="fill:none;stroke:#1d66ff;stroke-miterlimit:10;stroke-width:3px;stroke-dasharray:12"/><rect x="344.75" y="587.66" width="13.76" height="12.71" style="fill:#7ad357"/><rect x="46.71" y="638.4" width="17.3" height="15.97" style="fill:#fc449c;stroke:#fff;stroke-miterlimit:10;stroke-width:0.25px"/><rect x="888.78" y="79.94" width="17.3" height="15.97" style="fill:#fc449c;stroke:#fff;stroke-miterlimit:10;stroke-width:0.25px"/><polygon points="645.97 120.75 632.21 120.75 632.21 108.04 645.97 120.75" style="fill:#7ad357"/><polygon points="951.26 407.03 938.89 407.03 938.89 395.61 951.26 407.03" style="fill:#f7a411;stroke:#fff;stroke-miterlimit:10;stroke-width:0.25px"/><rect x="0.13" y="406.61" width="9.46" height="8.73" style="fill:#f7a411;stroke:#fff;stroke-miterlimit:10;stroke-width:0.25px"/><rect x="603.73" y="248.98" width="9.46" height="8.73" style="fill:#f7a411;stroke:#fff;stroke-miterlimit:10;stroke-width:0.25px"/><circle cx="205.53" cy="630.56" r="7.5" style="fill:#1d66ff"/><circle cx="404.05" cy="717.15" r="8.3" style="fill:#1d66ff"/><circle cx="696.49" cy="430.74" r="6.4" style="fill:#1d66ff"/><circle cx="953.55" cy="255.21" r="9.73" style="fill:#1d66ff"/><circle cx="730.1" cy="6.4" r="6.4" style="fill:#1d66ff"/><ellipse cx="185.98" cy="543.65" rx="5.34" ry="4.93" style="fill:#1d66ff"/><ellipse cx="558.31" cy="167.25" rx="5.34" ry="4.93" style="fill:#1d66ff"/><circle cx="300.88" cy="469.64" r="5.88" style="fill:#1d66ff"/><circle cx="414.63" cy="478.61" r="3.32" style="fill:#1d66ff"/><circle cx="524.74" cy="337.65" r="3.32" style="fill:#1d66ff"/></svg>