<svg width="48" height="48" viewBox="0 0 48 48" fill="none" xmlns="http://www.w3.org/2000/svg">
<g clip-path="url(#clip0)">
<path d="M29.2872 18.7092C28.7186 18.1372 28.0882 17.6302 27.4076 17.1974C25.6049 16.0431 23.5092 15.4297 21.3686 15.4297C18.3976 15.4242 15.5472 16.6047 13.4501 18.7092L3.27589 28.8913C1.18226 30.989 0.00553909 33.831 0.00366443 36.7947C-0.000272362 42.9792 5.00995 47.9959 11.1945 47.9999C14.1609 48.0102 17.0086 46.8353 19.1051 44.7364L27.5035 36.3379C27.6561 36.1867 27.7414 35.9803 27.7401 35.7654C27.7376 35.3237 27.3774 34.9677 26.9356 34.9702H26.6157C24.861 34.9764 23.122 34.6394 21.4967 33.9784C21.1972 33.8551 20.853 33.9247 20.6249 34.1543L14.5859 40.2012C12.7107 42.0765 9.67036 42.0765 7.79513 40.2012C5.91991 38.326 5.91991 35.2857 7.79513 33.4105L18.0093 23.2043C19.883 21.3329 22.9184 21.3329 24.7921 23.2043C26.0549 24.3928 28.0246 24.3928 29.2873 23.2043C29.8306 22.6606 30.1599 21.9394 30.2152 21.1726C30.2735 20.2564 29.9356 19.3591 29.2872 18.7092Z" fill="#1D66FF"/>
<path d="M44.7164 3.27998C40.3431 -1.09333 33.2526 -1.09333 28.8793 3.27998L20.4887 11.6624C20.2584 11.894 20.1919 12.2422 20.3208 12.5423C20.4482 12.8433 20.7459 13.0365 21.0726 13.0302H21.3685C23.1211 13.027 24.8574 13.3666 26.4796 14.03C26.7791 14.1533 27.1233 14.0838 27.3514 13.8541L33.3743 7.83916C35.2496 5.96394 38.2899 5.96394 40.1651 7.83916C42.0403 9.71439 42.0403 12.7547 40.1651 14.6299L32.6624 22.1246L32.5984 22.1966L29.9749 24.8041C28.1012 26.6755 25.0658 26.6755 23.1921 24.8041C21.9293 23.6157 19.9596 23.6157 18.6969 24.8041C18.1502 25.352 17.8205 26.0794 17.7691 26.8517C17.7106 27.768 18.0485 28.6653 18.6969 29.3153C19.6227 30.245 20.7059 31.0032 21.8963 31.5549C22.0643 31.6348 22.2323 31.6988 22.4002 31.7708C22.5682 31.8428 22.7442 31.8988 22.9121 31.9628C23.0801 32.0268 23.256 32.0828 23.424 32.1308L23.8959 32.2587C24.2159 32.3387 24.5359 32.4027 24.8637 32.4586C25.2587 32.5173 25.6565 32.5547 26.0556 32.5707H26.6154H26.6634L27.1433 32.5147C27.3193 32.5067 27.5033 32.4667 27.7113 32.4667H27.9832L28.5351 32.3867L28.7911 32.3388L29.255 32.2428H29.343C31.3077 31.7493 33.1018 30.732 34.534 29.2993L44.7161 19.1171C49.0897 14.7438 49.0897 7.65329 44.7164 3.27998Z" fill="#1D66FF"/>
</g>
<defs>
<clipPath id="clip0">
<rect width="48" height="48" fill="white"/>
</clipPath>
</defs>
</svg>
