<svg width="48" height="48" viewBox="0 0 48 48" fill="none" xmlns="http://www.w3.org/2000/svg">
<g clip-path="url(#clip0)">
<path d="M39 48H8.99997C6.24197 48 3.99997 45.756 3.99997 43V5C3.99997 2.244 6.24197 0 8.99997 0H39C41.758 0 44 2.244 44 5V43C44 45.756 41.758 48 39 48ZM8.99997 2C7.34597 2 5.99997 3.346 5.99997 5V43C5.99997 44.654 7.34597 46 8.99997 46H39C40.654 46 42 44.654 42 43V5C42 3.346 40.654 2 39 2H8.99997Z" fill="white"/>
<path d="M25 42H23C21.346 42 20 40.654 20 39V33C20 31.346 21.346 30 23 30H25C26.654 30 28 31.346 28 33V39C28 40.654 26.654 42 25 42ZM23 32C22.45 32 22 32.448 22 33V39C22 39.552 22.45 40 23 40H25C25.55 40 26 39.552 26 39V33C26 32.448 25.55 32 25 32H23Z" fill="white"/>
<path d="M17 42H11C10.448 42 9.99998 41.552 9.99998 41V31C9.99998 30.448 10.448 30 11 30C11.552 30 12 30.448 12 31V40H17C17.552 40 18 40.448 18 41C18 41.552 17.552 42 17 42Z" fill="white"/>
<path d="M37 42H33C31.346 42 30 40.654 30 39V33C30 31.346 31.346 30 33 30H37C37.552 30 38 30.448 38 31C38 31.552 37.552 32 37 32H33C32.45 32 32 32.448 32 33V39C32 39.552 32.45 40 33 40H36V38H35C34.448 38 34 37.552 34 37C34 36.448 34.448 36 35 36H37C37.552 36 38 36.448 38 37V41C38 41.552 37.552 42 37 42Z" fill="white"/>
</g>
<defs>
<clipPath id="clip0">
<rect width="48" height="48" fill="white"/>
</clipPath>
</defs>
</svg>
