<svg width="48" height="48" viewBox="0 0 48 48" fill="none" xmlns="http://www.w3.org/2000/svg">
<g clip-path="url(#clip0)">
<path d="M45.1875 28.9551V19.0449C46.7929 18.6995 48 17.2696 48 15.5625C48 12.7423 44.8691 11.0568 42.5227 12.5587L35.4413 5.47734C36.9434 3.13059 35.2574 0 32.4375 0C30.2266 0 28.5308 2.00869 28.9342 4.20656L20.6922 7.63153L18.5555 5.49469C20.0668 3.16453 18.4059 0 15.5625 0C12.746 0 11.0544 3.12712 12.5587 5.47744L5.47734 12.5588C3.13031 11.0564 0 12.7432 0 15.5625C0 17.7777 2.01244 19.4681 4.20656 19.0658L6.25697 24L4.20656 28.9342C2.00447 28.5301 0 30.2308 0 32.4375C0 35.2577 3.13088 36.9432 5.47734 35.4413L12.5587 42.5227C11.0564 44.8697 12.7432 48 15.5625 48C17.2696 48 18.6994 46.7929 19.0448 45.1875H28.9551C29.3005 46.7929 30.7304 48 32.4374 48C34.4017 48 35.9999 46.4018 35.9999 44.4375C35.9999 42.4732 34.4017 40.875 32.4374 40.875C30.7303 40.875 29.3005 42.0821 28.9551 43.6875H19.3208L41.5101 34.4668C43.4777 37.3147 48 35.9297 48 32.4375C48 30.7304 46.7929 29.3006 45.1875 28.9551ZM7.06734 31.8018L9.14297 30.9449L13.4379 41.2805L6.54459 34.3871C7.04925 33.6192 7.22897 32.6953 7.06734 31.8018ZM26.6221 15.6828L23.4256 23.4258L9.95391 28.9873L7.88138 24L12.6134 12.6128L20.3407 9.40134L26.6221 15.6828ZM33.8186 20.7579L38.0461 19.0127L42.2929 29.2322L33.8186 20.7579ZM39.4327 18.4403L41.5048 17.5848C42.019 18.3335 42.7988 18.855 43.6875 19.0448V28.6792L39.4327 18.4403ZM40.9327 16.1982L38.857 17.0551L34.5621 6.71963L41.4554 13.613C40.9508 14.3808 40.771 15.3047 40.9327 16.1982ZM31.8022 7.06734C32.216 7.14225 32.641 7.14666 33.0816 7.06584L37.4705 17.6275L32.67 19.6093L28.3908 15.3301L31.8022 7.06734ZM31.1685 20.2292L25.3819 22.6181L27.7708 16.8316L31.1685 20.2292ZM22.6179 25.382L16.1982 40.9328C15.7708 40.8555 15.3462 40.8558 14.9184 40.9342L10.5294 30.3726L22.6179 25.382ZM18.4887 42.4088C18.2438 42.0571 17.9366 41.7506 17.5841 41.5065L24.5743 24.5744L32.3171 21.3779L41.4446 30.5054C40.9416 31.281 40.7729 32.2027 40.9343 33.0818L18.4887 42.4088ZM29.5112 5.59106C29.7561 5.94291 30.0635 6.24956 30.4162 6.49369L27.242 14.1812L21.8393 8.77856L29.5112 5.59106ZM13.4291 10.6497L14.9184 7.06575C15.7994 7.22747 16.7207 7.05741 17.4947 6.55538L19.1935 8.25422L13.4291 10.6497ZM6.71963 13.4379L13.4379 6.71963L11.4657 11.4657L6.71963 13.4379ZM5.59172 18.4901C6.73828 17.698 7.32056 16.3073 7.06594 14.9184L10.6499 13.4289L7.06922 22.0456L5.59172 18.4901ZM8.56734 29.5597L6.4935 30.4159C6.24937 30.0634 5.94281 29.7561 5.59116 29.5112L7.06922 25.9545L8.56734 29.5597Z" fill="#11CE7F"/>
</g>
<defs>
<clipPath id="clip0">
<rect width="48" height="48" fill="white"/>
</clipPath>
</defs>
</svg>
