<svg width="48" height="48" viewBox="0 0 48 48" fill="none" xmlns="http://www.w3.org/2000/svg">
<path d="M19.5 39.75C20.2956 39.75 21.0587 39.4339 21.6213 38.8713C22.1839 38.3087 22.5 37.5456 22.5 36.75C22.5 35.9544 22.1839 35.1913 21.6213 34.6287C21.0587 34.0661 20.2956 33.75 19.5 33.75H19.4437C19.481 33.5017 19.4998 33.251 19.5 33C19.4984 31.6081 18.9448 30.2737 17.9605 29.2894C16.9763 28.3052 15.6419 27.7516 14.25 27.75C13.4663 27.7492 12.6941 27.9389 12 28.3027V24C12 23.8011 11.921 23.6103 11.7803 23.4697C11.6397 23.329 11.4489 23.25 11.25 23.25H4.49998V24.75H10.5V29.496C10.425 29.58 10.35 29.661 10.2787 29.7502C9.64829 29.4342 8.95509 29.2633 8.24998 29.25C7.05687 29.2512 5.91297 29.7257 5.06932 30.5693C4.22566 31.413 3.75117 32.5569 3.74998 33.75V33.8445C3.0423 34.0265 2.42535 34.4604 2.01494 35.065C1.60452 35.6695 1.42886 36.4031 1.52092 37.128C1.61298 37.8528 1.96643 38.5192 2.51494 39.002C3.06344 39.4847 3.76928 39.7507 4.49998 39.75H6.74998V44.25C6.74998 45.7957 9.08248 46.5 11.25 46.5C13.4175 46.5 15.75 45.7957 15.75 44.25V39.75H19.5ZM4.49998 38.25C4.10216 38.25 3.72063 38.092 3.43932 37.8107C3.15802 37.5294 2.99998 37.1478 2.99998 36.75C2.99998 36.3522 3.15802 35.9706 3.43932 35.6893C3.72063 35.408 4.10216 35.25 4.49998 35.25C4.69889 35.25 4.88966 35.171 5.03031 35.0303C5.17096 34.8897 5.24998 34.6989 5.24998 34.5V33.75C5.24998 32.9544 5.56605 32.1913 6.12866 31.6287C6.69127 31.0661 7.45433 30.75 8.24998 30.75C8.90306 30.7729 9.53521 30.9862 10.0687 31.3635C10.1528 31.4227 10.2482 31.4639 10.3489 31.4847C10.4497 31.5055 10.5536 31.5053 10.6542 31.4842C10.7549 31.4631 10.8501 31.4215 10.934 31.362C11.018 31.3026 11.0887 31.2265 11.142 31.1385C11.4483 30.5783 11.8969 30.1087 12.4425 29.7772C12.9882 29.4456 13.6116 29.2638 14.25 29.25C15.2442 29.2512 16.1973 29.6467 16.9003 30.3497C17.6033 31.0527 17.9988 32.0058 18 33C17.9974 33.4269 17.9229 33.8504 17.7795 34.2525C17.74 34.3656 17.7281 34.4864 17.7449 34.605C17.7616 34.7236 17.8065 34.8364 17.8759 34.9341C17.9452 35.0318 18.0369 35.1114 18.1433 35.1664C18.2497 35.2213 18.3677 35.25 18.4875 35.25H19.5C19.8978 35.25 20.2793 35.408 20.5606 35.6893C20.8419 35.9706 21 36.3522 21 36.75C21 37.1478 20.8419 37.5294 20.5606 37.8107C20.2793 38.092 19.8978 38.25 19.5 38.25H15.75V35.25C15.75 33.7043 13.4175 33 11.25 33C9.08248 33 6.74998 33.7043 6.74998 35.25V38.25H4.49998ZM8.24998 36.975C9.208 37.3373 10.2258 37.5155 11.25 37.5C12.2741 37.5152 13.2919 37.3371 14.25 36.975V38.211C14.1367 38.436 13.0987 38.9962 11.25 38.9962C9.38698 38.9962 8.34448 38.4307 8.24998 38.2462V36.975ZM8.26873 35.25C8.46148 35.0048 9.48898 34.5 11.25 34.5C13.011 34.5 14.0385 35.0048 14.2312 35.25C14.0385 35.4952 13.011 36 11.25 36C9.48898 36 8.46148 35.4952 8.26873 35.25ZM8.24998 39.9788C9.208 40.3411 10.2258 40.5192 11.25 40.5037C12.2741 40.5192 13.292 40.3411 14.25 39.9788V41.2125C14.1427 41.4375 13.1025 42 11.2455 42C9.38848 42 8.33998 41.4345 8.24548 41.25L8.24998 39.9788ZM11.25 45C9.38698 45 8.34448 44.4345 8.24998 44.25V42.975C9.208 43.3373 10.2258 43.5155 11.25 43.5C12.2761 43.5163 13.2961 43.3381 14.256 42.975V44.208C14.1555 44.4345 13.113 45 11.25 45Z" fill="white"/>
<path d="M43.5 21H43.4437C43.481 20.7517 43.4998 20.501 43.5 20.25C43.4984 18.8581 42.9448 17.5237 41.9605 16.5394C40.9763 15.5552 39.6419 15.0016 38.25 15C37.4663 14.9992 36.6941 15.1889 36 15.5527V13.5H43.5V12H35.25C35.0511 12 34.8603 12.079 34.7197 12.2197C34.579 12.3603 34.5 12.5511 34.5 12.75V16.746C34.425 16.83 34.35 16.911 34.275 17.0002C33.6457 16.6847 32.9538 16.5138 32.25 16.5C31.0569 16.5012 29.913 16.9757 29.0693 17.8193C28.2257 18.663 27.7512 19.8069 27.75 21V21.0945C27.0423 21.2765 26.4254 21.7104 26.0149 22.315C25.6045 22.9195 25.4289 23.6531 25.5209 24.378C25.613 25.1028 25.9664 25.7692 26.5149 26.252C27.0634 26.7347 27.7693 27.0007 28.5 27H30.75V31.5C30.75 33.0457 33.0825 33.75 35.25 33.75C37.4175 33.75 39.75 33.0457 39.75 31.5V27H43.5C44.2956 27 45.0587 26.6839 45.6213 26.1213C46.1839 25.5587 46.5 24.7956 46.5 24C46.5 23.2044 46.1839 22.4413 45.6213 21.8787C45.0587 21.3161 44.2956 21 43.5 21ZM35.25 24.75C36.2741 24.7652 37.2919 24.5871 38.25 24.225V25.461C38.1367 25.686 37.0987 26.2462 35.25 26.2462C33.387 26.2462 32.3445 25.6807 32.25 25.4962V24.2212C33.2078 24.5849 34.2256 24.7643 35.25 24.75ZM32.2687 22.5C32.4615 22.2548 33.489 21.75 35.25 21.75C37.011 21.75 38.0385 22.2548 38.2312 22.5C38.0385 22.7452 37.011 23.25 35.25 23.25C33.489 23.25 32.4615 22.7452 32.2687 22.5ZM32.25 27.2288C34.1908 27.9242 36.3129 27.9242 38.2537 27.2288V28.4625C38.1465 28.6875 37.1062 29.25 35.2492 29.25C33.3922 29.25 32.3437 28.6845 32.2492 28.5L32.25 27.2288ZM35.25 32.25C33.387 32.25 32.3445 31.6845 32.25 31.5V30.225C34.1914 30.9215 36.3146 30.9215 38.256 30.225V31.458C38.1555 31.6845 37.113 32.25 35.25 32.25ZM43.5 25.5H39.75V22.5C39.75 20.9543 37.4175 20.25 35.25 20.25C33.0825 20.25 30.75 20.9543 30.75 22.5V25.5H28.5C28.1022 25.5 27.7206 25.342 27.4393 25.0607C27.158 24.7794 27 24.3978 27 24C27 23.6022 27.158 23.2206 27.4393 22.9393C27.7206 22.658 28.1022 22.5 28.5 22.5C28.6989 22.5 28.8897 22.421 29.0303 22.2803C29.171 22.1397 29.25 21.9489 29.25 21.75V21C29.25 20.2044 29.5661 19.4413 30.1287 18.8787C30.6913 18.3161 31.4543 18 32.25 18C32.9031 18.0229 33.5352 18.2362 34.0687 18.6135C34.1528 18.6727 34.2482 18.7139 34.3489 18.7347C34.4497 18.7555 34.5536 18.7553 34.6542 18.7342C34.7549 18.7131 34.8501 18.6715 34.934 18.612C35.018 18.5526 35.0887 18.4765 35.142 18.3885C35.4483 17.8283 35.8969 17.3587 36.4425 17.0272C36.9882 16.6956 37.6116 16.5138 38.25 16.5C39.2442 16.5012 40.1973 16.8967 40.9003 17.5997C41.6033 18.3027 41.9988 19.2558 42 20.25C41.9974 20.6769 41.9229 21.1004 41.7795 21.5025C41.74 21.6156 41.7281 21.7364 41.7449 21.855C41.7616 21.9736 41.8065 22.0864 41.8759 22.1841C41.9452 22.2818 42.0369 22.3614 42.1433 22.4164C42.2497 22.4713 42.3677 22.5 42.4875 22.5H43.5C43.8978 22.5 44.2793 22.658 44.5606 22.9393C44.8419 23.2206 45 23.6022 45 24C45 24.3978 44.8419 24.7794 44.5606 25.0607C44.2793 25.342 43.8978 25.5 43.5 25.5Z" fill="white"/>
<path d="M6 10.5C6 11.2956 6.31607 12.0587 6.87868 12.6213C7.44129 13.1839 8.20435 13.5 9 13.5H11.25V18C11.25 19.5457 13.5825 20.25 15.75 20.25C17.9175 20.25 20.25 19.5457 20.25 18V13.5H24C24.7956 13.5 25.5587 13.1839 26.1213 12.6213C26.6839 12.0587 27 11.2956 27 10.5C27 9.70435 26.6839 8.94129 26.1213 8.37868C25.5587 7.81607 24.7956 7.5 24 7.5H23.9437C23.9811 7.25174 23.9999 7.00105 24 6.75C23.9984 5.3581 23.4448 4.02367 22.4606 3.03944C21.4763 2.05522 20.1419 1.50159 18.75 1.5C17.9779 1.50334 17.2171 1.68571 16.5273 2.03279C15.8376 2.37986 15.2378 2.88218 14.775 3.50025C14.1457 3.18473 13.4538 3.01382 12.75 3C11.5569 3.00119 10.413 3.47568 9.56933 4.31934C8.72568 5.16299 8.25119 6.30689 8.25 7.5V7.5945C7.60642 7.76173 7.03645 8.13765 6.62931 8.66339C6.22218 9.18914 6.00086 9.83504 6 10.5ZM15.75 11.25C16.7741 11.2652 17.7919 11.0871 18.75 10.725V11.961C18.6368 12.186 17.5988 12.7463 15.75 12.7463C13.887 12.7463 12.8445 12.1807 12.75 11.9963V10.7213C13.7078 11.0849 14.7256 11.2643 15.75 11.25ZM12.7687 9C12.9615 8.75475 13.989 8.25 15.75 8.25C17.511 8.25 18.5385 8.75475 18.7313 9C18.5385 9.24525 17.511 9.75 15.75 9.75C13.989 9.75 12.9615 9.24525 12.7687 9ZM12.75 13.7288C13.708 14.0911 14.7259 14.2692 15.75 14.2537C16.7741 14.2692 17.792 14.0911 18.75 13.7288V14.9625C18.6427 15.1875 17.6025 15.75 15.7455 15.75C13.8885 15.75 12.84 15.1845 12.7455 15L12.75 13.7288ZM15.75 18.75C13.887 18.75 12.8445 18.1845 12.75 18V16.725C13.708 17.0873 14.7259 17.2655 15.75 17.25C16.7762 17.2663 17.7961 17.0881 18.756 16.725V17.958C18.6555 18.1845 17.613 18.75 15.75 18.75ZM9 9C9.19891 9 9.38968 8.92098 9.53033 8.78033C9.67098 8.63968 9.75 8.44891 9.75 8.25V7.5C9.75 6.70435 10.0661 5.94129 10.6287 5.37868C11.1913 4.81607 11.9544 4.5 12.75 4.5C13.4031 4.52291 14.0352 4.73615 14.5687 5.1135C14.6529 5.17269 14.7482 5.21394 14.849 5.23471C14.9497 5.25547 15.0536 5.25529 15.1543 5.23419C15.2549 5.21309 15.3502 5.17151 15.4341 5.11204C15.518 5.05257 15.5887 4.97648 15.642 4.8885C15.9483 4.32828 16.3969 3.85872 16.9426 3.52716C17.4882 3.1956 18.1117 3.01377 18.75 3C19.7442 3.00119 20.6973 3.39666 21.4003 4.09966C22.1033 4.80267 22.4988 5.7558 22.5 6.75C22.4975 7.17693 22.4229 7.60037 22.2795 8.0025C22.24 8.11555 22.2281 8.23643 22.2449 8.35501C22.2616 8.47359 22.3066 8.58644 22.3759 8.6841C22.4452 8.78176 22.5369 8.8614 22.6433 8.91636C22.7497 8.97132 22.8677 9 22.9875 9H24C24.3978 9 24.7794 9.15804 25.0607 9.43934C25.342 9.72064 25.5 10.1022 25.5 10.5C25.5 10.8978 25.342 11.2794 25.0607 11.5607C24.7794 11.842 24.3978 12 24 12H20.25V9C20.25 7.45425 17.9175 6.75 15.75 6.75C13.5825 6.75 11.25 7.45425 11.25 9V12H9C8.60218 12 8.22064 11.842 7.93934 11.5607C7.65804 11.2794 7.5 10.8978 7.5 10.5C7.5 10.1022 7.65804 9.72064 7.93934 9.43934C8.22064 9.15804 8.60218 9 9 9Z" fill="white"/>
<path d="M34.5 42H29.862C29.75 41.6863 29.5696 41.4014 29.3341 41.1659C29.0986 40.9304 28.8137 40.75 28.5 40.638V32.25C28.5 32.0511 28.421 31.8603 28.2803 31.7197C28.1397 31.579 27.9489 31.5 27.75 31.5H22.5V24C22.5 23.8011 22.421 23.6103 22.2803 23.4697C22.1397 23.329 21.9489 23.25 21.75 23.25H16.5V21.75H15V24C15 24.1989 15.079 24.3897 15.2197 24.5303C15.3603 24.671 15.5511 24.75 15.75 24.75H21V32.25C21 32.4489 21.079 32.6397 21.2197 32.7803C21.3603 32.921 21.5511 33 21.75 33H27V40.638C26.6863 40.75 26.4014 40.9304 26.1659 41.1659C25.9304 41.4014 25.75 41.6863 25.638 42H17.25V43.5H25.638C25.7907 43.9384 26.0761 44.3184 26.4546 44.5873C26.833 44.8562 27.2857 45.0007 27.75 45.0007C28.2143 45.0007 28.667 44.8562 29.0454 44.5873C29.4239 44.3184 29.7093 43.9384 29.862 43.5H35.25C35.4489 43.5 35.6397 43.421 35.7803 43.2803C35.921 43.1397 36 42.9489 36 42.75V35.25H34.5V42ZM27.75 43.5C27.6017 43.5 27.4567 43.456 27.3333 43.3736C27.21 43.2912 27.1139 43.1741 27.0571 43.037C27.0003 42.9 26.9855 42.7492 27.0144 42.6037C27.0434 42.4582 27.1148 42.3246 27.2197 42.2197C27.3246 42.1148 27.4582 42.0434 27.6037 42.0144C27.7492 41.9855 27.9 42.0003 28.037 42.0571C28.1741 42.1139 28.2912 42.21 28.3736 42.3333C28.456 42.4567 28.5 42.6017 28.5 42.75C28.5 42.9489 28.421 43.1397 28.2803 43.2803C28.1397 43.421 27.9489 43.5 27.75 43.5Z" fill="white"/>
<path d="M25.5 4.5H43.5V6H25.5V4.5Z" fill="white"/>
<path d="M45 4.5H46.5V6H45V4.5Z" fill="white"/>
<path d="M4.5 4.5H7.5V6H4.5V4.5Z" fill="white"/>
<path d="M1.5 4.5H3V6H1.5V4.5Z" fill="white"/>
<path d="M45 12H46.5V13.5H45V12Z" fill="white"/>
<path d="M1.5 23.25H3V24.75H1.5V23.25Z" fill="white"/>
</svg>
