<svg width="48" height="48" viewBox="0 0 48 48" fill="none" xmlns="http://www.w3.org/2000/svg">
<path d="M31.1964 18.8083C30.7548 18.8083 30.3968 19.1663 30.3968 19.6079C30.3968 20.0495 30.7549 20.4075 31.1964 20.4075V28.2436C31.1916 28.545 30.9925 35.6975 23.5499 40.771C23.3051 40.9281 23.1649 41.2058 23.184 41.4961C23.2031 41.7864 23.3783 42.0435 23.6415 42.1673C23.9047 42.2912 24.2145 42.2623 24.4503 42.0919C32.5702 36.5595 32.7901 28.6034 32.7957 28.2548V20.4076C32.7957 19.5243 32.0797 18.8083 31.1964 18.8083Z" fill="#CB1DE8"/>
<path d="M16.8036 28.2548V20.4075H25.5992C26.0408 20.4075 26.3988 20.0495 26.3988 19.6079C26.3988 19.1663 26.0407 18.8083 25.5992 18.8083H16.8036C15.9203 18.8083 15.2043 19.5243 15.2043 20.4076V28.2549C15.4289 31.5262 16.5921 34.6634 18.5547 37.2904C18.8139 37.648 19.3141 37.7279 19.6717 37.4687C20.0294 37.2095 20.1092 36.7093 19.8501 36.3517C18.09 33.9946 17.0337 31.1873 16.8036 28.2548Z" fill="#CB1DE8"/>
<path d="M29.3629 24.54C29.0507 24.2279 28.5445 24.2279 28.2323 24.54L22.3009 30.4714L21.3669 29.5375C21.0532 29.2344 20.5544 29.2388 20.2461 29.5472C19.9376 29.8557 19.9333 30.3544 20.2363 30.6681L21.7356 32.1673C22.0478 32.4795 22.554 32.4795 22.8662 32.1673L29.3629 25.6706C29.675 25.3584 29.675 24.8522 29.3629 24.54Z" fill="#CB1DE8"/>
<path d="M44.7896 30.0028C44.2205 30.0056 43.6627 30.1623 43.1752 30.4562L41.3569 28.6378C41.207 28.4879 41.0037 28.4036 40.7916 28.4036H35.994C35.994 28.3325 35.994 28.278 35.994 28.2549V25.2052H41.7047C42.1074 26.7647 43.6068 27.7815 45.2046 27.5785C46.8023 27.3756 47.9999 26.0162 47.9999 24.4057C47.9999 22.7951 46.8023 21.4357 45.2046 21.2328C43.6068 21.0298 42.1074 22.0466 41.7047 23.6061H35.994V20.4077H40.7916C41.0037 20.4077 41.207 20.3234 41.3569 20.1735L43.1752 18.3551C43.6627 18.6491 44.2205 18.8058 44.7896 18.8085C46.556 18.8085 47.988 17.3765 47.988 15.6101C47.988 13.8437 46.556 12.4117 44.7896 12.4117C43.0232 12.4117 41.5913 13.8437 41.5913 15.6101C41.5941 16.1793 41.7508 16.7371 42.0446 17.2245L40.4606 18.8086H35.994V18.009C35.994 16.6842 34.9201 15.6102 33.5952 15.6102H29.5972V11.9432L33.58 7.96037C34.0675 8.25432 34.6253 8.41099 35.1944 8.41371C36.9608 8.41371 38.3928 6.98174 38.3928 5.21534C38.3928 3.44894 36.9608 2.01697 35.1944 2.01697C33.428 2.01697 31.9961 3.44894 31.9961 5.21534C31.9989 5.78449 32.1555 6.34231 32.4494 6.82975L28.2323 11.0469C28.0824 11.1968 27.998 11.4001 27.998 11.6122V15.6102H24.7997V8.30005C26.3592 7.89741 27.3759 6.39797 27.173 4.80024C26.97 3.2025 25.6107 2.00488 24.0001 2.00488C22.3895 2.00488 21.0302 3.2025 20.8272 4.80024C20.6243 6.39797 21.641 7.89741 23.2005 8.30005V15.61H20.0022V11.612C20.0022 11.3999 19.9178 11.1966 19.7679 11.0467L15.5508 6.82956C15.8447 6.34212 16.0014 5.78431 16.0041 5.21515C16.0041 3.44876 14.5722 2.01678 12.8058 2.01678C11.0394 2.01678 9.60738 3.44876 9.60738 5.21515C9.60738 6.98155 11.0394 8.41352 12.8058 8.41352C13.3749 8.41071 13.9327 8.25404 14.4202 7.96019L18.403 11.943V15.61H14.405C13.0801 15.61 12.0062 16.684 12.0062 18.0088V18.8084H7.53945L5.9554 17.2243C6.24934 16.7369 6.40602 16.1791 6.40873 15.6099C6.40873 13.8435 4.97676 12.4116 3.21036 12.4116C1.44397 12.4116 0.011994 13.8436 0.011994 15.61C0.011994 17.3764 1.44397 18.8084 3.21036 18.8084C3.77952 18.8056 4.33733 18.6489 4.82478 18.3551L6.64308 20.1734C6.79301 20.3233 6.99635 20.4076 7.2084 20.4076H12.006V23.606H6.29526C5.89262 22.0465 4.39318 21.0297 2.79545 21.2327C1.19771 21.4356 0 22.795 0 24.4056C0 26.0161 1.19762 27.3755 2.79535 27.5784C4.39309 27.7814 5.89252 26.7646 6.29517 25.2051H12.0059V28.2548C12.0059 28.2779 12.0059 28.3347 12.0059 28.4035H7.2083C6.99625 28.4035 6.79292 28.4878 6.64299 28.6378L4.82478 30.4562C4.33733 30.1622 3.77952 30.0055 3.21036 30.0028C1.44397 30.0028 0.011994 31.4348 0.011994 33.2012C0.011994 34.9676 1.44397 36.3996 3.21036 36.3996C4.97676 36.3996 6.40873 34.9676 6.40873 33.2012C6.40592 32.632 6.24925 32.0742 5.9554 31.5868L7.53945 30.0027H12.1659C13.1029 35.8435 16.3924 41.0453 21.2678 44.3955H18.4028C17.9612 44.3955 17.6033 44.7535 17.6033 45.1951C17.6033 45.6367 17.9612 45.9947 18.4028 45.9947H29.5973C30.0389 45.9947 30.3968 45.6367 30.3968 45.1951C30.3968 44.7535 30.0389 44.3955 29.5973 44.3955H26.7323C31.6077 41.0453 34.8972 35.8435 35.8341 30.0027H40.4575L42.0414 31.5868C41.7486 32.0745 41.593 32.6323 41.5913 33.2012C41.5913 34.9676 43.0232 36.3996 44.7896 36.3996C46.556 36.3996 47.988 34.9676 47.988 33.2012C47.988 31.4348 46.556 30.0028 44.7896 30.0028ZM44.7896 22.8064C45.6729 22.8064 46.3889 23.5224 46.3889 24.4057C46.3889 25.2889 45.6729 26.0049 44.7896 26.0049C43.9064 26.0049 43.1904 25.2889 43.1904 24.4057C43.1904 23.5224 43.9064 22.8064 44.7896 22.8064ZM43.3129 14.999C43.56 14.4012 44.1428 14.0113 44.7896 14.0108C45.5135 14.0103 46.1474 14.496 46.3352 15.1951C46.523 15.8941 46.2179 16.6322 45.5912 16.9945C44.9645 17.3567 44.1727 17.253 43.6605 16.7415C43.203 16.2843 43.0658 15.5966 43.3129 14.999ZM33.7177 4.60411C33.9648 4.00638 34.5476 3.61639 35.1944 3.61592C35.9183 3.61536 36.5522 4.10112 36.74 4.80024C36.9278 5.49926 36.6227 6.23736 35.996 6.59962C35.3693 6.96187 34.5775 6.85814 34.0653 6.34662C33.6078 5.88953 33.4706 5.20185 33.7177 4.60411ZM13.937 6.34428C13.4799 6.80183 12.7923 6.9391 12.1945 6.69191C11.5968 6.44482 11.2068 5.86199 11.2063 5.21515C11.2059 4.4913 11.6915 3.85739 12.3906 3.66961C13.0897 3.48183 13.8278 3.78693 14.19 4.41362C14.5524 5.04021 14.4486 5.83209 13.937 6.34428ZM4.34183 16.739C3.88475 17.1966 3.19706 17.3339 2.59933 17.0867C2.00159 16.8396 1.6116 16.2568 1.61113 15.6099C1.61066 14.8861 2.09633 14.2522 2.79545 14.0644C3.49447 13.8766 4.23257 14.1817 4.59483 14.8084C4.95718 15.4351 4.85335 16.227 4.34183 16.739ZM3.21036 26.0048C2.32712 26.0048 1.61113 25.2888 1.61113 24.4056C1.61113 23.5223 2.32712 22.8063 3.21036 22.8063C4.09361 22.8063 4.8096 23.5223 4.8096 24.4056C4.8096 25.2888 4.09361 26.0048 3.21036 26.0048ZM4.68713 33.8122C4.44003 34.41 3.8572 34.8 3.21036 34.8004C2.48651 34.8009 1.8526 34.3152 1.66482 33.6161C1.47704 32.9171 1.78214 32.179 2.40883 31.8167C3.03551 31.4544 3.82731 31.5582 4.33949 32.0697C4.79704 32.5268 4.93422 33.2146 4.68713 33.8122ZM22.4008 5.21515C22.4008 4.33191 23.1168 3.61592 24 3.61592C24.8832 3.61592 25.5992 4.33191 25.5992 5.21515C25.5992 6.0984 24.8832 6.81438 24 6.81438C23.1168 6.81438 22.4008 6.0984 22.4008 5.21515ZM34.3948 28.254C34.3948 28.6627 34.2404 38.2227 24 44.2717C13.7595 38.2227 13.6052 28.6627 13.6052 28.2549V18.0088C13.6052 17.5672 13.9633 17.2093 14.4048 17.2093H33.5952C34.0368 17.2093 34.3948 17.5672 34.3948 18.0088V28.254ZM45.2046 34.7467C44.5055 34.9345 43.7674 34.6294 43.4052 34.0027C43.0429 33.376 43.1466 32.5843 43.6582 32.0721C44.1153 31.6145 44.8029 31.4772 45.4007 31.7244C45.9984 31.9715 46.3884 32.5544 46.3889 33.2012C46.3893 33.9251 45.9036 34.559 45.2046 34.7467Z" fill="#CB1DE8"/>
</svg>
