<svg width="53" height="19" viewBox="0 0 53 19" fill="none" xmlns="http://www.w3.org/2000/svg">
<path d="M1.488 11.408C1.488 12.288 1.12 13.744 1.12 14.912C1.12 16.912 2.464 18.016 4.464 18.016H5.648V15.472H5.072C4.368 15.472 4.112 15.152 4.112 14.592C4.112 13.824 4.384 12.288 4.384 11.28C4.384 10.096 3.856 9.248 2.672 9.024V8.992C3.856 8.768 4.384 7.92 4.384 6.736C4.384 5.728 4.112 4.192 4.112 3.44C4.112 2.864 4.368 2.544 5.072 2.544H5.648V0H4.464C2.464 0 1.12 1.104 1.12 3.104C1.12 4.272 1.488 5.728 1.488 6.624C1.488 7.328 1.088 7.712 0 7.728V10.272C1.088 10.304 1.488 10.736 1.488 11.408Z" fill="#1D66FF"/>
<path d="M13.523 6.992C13.523 7.76 13.091 8.176 12.243 8.176H10.691V5.824H12.243C13.091 5.824 13.523 6.288 13.523 6.992ZM7.555 3.2V14.48H10.691V10.32H11.027L13.267 14.48H16.771L14.227 10.08C15.907 9.568 16.707 8.288 16.707 6.816C16.707 4.8 15.299 3.2 12.499 3.2H7.555Z" fill="#1D66FF"/>
<path d="M25.3491 3.2H18.1331V14.48H25.3491V11.968H21.2691V9.936H24.8691V7.552H21.2691V5.712H25.3491V3.2Z" fill="#1D66FF"/>
<path d="M35.3628 11.056C35.3628 7.44 29.9387 7.984 29.9387 6.304C29.9387 5.76 30.3068 5.488 30.7708 5.504C31.3468 5.504 31.7787 5.824 31.8107 6.528H35.2188C35.1068 4.288 33.4108 3.024 30.8188 3.024C28.4347 3.024 26.5947 4.208 26.5947 6.416C26.5467 10.336 32.0188 9.488 32.0348 11.296C32.0348 11.824 31.6028 12.112 31.0428 12.112C30.4668 12.112 29.9707 11.824 29.9067 10.976H26.5627C26.6908 13.392 28.6427 14.592 31.1548 14.592C33.8268 14.592 35.3628 13.04 35.3628 11.056Z" fill="#1D66FF"/>
<path d="M36.1966 5.696H39.1726V14.48H42.3086V5.696H45.3166V3.2H36.1966V5.696Z" fill="#1D66FF"/>
<path d="M50.7489 11.408C50.7489 12.288 51.1169 13.744 51.1169 14.912C51.1169 16.912 49.7729 18.016 47.7729 18.016H46.5889V15.472H47.1649C47.8689 15.472 48.1249 15.152 48.1249 14.592C48.1249 13.824 47.8529 12.288 47.8529 11.28C47.8529 10.096 48.3809 9.248 49.5649 9.024V8.992C48.3809 8.768 47.8529 7.92 47.8529 6.736C47.8529 5.728 48.1249 4.192 48.1249 3.44C48.1249 2.864 47.8689 2.544 47.1649 2.544H46.5889V0H47.7729C49.7729 0 51.1169 1.104 51.1169 3.104C51.1169 4.272 50.7489 5.728 50.7489 6.624C50.7489 7.328 51.1489 7.712 52.2369 7.728V10.272C51.1489 10.304 50.7489 10.736 50.7489 11.408Z" fill="#1D66FF"/>
</svg>
