<svg width="48" height="37" viewBox="0 0 48 37" fill="none" xmlns="http://www.w3.org/2000/svg">
<path d="M15.309 8.33792V35.0831C15.309 35.5906 15.1073 36.0774 14.7485 36.4363C14.3896 36.7951 13.9029 36.9967 13.3953 36.9967C12.8878 36.9967 12.4011 36.7951 12.0422 36.4363C11.6833 36.0774 11.4817 35.5906 11.4817 35.0831V8.33792L13.3953 6.42431L15.309 8.33792ZM26.2302 14.7485C26.4079 14.5708 26.5488 14.3599 26.645 14.1277C26.7412 13.8955 26.7907 13.6467 26.7907 13.3954C26.7907 13.144 26.7412 12.8952 26.645 12.663C26.5488 12.4309 26.4079 12.2199 26.2302 12.0422L14.7485 0.560519C14.5708 0.382813 14.3598 0.241849 14.1277 0.145674C13.8955 0.0495003 13.6466 0 13.3953 0C13.144 0 12.8952 0.0495003 12.663 0.145674C12.4308 0.241849 12.2199 0.382813 12.0422 0.560519L0.560499 12.0422C0.201617 12.4011 0 12.8878 0 13.3954C0 13.9029 0.201617 14.3896 0.560499 14.7485C0.91938 15.1074 1.40613 15.309 1.91366 15.309C2.4212 15.309 2.90794 15.1074 3.26682 14.7485L13.3953 4.62009L23.5238 14.7487C23.7015 14.9264 23.9125 15.0673 24.1447 15.1635C24.3769 15.2597 24.6257 15.3092 24.877 15.3092C25.1283 15.3092 25.3772 15.2597 25.6093 15.1635C25.8415 15.0673 26.0525 14.9264 26.2302 14.7487V14.7485Z" fill="#11CE7F"/>
<path d="M32.691 28.6592V1.91394C32.691 1.40642 32.8927 0.919689 33.2515 0.560818C33.6104 0.201946 34.0971 0.000331879 34.6047 0.000331879C35.1122 0.000331879 35.5989 0.201946 35.9578 0.560818C36.3167 0.919689 36.5183 1.40642 36.5183 1.91394V28.6592L34.6047 30.5728L32.691 28.6592ZM21.7698 22.2486C21.5921 22.4262 21.4512 22.6372 21.355 22.8694C21.2588 23.1016 21.2093 23.3504 21.2093 23.6017C21.2093 23.853 21.2588 24.1019 21.355 24.334C21.4512 24.5662 21.5921 24.7772 21.7698 24.9549L33.2515 36.4366C33.4292 36.6143 33.6402 36.7552 33.8723 36.8514C34.1045 36.9476 34.3534 36.9971 34.6047 36.9971C34.856 36.9971 35.1048 36.9476 35.337 36.8514C35.5692 36.7552 35.7801 36.6143 35.9578 36.4366L47.4395 24.9549C47.7984 24.596 48 24.1092 48 23.6017C48 23.0942 47.7984 22.6074 47.4395 22.2486C47.0806 21.8897 46.5939 21.6881 46.0863 21.6881C45.5788 21.6881 45.0921 21.8897 44.7332 22.2486L34.6047 32.377L24.4762 22.2484C24.2985 22.0707 24.0875 21.9297 23.8553 21.8335C23.6231 21.7374 23.3743 21.6879 23.123 21.6879C22.8717 21.6879 22.6228 21.7374 22.3907 21.8335C22.1585 21.9297 21.9475 22.0707 21.7698 22.2484V22.2486Z" fill="#11CE7F"/>
</svg>
