<svg width="973" height="474" viewBox="0 0 973 474" fill="none" xmlns="http://www.w3.org/2000/svg">
<g filter="url(#filter0_d)">
<rect x="295" y="246" width="200" height="200" rx="25" fill="white"/>
</g>
<path d="M396 419C434.66 419 466 387.66 466 349C466 310.34 434.66 279 396 279C357.34 279 326 310.34 326 349C326 387.66 357.34 419 396 419Z" fill="#1D66FF"/>
<path fill-rule="evenodd" clip-rule="evenodd" d="M435.818 339.43C435.818 345.82 430.638 351 424.248 351H420V363.727H424.248C430.638 363.727 435.818 368.908 435.818 375.298C435.818 375.937 435.3 376.455 434.661 376.455H419.273H399.455C398.45 376.455 397.636 375.641 397.636 374.637V364.455V350.273V340.091C397.636 339.087 398.45 338.273 399.455 338.273H419.273H434.661C435.3 338.273 435.818 338.791 435.818 339.43Z" fill="white"/>
<path fill-rule="evenodd" clip-rule="evenodd" d="M392.843 338.273C393.482 338.273 394 338.791 394 339.43V364.455V375.727C394 376.129 393.674 376.455 393.273 376.455H382H356.975C356.336 376.455 355.818 375.937 355.818 375.298C355.818 368.908 360.998 363.727 367.389 363.727H368C375.33 363.727 381.273 357.785 381.273 350.455V349.843C381.273 343.453 386.453 338.273 392.843 338.273Z" fill="white"/>
<path fill-rule="evenodd" clip-rule="evenodd" d="M403.273 322.703C403.273 329.093 398.093 334.273 391.702 334.273H391.091C383.764 334.273 377.824 340.209 377.818 347.535V348.157C377.818 354.547 372.638 359.727 366.248 359.727C365.609 359.727 365.091 359.209 365.091 358.57V333.545V323.364C365.091 322.359 365.905 321.545 366.909 321.545H377.091H402.116C402.755 321.545 403.273 322.063 403.273 322.703Z" fill="white"/>
<path d="M410.909 357.364C410.909 353.849 413.758 351 417.273 351H423.818V363.727H417.273C413.758 363.727 410.909 360.878 410.909 357.364Z" fill="#1D66FF"/>
<line x1="118.012" y1="351" x2="282.019" y2="351.988" stroke="#CB1DE8" stroke-width="4"/>
<path d="M116.5 330C130.5 335 173.7 345.1 234.5 345.5H282" stroke="#CB1DE8" stroke-width="4"/>
<path d="M117 307C127.468 317.264 164.157 338.034 227.166 339H282" stroke="#C80EE7" stroke-width="4"/>
<path d="M116.5 373.5C130.5 368.5 173.7 358.4 234.5 358H282" stroke="#C80EE7" stroke-width="4"/>
<path d="M117 396.5C127.468 386.236 164.157 365.466 227.166 364.5H282" stroke="#C80EE7" stroke-width="4"/>
<line y1="-2" x2="91.8509" y2="-2" transform="matrix(-0.0107561 0.999942 -0.999994 -0.0033734 391.024 130)" stroke="#CB1DE8" stroke-width="4"/>
<line y1="-2" x2="12.7957" y2="-2" transform="matrix(0.707107 0.707107 -0.972376 0.233421 382 215.35)" stroke="#CB1DE8" stroke-width="4"/>
<line y1="-2" x2="12.7957" y2="-2" transform="matrix(-0.707107 0.707107 0.972376 0.233421 402.048 215.35)" stroke="#CB1DE8" stroke-width="4"/>
<line x1="509.012" y1="350" x2="673.019" y2="350.988" stroke="#CB1DE8" stroke-width="4"/>
<line x1="662.49" y1="360.668" x2="673.654" y2="349.504" stroke="#CB1DE8" stroke-width="4"/>
<line y1="-2" x2="15.7887" y2="-2" transform="matrix(0.707107 0.707107 0.707107 -0.707107 663.904 337.918)" stroke="#CB1DE8" stroke-width="4"/>
<circle cx="822" cy="330" r="120" fill="#F3F4F6"/>
<g filter="url(#filter1_d)">
<rect x="742" y="370" width="100" height="100" rx="25" fill="white"/>
</g>
<g clip-path="url(#clip0)">
<path d="M790.213 417.228L768.651 408.15C768.342 408.019 768 408.246 768 408.582V432.853C768 433.467 768.373 434.018 768.943 434.246L789.857 442.612C790.165 442.735 790.5 442.508 790.5 442.176V417.66C790.5 417.472 790.387 417.302 790.213 417.228Z" fill="#28BDB8"/>
<path d="M792.182 414.649L813.024 405.874C813.399 405.716 813.409 405.189 813.04 405.017L792.634 395.494C792.232 395.307 791.768 395.307 791.366 395.494L770.96 405.017C770.591 405.189 770.602 405.716 770.976 405.874L791.818 414.649C791.934 414.698 792.066 414.698 792.182 414.649Z" fill="#43A3BD"/>
<path d="M793.5 417.66V442.176C793.5 442.508 793.835 442.735 794.143 442.612L815.057 434.246C815.626 434.018 816 433.467 816 432.853V408.582C816 408.246 815.658 408.019 815.349 408.15L793.787 417.228C793.613 417.302 793.5 417.472 793.5 417.66Z" fill="#38AFBB"/>
</g>
<g filter="url(#filter2_d)">
<rect x="869" y="280" width="100" height="100" rx="25" fill="white"/>
</g>
<path d="M906.976 353.297H937.036C937.451 353.297 937.788 352.961 937.788 352.546V313.467C937.788 313.052 937.451 312.715 937.036 312.715H906.976C906.561 312.715 906.224 313.052 906.224 313.467V352.546C906.224 352.961 906.561 353.297 906.976 353.297Z" fill="#EDEBED"/>
<path d="M903.97 350.291H934.03C934.445 350.291 934.782 349.955 934.782 349.54V310.461C934.782 310.046 934.445 309.709 934.03 309.709H903.97C903.555 309.709 903.218 310.046 903.218 310.461V349.54C903.218 349.955 903.555 350.291 903.97 350.291Z" fill="#F5DCB4"/>
<path d="M931.024 347.285H900.964C900.549 347.285 900.212 346.948 900.212 346.533V307.455C900.212 307.04 900.549 306.703 900.964 306.703H924.389C924.788 306.703 925.17 306.861 925.452 307.143L931.336 313.027C931.617 313.308 931.776 313.691 931.776 314.089V346.533C931.776 346.948 931.439 347.285 931.024 347.285Z" fill="#EDEBED"/>
<path d="M925.012 314.218C924.597 314.218 924.261 313.882 924.261 313.467V306.703H922.006V313.467C922.006 315.127 923.352 316.473 925.012 316.473H931.776V314.218H925.012Z" fill="#DBD9DC"/>
<path d="M906.224 319.431H907.727C908.116 319.431 908.43 319.116 908.43 318.728C908.43 318.339 908.116 318.024 907.727 318.024H906.224C905.836 318.024 905.521 318.339 905.521 318.728C905.521 319.116 905.836 319.431 906.224 319.431Z" fill="black"/>
<path d="M925.764 318.024H910.733C910.345 318.024 910.03 318.339 910.03 318.728C910.03 319.116 910.345 319.431 910.733 319.431H925.764C926.152 319.431 926.467 319.116 926.467 318.728C926.467 318.339 926.152 318.024 925.764 318.024Z" fill="black"/>
<path d="M906.224 330.703H907.727C908.116 330.703 908.43 330.388 908.43 330C908.43 329.612 908.116 329.297 907.727 329.297H906.224C905.836 329.297 905.521 329.612 905.521 330C905.521 330.388 905.836 330.703 906.224 330.703Z" fill="black"/>
<path d="M925.764 329.297H910.733C910.345 329.297 910.03 329.612 910.03 330C910.03 330.388 910.345 330.703 910.733 330.703H925.764C926.152 330.703 926.467 330.388 926.467 330C926.467 329.612 926.152 329.297 925.764 329.297Z" fill="black"/>
<path d="M925.764 321.782H906.224C905.836 321.782 905.521 322.097 905.521 322.485C905.521 322.873 905.836 323.188 906.224 323.188H925.764C926.152 323.188 926.467 322.873 926.467 322.485C926.467 322.097 926.152 321.782 925.764 321.782Z" fill="black"/>
<path d="M925.764 325.54H906.224C905.836 325.54 905.521 325.854 905.521 326.243C905.521 326.631 905.836 326.946 906.224 326.946H925.764C926.152 326.946 926.467 326.631 926.467 326.243C926.467 325.854 926.152 325.54 925.764 325.54Z" fill="black"/>
<path d="M925.764 333.055H906.224C905.836 333.055 905.521 333.37 905.521 333.758C905.521 334.146 905.836 334.461 906.224 334.461H925.764C926.152 334.461 926.467 334.146 926.467 333.758C926.467 333.37 926.152 333.055 925.764 333.055Z" fill="black"/>
<path d="M925.764 336.812H906.224C905.836 336.812 905.521 337.127 905.521 337.515C905.521 337.903 905.836 338.218 906.224 338.218H925.764C926.152 338.218 926.467 337.903 926.467 337.515C926.467 337.127 926.152 336.812 925.764 336.812Z" fill="black"/>
<path d="M934.782 316.521C934.393 316.521 934.079 316.835 934.079 317.224V349.539C934.079 349.566 934.057 349.588 934.03 349.588H910.733C910.345 349.588 910.03 349.902 910.03 350.291C910.03 350.679 910.345 350.994 910.733 350.994H934.03C934.832 350.994 935.485 350.341 935.485 349.539V317.224C935.485 316.835 935.17 316.521 934.782 316.521Z" fill="black"/>
<path d="M937.036 312.012H935.485V310.461C935.485 309.659 934.832 309.006 934.03 309.006H928.309L925.949 306.646C925.533 306.23 924.979 306 924.389 306H900.964C900.162 306 899.509 306.653 899.509 307.455V346.533C899.509 347.335 900.162 347.988 900.964 347.988H902.515V349.539C902.515 350.341 903.168 350.994 903.97 350.994H905.521V352.545C905.521 353.347 906.174 354 906.976 354H937.036C937.838 354 938.491 353.347 938.491 352.545V313.467C938.491 312.665 937.838 312.012 937.036 312.012ZM930.83 313.515H925.012C924.985 313.515 924.964 313.493 924.964 313.467V307.649L930.83 313.515ZM900.915 346.533V307.455C900.915 307.428 900.937 307.406 900.964 307.406H923.557V313.467C923.557 314.269 924.21 314.921 925.012 314.921H931.073V346.533C931.073 346.56 931.051 346.582 931.024 346.582H900.964C900.937 346.582 900.915 346.56 900.915 346.533ZM937.085 352.545C937.085 352.572 937.063 352.594 937.036 352.594H906.976C906.949 352.594 906.927 352.572 906.927 352.545V350.994H907.727C908.116 350.994 908.431 350.679 908.431 350.291C908.431 349.903 908.116 349.588 907.727 349.588H903.97C903.943 349.588 903.921 349.566 903.921 349.539V347.988H931.024C931.826 347.988 932.479 347.336 932.479 346.533V314.089C932.479 313.5 932.249 312.946 931.833 312.529L929.716 310.412H934.03C934.057 310.412 934.079 310.434 934.079 310.461V314.218C934.079 314.606 934.393 314.921 934.782 314.921C935.17 314.921 935.485 314.606 935.485 314.218V313.418H937.036C937.063 313.418 937.085 313.44 937.085 313.467V352.545Z" fill="black"/>
<g filter="url(#filter3_d)">
<rect x="678" y="213" width="100" height="100" rx="25" fill="white"/>
</g>
<path d="M728 251.414C738.97 251.414 747.862 248.82 747.862 245.621C747.862 242.421 738.97 239.828 728 239.828C717.03 239.828 708.138 242.421 708.138 245.621C708.138 248.82 717.03 251.414 728 251.414Z" fill="#BDDBFF"/>
<path d="M728 263C738.966 263 747.862 260.41 747.862 257.207V245.621C747.862 248.823 738.966 251.414 728 251.414C717.034 251.414 708.138 248.823 708.138 245.621V257.207C708.138 260.41 717.034 263 728 263Z" fill="#9BC9FF"/>
<path d="M728 274.586C738.966 274.586 747.862 271.996 747.862 268.793V257.207C747.862 260.41 738.966 263 728 263C717.034 263 708.138 260.41 708.138 257.207V268.793C708.138 271.996 717.034 274.586 728 274.586Z" fill="#57A4FF"/>
<path d="M747.862 268.793C747.862 271.996 738.966 274.586 728 274.586C717.034 274.586 708.138 271.996 708.138 268.793V280.379C708.138 283.582 717.034 286.172 728 286.172C738.966 286.172 747.862 283.582 747.862 280.379V268.793Z" fill="#2488FF"/>
<path d="M728 239C717.97 239 707.31 241.317 707.31 245.621V280.379C707.31 284.683 717.97 287 728 287C738.03 287 748.69 284.683 748.69 280.379V245.621C748.69 241.317 738.03 239 728 239ZM747.035 259.933V268.793C747.035 270.866 739.793 273.759 728 273.759C716.207 273.759 708.966 270.866 708.966 268.793V259.933C708.985 259.948 709.009 259.961 709.028 259.976C709.216 260.114 709.414 260.249 709.628 260.381C709.662 260.401 709.699 260.421 709.733 260.442C709.926 260.556 710.129 260.668 710.341 260.777L710.514 260.866C710.758 260.987 711.011 261.105 711.279 261.219L711.437 261.284C711.672 261.381 711.914 261.476 712.164 261.567L712.369 261.643C712.661 261.747 712.962 261.847 713.273 261.944L713.483 262.007C713.753 262.09 714.029 262.167 714.31 262.244C714.385 262.263 714.457 262.284 714.532 262.303C714.863 262.391 715.204 262.474 715.556 262.551C715.638 262.57 715.721 262.588 715.804 262.606C716.108 262.674 716.418 262.739 716.732 262.801L716.953 262.845C717.319 262.916 717.692 262.982 718.071 263.045C718.163 263.06 718.256 263.074 718.349 263.089C718.68 263.143 719.02 263.194 719.362 263.242L719.566 263.271C719.958 263.327 720.354 263.376 720.755 263.42L721.056 263.453C721.423 263.492 721.791 263.529 722.162 263.564L722.313 263.578C722.727 263.614 723.14 263.645 723.554 263.673L723.864 263.694C724.258 263.718 724.652 263.74 725.047 263.758L725.146 263.763C725.568 263.781 725.99 263.795 726.413 263.804L726.722 263.811C727.148 263.819 727.575 263.825 728 263.825C728.425 263.825 728.852 263.819 729.278 263.811L729.587 263.804C730.011 263.794 730.433 263.781 730.854 263.763L730.953 263.758C731.348 263.74 731.743 263.718 732.136 263.694L732.446 263.673C732.86 263.645 733.273 263.614 733.687 263.578L733.838 263.564C734.21 263.53 734.579 263.493 734.944 263.453L735.246 263.42C735.646 263.373 736.042 263.324 736.434 263.271L736.638 263.242C736.98 263.194 737.317 263.143 737.651 263.089C737.744 263.074 737.838 263.06 737.929 263.045C738.308 262.982 738.681 262.915 739.047 262.845L739.268 262.801C739.582 262.739 739.892 262.674 740.196 262.606C740.279 262.588 740.362 262.57 740.444 262.551C740.794 262.472 741.135 262.389 741.468 262.303C741.543 262.284 741.615 262.263 741.69 262.244C741.973 262.167 742.249 262.088 742.518 262.007L742.727 261.944C743.038 261.847 743.34 261.747 743.631 261.643L743.836 261.567C744.086 261.476 744.328 261.381 744.563 261.284L744.721 261.219C744.988 261.105 745.242 260.987 745.486 260.866L745.659 260.777C745.871 260.668 746.073 260.556 746.267 260.442C746.301 260.421 746.339 260.401 746.372 260.381C746.586 260.249 746.786 260.114 746.972 259.976C746.991 259.961 747.015 259.948 747.035 259.933ZM747.035 248.347V257.207C747.035 259.276 739.793 262.172 728 262.172C716.207 262.172 708.966 259.276 708.966 257.207V248.347C708.985 248.362 709.009 248.375 709.028 248.39C709.216 248.528 709.414 248.663 709.628 248.794C709.662 248.815 709.699 248.835 709.733 248.856C709.926 248.97 710.129 249.082 710.341 249.187L710.514 249.276C710.758 249.397 711.011 249.514 711.279 249.629L711.437 249.693C711.672 249.791 711.914 249.886 712.164 249.977L712.369 250.052C712.661 250.156 712.962 250.257 713.273 250.354L713.483 250.417C713.753 250.499 714.029 250.576 714.31 250.653C714.385 250.673 714.457 250.694 714.532 250.713C714.863 250.801 715.204 250.883 715.556 250.961C715.638 250.98 715.721 250.998 715.804 251.016C716.108 251.084 716.418 251.149 716.732 251.211L716.953 251.255C717.319 251.326 717.692 251.392 718.071 251.454C718.163 251.47 718.256 251.484 718.349 251.499C718.68 251.553 719.02 251.604 719.362 251.652L719.566 251.681C719.958 251.736 720.354 251.786 720.755 251.829L721.056 251.862C721.423 251.902 721.791 251.939 722.162 251.973L722.313 251.987C722.727 252.024 723.14 252.054 723.554 252.082L723.864 252.103C724.258 252.128 724.652 252.15 725.047 252.168L725.146 252.173C725.568 252.191 725.99 252.205 726.413 252.214L726.722 252.221C727.148 252.229 727.575 252.235 728 252.235C728.425 252.235 728.852 252.229 729.278 252.221L729.587 252.214C730.011 252.204 730.433 252.19 730.854 252.173L730.953 252.168C731.348 252.15 731.743 252.128 732.136 252.103L732.446 252.082C732.86 252.054 733.273 252.024 733.687 251.987L733.838 251.973C734.21 251.94 734.579 251.903 734.944 251.862L735.246 251.829C735.646 251.783 736.042 251.734 736.434 251.681L736.638 251.652C736.98 251.604 737.317 251.553 737.651 251.499C737.744 251.484 737.838 251.47 737.929 251.454C738.308 251.391 738.681 251.325 739.047 251.255L739.268 251.211C739.582 251.149 739.892 251.084 740.196 251.016C740.279 250.998 740.362 250.98 740.444 250.961C740.794 250.882 741.135 250.799 741.468 250.713C741.543 250.694 741.615 250.673 741.69 250.653C741.973 250.576 742.249 250.498 742.518 250.417L742.727 250.354C743.038 250.257 743.34 250.156 743.631 250.052L743.836 249.977C744.086 249.886 744.328 249.791 744.563 249.693L744.721 249.629C744.988 249.514 745.242 249.397 745.486 249.276L745.659 249.187C745.871 249.078 746.073 248.966 746.267 248.856C746.301 248.835 746.339 248.815 746.372 248.794C746.586 248.663 746.786 248.528 746.972 248.39C746.991 248.375 747.015 248.362 747.035 248.347ZM728 240.655C739.793 240.655 747.035 243.548 747.035 245.621C747.035 247.694 739.793 250.586 728 250.586C716.207 250.586 708.966 247.694 708.966 245.621C708.966 243.548 716.207 240.655 728 240.655ZM747.035 280.379C747.035 282.452 739.793 285.345 728 285.345C716.207 285.345 708.966 282.452 708.966 280.379V271.519C708.985 271.534 709.009 271.547 709.028 271.562C709.216 271.7 709.414 271.835 709.628 271.967C709.662 271.988 709.699 272.007 709.733 272.028C709.926 272.142 710.129 272.254 710.341 272.363L710.514 272.453C710.758 272.574 711.011 272.691 711.279 272.805L711.437 272.87C711.672 272.967 711.914 273.062 712.164 273.154L712.369 273.229C712.661 273.333 712.962 273.433 713.273 273.53L713.483 273.593C713.753 273.676 714.029 273.753 714.31 273.83C714.385 273.85 714.457 273.87 714.532 273.889C714.863 273.977 715.204 274.06 715.556 274.138C715.638 274.157 715.721 274.174 715.804 274.192C716.108 274.26 716.418 274.325 716.732 274.388L716.953 274.431C717.319 274.501 717.692 274.568 718.071 274.631C718.163 274.647 718.256 274.661 718.349 274.676C718.68 274.729 719.02 274.781 719.362 274.829L719.566 274.858C719.958 274.913 720.354 274.962 720.755 275.006L721.056 275.039C721.423 275.079 721.791 275.116 722.162 275.15L722.313 275.164C722.727 275.2 723.14 275.231 723.554 275.259L723.864 275.28C724.258 275.305 724.652 275.326 725.047 275.344L725.146 275.349C725.568 275.367 725.99 275.381 726.413 275.391L726.722 275.397C727.148 275.406 727.575 275.411 728 275.411C728.425 275.411 728.852 275.406 729.278 275.397L729.587 275.391C730.011 275.381 730.433 275.367 730.854 275.349L730.953 275.344C731.348 275.326 731.743 275.305 732.136 275.28L732.446 275.259C732.86 275.231 733.273 275.2 733.687 275.164L733.838 275.15C734.21 275.116 734.579 275.079 734.944 275.039L735.246 275.006C735.646 274.959 736.042 274.91 736.434 274.858L736.638 274.829C736.98 274.781 737.317 274.729 737.651 274.676C737.744 274.661 737.838 274.647 737.929 274.631C738.308 274.568 738.681 274.501 739.047 274.431L739.268 274.388C739.582 274.326 739.892 274.261 740.196 274.192C740.279 274.174 740.362 274.157 740.444 274.138C740.794 274.058 741.135 273.975 741.468 273.889C741.543 273.87 741.615 273.85 741.69 273.83C741.973 273.753 742.249 273.674 742.518 273.593L742.727 273.53C743.038 273.434 743.34 273.333 743.631 273.229L743.836 273.154C744.086 273.062 744.328 272.967 744.563 272.87L744.721 272.805C744.988 272.691 745.242 272.574 745.486 272.453L745.659 272.363C745.871 272.254 746.073 272.142 746.267 272.028C746.301 272.007 746.339 271.988 746.372 271.967C746.586 271.835 746.786 271.7 746.972 271.562C746.991 271.547 747.015 271.534 747.035 271.519V280.379Z" fill="#231F20"/>
<g clip-path="url(#clip1)">
<path d="M603.08 342.25V336.615C603.08 331.048 598.567 326.535 593 326.535C587.433 326.535 582.92 331.048 582.92 336.615V342.25H603.08ZM586.555 342.25V336.615C586.555 333.061 589.446 330.17 593 330.17C596.554 330.17 599.445 333.061 599.445 336.615V342.25" fill="#D3DAE0"/>
<path d="M593.588 326.552C593.394 326.541 593.198 326.535 593 326.535C587.433 326.535 582.92 331.048 582.92 336.615V342.25H584.096V336.615C584.096 331.245 588.295 326.857 593.588 326.552Z" fill="#899EA8"/>
<path d="M594.176 330.17C593.978 330.17 593.782 330.179 593.588 330.197C596.867 330.495 599.445 333.259 599.445 336.615V342.25H600.621V336.615C600.621 333.061 597.73 330.17 594.176 330.17Z" fill="#899EA8"/>
<path d="M606.417 342.25H579.583V361.466H606.417V342.25Z" fill="#F79F00"/>
<path d="M581.935 342.25H579.583V361.466H581.935V342.25Z" fill="#E48900"/>
<path d="M595.887 350.054C595.887 348.46 594.594 347.168 593 347.168C591.406 347.168 590.114 348.46 590.114 350.054C590.114 351.152 590.727 352.107 591.629 352.595L591.165 356.148H594.835L594.371 352.595C595.273 352.107 595.887 351.152 595.887 350.054Z" fill="#3E3D4C"/>
<path d="M606.417 341.715H603.615V339.684C603.615 339.389 603.375 339.15 603.08 339.15C602.785 339.15 602.545 339.389 602.545 339.684V341.715H599.979V336.703C599.979 332.861 596.911 329.672 593.069 329.635C589.189 329.598 586.02 332.743 586.02 336.615V341.715H583.454V336.72C583.454 331.453 587.677 327.1 592.944 327.069C598.233 327.039 602.545 331.333 602.545 336.615V337.189C602.545 337.485 602.785 337.724 603.08 337.724C603.375 337.724 603.615 337.485 603.615 337.189V336.717C603.615 330.85 598.897 326.016 593.03 326C587.163 325.984 582.385 330.752 582.385 336.615V341.715H579.583C579.288 341.715 579.049 341.955 579.049 342.25V356.22C579.049 356.515 579.288 356.754 579.583 356.754C579.878 356.754 580.118 356.515 580.118 356.22V342.784H605.882V360.931H580.118V358.714C580.118 358.419 579.878 358.18 579.583 358.18C579.288 358.18 579.049 358.419 579.049 358.714V361.465C579.049 361.761 579.288 362 579.583 362H606.417C606.712 362 606.951 361.761 606.951 361.465V342.25C606.951 341.955 606.712 341.715 606.417 341.715ZM587.089 336.615C587.089 333.356 589.741 330.704 593 330.704C596.259 330.704 598.91 333.356 598.91 336.615V341.715H587.089V336.615Z" fill="black"/>
<path d="M596.421 350.054C596.421 348.168 594.886 346.633 593 346.633C591.114 346.633 589.579 348.168 589.579 350.054C589.579 351.186 590.136 352.234 591.054 352.869L590.635 356.079C590.615 356.231 590.661 356.385 590.763 356.501C590.864 356.616 591.011 356.683 591.165 356.683H594.835C594.989 356.683 595.136 356.616 595.237 356.501C595.339 356.385 595.385 356.231 595.365 356.079L594.946 352.869C595.864 352.234 596.421 351.186 596.421 350.054ZM594.117 352.125C593.922 352.23 593.812 352.445 593.841 352.664L594.226 355.614H591.774L592.159 352.664C592.188 352.445 592.078 352.23 591.883 352.125C591.121 351.713 590.648 350.919 590.648 350.054C590.648 348.758 591.703 347.702 593 347.702C594.297 347.702 595.352 348.758 595.352 350.054C595.352 350.919 594.879 351.713 594.117 352.125Z" fill="black"/>
</g>
<g filter="url(#filter4_d)">
<rect x="4" y="299" width="100" height="100" rx="25" fill="white"/>
</g>
<path d="M64.0772 325H41.9228C40.7278 325 39.7587 325.969 39.7587 327.164V341.552V348.172V370.836C39.7587 372.031 40.7278 373 41.9228 373H64.0781C65.2723 373 66.2414 372.031 66.2414 370.836V348.172V341.552V327.164C66.2414 325.969 65.2723 325 64.0772 325Z" fill="#2C353F"/>
<path d="M66.2415 329.966H39.7587V364.724H66.2415V329.966Z" fill="#659ED8"/>
<path d="M57.1379 328.311H48.862C48.4052 328.311 48.0344 327.94 48.0344 327.483C48.0344 327.026 48.4052 326.655 48.862 326.655H57.1379C57.5948 326.655 57.9655 327.026 57.9655 327.483C57.9655 327.94 57.5948 328.311 57.1379 328.311Z" fill="#C4CED3"/>
<path d="M62.931 328.311H62.1034C61.6465 328.311 61.2758 327.94 61.2758 327.483C61.2758 327.026 61.6465 326.655 62.1034 326.655H62.931C63.3879 326.655 63.7586 327.026 63.7586 327.483C63.7586 327.94 63.3879 328.311 62.931 328.311Z" fill="#C4CED3"/>
<path d="M54.027 370.517H51.9721C51.1685 370.517 50.5172 369.866 50.5172 369.062V368.662C50.5172 367.858 51.1685 367.207 51.973 367.207H54.0279C54.8315 367.207 55.4828 367.858 55.4828 368.663V369.063C55.4828 369.866 54.8314 370.517 54.027 370.517Z" fill="#C4CED3"/>
<path d="M157.048 251H158.968L154.984 239.864H152.872L148.888 251H150.792L151.592 248.728H156.248L157.048 251ZM155.736 247.24H152.104L153.928 242.072L155.736 247.24Z" fill="#455880"/>
<path d="M160.7 251H162.524V239.16H160.7V251Z" fill="#455880"/>
<path d="M164.919 251H166.743V239.16H164.919V251Z" fill="#455880"/>
<path d="M173.294 251H175.118V239.88H173.294V251Z" fill="#455880"/>
<path d="M183.769 251H185.577V245.8C185.577 243.336 184.025 242.04 181.961 242.04C180.905 242.04 179.929 242.472 179.337 243.192V242.184H177.513V251H179.337V246.072C179.337 244.456 180.217 243.624 181.561 243.624C182.889 243.624 183.769 244.456 183.769 246.072V251Z" fill="#455880"/>
<path d="M187.295 246.552C187.295 249.272 189.135 251.144 191.455 251.144C192.895 251.144 193.951 250.424 194.511 249.672V251.144C194.511 252.904 193.455 253.768 192.047 253.768C190.783 253.768 189.807 253.144 189.535 252.232H187.727C187.951 254.184 189.695 255.352 192.047 255.352C194.799 255.352 196.351 253.544 196.351 251.144V242.184H194.511V243.464C193.967 242.712 192.895 242.04 191.455 242.04C189.135 242.04 187.295 243.832 187.295 246.552ZM194.511 246.584C194.511 248.488 193.215 249.56 191.839 249.56C190.479 249.56 189.167 248.456 189.167 246.552C189.167 244.648 190.479 243.624 191.839 243.624C193.215 243.624 194.511 244.696 194.511 246.584Z" fill="#455880"/>
<path d="M200.571 246.36C200.571 244.488 201.403 243.928 202.747 243.928H203.211V242.04C201.963 242.04 201.083 242.584 200.571 243.464V242.184H198.747V251H200.571V246.36Z" fill="#455880"/>
<path d="M208.6 243.576C209.96 243.576 211.032 244.44 211.064 245.8H206.184C206.376 244.408 207.368 243.576 208.6 243.576ZM212.728 248.376H210.76C210.424 249.064 209.8 249.608 208.68 249.608C207.336 249.608 206.296 248.728 206.168 247.272H212.904C212.952 246.968 212.968 246.68 212.968 246.376C212.968 243.784 211.192 242.04 208.68 242.04C206.072 242.04 204.28 243.816 204.28 246.584C204.28 249.352 206.152 251.144 208.68 251.144C210.84 251.144 212.232 249.912 212.728 248.376Z" fill="#455880"/>
<path d="M221.339 248.536C221.243 245.352 216.267 246.344 216.267 244.568C216.267 243.976 216.779 243.576 217.755 243.576C218.747 243.576 219.339 244.104 219.403 244.872H221.227C221.131 243.112 219.819 242.04 217.819 242.04C215.739 242.04 214.427 243.176 214.427 244.584C214.427 247.816 219.547 246.824 219.547 248.552C219.547 249.16 218.987 249.608 217.931 249.608C216.923 249.608 216.235 249.016 216.171 248.296H214.283C214.363 249.896 215.851 251.144 217.963 251.144C220.043 251.144 221.339 250.024 221.339 248.536Z" fill="#455880"/>
<path d="M229.885 248.536C229.789 245.352 224.813 246.344 224.813 244.568C224.813 243.976 225.325 243.576 226.301 243.576C227.293 243.576 227.885 244.104 227.949 244.872H229.773C229.677 243.112 228.365 242.04 226.365 242.04C224.285 242.04 222.973 243.176 222.973 244.584C222.973 247.816 228.093 246.824 228.093 248.552C228.093 249.16 227.533 249.608 226.477 249.608C225.469 249.608 224.781 249.016 224.717 248.296H222.829C222.909 249.896 224.397 251.144 226.509 251.144C228.589 251.144 229.885 250.024 229.885 248.536Z" fill="#455880"/>
<path d="M164.897 269.368H167.873V279H169.697V269.368H172.657V267.88H164.897V269.368Z" fill="#455880"/>
<path d="M176.329 274.36C176.329 272.488 177.161 271.928 178.505 271.928H178.969V270.04C177.721 270.04 176.841 270.584 176.329 271.464V270.184H174.505V279H176.329V274.36Z" fill="#455880"/>
<path d="M180.037 274.552C180.037 277.272 181.877 279.144 184.165 279.144C185.637 279.144 186.693 278.44 187.253 277.688V279H189.093V270.184H187.253V271.464C186.709 270.744 185.685 270.04 184.197 270.04C181.877 270.04 180.037 271.832 180.037 274.552ZM187.253 274.584C187.253 276.488 185.957 277.56 184.581 277.56C183.221 277.56 181.909 276.456 181.909 274.552C181.909 272.648 183.221 271.624 184.581 271.624C185.957 271.624 187.253 272.696 187.253 274.584Z" fill="#455880"/>
<path d="M191.713 279H193.553V271.672H195.185V270.184H193.553V269.56C193.553 268.552 193.937 268.168 195.057 268.168V266.648C192.753 266.648 191.713 267.528 191.713 269.56V270.184H190.673V271.672H191.713V279Z" fill="#455880"/>
<path d="M197.026 279H198.866V271.672H200.498V270.184H198.866V269.56C198.866 268.552 199.25 268.168 200.37 268.168V266.648C198.066 266.648 197.026 267.528 197.026 269.56V270.184H195.986V271.672H197.026V279Z" fill="#455880"/>
<path d="M202.114 279H203.938V270.184H202.114V279ZM203.042 269.016C203.682 269.016 204.194 268.504 204.194 267.848C204.194 267.192 203.682 266.68 203.042 266.68C202.386 266.68 201.874 267.192 201.874 267.848C201.874 268.504 202.386 269.016 203.042 269.016Z" fill="#455880"/>
<path d="M205.725 274.584C205.725 277.352 207.517 279.144 210.045 279.144C212.205 279.144 213.613 277.944 214.109 276.216H212.141C211.805 277.128 211.133 277.608 210.045 277.608C208.573 277.608 207.597 276.52 207.597 274.584C207.597 272.664 208.573 271.576 210.045 271.576C211.133 271.576 211.837 272.12 212.141 272.968H214.109C213.613 271.112 212.205 270.04 210.045 270.04C207.517 270.04 205.725 271.832 205.725 274.584Z" fill="#455880"/>
<path d="M828.704 152.848C828.704 148.784 822.816 150.352 822.816 147.84C822.816 146.768 823.632 146.256 824.688 146.288C825.84 146.32 826.496 147.008 826.56 147.76H828.576C828.416 145.856 826.912 144.736 824.784 144.736C822.512 144.736 820.96 145.952 820.96 147.904C820.96 152 826.864 150.256 826.864 152.944C826.864 153.888 826.144 154.576 824.864 154.576C823.6 154.576 822.96 153.84 822.88 152.928H820.928C820.928 154.896 822.64 156.112 824.864 156.112C827.344 156.112 828.704 154.512 828.704 152.848Z" fill="#455880"/>
<path d="M834.568 148.576C835.928 148.576 837 149.44 837.032 150.8H832.152C832.344 149.408 833.336 148.576 834.568 148.576ZM838.696 153.376H836.728C836.392 154.064 835.768 154.608 834.648 154.608C833.304 154.608 832.264 153.728 832.136 152.272H838.872C838.92 151.968 838.936 151.68 838.936 151.376C838.936 148.784 837.16 147.04 834.648 147.04C832.04 147.04 830.248 148.816 830.248 151.584C830.248 154.352 832.12 156.144 834.648 156.144C836.808 156.144 838.2 154.912 838.696 153.376Z" fill="#455880"/>
<path d="M840.123 151.584C840.123 154.352 841.915 156.144 844.443 156.144C846.603 156.144 848.011 154.944 848.507 153.216H846.539C846.203 154.128 845.531 154.608 844.443 154.608C842.971 154.608 841.995 153.52 841.995 151.584C841.995 149.664 842.971 148.576 844.443 148.576C845.531 148.576 846.235 149.12 846.539 149.968H848.507C848.011 148.112 846.603 147.04 844.443 147.04C841.915 147.04 840.123 148.832 840.123 151.584Z" fill="#455880"/>
<path d="M858.309 147.184H856.485V152.096C856.485 153.712 855.605 154.544 854.261 154.544C852.933 154.544 852.053 153.712 852.053 152.096V147.184H850.245V152.368C850.245 154.832 851.813 156.128 853.877 156.128C854.917 156.128 855.909 155.696 856.485 154.944V156H858.309V147.184Z" fill="#455880"/>
<path d="M862.54 151.36C862.54 149.488 863.372 148.928 864.716 148.928H865.18V147.04C863.932 147.04 863.052 147.584 862.54 148.464V147.184H860.716V156H862.54V151.36Z" fill="#455880"/>
<path d="M870.568 148.576C871.928 148.576 873 149.44 873.032 150.8H868.152C868.344 149.408 869.336 148.576 870.568 148.576ZM874.696 153.376H872.728C872.392 154.064 871.768 154.608 870.648 154.608C869.304 154.608 868.264 153.728 868.136 152.272H874.872C874.92 151.968 874.936 151.68 874.936 151.376C874.936 148.784 873.16 147.04 870.648 147.04C868.04 147.04 866.248 148.816 866.248 151.584C866.248 154.352 868.12 156.144 870.648 156.144C872.808 156.144 874.2 154.912 874.696 153.376Z" fill="#455880"/>
<path d="M880.279 151.552C880.279 154.272 882.119 156.144 884.407 156.144C885.879 156.144 886.935 155.44 887.495 154.688V156H889.335V147.184H887.495V148.464C886.951 147.744 885.927 147.04 884.439 147.04C882.119 147.04 880.279 148.832 880.279 151.552ZM887.495 151.584C887.495 153.488 886.199 154.56 884.823 154.56C883.463 154.56 882.151 153.456 882.151 151.552C882.151 149.648 883.463 148.624 884.823 148.624C886.199 148.624 887.495 149.696 887.495 151.584Z" fill="#455880"/>
<path d="M891.123 151.584C891.123 154.352 892.915 156.144 895.443 156.144C897.603 156.144 899.011 154.944 899.507 153.216H897.539C897.203 154.128 896.531 154.608 895.443 154.608C893.971 154.608 892.995 153.52 892.995 151.584C892.995 149.664 893.971 148.576 895.443 148.576C896.531 148.576 897.235 149.12 897.539 149.968H899.507C899.011 148.112 897.603 147.04 895.443 147.04C892.915 147.04 891.123 148.832 891.123 151.584Z" fill="#455880"/>
<path d="M900.717 151.584C900.717 154.352 902.509 156.144 905.037 156.144C907.197 156.144 908.605 154.944 909.101 153.216H907.133C906.797 154.128 906.125 154.608 905.037 154.608C903.565 154.608 902.589 153.52 902.589 151.584C902.589 149.664 903.565 148.576 905.037 148.576C906.125 148.576 906.829 149.12 907.133 149.968H909.101C908.605 148.112 907.197 147.04 905.037 147.04C902.509 147.04 900.717 148.832 900.717 151.584Z" fill="#455880"/>
<path d="M914.631 148.576C915.991 148.576 917.063 149.44 917.095 150.8H912.215C912.407 149.408 913.399 148.576 914.631 148.576ZM918.759 153.376H916.791C916.455 154.064 915.831 154.608 914.711 154.608C913.367 154.608 912.327 153.728 912.199 152.272H918.935C918.983 151.968 918.999 151.68 918.999 151.376C918.999 148.784 917.223 147.04 914.711 147.04C912.103 147.04 910.311 148.816 910.311 151.584C910.311 154.352 912.183 156.144 914.711 156.144C916.871 156.144 918.263 154.912 918.759 153.376Z" fill="#455880"/>
<path d="M927.37 153.536C927.274 150.352 922.298 151.344 922.298 149.568C922.298 148.976 922.81 148.576 923.786 148.576C924.778 148.576 925.37 149.104 925.434 149.872H927.258C927.162 148.112 925.85 147.04 923.85 147.04C921.77 147.04 920.458 148.176 920.458 149.584C920.458 152.816 925.578 151.824 925.578 153.552C925.578 154.16 925.018 154.608 923.962 154.608C922.954 154.608 922.266 154.016 922.202 153.296H920.314C920.394 154.896 921.882 156.144 923.994 156.144C926.074 156.144 927.37 155.024 927.37 153.536Z" fill="#455880"/>
<path d="M935.917 153.536C935.821 150.352 930.845 151.344 930.845 149.568C930.845 148.976 931.357 148.576 932.333 148.576C933.325 148.576 933.917 149.104 933.981 149.872H935.805C935.709 148.112 934.397 147.04 932.397 147.04C930.317 147.04 929.005 148.176 929.005 149.584C929.005 152.816 934.125 151.824 934.125 153.552C934.125 154.16 933.565 154.608 932.509 154.608C931.501 154.608 930.813 154.016 930.749 153.296H928.861C928.941 154.896 930.429 156.144 932.541 156.144C934.621 156.144 935.917 155.024 935.917 153.536Z" fill="#455880"/>
<path d="M942.332 153.552C942.332 155.344 943.308 156 944.876 156H946.316V154.48H945.196C944.428 154.48 944.172 154.208 944.172 153.552V148.672H946.316V147.184H944.172V144.992H942.332V147.184H941.292V148.672H942.332V153.552Z" fill="#455880"/>
<path d="M956.397 151.584C956.397 148.816 954.413 147.04 951.901 147.04C949.389 147.04 947.405 148.816 947.405 151.584C947.405 154.352 949.309 156.144 951.821 156.144C954.349 156.144 956.397 154.352 956.397 151.584ZM949.261 151.584C949.261 149.584 950.493 148.624 951.869 148.624C953.229 148.624 954.525 149.584 954.525 151.584C954.525 153.584 953.181 154.56 951.821 154.56C950.445 154.56 949.261 153.584 949.261 151.584Z" fill="#455880"/>
<path d="M835.733 179.552C835.733 182.272 837.573 184.144 839.861 184.144C841.333 184.144 842.389 183.44 842.949 182.688V184H844.789V175.184H842.949V176.464C842.405 175.744 841.381 175.04 839.893 175.04C837.573 175.04 835.733 176.832 835.733 179.552ZM842.949 179.584C842.949 181.488 841.653 182.56 840.277 182.56C838.917 182.56 837.605 181.456 837.605 179.552C837.605 177.648 838.917 176.624 840.277 176.624C841.653 176.624 842.949 177.696 842.949 179.584Z" fill="#455880"/>
<path d="M847.184 184H849.008V172.16H847.184V184Z" fill="#455880"/>
<path d="M851.403 184H853.227V172.16H851.403V184Z" fill="#455880"/>
<path d="M865.682 176.208C865.682 177.312 865.042 178.096 863.618 178.096H861.602V174.368H863.618C865.042 174.368 865.682 175.088 865.682 176.208ZM859.778 172.88V184H861.602V179.552H862.994L865.554 184H867.73L864.978 179.392C866.85 178.928 867.554 177.52 867.554 176.208C867.554 174.4 866.258 172.88 863.618 172.88H859.778Z" fill="#455880"/>
<path d="M873.599 176.576C874.959 176.576 876.031 177.44 876.063 178.8H871.183C871.375 177.408 872.367 176.576 873.599 176.576ZM877.727 181.376H875.759C875.423 182.064 874.799 182.608 873.679 182.608C872.335 182.608 871.295 181.728 871.167 180.272H877.903C877.951 179.968 877.967 179.68 877.967 179.376C877.967 176.784 876.191 175.04 873.679 175.04C871.071 175.04 869.279 176.816 869.279 179.584C869.279 182.352 871.151 184.144 873.679 184.144C875.839 184.144 877.231 182.912 877.727 181.376Z" fill="#455880"/>
<path d="M886.338 181.536C886.242 178.352 881.266 179.344 881.266 177.568C881.266 176.976 881.778 176.576 882.754 176.576C883.746 176.576 884.338 177.104 884.402 177.872H886.226C886.13 176.112 884.818 175.04 882.818 175.04C880.738 175.04 879.426 176.176 879.426 177.584C879.426 180.816 884.546 179.824 884.546 181.552C884.546 182.16 883.986 182.608 882.93 182.608C881.922 182.608 881.234 182.016 881.17 181.296H879.282C879.362 182.896 880.85 184.144 882.962 184.144C885.042 184.144 886.338 183.024 886.338 181.536Z" fill="#455880"/>
<path d="M896.709 179.584C896.709 176.816 894.725 175.04 892.213 175.04C889.701 175.04 887.717 176.816 887.717 179.584C887.717 182.352 889.621 184.144 892.133 184.144C894.661 184.144 896.709 182.352 896.709 179.584ZM889.573 179.584C889.573 177.584 890.805 176.624 892.181 176.624C893.541 176.624 894.837 177.584 894.837 179.584C894.837 181.584 893.493 182.56 892.133 182.56C890.757 182.56 889.573 181.584 889.573 179.584Z" fill="#455880"/>
<path d="M906.496 175.184H904.672V180.096C904.672 181.712 903.792 182.544 902.448 182.544C901.12 182.544 900.24 181.712 900.24 180.096V175.184H898.432V180.368C898.432 182.832 900 184.128 902.064 184.128C903.104 184.128 904.096 183.696 904.672 182.944V184H906.496V175.184Z" fill="#455880"/>
<path d="M910.727 179.36C910.727 177.488 911.559 176.928 912.903 176.928H913.367V175.04C912.119 175.04 911.239 175.584 910.727 176.464V175.184H908.903V184H910.727V179.36Z" fill="#455880"/>
<path d="M914.436 179.584C914.436 182.352 916.228 184.144 918.756 184.144C920.916 184.144 922.324 182.944 922.82 181.216H920.852C920.516 182.128 919.844 182.608 918.756 182.608C917.284 182.608 916.308 181.52 916.308 179.584C916.308 177.664 917.284 176.576 918.756 176.576C919.844 176.576 920.548 177.12 920.852 177.968H922.82C922.324 176.112 920.916 175.04 918.756 175.04C916.228 175.04 914.436 176.832 914.436 179.584Z" fill="#455880"/>
<path d="M928.349 176.576C929.709 176.576 930.781 177.44 930.813 178.8H925.933C926.125 177.408 927.117 176.576 928.349 176.576ZM932.477 181.376H930.509C930.173 182.064 929.549 182.608 928.429 182.608C927.085 182.608 926.045 181.728 925.917 180.272H932.653C932.701 179.968 932.717 179.68 932.717 179.376C932.717 176.784 930.941 175.04 928.429 175.04C925.821 175.04 924.029 176.816 924.029 179.584C924.029 182.352 925.901 184.144 928.429 184.144C930.589 184.144 931.981 182.912 932.477 181.376Z" fill="#455880"/>
<path d="M941.088 181.536C940.992 178.352 936.016 179.344 936.016 177.568C936.016 176.976 936.528 176.576 937.504 176.576C938.496 176.576 939.088 177.104 939.152 177.872H940.976C940.88 176.112 939.568 175.04 937.568 175.04C935.488 175.04 934.176 176.176 934.176 177.584C934.176 180.816 939.296 179.824 939.296 181.552C939.296 182.16 938.736 182.608 937.68 182.608C936.672 182.608 935.984 182.016 935.92 181.296H934.032C934.112 182.896 935.6 184.144 937.712 184.144C939.792 184.144 941.088 183.024 941.088 181.536Z" fill="#455880"/>
<path d="M493.854 42.8962C493.854 43.8242 493.39 44.4962 492.414 44.4962C491.438 44.4962 490.99 43.8242 490.974 42.8962H489.134C489.134 44.9122 490.494 46.1122 492.414 46.1122C494.334 46.1122 495.694 44.9122 495.694 42.8962V34.8802H493.854V42.8962Z" fill="#455880"/>
<path d="M506.165 42.8482C506.165 38.7842 500.277 40.3522 500.277 37.8402C500.277 36.7682 501.093 36.2562 502.149 36.2882C503.301 36.3202 503.957 37.0082 504.021 37.7602H506.037C505.877 35.8562 504.373 34.7362 502.245 34.7362C499.973 34.7362 498.421 35.9522 498.421 37.9042C498.421 42.0002 504.325 40.2562 504.325 42.9442C504.325 43.8882 503.605 44.5762 502.325 44.5762C501.061 44.5762 500.421 43.8402 500.341 42.9282H498.389C498.389 44.8962 500.101 46.1122 502.325 46.1122C504.805 46.1122 506.165 44.5122 506.165 42.8482Z" fill="#455880"/>
<path d="M519.069 40.4162C519.069 37.0882 516.557 34.7362 513.389 34.7362C510.253 34.7362 507.709 37.0882 507.709 40.4162C507.709 43.7602 510.253 46.1122 513.389 46.1122C516.557 46.1122 519.069 43.7602 519.069 40.4162ZM509.581 40.4162C509.581 37.9042 511.181 36.3362 513.389 36.3362C515.597 36.3362 517.197 37.9042 517.197 40.4162C517.197 42.9282 515.597 44.5282 513.389 44.5282C511.181 44.5282 509.581 42.9282 509.581 40.4162Z" fill="#455880"/>
<path d="M528.176 34.8642V43.1522L522.688 34.8642H520.864V46.0002H522.688V37.6962L528.176 46.0002H530V34.8642H528.176Z" fill="#455880"/>
<path d="M543.128 43.5362C543.032 40.3522 538.056 41.3442 538.056 39.5682C538.056 38.9762 538.568 38.5762 539.544 38.5762C540.536 38.5762 541.128 39.1042 541.192 39.8722H543.016C542.92 38.1122 541.608 37.0402 539.608 37.0402C537.528 37.0402 536.216 38.1762 536.216 39.5842C536.216 42.8162 541.336 41.8242 541.336 43.5522C541.336 44.1602 540.776 44.6082 539.72 44.6082C538.712 44.6082 538.024 44.0162 537.96 43.2962H536.072C536.152 44.8962 537.64 46.1442 539.752 46.1442C541.832 46.1442 543.128 45.0242 543.128 43.5362Z" fill="#455880"/>
<path d="M548.81 38.5762C550.17 38.5762 551.242 39.4402 551.274 40.8002H546.394C546.586 39.4082 547.578 38.5762 548.81 38.5762ZM552.938 43.3762H550.97C550.634 44.0642 550.01 44.6082 548.89 44.6082C547.546 44.6082 546.506 43.7282 546.378 42.2722H553.114C553.162 41.9682 553.178 41.6802 553.178 41.3762C553.178 38.7842 551.402 37.0402 548.89 37.0402C546.282 37.0402 544.49 38.8162 544.49 41.5842C544.49 44.3522 546.362 46.1442 548.89 46.1442C551.05 46.1442 552.442 44.9122 552.938 43.3762Z" fill="#455880"/>
<path d="M554.365 41.5842C554.365 44.3522 556.157 46.1442 558.685 46.1442C560.845 46.1442 562.253 44.9442 562.749 43.2162H560.781C560.445 44.1282 559.773 44.6082 558.685 44.6082C557.213 44.6082 556.237 43.5202 556.237 41.5842C556.237 39.6642 557.213 38.5762 558.685 38.5762C559.773 38.5762 560.477 39.1202 560.781 39.9682H562.749C562.253 38.1122 560.845 37.0402 558.685 37.0402C556.157 37.0402 554.365 38.8322 554.365 41.5842Z" fill="#455880"/>
<path d="M572.551 37.1842H570.727V42.0962C570.727 43.7122 569.847 44.5442 568.503 44.5442C567.175 44.5442 566.295 43.7122 566.295 42.0962V37.1842H564.487V42.3682C564.487 44.8322 566.055 46.1282 568.119 46.1282C569.159 46.1282 570.151 45.6962 570.727 44.9442V46.0002H572.551V37.1842Z" fill="#455880"/>
<path d="M574.958 46.0002H576.782V37.1842H574.958V46.0002ZM575.886 36.0162C576.526 36.0162 577.038 35.5042 577.038 34.8482C577.038 34.1922 576.526 33.6802 575.886 33.6802C575.23 33.6802 574.718 34.1922 574.718 34.8482C574.718 35.5042 575.23 36.0162 575.886 36.0162Z" fill="#455880"/>
<path d="M579.465 43.5522C579.465 45.3442 580.441 46.0002 582.009 46.0002H583.449V44.4802H582.329C581.561 44.4802 581.305 44.2082 581.305 43.5522V38.6722H583.449V37.1842H581.305V34.9922H579.465V37.1842H578.425V38.6722H579.465V43.5522Z" fill="#455880"/>
<path d="M588.602 43.9042L586.122 37.1842H584.09L587.562 45.8562L585.77 50.1442H587.658L593.066 37.1842H591.178L588.602 43.9042Z" fill="#455880"/>
<path d="M600.422 41.3602C600.422 39.4882 601.254 38.9282 602.598 38.9282H603.062V37.0402C601.814 37.0402 600.934 37.5842 600.422 38.4642V37.1842H598.598V46.0002H600.422V41.3602Z" fill="#455880"/>
<path d="M612.723 37.1842H610.899V42.0962C610.899 43.7122 610.019 44.5442 608.675 44.5442C607.347 44.5442 606.467 43.7122 606.467 42.0962V37.1842H604.659V42.3682C604.659 44.8322 606.227 46.1282 608.291 46.1282C609.331 46.1282 610.323 45.6962 610.899 44.9442V46.0002H612.723V37.1842Z" fill="#455880"/>
<path d="M615.13 46.0002H616.954V34.1602H615.13V46.0002Z" fill="#455880"/>
<path d="M623.06 38.5762C624.42 38.5762 625.492 39.4402 625.524 40.8002H620.644C620.836 39.4082 621.828 38.5762 623.06 38.5762ZM627.188 43.3762H625.22C624.884 44.0642 624.26 44.6082 623.14 44.6082C621.796 44.6082 620.756 43.7282 620.628 42.2722H627.364C627.412 41.9682 627.428 41.6802 627.428 41.3762C627.428 38.7842 625.652 37.0402 623.14 37.0402C620.532 37.0402 618.74 38.8162 618.74 41.5842C618.74 44.3522 620.612 46.1442 623.14 46.1442C625.3 46.1442 626.692 44.9122 627.188 43.3762Z" fill="#455880"/>
<path d="M635.799 43.5362C635.703 40.3522 630.727 41.3442 630.727 39.5682C630.727 38.9762 631.239 38.5762 632.215 38.5762C633.207 38.5762 633.799 39.1042 633.863 39.8722H635.687C635.591 38.1122 634.279 37.0402 632.279 37.0402C630.199 37.0402 628.887 38.1762 628.887 39.5842C628.887 42.8162 634.007 41.8242 634.007 43.5522C634.007 44.1602 633.447 44.6082 632.391 44.6082C631.383 44.6082 630.695 44.0162 630.631 43.2962H628.743C628.823 44.8962 630.311 46.1442 632.423 46.1442C634.503 46.1442 635.799 45.0242 635.799 43.5362Z" fill="#455880"/>
<path d="M488.387 65.1842L491.731 74.0002H493.907L497.267 65.1842H495.331L492.835 72.3682L490.339 65.1842H488.387Z" fill="#455880"/>
<path d="M498.645 74.0002H500.469V65.1842H498.645V74.0002ZM499.573 64.0162C500.213 64.0162 500.725 63.5042 500.725 62.8482C500.725 62.1922 500.213 61.6802 499.573 61.6802C498.917 61.6802 498.405 62.1922 498.405 62.8482C498.405 63.5042 498.917 64.0162 499.573 64.0162Z" fill="#455880"/>
<path d="M502.256 69.5522C502.256 72.2722 504.096 74.1442 506.384 74.1442C507.856 74.1442 508.912 73.4402 509.472 72.6882V74.0002H511.312V65.1842H509.472V66.4642C508.928 65.7442 507.904 65.0402 506.416 65.0402C504.096 65.0402 502.256 66.8322 502.256 69.5522ZM509.472 69.5842C509.472 71.4882 508.176 72.5602 506.8 72.5602C505.44 72.5602 504.128 71.4562 504.128 69.5522C504.128 67.6482 505.44 66.6242 506.8 66.6242C508.176 66.6242 509.472 67.6962 509.472 69.5842Z" fill="#455880"/>
<path d="M517.256 69.5522C517.256 72.2722 519.096 74.1442 521.384 74.1442C522.856 74.1442 523.912 73.4402 524.472 72.6882V74.0002H526.312V65.1842H524.472V66.4642C523.928 65.7442 522.904 65.0402 521.416 65.0402C519.096 65.0402 517.256 66.8322 517.256 69.5522ZM524.472 69.5842C524.472 71.4882 523.176 72.5602 521.8 72.5602C520.44 72.5602 519.128 71.4562 519.128 69.5522C519.128 67.6482 520.44 66.6242 521.8 66.6242C523.176 66.6242 524.472 67.6962 524.472 69.5842Z" fill="#455880"/>
<path d="M528.1 69.5522C528.1 72.2722 529.94 74.1442 532.26 74.1442C533.7 74.1442 534.756 73.4722 535.316 72.6722V74.0002H537.156V62.1602H535.316V66.4162C534.644 65.5842 533.428 65.0402 532.276 65.0402C529.94 65.0402 528.1 66.8322 528.1 69.5522ZM535.316 69.5842C535.316 71.4882 534.02 72.5602 532.644 72.5602C531.284 72.5602 529.972 71.4562 529.972 69.5522C529.972 67.6482 531.284 66.6242 532.644 66.6242C534.02 66.6242 535.316 67.6962 535.316 69.5842Z" fill="#455880"/>
<path d="M552.048 74.0002H553.856V68.8002C553.856 66.3362 552.288 65.0402 550.224 65.0402C548.944 65.0402 547.696 65.7122 547.152 66.7842C546.544 65.6322 545.376 65.0402 543.984 65.0402C542.928 65.0402 541.968 65.4722 541.376 66.1922V65.1842H539.552V74.0002H541.376V69.0722C541.376 67.4562 542.256 66.6242 543.6 66.6242C544.928 66.6242 545.808 67.4562 545.808 69.0722V74.0002H547.616V69.0722C547.616 67.4562 548.496 66.6242 549.84 66.6242C551.168 66.6242 552.048 67.4562 552.048 69.0722V74.0002Z" fill="#455880"/>
<path d="M556.177 74.0002H558.001V65.1842H556.177V74.0002ZM557.105 64.0162C557.745 64.0162 558.257 63.5042 558.257 62.8482C558.257 62.1922 557.745 61.6802 557.105 61.6802C556.449 61.6802 555.937 62.1922 555.937 62.8482C555.937 63.5042 556.449 64.0162 557.105 64.0162Z" fill="#455880"/>
<path d="M566.651 74.0002H568.459V68.8002C568.459 66.3362 566.907 65.0402 564.843 65.0402C563.787 65.0402 562.811 65.4722 562.219 66.1922V65.1842H560.395V74.0002H562.219V69.0722C562.219 67.4562 563.099 66.6242 564.443 66.6242C565.771 66.6242 566.651 67.4562 566.651 69.0722V74.0002Z" fill="#455880"/>
<path d="M574.334 69.5842C574.334 72.3522 576.126 74.1442 578.654 74.1442C580.814 74.1442 582.222 72.9442 582.718 71.2162H580.75C580.414 72.1282 579.742 72.6082 578.654 72.6082C577.182 72.6082 576.206 71.5202 576.206 69.5842C576.206 67.6642 577.182 66.5762 578.654 66.5762C579.742 66.5762 580.446 67.1202 580.75 67.9682H582.718C582.222 66.1122 580.814 65.0402 578.654 65.0402C576.126 65.0402 574.334 66.8322 574.334 69.5842Z" fill="#455880"/>
<path d="M592.936 69.5842C592.936 66.8162 590.952 65.0402 588.44 65.0402C585.928 65.0402 583.944 66.8162 583.944 69.5842C583.944 72.3522 585.848 74.1442 588.36 74.1442C590.888 74.1442 592.936 72.3522 592.936 69.5842ZM585.8 69.5842C585.8 67.5842 587.032 66.6242 588.408 66.6242C589.768 66.6242 591.064 67.5842 591.064 69.5842C591.064 71.5842 589.72 72.5602 588.36 72.5602C586.984 72.5602 585.8 71.5842 585.8 69.5842Z" fill="#455880"/>
<path d="M600.995 74.0002H602.803V68.8002C602.803 66.3362 601.251 65.0402 599.187 65.0402C598.131 65.0402 597.155 65.4722 596.563 66.1922V65.1842H594.739V74.0002H596.563V69.0722C596.563 67.4562 597.443 66.6242 598.787 66.6242C600.115 66.6242 600.995 67.4562 600.995 69.0722V74.0002Z" fill="#455880"/>
<path d="M611.706 71.5362C611.61 68.3522 606.634 69.3442 606.634 67.5682C606.634 66.9762 607.146 66.5762 608.122 66.5762C609.114 66.5762 609.706 67.1042 609.77 67.8722H611.594C611.498 66.1122 610.186 65.0402 608.186 65.0402C606.106 65.0402 604.794 66.1762 604.794 67.5842C604.794 70.8162 609.914 69.8242 609.914 71.5522C609.914 72.1602 609.354 72.6082 608.298 72.6082C607.29 72.6082 606.602 72.0162 606.538 71.2962H604.65C604.73 72.8962 606.218 74.1442 608.33 74.1442C610.41 74.1442 611.706 73.0242 611.706 71.5362Z" fill="#455880"/>
<path d="M622.077 69.5842C622.077 66.8162 620.093 65.0402 617.581 65.0402C615.069 65.0402 613.085 66.8162 613.085 69.5842C613.085 72.3522 614.989 74.1442 617.501 74.1442C620.029 74.1442 622.077 72.3522 622.077 69.5842ZM614.941 69.5842C614.941 67.5842 616.173 66.6242 617.549 66.6242C618.909 66.6242 620.205 67.5842 620.205 69.5842C620.205 71.5842 618.861 72.5602 617.501 72.5602C616.125 72.5602 614.941 71.5842 614.941 69.5842Z" fill="#455880"/>
<path d="M623.88 74.0002H625.704V62.1602H623.88V74.0002Z" fill="#455880"/>
<path d="M631.81 66.5762C633.17 66.5762 634.242 67.4402 634.274 68.8002H629.394C629.586 67.4082 630.578 66.5762 631.81 66.5762ZM635.938 71.3762H633.97C633.634 72.0642 633.01 72.6082 631.89 72.6082C630.546 72.6082 629.506 71.7282 629.378 70.2722H636.114C636.162 69.9682 636.178 69.6802 636.178 69.3762C636.178 66.7842 634.402 65.0402 631.89 65.0402C629.282 65.0402 627.49 66.8162 627.49 69.5842C627.49 72.3522 629.362 74.1442 631.89 74.1442C634.05 74.1442 635.442 72.9122 635.938 71.3762Z" fill="#455880"/>
<g filter="url(#filter5_d)">
<rect x="345" y="4" width="100" height="100" rx="25" fill="white"/>
</g>
<path d="M385.897 27.4822C385.681 26.8962 385.125 26.5044 384.5 26.5H372.5C371.672 26.5 371 27.1716 371 28V40C371 40.8284 371.672 41.5 372.5 41.5H384.5C385.328 41.5 386 40.8284 386 40V31.6211L390.061 27.5605L387.939 25.4395L385.897 27.4822ZM383 38.5H374V29.5H383V30.3789L380 33.3789L378.061 31.4395L375.939 33.5605L378.939 36.5605C379.525 37.1458 380.475 37.1458 381.061 36.5605L383 34.6211V38.5Z" fill="url(#paint0_linear)"/>
<path d="M387.939 46.4395L385.897 48.4822C385.681 47.8962 385.125 47.5044 384.5 47.5H372.5C371.672 47.5 371 48.1716 371 49V61C371 61.8284 371.672 62.5 372.5 62.5H384.5C385.328 62.5 386 61.8284 386 61V52.6211L390.061 48.5605L387.939 46.4395ZM383 59.5H374V50.5H383V51.3789L380 54.3789L378.061 52.4395L375.939 54.5605L378.939 57.5605C379.525 58.1458 380.475 58.1458 381.061 57.5605L383 55.6211V59.5Z" fill="url(#paint1_linear)"/>
<path d="M384.5 67H372.5C371.672 67 371 67.6716 371 68.5V80.5C371 81.3284 371.672 82 372.5 82H384.5C385.328 82 386 81.3284 386 80.5V68.5C386 67.6716 385.328 67 384.5 67ZM383 79H374V70H383V79Z" fill="url(#paint2_linear)"/>
<path d="M392 35.5H407V38.5H392V35.5Z" fill="url(#paint3_linear)"/>
<path d="M392 29.5H401V32.5H392V29.5Z" fill="url(#paint4_linear)"/>
<path d="M392 56.5H407V59.5H392V56.5Z" fill="url(#paint5_linear)"/>
<path d="M392 50.5H401V53.5H392V50.5Z" fill="url(#paint6_linear)"/>
<path d="M392 76H407V79H392V76Z" fill="url(#paint7_linear)"/>
<path d="M392 70H401V73H392V70Z" fill="url(#paint8_linear)"/>
<defs>
<filter id="filter0_d" x="291" y="242" width="208" height="208" filterUnits="userSpaceOnUse" color-interpolation-filters="sRGB">
<feFlood flood-opacity="0" result="BackgroundImageFix"/>
<feColorMatrix in="SourceAlpha" type="matrix" values="0 0 0 0 0 0 0 0 0 0 0 0 0 0 0 0 0 0 127 0"/>
<feOffset/>
<feGaussianBlur stdDeviation="2"/>
<feColorMatrix type="matrix" values="0 0 0 0 0 0 0 0 0 0 0 0 0 0 0 0 0 0 0.25 0"/>
<feBlend mode="normal" in2="BackgroundImageFix" result="effect1_dropShadow"/>
<feBlend mode="normal" in="SourceGraphic" in2="effect1_dropShadow" result="shape"/>
</filter>
<filter id="filter1_d" x="738" y="366" width="108" height="108" filterUnits="userSpaceOnUse" color-interpolation-filters="sRGB">
<feFlood flood-opacity="0" result="BackgroundImageFix"/>
<feColorMatrix in="SourceAlpha" type="matrix" values="0 0 0 0 0 0 0 0 0 0 0 0 0 0 0 0 0 0 127 0"/>
<feOffset/>
<feGaussianBlur stdDeviation="2"/>
<feColorMatrix type="matrix" values="0 0 0 0 0 0 0 0 0 0 0 0 0 0 0 0 0 0 0.25 0"/>
<feBlend mode="normal" in2="BackgroundImageFix" result="effect1_dropShadow"/>
<feBlend mode="normal" in="SourceGraphic" in2="effect1_dropShadow" result="shape"/>
</filter>
<filter id="filter2_d" x="865" y="276" width="108" height="108" filterUnits="userSpaceOnUse" color-interpolation-filters="sRGB">
<feFlood flood-opacity="0" result="BackgroundImageFix"/>
<feColorMatrix in="SourceAlpha" type="matrix" values="0 0 0 0 0 0 0 0 0 0 0 0 0 0 0 0 0 0 127 0"/>
<feOffset/>
<feGaussianBlur stdDeviation="2"/>
<feColorMatrix type="matrix" values="0 0 0 0 0 0 0 0 0 0 0 0 0 0 0 0 0 0 0.25 0"/>
<feBlend mode="normal" in2="BackgroundImageFix" result="effect1_dropShadow"/>
<feBlend mode="normal" in="SourceGraphic" in2="effect1_dropShadow" result="shape"/>
</filter>
<filter id="filter3_d" x="674" y="209" width="108" height="108" filterUnits="userSpaceOnUse" color-interpolation-filters="sRGB">
<feFlood flood-opacity="0" result="BackgroundImageFix"/>
<feColorMatrix in="SourceAlpha" type="matrix" values="0 0 0 0 0 0 0 0 0 0 0 0 0 0 0 0 0 0 127 0"/>
<feOffset/>
<feGaussianBlur stdDeviation="2"/>
<feColorMatrix type="matrix" values="0 0 0 0 0 0 0 0 0 0 0 0 0 0 0 0 0 0 0.25 0"/>
<feBlend mode="normal" in2="BackgroundImageFix" result="effect1_dropShadow"/>
<feBlend mode="normal" in="SourceGraphic" in2="effect1_dropShadow" result="shape"/>
</filter>
<filter id="filter4_d" x="0" y="295" width="108" height="108" filterUnits="userSpaceOnUse" color-interpolation-filters="sRGB">
<feFlood flood-opacity="0" result="BackgroundImageFix"/>
<feColorMatrix in="SourceAlpha" type="matrix" values="0 0 0 0 0 0 0 0 0 0 0 0 0 0 0 0 0 0 127 0"/>
<feOffset/>
<feGaussianBlur stdDeviation="2"/>
<feColorMatrix type="matrix" values="0 0 0 0 0 0 0 0 0 0 0 0 0 0 0 0 0 0 0.25 0"/>
<feBlend mode="normal" in2="BackgroundImageFix" result="effect1_dropShadow"/>
<feBlend mode="normal" in="SourceGraphic" in2="effect1_dropShadow" result="shape"/>
</filter>
<filter id="filter5_d" x="341" y="0" width="108" height="108" filterUnits="userSpaceOnUse" color-interpolation-filters="sRGB">
<feFlood flood-opacity="0" result="BackgroundImageFix"/>
<feColorMatrix in="SourceAlpha" type="matrix" values="0 0 0 0 0 0 0 0 0 0 0 0 0 0 0 0 0 0 127 0"/>
<feOffset/>
<feGaussianBlur stdDeviation="2"/>
<feColorMatrix type="matrix" values="0 0 0 0 0 0 0 0 0 0 0 0 0 0 0 0 0 0 0.25 0"/>
<feBlend mode="normal" in2="BackgroundImageFix" result="effect1_dropShadow"/>
<feBlend mode="normal" in="SourceGraphic" in2="effect1_dropShadow" result="shape"/>
</filter>
<linearGradient id="paint0_linear" x1="380.531" y1="102.706" x2="380.531" y2="11.1115" gradientUnits="userSpaceOnUse">
<stop stop-color="#E93E3A"/>
<stop offset="0.35" stop-color="#ED683C"/>
<stop offset="0.7" stop-color="#F3903F"/>
<stop offset="1" stop-color="#FDC70C"/>
</linearGradient>
<linearGradient id="paint1_linear" x1="380.531" y1="102.706" x2="380.531" y2="11.1115" gradientUnits="userSpaceOnUse">
<stop stop-color="#E93E3A"/>
<stop offset="0.35" stop-color="#ED683C"/>
<stop offset="0.7" stop-color="#F3903F"/>
<stop offset="1" stop-color="#FDC70C"/>
</linearGradient>
<linearGradient id="paint2_linear" x1="378.5" y1="102.706" x2="378.5" y2="11.1115" gradientUnits="userSpaceOnUse">
<stop stop-color="#E93E3A"/>
<stop offset="0.35" stop-color="#ED683C"/>
<stop offset="0.7" stop-color="#F3903F"/>
<stop offset="1" stop-color="#FDC70C"/>
</linearGradient>
<linearGradient id="paint3_linear" x1="399.5" y1="102.706" x2="399.5" y2="11.1115" gradientUnits="userSpaceOnUse">
<stop stop-color="#E93E3A"/>
<stop offset="0.35" stop-color="#ED683C"/>
<stop offset="0.7" stop-color="#F3903F"/>
<stop offset="1" stop-color="#FDC70C"/>
</linearGradient>
<linearGradient id="paint4_linear" x1="396.5" y1="102.706" x2="396.5" y2="11.1115" gradientUnits="userSpaceOnUse">
<stop stop-color="#E93E3A"/>
<stop offset="0.35" stop-color="#ED683C"/>
<stop offset="0.7" stop-color="#F3903F"/>
<stop offset="1" stop-color="#FDC70C"/>
</linearGradient>
<linearGradient id="paint5_linear" x1="399.5" y1="102.706" x2="399.5" y2="11.1114" gradientUnits="userSpaceOnUse">
<stop stop-color="#E93E3A"/>
<stop offset="0.35" stop-color="#ED683C"/>
<stop offset="0.7" stop-color="#F3903F"/>
<stop offset="1" stop-color="#FDC70C"/>
</linearGradient>
<linearGradient id="paint6_linear" x1="396.5" y1="102.706" x2="396.5" y2="11.1115" gradientUnits="userSpaceOnUse">
<stop stop-color="#E93E3A"/>
<stop offset="0.35" stop-color="#ED683C"/>
<stop offset="0.7" stop-color="#F3903F"/>
<stop offset="1" stop-color="#FDC70C"/>
</linearGradient>
<linearGradient id="paint7_linear" x1="399.5" y1="102.706" x2="399.5" y2="11.1115" gradientUnits="userSpaceOnUse">
<stop stop-color="#E93E3A"/>
<stop offset="0.35" stop-color="#ED683C"/>
<stop offset="0.7" stop-color="#F3903F"/>
<stop offset="1" stop-color="#FDC70C"/>
</linearGradient>
<linearGradient id="paint8_linear" x1="396.5" y1="102.706" x2="396.5" y2="11.1113" gradientUnits="userSpaceOnUse">
<stop stop-color="#E93E3A"/>
<stop offset="0.35" stop-color="#ED683C"/>
<stop offset="0.7" stop-color="#F3903F"/>
<stop offset="1" stop-color="#FDC70C"/>
</linearGradient>
<clipPath id="clip0">
<rect width="48" height="48" fill="white" transform="translate(768 395)"/>
</clipPath>
<clipPath id="clip1">
<rect width="36" height="36" fill="white" transform="translate(575 326)"/>
</clipPath>
</defs>
</svg>
