<svg width="423" height="382" viewBox="0 0 423 382" fill="none" xmlns="http://www.w3.org/2000/svg">
<path d="M9.87671 382C8.7152 381.996 7.63693 381.4 7.01645 380.418C6.39786 379.437 6.32219 378.207 6.81971 377.157L43.0573 301.373H7.10914C5.94763 301.373 4.86747 300.777 4.24699 299.796C3.62651 298.812 3.55273 297.58 4.05214 296.531L48.2046 203.937C48.7645 202.755 49.9544 202 51.2635 202H104.245C105.438 202 106.545 202.628 107.156 203.653C107.769 204.679 107.795 205.952 107.228 207.002L70.1692 275.614H104.706C106.064 275.612 107.294 276.42 107.829 277.67C108.365 278.921 108.1 280.368 107.16 281.35L12.3284 380.948C11.689 381.62 10.8036 382 9.87671 382ZM12.4835 294.593H48.4354C49.5969 294.597 50.6771 295.193 51.2975 296.175C51.9161 297.157 51.9918 298.386 51.4943 299.436L22.152 360.799L96.7988 282.394H64.4827C63.2891 282.394 62.1824 281.766 61.5714 280.74C60.9585 279.715 60.932 278.442 61.4995 277.392L98.5619 208.787H53.3954L12.4835 294.593ZM111.774 373.022C110.614 373.018 109.534 372.422 108.915 371.44C108.295 370.458 108.221 369.229 108.717 368.179L131.122 321.319H110.007C108.83 321.321 107.737 320.714 107.118 319.713C106.499 318.713 106.443 317.464 106.969 316.412L136.672 257.039C137.245 255.891 138.42 255.166 139.703 255.166H173.678C174.887 255.166 176.003 255.808 176.61 256.852C177.217 257.896 177.223 259.184 176.625 260.232L152.623 302.37H172.577C173.933 302.368 175.159 303.176 175.692 304.423C176.228 305.669 175.969 307.115 175.032 308.098L114.221 371.97C113.582 372.64 112.697 373.02 111.772 373.022H111.774ZM115.487 314.54H136.498C137.658 314.543 138.738 315.139 139.358 316.121C139.977 317.103 140.053 318.332 139.555 319.382L124.049 351.821L164.677 309.15H146.791C145.584 309.15 144.466 308.507 143.861 307.463C143.253 306.418 143.248 305.13 143.846 304.082L167.846 261.948H141.797L115.487 314.54Z" fill="#1D66FF"/>
<path d="M244.6 231.2H236.6V239.2H244.6V231.2Z" fill="#1D66FF"/>
<path d="M353.4 231.2H345.4V239.2H353.4V231.2Z" fill="#1D66FF"/>
<path d="M244.6 16.8H236.6V24.8H244.6V16.8Z" fill="#1D66FF"/>
<path d="M353.4 16.8H345.4V24.8H353.4V16.8Z" fill="#1D66FF"/>
<path d="M191.8 69.6H183.8V77.6H191.8V69.6Z" fill="#1D66FF"/>
<path d="M191.8 178.4H183.8V186.4H191.8V178.4Z" fill="#1D66FF"/>
<path d="M406.2 69.6H398.2V77.6H406.2V69.6Z" fill="#1D66FF"/>
<path d="M406.2 178.4H398.2V186.4H406.2V178.4Z" fill="#1D66FF"/>
<path d="M381.4 132C382.2 136 384.2 140 387 142.8C391 146.8 396.2 148.8 401.8 148.8C407.4 148.8 412.6 146.8 416.6 142.8C420.6 138.8 422.6 133.6 422.6 128C422.6 122.4 420.6 117.2 416.6 113.2C412.6 109.2 407.4 107.2 401.8 107.2C396.2 107.2 391 109.2 387 113.2C384.2 116 382.2 120 381.4 124H353C352.2 120.4 349 117.6 345 117.6H339.8V105.2C339.8 100.4 339 95.6 337.4 91.2L390.2 38.4C393.8 40.8 397.8 42 401.8 42C407.4 42 412.6 40 416.6 36C420.6 32 423 26.4 423 20.8C423 15.2 421 10 417 6C413 2 407.8 0 402.2 0C396.6 0 391.4 2 387.4 6C383.4 10 381.4 15.2 381.4 20.8C381.4 25.2 382.6 29.2 385 32.4L334.2 83.2C327 70.4 314.2 61.6 299 60.4V41.6C303 40.8 307 38.8 309.8 36C317.8 28 317.8 14.4 309.8 6.4C305.8 2.4 300.6 0.4 295 0.4C289.4 0.4 284.2 2.4 280.2 6.4C272.2 14.4 272.2 28 280.2 36C283 38.8 287 40.8 291 41.6V60.4C275.8 61.6 263 70.4 255.8 83.2L205.4 32.8C211 24.8 210.2 13.6 203 6.4C198.6 2 193.4 0 187.8 0C182.2 0 177 2 173 6C165 14 165 27.6 173 35.6C177 39.6 182.2 41.6 187.8 41.6C192.2 41.6 196.2 40.4 199.4 38L252.2 90.8C250.6 95.2 249.8 100 249.8 104.8V117.2H244.6C240.6 117.2 237.4 120 236.6 123.6H208.2C207.4 119.6 205.4 116 202.6 112.8C198.6 108.8 193.4 106.8 187.8 106.8C182.2 106.8 177 108.8 173 112.8C165 120.8 165 134.4 173 142.4C177 146.4 182.2 148.4 187.8 148.4C193.4 148.4 198.6 146.4 202.6 142.4C205.8 139.2 207.4 135.6 208.2 131.6H236.6V180.4L199.4 217.6C195.8 215.2 191.8 214 187.8 214C182.2 214 177 216 173 220C169 224 167 229.2 167 234.8C167 240.4 169 245.6 173 249.6C177 253.6 182.2 255.6 187.8 255.6C193.4 255.6 198.6 253.6 202.6 249.6C209.8 242.4 210.6 231.2 205 223.2L236.6 191.6V193.2C236.6 197.6 240.2 201.2 244.6 201.2H291V214C287 214.8 283 216.8 280.2 219.6C272.2 227.6 272.2 241.2 280.2 249.2C284.2 253.2 289.4 255.2 295 255.2C300.6 255.2 305.8 253.2 309.8 249.2C313.8 245.2 315.8 240 315.8 234.4C315.8 228.8 313.8 223.6 309.8 219.6C307 217.2 303 215.2 299 214.4V201.6H345.4C349.8 201.6 353.4 198 353.4 193.6V192L385 223.6C382.6 227.2 381.4 231.2 381.4 235.2C381.4 240.8 383.4 246 387.4 250C391.4 254 396.6 256 402.2 256C407.8 256 413 254 417 250C421 246 423 240.8 423 235.2C423 229.6 421 224.4 417 220.4C413 216.4 407.8 214.4 402.2 214.4C397.8 214.4 393.8 215.6 390.6 218L353.4 180.8V132H381.4ZM393 118.8C395.4 116.4 398.6 115.2 402.2 115.2C405.8 115.2 409 116.4 411.4 118.8C413.8 121.2 415 124.4 415 128C415 131.6 413.8 134.8 411.4 137.2C406.6 142 397.8 142 393 137.2C390.6 134.8 389.4 131.6 389.4 128C389 124.4 390.6 121.2 393 118.8ZM393 11.6C395.4 9.2 398.6 8 402.2 8C405.8 8 409 9.2 411.4 11.6C413.8 14.4 415 17.6 415 20.8C415 24.4 413.8 27.6 411.4 30C406.6 34.8 397.8 34.8 393 30C390.6 27.6 389.4 24.4 389.4 20.8C389 17.6 390.6 14.4 393 11.6ZM178.6 30C173.4 24.8 173.4 16.8 178.6 11.6C181.4 9.2 184.6 8 187.8 8C191.4 8 194.6 9.2 197 11.6C202.2 16.8 202.2 24.8 197 30C192.2 34.8 183.8 34.8 178.6 30ZM197 137.2C192.2 142 183.4 142 178.6 137.2C173.4 132 173.4 124 178.6 118.8C181 116.4 184.2 115.2 187.8 115.2C191.4 115.2 194.6 116.4 197 118.8C202.2 124 202.2 132 197 137.2ZM197 244.4C192.2 249.2 183.4 249.2 178.6 244.4C176.2 241.6 175 238.4 175 235.2C175 231.6 176.2 228.4 178.6 226C181 223.6 184.2 222.4 187.8 222.4C191.4 222.4 194.6 223.6 197 226C202.2 230.8 202.2 239.2 197 244.4ZM307.8 235.2C307.8 238.8 306.6 242 304.2 244.4C299.4 249.2 290.6 249.2 285.8 244.4C280.6 239.2 280.6 231.2 285.8 226C288.2 223.6 291.4 222.4 295 222.4C298.6 222.4 301.8 223.6 304.2 226C306.6 228.4 307.8 231.6 307.8 235.2ZM285.8 11.6C288.2 9.2 291.4 8 295 8C298.6 8 301.8 9.2 304.2 11.6C309.4 16.8 309.4 24.8 304.2 30C299.4 34.8 290.6 34.8 285.8 30C281 25.2 281 16.8 285.8 11.6ZM258.2 105.2C258.2 84.8 274.6 68.4 295 68.4C315.4 68.4 331.8 84.8 331.8 105.2V117.6H258.2V105.2ZM244.6 193.6V125.6H345V194H244.6V193.6ZM402.2 222C405.8 222 409 223.2 411.4 225.6C413.8 228 415 231.2 415 234.8C415 238.4 413.8 241.6 411.4 244C406.6 248.8 398.2 248.8 393 244C390.6 241.6 389.4 238.4 389.4 234.8C389.4 231.2 390.6 228 393 225.6C395.4 223.6 398.6 222 402.2 222Z" fill="#1D66FF"/>
<path d="M295 144.8C289.8 144.8 285.4 149.2 285.4 154.4C285.4 158.4 287.8 161.6 291 163.2V174.8H299V163.2C302.2 161.6 304.6 158.4 304.6 154.4C304.6 148.8 300.2 144.8 295 144.8Z" fill="#1D66FF"/>
</svg>
