<svg width="144" height="144" viewBox="0 0 144 144" fill="none" xmlns="http://www.w3.org/2000/svg">
<path d="M72 21.15C77.2191 21.15 81.45 16.9191 81.45 11.7C81.45 6.48091 77.2191 2.25 72 2.25C66.7809 2.25 62.55 6.48091 62.55 11.7C62.55 16.9191 66.7809 21.15 72 21.15Z" fill="#1D66FF"/>
<path d="M132.3 21.15C137.519 21.15 141.75 16.9191 141.75 11.7C141.75 6.48091 137.519 2.25 132.3 2.25C127.081 2.25 122.85 6.48091 122.85 11.7C122.85 16.9191 127.081 21.15 132.3 21.15Z" fill="#1D66FF"/>
<path d="M132.3 81.4501C137.519 81.4501 141.75 77.2191 141.75 72C141.75 66.781 137.519 62.55 132.3 62.55C127.081 62.55 122.85 66.781 122.85 72C122.85 77.2191 127.081 81.4501 132.3 81.4501Z" fill="#1D66FF"/>
<path d="M72 141.75C77.2191 141.75 81.45 137.519 81.45 132.3C81.45 127.081 77.2191 122.85 72 122.85C66.7809 122.85 62.55 127.081 62.55 132.3C62.55 137.519 66.7809 141.75 72 141.75Z" fill="#1D66FF"/>
<path d="M11.7 141.75C16.9191 141.75 21.15 137.519 21.15 132.3C21.15 127.081 16.9191 122.85 11.7 122.85C6.48091 122.85 2.25 127.081 2.25 132.3C2.25 137.519 6.48091 141.75 11.7 141.75Z" fill="#1D66FF"/>
<path d="M132.3 141.75C137.519 141.75 141.75 137.519 141.75 132.3C141.75 127.081 137.519 122.85 132.3 122.85C127.081 122.85 122.85 127.081 122.85 132.3C122.85 137.519 127.081 141.75 132.3 141.75Z" fill="#1D66FF"/>
<path d="M11.7 21.15C16.9191 21.15 21.15 16.9191 21.15 11.7C21.15 6.48091 16.9191 2.25 11.7 2.25C6.48091 2.25 2.25 6.48091 2.25 11.7C2.25 16.9191 6.48091 21.15 11.7 21.15Z" fill="#1D66FF"/>
<path d="M11.7 81.4501C16.9191 81.4501 21.15 77.2191 21.15 72C21.15 66.781 16.9191 62.55 11.7 62.55C6.48091 62.55 2.25 66.781 2.25 72C2.25 77.2191 6.48091 81.4501 11.7 81.4501Z" fill="#1D66FF"/>
<path d="M43.65 130.05H39.15V134.55H43.65V130.05Z" fill="#1253DC"/>
<path d="M104.85 130.05H100.35V134.55H104.85V130.05Z" fill="#1253DC"/>
<path d="M43.65 9.44995H39.15V13.95H43.65V9.44995Z" fill="#1253DC"/>
<path d="M104.85 9.44995H100.35V13.95H104.85V9.44995Z" fill="#1253DC"/>
<path d="M13.95 39.1499H9.45001V43.6499H13.95V39.1499Z" fill="#1253DC"/>
<path d="M13.95 100.35H9.45001V104.85H13.95V100.35Z" fill="#1253DC"/>
<path d="M134.55 39.1499H130.05V43.6499H134.55V39.1499Z" fill="#1253DC"/>
<path d="M134.55 100.35H130.05V104.85H134.55V100.35Z" fill="#1253DC"/>
<path d="M100.35 111.15H43.65C42.3 111.15 41.4 110.25 41.4 108.9V70.6501C41.4 69.3001 42.3 68.4001 43.65 68.4001H100.125C101.475 68.4001 102.375 69.3001 102.375 70.6501V109.125C102.6 110.25 101.475 111.15 100.35 111.15Z" fill="#1D66FF"/>
<path d="M120.6 74.25C121.05 76.5 122.175 78.75 123.75 80.325C126 82.575 128.925 83.7 132.075 83.7C135.225 83.7 138.15 82.575 140.4 80.325C142.65 78.075 143.775 75.15 143.775 72C143.775 68.85 142.65 65.925 140.4 63.675C138.15 61.425 135.225 60.3 132.075 60.3C128.925 60.3 126 61.425 123.75 63.675C122.175 65.25 121.05 67.5 120.6 69.75H104.625C104.175 67.725 102.375 66.15 100.125 66.15H97.2V59.175C97.2 56.475 96.75 53.775 95.85 51.3L125.55 21.6C127.575 22.95 129.825 23.625 132.075 23.625C135.225 23.625 138.15 22.5 140.4 20.25C142.65 18 144 14.85 144 11.7C144 8.55 142.875 5.625 140.625 3.375C138.375 1.125 135.45 0 132.3 0C129.15 0 126.225 1.125 123.975 3.375C121.725 5.625 120.6 8.55 120.6 11.7C120.6 14.175 121.275 16.425 122.625 18.225L94.05 46.8C90 39.6 82.8 34.65 74.25 33.975V23.4C76.5 22.95 78.75 21.825 80.325 20.25C84.825 15.75 84.825 8.1 80.325 3.6C78.075 1.35 75.15 0.225 72 0.225C68.85 0.225 65.925 1.35 63.675 3.6C59.175 8.1 59.175 15.75 63.675 20.25C65.25 21.825 67.5 22.95 69.75 23.4V33.975C61.2 34.65 54 39.6 49.95 46.8L21.6 18.45C24.75 13.95 24.3 7.65 20.25 3.6C17.775 1.125 14.85 0 11.7 0C8.55 0 5.625 1.125 3.375 3.375C-1.125 7.875 -1.125 15.525 3.375 20.025C5.625 22.275 8.55 23.4 11.7 23.4C14.175 23.4 16.425 22.725 18.225 21.375L47.925 51.075C47.025 53.55 46.575 56.25 46.575 58.95V65.925H43.65C41.4 65.925 39.6 67.5 39.15 69.525H23.175C22.725 67.275 21.6 65.25 20.025 63.45C17.775 61.2 14.85 60.075 11.7 60.075C8.55 60.075 5.625 61.2 3.375 63.45C-1.125 67.95 -1.125 75.6 3.375 80.1C5.625 82.35 8.55 83.475 11.7 83.475C14.85 83.475 17.775 82.35 20.025 80.1C21.825 78.3 22.725 76.275 23.175 74.025H39.15V101.475L18.225 122.4C16.2 121.05 13.95 120.375 11.7 120.375C8.55 120.375 5.625 121.5 3.375 123.75C1.125 126 0 128.925 0 132.075C0 135.225 1.125 138.15 3.375 140.4C5.625 142.65 8.55 143.775 11.7 143.775C14.85 143.775 17.775 142.65 20.025 140.4C24.075 136.35 24.525 130.05 21.375 125.55L39.15 107.775V108.675C39.15 111.15 41.175 113.175 43.65 113.175H69.75V120.375C67.5 120.825 65.25 121.95 63.675 123.525C59.175 128.025 59.175 135.675 63.675 140.175C65.925 142.425 68.85 143.55 72 143.55C75.15 143.55 78.075 142.425 80.325 140.175C82.575 137.925 83.7 135 83.7 131.85C83.7 128.7 82.575 125.775 80.325 123.525C78.75 122.175 76.5 121.05 74.25 120.6V113.4H100.35C102.825 113.4 104.85 111.375 104.85 108.9V108L122.625 125.775C121.275 127.8 120.6 130.05 120.6 132.3C120.6 135.45 121.725 138.375 123.975 140.625C126.225 142.875 129.15 144 132.3 144C135.45 144 138.375 142.875 140.625 140.625C142.875 138.375 144 135.45 144 132.3C144 129.15 142.875 126.225 140.625 123.975C138.375 121.725 135.45 120.6 132.3 120.6C129.825 120.6 127.575 121.275 125.775 122.625L104.85 101.7V74.25H120.6ZM127.125 66.825C128.475 65.475 130.275 64.8 132.3 64.8C134.325 64.8 136.125 65.475 137.475 66.825C138.825 68.175 139.5 69.975 139.5 72C139.5 74.025 138.825 75.825 137.475 77.175C134.775 79.875 129.825 79.875 127.125 77.175C125.775 75.825 125.1 74.025 125.1 72C124.875 69.975 125.775 68.175 127.125 66.825ZM127.125 6.525C128.475 5.175 130.275 4.5 132.3 4.5C134.325 4.5 136.125 5.175 137.475 6.525C138.825 8.1 139.5 9.9 139.5 11.7C139.5 13.725 138.825 15.525 137.475 16.875C134.775 19.575 129.825 19.575 127.125 16.875C125.775 15.525 125.1 13.725 125.1 11.7C124.875 9.9 125.775 8.1 127.125 6.525ZM6.525 16.875C3.6 13.95 3.6 9.45 6.525 6.525C8.1 5.175 9.9 4.5 11.7 4.5C13.725 4.5 15.525 5.175 16.875 6.525C19.8 9.45 19.8 13.95 16.875 16.875C14.175 19.575 9.45 19.575 6.525 16.875ZM16.875 77.175C14.175 79.875 9.225 79.875 6.525 77.175C3.6 74.25 3.6 69.75 6.525 66.825C7.875 65.475 9.675 64.8 11.7 64.8C13.725 64.8 15.525 65.475 16.875 66.825C19.8 69.75 19.8 74.25 16.875 77.175ZM16.875 137.475C14.175 140.175 9.225 140.175 6.525 137.475C5.175 135.9 4.5 134.1 4.5 132.3C4.5 130.275 5.175 128.475 6.525 127.125C7.875 125.775 9.675 125.1 11.7 125.1C13.725 125.1 15.525 125.775 16.875 127.125C19.8 129.825 19.8 134.55 16.875 137.475ZM79.2 132.3C79.2 134.325 78.525 136.125 77.175 137.475C74.475 140.175 69.525 140.175 66.825 137.475C63.9 134.55 63.9 130.05 66.825 127.125C68.175 125.775 69.975 125.1 72 125.1C74.025 125.1 75.825 125.775 77.175 127.125C78.525 128.475 79.2 130.275 79.2 132.3ZM66.825 6.525C68.175 5.175 69.975 4.5 72 4.5C74.025 4.5 75.825 5.175 77.175 6.525C80.1 9.45 80.1 13.95 77.175 16.875C74.475 19.575 69.525 19.575 66.825 16.875C64.125 14.175 64.125 9.45 66.825 6.525ZM51.3 59.175C51.3 47.7 60.525 38.475 72 38.475C83.475 38.475 92.7 47.7 92.7 59.175V66.15H51.3V59.175ZM43.65 108.9V70.65H100.125V109.125H43.65V108.9ZM132.3 124.875C134.325 124.875 136.125 125.55 137.475 126.9C138.825 128.25 139.5 130.05 139.5 132.075C139.5 134.1 138.825 135.9 137.475 137.25C134.775 139.95 130.05 139.95 127.125 137.25C125.775 135.9 125.1 134.1 125.1 132.075C125.1 130.05 125.775 128.25 127.125 126.9C128.475 125.775 130.275 124.875 132.3 124.875Z" fill="#1253DC"/>
<path d="M72 81.45C69.075 81.45 66.6 83.9249 66.6 86.8499C66.6 89.0999 67.95 90.8999 69.75 91.7999V98.325H74.25V91.7999C76.05 90.8999 77.4 89.0999 77.4 86.8499C77.4 83.6999 74.925 81.45 72 81.45Z" fill="#1253DC"/>
</svg>
