<svg width="624" height="294" viewBox="0 0 624 294" fill="none" xmlns="http://www.w3.org/2000/svg">
<g clip-path="url(#clip0)">
<path d="M624 108.738V113.76C624 116.964 621.887 120.168 617.678 122.614C609.2 127.543 595.417 127.543 586.871 122.614C582.558 120.149 580.432 116.884 580.444 113.637V108.615C580.444 111.862 582.576 115.115 586.871 117.592C595.398 122.522 609.188 122.522 617.678 117.592C621.88 115.146 623.988 111.93 624 108.738Z" fill="#C7CDE6"/>
<path d="M623.967 108.727C623.987 101.761 614.256 96.087 602.234 96.0534C590.211 96.0199 580.449 101.64 580.43 108.605C580.411 115.571 590.141 121.245 602.163 121.279C614.186 121.312 623.948 115.693 623.967 108.727Z" fill="#C7CDE6"/>
<path d="M617.5 101.172C626.027 106.101 626.076 114.074 617.598 119.003C609.12 123.932 595.343 123.932 586.791 119.003C578.239 114.074 578.214 106.064 586.692 101.172C595.17 96.2796 608.966 96.2426 617.5 101.172Z" fill="white"/>
<path d="M615.873 101.93C623.556 106.366 623.593 113.55 615.972 117.981C608.35 122.411 595.934 122.417 588.245 117.981C580.555 113.544 580.524 106.366 588.159 101.93C595.793 97.4936 608.202 97.4998 615.873 101.93Z" fill="#1D66FF"/>
<path d="M623.908 102.281V107.303C623.908 110.513 621.788 113.717 617.58 116.163C609.108 121.092 595.318 121.092 586.772 116.163C582.459 113.698 580.34 110.426 580.346 107.179V102.158C580.346 105.405 582.478 108.658 586.772 111.135C595.3 116.064 609.083 116.064 617.58 111.135C621.794 108.689 623.901 105.491 623.908 102.281Z" fill="#C7CDE6"/>
<path d="M621.973 101.449C621.973 94.4831 612.227 88.8363 600.204 88.8363C588.182 88.8363 578.436 94.4831 578.436 101.449C578.436 108.415 588.182 114.062 600.204 114.062C612.227 114.062 621.973 108.415 621.973 101.449Z" fill="#C7CDE6"/>
<path d="M617.407 94.7145C625.941 99.6437 625.984 107.623 617.506 112.546C609.028 117.469 595.257 117.475 586.698 112.546C578.14 107.617 578.128 99.6375 586.6 94.7145C595.072 89.7915 608.88 89.7915 617.407 94.7145Z" fill="white"/>
<path d="M615.818 95.4786C623.495 99.9087 623.532 107.093 615.904 111.529C608.276 115.966 595.873 115.966 588.177 111.529C580.481 107.093 580.463 99.9087 588.091 95.4786C595.719 91.0485 608.11 91.0485 615.818 95.4786Z" fill="#1D66FF"/>
<path d="M623.908 95.6513V100.673C623.908 103.877 621.788 107.081 617.58 109.527C609.108 114.456 595.318 114.456 586.772 109.527C582.459 107.062 580.34 103.797 580.346 100.55V95.5281C580.346 98.7752 582.478 102.028 586.772 104.505C595.3 109.435 609.083 109.435 617.58 104.505C621.794 102.072 623.901 98.8553 623.908 95.6513Z" fill="#C7CDE6"/>
<path d="M623.881 95.6403C623.9 88.6746 614.17 83.0006 602.147 82.967C590.125 82.9334 580.363 88.553 580.344 95.5187C580.324 102.484 590.054 108.159 602.077 108.192C614.099 108.226 623.861 102.606 623.881 95.6403Z" fill="#C7CDE6"/>
<path d="M617.407 88.0847C625.941 93.0139 625.984 100.987 617.512 105.916C609.04 110.845 595.257 110.845 586.704 105.916C578.152 100.987 578.134 93.0078 586.606 88.0847C595.078 83.1617 608.88 83.1555 617.407 88.0847Z" fill="white"/>
<path d="M615.818 88.8488C623.495 93.2789 623.532 100.463 615.91 104.869C608.288 109.274 595.873 109.305 588.183 104.869C580.494 100.432 580.469 93.2481 588.097 88.8488C595.725 84.4494 608.11 84.4125 615.818 88.8488Z" fill="#1D66FF"/>
<path d="M623.932 88.5901V93.6117C623.932 96.8157 621.813 100.02 617.604 102.466C609.132 107.395 595.349 107.395 586.797 102.466C582.484 100.001 580.358 96.7294 580.364 93.4823V88.4607C580.364 91.7078 582.496 94.9611 586.791 97.4442C595.318 102.373 609.102 102.373 617.598 97.4442C621.819 94.998 623.926 91.7941 623.932 88.5901Z" fill="#C7CDE6"/>
<path d="M617.512 79.6129C626.039 84.5421 626.076 92.5212 617.604 97.4443C609.132 102.367 595.349 102.373 586.797 97.4443C578.245 92.5151 578.22 84.5051 586.698 79.6067C595.176 74.7083 608.978 74.6898 617.512 79.6129Z" fill="#C7CDE6"/>
<path d="M623.837 89.9929C623.857 83.0272 614.126 77.3532 602.104 77.3196C590.082 77.2861 580.32 82.9056 580.3 89.8714C580.281 96.8371 590.011 102.511 602.034 102.545C614.056 102.578 623.818 96.9587 623.837 89.9929Z" fill="white"/>
<path d="M617.364 79.7421C625.799 84.6097 625.842 92.5087 617.463 97.3763C609.083 102.244 595.46 102.244 587.025 97.3763C578.59 92.5087 578.547 84.6159 586.926 79.7421C595.306 74.8684 608.935 74.8745 617.364 79.7421Z" fill="white"/>
<path d="M296.411 252.572V257.6C296.411 260.804 294.292 264.008 290.084 266.454C281.612 271.383 267.822 271.383 259.276 266.454C254.963 263.989 252.843 260.724 252.85 257.471V252.449C252.85 255.696 254.988 258.949 259.276 261.432C267.804 266.362 281.593 266.362 290.084 261.432C294.292 258.98 296.399 255.782 296.411 252.572Z" fill="#C7CDE6"/>
<path d="M296.393 252.555C296.413 245.589 286.683 239.915 274.66 239.881C262.638 239.848 252.876 245.467 252.856 252.433C252.837 259.399 262.567 265.073 274.59 265.106C286.612 265.14 296.374 259.52 296.393 252.555Z" fill="#C7CDE6"/>
<path d="M289.911 245.018C298.445 249.948 298.488 257.927 290.016 262.85C281.544 267.773 267.76 267.779 259.208 262.85C250.656 257.921 250.65 249.948 259.128 245.018C267.606 240.089 281.384 240.089 289.911 245.018Z" fill="white"/>
<path d="M288.291 245.77C295.968 250.2 296.011 257.39 288.383 261.79C280.755 266.189 268.346 266.22 260.656 261.79C252.967 257.36 252.942 250.169 260.57 245.77C268.198 241.371 280.632 241.321 288.291 245.77Z" fill="#1D66FF"/>
<path d="M296.319 246.121V251.143C296.319 254.347 294.206 257.551 289.997 259.997C281.519 264.926 267.736 264.926 259.19 259.997C254.877 257.532 252.751 254.267 252.763 251.02V245.998C252.763 249.245 254.895 252.498 259.19 254.975C267.717 259.905 281.507 259.905 289.997 254.975C294.187 252.529 296.313 249.331 296.319 246.121Z" fill="#C7CDE6"/>
<path d="M296.307 246.104C296.326 239.139 286.596 233.464 274.574 233.431C262.551 233.397 252.789 239.017 252.77 245.983C252.751 252.948 262.481 258.622 274.503 258.656C286.526 258.69 296.288 253.07 296.307 246.104Z" fill="#C7CDE6"/>
<path d="M289.819 238.549C298.352 243.478 298.402 251.488 289.923 256.417C281.445 261.346 267.668 261.346 259.116 256.417C250.564 251.488 250.564 243.478 259.066 238.555C267.569 233.632 281.291 233.626 289.819 238.549Z" fill="white"/>
<path d="M288.198 239.313C295.875 243.749 295.912 250.933 288.284 255.333C280.656 259.732 268.259 259.769 260.558 255.333C252.856 250.896 252.843 243.718 260.471 239.313C268.099 234.907 280.527 234.883 288.198 239.313Z" fill="#1D66FF"/>
<path d="M296.319 239.473V244.501C296.319 247.705 294.206 250.909 289.997 253.355C281.519 258.284 267.736 258.284 259.19 253.355C254.877 250.89 252.751 247.625 252.763 244.371V239.35C252.763 242.597 254.895 245.85 259.19 248.333C267.717 253.263 281.507 253.263 289.997 248.333C294.187 245.893 296.313 242.696 296.319 239.473Z" fill="#C7CDE6"/>
<path d="M296.301 239.474C296.32 232.509 286.59 226.835 274.567 226.801C262.545 226.767 252.783 232.387 252.764 239.353C252.744 246.318 262.475 251.993 274.497 252.026C286.519 252.06 296.281 246.44 296.301 239.474Z" fill="#C7CDE6"/>
<path d="M289.819 231.919C298.352 236.848 298.402 244.858 289.923 249.75C281.445 254.643 267.668 254.68 259.116 249.75C250.564 244.821 250.545 236.848 259.023 231.919C267.502 226.99 281.291 226.996 289.819 231.919Z" fill="white"/>
<path d="M288.198 232.695C295.875 237.132 295.912 244.31 288.291 248.715C280.669 253.121 268.259 253.152 260.564 248.715C252.868 244.279 252.85 237.101 260.478 232.695C268.105 228.29 280.527 228.253 288.198 232.695Z" fill="#1D66FF"/>
<path d="M296.35 232.424V237.446C296.35 240.656 294.236 243.86 290.022 246.306C281.55 251.235 267.767 251.235 259.214 246.306C254.901 243.841 252.776 240.576 252.788 237.329V232.307C252.788 235.554 254.92 238.808 259.214 241.284C267.742 246.214 281.525 246.214 290.022 241.284C294.23 238.857 296.338 235.634 296.35 232.424Z" fill="#C7CDE6"/>
<path d="M289.923 223.453C298.451 228.382 298.494 236.355 290.022 241.284C281.55 246.214 267.76 246.214 259.214 241.284C250.668 236.355 250.644 228.345 259.116 223.453C267.588 218.561 281.39 218.524 289.923 223.453Z" fill="#C7CDE6"/>
<path d="M296.258 233.821C296.277 226.855 286.547 221.181 274.524 221.147C262.502 221.114 252.74 226.733 252.721 233.699C252.701 240.665 262.431 246.339 274.454 246.373C286.476 246.406 296.238 240.787 296.258 233.821Z" fill="white"/>
<path d="M289.775 223.576C298.211 228.45 298.254 236.343 289.874 241.211C281.494 246.078 267.871 246.078 259.436 241.211C251.001 236.343 250.958 228.45 259.338 223.582C267.717 218.715 281.347 218.709 289.775 223.576Z" fill="white"/>
<path d="M376.098 59.8096V64.8313C376.098 68.0414 373.985 71.2392 369.77 73.6853C361.298 78.6145 347.515 78.6145 338.963 73.6853C334.65 71.2207 332.53 67.9551 332.542 64.708V59.6864C332.542 62.9335 334.674 66.1868 338.969 68.6637C347.496 73.5929 361.286 73.5929 369.776 68.6637C373.985 66.2176 376.092 63.0198 376.098 59.8096Z" fill="#C7CDE6"/>
<path d="M376.082 59.8025C376.101 52.8368 366.371 47.1627 354.348 47.1291C342.326 47.0956 332.564 52.7152 332.545 59.6809C332.525 66.6466 342.256 72.3207 354.278 72.3542C366.3 72.3878 376.062 66.7682 376.082 59.8025Z" fill="#C7CDE6"/>
<path d="M369.604 52.2433C378.131 57.1725 378.175 65.1517 369.702 70.0747C361.23 74.9977 347.447 75.0039 338.895 70.0747C330.343 65.1455 330.318 57.1663 338.796 52.2433C347.275 47.3203 361.07 47.3203 369.604 52.2433Z" fill="white"/>
<path d="M367.977 53.0074C375.661 57.4375 375.698 64.6218 368.076 69.0581C360.454 73.4944 348.039 73.4882 340.349 69.0581C332.66 64.628 332.629 57.4375 340.257 53.0074C347.885 48.5773 360.306 48.5711 367.977 53.0074Z" fill="#1D66FF"/>
<path d="M376.012 53.3586V58.3803C376.012 61.5842 373.892 64.7882 369.684 67.2343C361.212 72.1635 347.423 72.1635 338.877 67.2343C334.563 64.7697 332.444 61.5041 332.45 58.257V53.2292C332.45 56.4825 334.588 59.7358 338.877 62.2127C347.41 67.1419 361.194 67.1419 369.684 62.2127C373.892 59.7666 376 56.5626 376.012 53.3586Z" fill="#C7CDE6"/>
<path d="M375.989 53.3457C376.008 46.38 366.278 40.7059 354.256 40.6724C342.233 40.6388 332.471 46.2584 332.452 53.2241C332.433 60.1899 342.163 65.8639 354.185 65.8975C366.208 65.931 375.97 60.3114 375.989 53.3457Z" fill="#C7CDE6"/>
<path d="M369.512 45.7861C378.045 50.7153 378.088 58.7253 369.61 63.6545C361.132 68.5837 347.361 68.5837 338.803 63.6545C330.244 58.7253 330.226 50.7523 338.704 45.8293C347.182 40.9062 360.984 40.8631 369.512 45.7861Z" fill="white"/>
<path d="M367.891 46.5502C375.568 50.9865 375.605 58.1708 367.977 62.6009C360.349 67.0311 347.946 67.0372 340.251 62.6009C332.555 58.1647 332.536 50.9865 340.158 46.581C347.78 42.1755 360.214 42.1201 367.891 46.5502Z" fill="#1D66FF"/>
<path d="M376.012 46.7227V51.7443C376.012 54.9545 373.892 58.1523 369.684 60.5984C361.212 65.5276 347.423 65.5276 338.877 60.5984C334.563 58.1338 332.444 54.8682 332.45 51.6211V46.5995C332.45 49.8466 334.588 53.0999 338.877 55.5768C347.41 60.506 361.194 60.506 369.684 55.5768C373.892 53.1307 376 49.9329 376.012 46.7227Z" fill="#C7CDE6"/>
<path d="M375.989 46.716C376.008 39.7502 366.278 34.0762 354.256 34.0426C342.233 34.009 332.471 39.6287 332.452 46.5944C332.433 53.5601 342.163 59.2341 354.185 59.2677C366.208 59.3013 375.97 53.6817 375.989 46.716Z" fill="#C7CDE6"/>
<path d="M369.511 39.1564C378.045 44.0856 378.088 52.0647 369.616 56.9878C361.144 61.9108 347.361 61.917 338.809 56.9878C330.257 52.0586 330.232 44.0794 338.71 39.1564C347.188 34.2334 360.984 34.2334 369.511 39.1564Z" fill="white"/>
<path d="M367.891 39.9203C375.568 44.3504 375.605 51.5347 367.977 55.9402C360.349 60.3457 347.946 60.3765 340.251 55.9402C332.555 51.5039 332.536 44.3196 340.164 39.8895C347.792 35.4594 360.214 35.4902 367.891 39.9203Z" fill="#1D66FF"/>
<path d="M376.037 39.6617V44.6833C376.037 47.8934 373.917 51.0913 369.709 53.5435C361.237 58.4727 347.453 58.4727 338.901 53.5435C334.588 51.0789 332.469 47.8134 332.475 44.5662V39.5385C332.475 42.7917 334.607 46.0388 338.901 48.5219C347.429 53.4511 361.212 53.4511 369.709 48.5219C373.917 46.0696 376.03 42.8718 376.037 39.6617Z" fill="#C7CDE6"/>
<path d="M369.61 30.6844C378.144 35.6136 378.181 43.5927 369.709 48.5157C361.237 53.4388 347.453 53.4449 338.901 48.5157C330.349 43.5865 330.324 35.6074 338.796 30.6782C347.268 25.749 361.082 25.7613 369.61 30.6844Z" fill="#C7CDE6"/>
<path d="M375.946 41.0685C375.965 34.1027 366.235 28.4287 354.213 28.3951C342.19 28.3616 332.428 33.9812 332.409 40.9469C332.389 47.9126 342.12 53.5867 354.142 53.6202C366.164 53.6538 375.926 48.0342 375.946 41.0685Z" fill="white"/>
<path d="M369.468 30.8136C377.903 35.6812 377.947 43.5803 369.567 48.4479C361.187 53.3154 347.558 53.3154 339.123 48.4479C330.688 43.5803 330.645 35.6874 339.024 30.8198C347.404 25.9522 361.033 25.946 369.468 30.8136Z" fill="white"/>
<path d="M172.072 208.622L172.06 213.65L164.993 198.561L165.005 193.539L172.072 208.622Z" fill="#F7A411"/>
<path d="M210.083 186.54L217.15 201.623L198.142 212.671L172.072 208.622L165.005 193.539L184.013 182.491L210.083 186.54Z" fill="#F7A411"/>
<path d="M217.15 201.623L217.131 206.645L198.129 217.692L198.142 212.671L217.15 201.623Z" fill="#F7A411"/>
<path d="M198.142 212.671L198.129 217.692L172.06 213.65L172.072 208.623L198.142 212.671Z" fill="#F7A411"/>
<path d="M184.389 182.594L210.026 186.568L216.78 200.995L198.327 211.724L172.696 207.75L165.935 193.316L184.389 182.594Z" fill="white" stroke="#F7A411"/>
<path d="M376.406 173.761L376.394 178.782L369.327 163.699L369.345 158.671L376.406 173.761Z" fill="#F7A411"/>
<path d="M414.417 151.672L421.484 166.761L402.482 177.803L376.406 173.761L369.345 158.671L388.347 147.63L414.417 151.672Z" fill="#F7A411"/>
<path d="M421.484 166.761L421.471 171.783L402.463 182.824L402.482 177.802L421.484 166.761Z" fill="#F7A411"/>
<path d="M402.482 177.802L402.463 182.824L376.394 178.782L376.406 173.76L402.482 177.802Z" fill="#F7A411"/>
<path d="M388.729 147.726L414.366 151.7L421.12 166.134L402.667 176.856L377.03 172.882L370.275 158.448L388.729 147.726Z" fill="white" stroke="#F7A411"/>
<path d="M132.189 93.0571L132.177 98.0788L120.71 112.195L120.722 107.173L132.189 93.0571Z" fill="#F7A411"/>
<path d="M116.791 80.2104L132.189 93.0572L120.722 107.173L93.852 108.436L78.4482 95.5896L89.921 81.4736L116.791 80.2104Z" fill="#F7A411"/>
<path d="M120.722 107.173L120.71 112.195L93.8335 113.458L93.852 108.436L120.722 107.173Z" fill="#F7A411"/>
<path d="M93.852 108.436L93.8335 113.458L78.4359 100.611L78.4482 95.5896L93.852 108.436Z" fill="#F7A411"/>
<path d="M90.0571 81.6112L116.516 80.3677L131.391 92.7736L120.371 106.333L93.9182 107.583L79.0487 95.1705L90.0571 81.6112Z" fill="white" stroke="#F7A411"/>
<path d="M189.115 54.665L189.097 59.6866L182.029 44.5971L182.048 39.5754L189.115 54.665Z" fill="#FC449C"/>
<path d="M227.125 32.5759L234.186 47.6592L215.178 58.7068L189.115 54.6649L182.048 39.5754L201.05 28.5339L227.125 32.5759Z" fill="#FC449C"/>
<path d="M234.186 47.6592L234.174 52.687L215.166 63.7284L215.178 58.7068L234.186 47.6592Z" fill="#FC449C"/>
<path d="M215.178 58.7069L215.166 63.7285L189.096 59.6865L189.115 54.6649L215.178 58.7069Z" fill="#FC449C"/>
<path d="M201.105 28.63L226.742 32.604L233.49 47.0377L215.037 57.7604L189.406 53.7864L182.651 39.3526L201.105 28.63Z" fill="white" stroke="#FC449C"/>
<path d="M460.498 205.215L460.48 210.237L453.413 195.147L453.425 190.125L460.498 205.215Z" fill="#FC449C"/>
<path d="M498.502 183.126L505.57 198.209L486.561 209.257L460.498 205.215L453.425 190.125L472.433 179.084L498.502 183.126Z" fill="#FC449C"/>
<path d="M505.57 198.209L505.557 203.237L486.549 214.278L486.562 209.257L505.57 198.209Z" fill="#FC449C"/>
<path d="M486.561 209.257L486.549 214.278L460.48 210.236L460.498 205.215L486.561 209.257Z" fill="#FC449C"/>
<path d="M472.488 179.18L498.119 183.154L504.874 197.588L486.42 208.311L460.789 204.337L454.035 189.903L472.488 179.18Z" fill="white" stroke="#FC449C"/>
<path d="M82.3362 184.63L82.3238 189.651L75.2628 174.562L75.2751 169.54L82.3362 184.63Z" fill="#FC449C"/>
<path d="M120.353 162.54L127.414 177.63L108.405 188.671L82.3362 184.629L75.2751 169.54L94.2772 158.499L120.353 162.54Z" fill="#FC449C"/>
<path d="M127.414 177.63L127.395 182.651L108.393 193.693L108.405 188.671L127.414 177.63Z" fill="#FC449C"/>
<path d="M108.405 188.671L108.393 193.693L82.3238 189.651L82.3362 184.629L108.405 188.671Z" fill="#FC449C"/>
<path d="M94.3322 158.594L119.97 162.568L126.724 177.002L108.27 187.725L82.6329 183.751L75.8787 169.317L94.3322 158.594Z" fill="white" stroke="#FC449C"/>
<path d="M277.317 134.327L277.305 139.349L270.237 124.259L270.25 119.238L277.317 134.327Z" fill="#82D14D"/>
<path d="M315.327 112.238L322.388 127.328L303.386 138.369L277.317 134.327L270.25 119.237L289.252 108.196L315.327 112.238Z" fill="#82D14D"/>
<path d="M322.388 127.327L322.376 132.349L303.374 143.39L303.386 138.369L322.388 127.327Z" fill="#82D14D"/>
<path d="M303.386 138.369L303.374 143.39L277.305 139.349L277.317 134.327L303.386 138.369Z" fill="#82D14D"/>
<path d="M289.418 108.04L315.055 112.014L321.809 126.441L303.356 137.17L277.718 133.196L270.964 118.762L289.418 108.04Z" fill="white" stroke="#82D14D"/>
<path d="M398.803 269.8L398.785 274.822L391.724 259.732L391.736 254.71L398.803 269.8Z" fill="#82D14D"/>
<path d="M436.814 247.705L443.875 262.794L424.873 273.842L398.803 269.8L391.736 254.71L410.738 243.663L436.814 247.705Z" fill="#82D14D"/>
<path d="M443.875 262.794L443.862 267.816L424.854 278.864L424.873 273.842L443.875 262.794Z" fill="#82D14D"/>
<path d="M424.873 273.842L424.854 278.864L398.785 274.822L398.803 269.8L424.873 273.842Z" fill="#82D14D"/>
<path d="M410.904 243.506L436.541 247.486L443.29 261.914L424.836 272.637L399.205 268.669L392.451 254.235L410.904 243.506Z" fill="white" stroke="#82D14D"/>
<path d="M10.2096 142.522L10.1973 147.544L3.13004 132.454L3.14237 127.426L10.2096 142.522Z" fill="#82D14D"/>
<path d="M48.2199 120.427L55.281 135.516L36.2789 146.558L10.2096 142.522L3.14236 127.426L22.1444 116.385L48.2199 120.427Z" fill="#82D14D"/>
<path d="M55.281 135.516L55.2687 140.538L36.2666 151.585L36.2789 146.558L55.281 135.516Z" fill="#82D14D"/>
<path d="M36.2789 146.558L36.2666 151.586L10.1973 147.544L10.2096 142.522L36.2789 146.558Z" fill="#82D14D"/>
<path d="M22.3105 116.228L47.9478 120.202L54.702 134.636L36.2484 145.359L10.6111 141.391L3.85687 126.957L22.3105 116.228Z" fill="white" stroke="#82D14D"/>
<path d="M465.557 38.7928L465.545 43.8144L458.477 28.7249L458.49 23.7032L465.557 38.7928Z" fill="#82D14D"/>
<path d="M503.567 16.7038L510.628 31.7933L491.626 42.8347L465.557 38.7928L458.49 23.7033L477.492 12.6619L503.567 16.7038Z" fill="#82D14D"/>
<path d="M510.628 31.7933L510.616 36.815L491.614 47.8564L491.626 42.8347L510.628 31.7933Z" fill="#82D14D"/>
<path d="M491.626 42.8347L491.614 47.8563L465.545 43.8143L465.557 38.7927L491.626 42.8347Z" fill="#82D14D"/>
<path d="M477.658 12.5053L503.295 16.4794L510.049 30.9131L491.596 41.6358L465.959 37.6618L459.204 23.228L477.658 12.5053Z" fill="white" stroke="#82D14D"/>
<path d="M47.0061 119.539L81.1223 99.7917" stroke="#B9B9B9" stroke-width="2" stroke-miterlimit="10" stroke-dasharray="12 12"/>
<path d="M55.0777 140.082L90.1613 160.378" stroke="#B9B9B9" stroke-width="2" stroke-miterlimit="10" stroke-dasharray="12 12"/>
<path d="M132.201 93.1126L191.352 58.3186" stroke="#B9B9B9" stroke-width="2" stroke-miterlimit="10" stroke-dasharray="12 12"/>
<path d="M132.78 96.5938L277.896 139.157" stroke="#B9B9B9" stroke-width="2" stroke-miterlimit="10" stroke-dasharray="12 12"/>
<path d="M277.896 139.157L256.417 224.845" stroke="#B9B9B9" stroke-width="2" stroke-miterlimit="10" stroke-dasharray="12 12"/>
<path d="M216.866 206.484L254.273 227.359" stroke="#B9B9B9" stroke-width="2" stroke-miterlimit="10" stroke-dasharray="12 12"/>
<path d="M127.272 182.417L164.968 197.205" stroke="#B9B9B9" stroke-width="2" stroke-miterlimit="10" stroke-dasharray="12 12"/>
<path d="M187.002 182.417L189.614 59.7666" stroke="#B9B9B9" stroke-width="2" stroke-miterlimit="10" stroke-dasharray="12 12"/>
<path d="M233.977 52.5206L332.561 64.9854" stroke="#B9B9B9" stroke-width="2" stroke-miterlimit="10" stroke-dasharray="12 12"/>
<path d="M321.834 131.967L386.493 147.623" stroke="#B9B9B9" stroke-width="2" stroke-miterlimit="10" stroke-dasharray="12 12"/>
<path d="M401.859 182.707L414.034 242.437" stroke="#B9B9B9" stroke-width="2" stroke-miterlimit="10" stroke-dasharray="12 12"/>
<path d="M401.859 182.707L453.758 196.047" stroke="#B9B9B9" stroke-width="2" stroke-miterlimit="10" stroke-dasharray="12 12"/>
<path d="M386.493 147.623L360.682 76.877" stroke="#B9B9B9" stroke-width="2" stroke-miterlimit="10" stroke-dasharray="12 12"/>
<path d="M497.541 182.128L595.836 125.294" stroke="#B9B9B9" stroke-width="2" stroke-miterlimit="10" stroke-dasharray="12 12"/>
<path d="M510.302 36.2789L585.109 80.6417" stroke="#B9B9B9" stroke-width="2" stroke-miterlimit="10" stroke-dasharray="12 12"/>
<path d="M491.189 46.4762L495.108 182.165" stroke="#B9B9B9" stroke-width="2" stroke-miterlimit="10" stroke-dasharray="12 12"/>
<path d="M4.94769 173.545C7.68022 173.545 9.89537 171.183 9.89537 168.271C9.89537 165.358 7.68022 162.996 4.94769 162.996C2.21515 162.996 0 165.358 0 168.271C0 171.183 2.21515 173.545 4.94769 173.545Z" fill="#1D66FF"/>
<path d="M172.06 139.231C174.088 139.231 175.732 137.596 175.732 135.578C175.732 133.56 174.088 131.924 172.06 131.924C170.032 131.924 168.388 133.56 168.388 135.578C168.388 137.596 170.032 139.231 172.06 139.231Z" fill="#1D66FF"/>
<path d="M370.996 236.405C372.096 236.405 372.987 235.514 372.987 234.414C372.987 233.315 372.096 232.424 370.996 232.424C369.897 232.424 369.006 233.315 369.006 234.414C369.006 235.514 369.897 236.405 370.996 236.405Z" fill="#1D66FF"/>
<path d="M238.499 198.973C239.901 198.973 241.038 197.76 241.038 196.262C241.038 194.765 239.901 193.551 238.499 193.551C237.097 193.551 235.961 194.765 235.961 196.262C235.961 197.76 237.097 198.973 238.499 198.973Z" fill="#1D66FF"/>
<path d="M416.425 10.5238C419.147 10.5238 421.354 8.168 421.354 5.26192C421.354 2.35584 419.147 0 416.425 0C413.703 0 411.496 2.35584 411.496 5.26192C411.496 8.168 413.703 10.5238 416.425 10.5238Z" fill="#1D66FF"/>
<path d="M342.623 109.595C343.524 109.595 344.255 108.817 344.255 107.857C344.255 106.898 343.524 106.12 342.623 106.12C341.721 106.12 340.99 106.898 340.99 107.857C340.99 108.817 341.721 109.595 342.623 109.595Z" fill="#1D66FF"/>
<path d="M554.332 97.8569C556.146 97.8569 557.616 96.29 557.616 94.3572C557.616 92.4243 556.146 90.8574 554.332 90.8574C552.518 90.8574 551.048 92.4243 551.048 94.3572C551.048 96.29 552.518 97.8569 554.332 97.8569Z" fill="#1D66FF"/>
<path d="M335.746 284.976H327.94V293.3H335.746V284.976Z" fill="#F7A411"/>
<path d="M47.7516 75.8914H37.9672V86.3289H47.7516V75.8914Z" fill="#FC449C"/>
<path d="M601.942 53.1737H596.335V59.1565H601.942V53.1737Z" fill="#FC449C"/>
<path d="M449.938 155.479V145.042H459.722L449.938 155.479Z" fill="#82D14D"/>
<path d="M259.442 105.885H249.658L259.442 95.4478V105.885Z" fill="#F7A411"/>
</g>
<defs>
<clipPath id="clip0">
<rect width="624" height="293.3" fill="white"/>
</clipPath>
</defs>
</svg>
