<svg width="48" height="48" viewBox="0 0 48 48" fill="none" xmlns="http://www.w3.org/2000/svg">
<path d="M34.3125 37.125C33.795 37.125 33.375 37.545 33.375 38.0625C33.375 38.58 33.795 39 34.3125 39C34.83 39 35.25 38.58 35.25 38.0625C35.25 37.545 34.83 37.125 34.3125 37.125Z" fill="white"/>
<path d="M36.6208 34.0934L32.1649 32.6084L30.5652 29.409C32.0063 27.9422 33.0069 26.0014 33.3443 23.977L33.5438 22.7812H35.25C36.8008 22.7812 38.0625 21.5196 38.0625 19.9688V14.0625C38.0625 6.30844 31.7541 0 24 0C16.2261 0 9.9375 6.29034 9.9375 14.0625V19.9688C9.9375 21.1909 10.7213 22.233 11.8125 22.62V23.7188C11.8125 25.2696 13.0742 26.5312 14.625 26.5312H15.4483C15.8547 27.4141 16.3807 28.2318 17.0209 28.9663C17.1536 29.1189 17.2921 29.2669 17.4339 29.4108L15.8351 32.6084L11.3791 34.0935C6.198 35.8211 2.4375 41.2754 2.4375 47.0625C2.4375 47.5803 2.85722 48 3.375 48H44.625C45.1427 48 45.5625 47.5803 45.5625 47.0625C45.5625 41.2754 41.8021 35.8211 36.6208 34.0934ZM36.1875 19.9688C36.1875 20.4857 35.7669 20.9062 35.25 20.9062H33.8192C34.0575 19.0603 34.2163 17.096 34.2802 15.1613C34.282 15.1067 34.2835 15.0536 34.2852 15H36.1875V19.9688ZM12.75 20.9062C12.2331 20.9062 11.8125 20.4857 11.8125 19.9688V15H13.7154C13.7185 15.0978 13.7218 15.196 13.7255 15.2949C13.7256 15.2983 13.7257 15.3016 13.7258 15.305C13.7258 15.3053 13.7258 15.3055 13.7258 15.3058C13.7915 17.1876 13.9482 19.1009 14.1811 20.9062H12.75V20.9062ZM14.625 24.6562C14.1081 24.6562 13.6875 24.2357 13.6875 23.7188V22.7812H14.4561L14.6556 23.9774C14.6936 24.2048 14.7404 24.4312 14.7945 24.6562H14.625ZM13.6891 13.125H11.8481C12.323 6.84178 17.5666 1.875 24 1.875C30.4048 1.875 35.6715 6.84113 36.1518 13.125H34.311C34.2435 7.94747 30.0273 3.75 24.8392 3.75H23.161C17.973 3.75 13.7565 7.94747 13.6891 13.125ZM23.1609 5.625H24.8391C29.0399 5.625 32.4399 9.06103 32.4375 13.2572C32.4375 13.5522 32.4352 13.8091 32.4302 14.0428C32.4302 14.0458 32.4301 14.0489 32.4301 14.052L31.2575 13.8845C28.0718 13.4296 25.064 11.9257 22.7879 9.64959C22.612 9.47381 22.3736 9.375 22.125 9.375C19.6073 9.375 17.1971 10.5221 15.6039 12.4601C15.9966 8.64272 19.2237 5.625 23.1609 5.625ZM16.7381 24.6562C16.2688 23.095 15.7318 18.5013 15.6131 15.5575L16.8749 13.8751C18.0337 12.3305 19.8367 11.3707 21.7545 11.2606C24.278 13.6621 27.5425 15.248 30.9923 15.7405L32.3725 15.9378C32.2803 17.8958 32.0917 19.8606 31.8217 21.6676C31.8216 21.6682 31.8215 21.6688 31.8214 21.6695C31.7355 22.2504 31.6678 22.6243 31.4949 23.6686C30.9984 26.6466 28.7764 29.3395 25.843 30.0729C24.6358 30.3743 23.364 30.3743 22.1574 30.0729C20.3258 29.6151 18.6464 28.3477 17.5626 26.5312H19.4738C19.8608 27.6224 20.9028 28.4062 22.125 28.4062H24C25.5539 28.4062 26.8125 27.1478 26.8125 25.5938C26.8125 24.0429 25.5508 22.7812 24 22.7812H22.125C20.8756 22.7812 19.8489 23.5882 19.4722 24.6562H16.7381ZM22.0462 31.9702C22.6892 32.1057 23.3448 32.175 24 32.175C24.5129 32.175 25.0259 32.1321 25.5331 32.0488L23.8765 33.8007L22.0462 31.9702ZM22.5877 35.1637L19.6141 38.3082C18.7955 36.7413 18.0921 35.1105 17.5151 33.441L18.6318 31.2077L22.5877 35.1637ZM29.2093 30.8901L30.4847 33.4409C29.9068 35.1132 29.2032 36.7446 28.3854 38.3096L25.2028 35.127L29.2093 30.8901ZM21.1875 25.5938C21.1875 25.0762 21.6073 24.6562 22.125 24.6562H24C24.5169 24.6562 24.9375 25.0768 24.9375 25.5938C24.9375 26.1114 24.5176 26.5312 24 26.5312H22.125C21.6081 26.5312 21.1875 26.1107 21.1875 25.5938ZM4.35 46.125C4.72153 41.4807 7.81238 37.2593 11.9721 35.8722L15.9184 34.5571C16.6414 36.5563 17.5371 38.4995 18.5868 40.3452C18.5886 40.3484 18.5903 40.3516 18.592 40.3547C18.592 40.3548 18.5921 40.3548 18.5921 40.3549C19.3591 41.7038 20.2223 43.0221 21.1583 44.2735L22.3116 46.125H4.35ZM24 45.2893L22.7286 43.2481C22.7143 43.2252 22.6991 43.203 22.683 43.1814C21.9238 42.1688 21.2156 41.1097 20.5706 40.0256L23.914 36.4899L27.437 40.0129C26.7877 41.1048 26.077 42.1683 25.3172 43.1813C25.2712 43.2425 25.3364 43.146 24 45.2893ZM25.6884 46.125L26.8417 44.2736C27.7817 43.0174 28.6511 41.6886 29.4258 40.3237C29.4305 40.3155 29.4349 40.3071 29.4396 40.2988C29.4401 40.2978 29.4407 40.2968 29.4412 40.2958C30.4777 38.4677 31.364 36.5414 32.0816 34.5571L36.0278 35.8722C40.1876 37.2593 43.2785 41.4807 43.65 46.125H25.6884Z" fill="white"/>
<path d="M40.8325 42.331C40.2059 41.0769 39.2882 39.9628 38.1785 39.1091C37.768 38.7933 37.1795 38.8701 36.8638 39.2805C36.5481 39.6909 36.6249 40.2795 37.0352 40.5953C37.9215 41.2771 38.6545 42.1671 39.155 43.169C39.3868 43.6329 39.9503 43.8197 40.4126 43.5887C40.8758 43.3573 41.0637 42.7942 40.8325 42.331Z" fill="white"/>
</svg>
