<svg width="48" height="48" viewBox="0 0 48 48" fill="none" xmlns="http://www.w3.org/2000/svg">
<path d="M43.5813 3H22.4938C20.0574 3 18.0751 4.9823 18.0751 7.4187V20.9462L14.1595 18.999C14.0273 18.9331 13.8929 18.8708 13.7574 18.8119C14.907 17.6118 15.6156 15.9858 15.6156 14.1969C15.6156 10.5146 12.62 7.51868 8.93774 7.51868C5.25513 7.51868 2.25952 10.5146 2.25952 14.1969C2.25952 16.1979 3.14539 17.9952 4.54431 19.2202C1.96802 20.6697 0 23.4972 0 27V31.5187C0 33.464 1.26306 35.1196 3.01245 35.7081V43.5688C3.01245 44.3452 3.64197 44.9751 4.4187 44.9751H13.4561C14.2328 44.9751 14.8623 44.3452 14.8623 43.5688V27.7687L19.3645 30.0194C21.0875 30.8807 23.4247 30.3673 24.4816 28.4062H29.5236L24.1846 43.088C23.9191 43.8179 24.2959 44.625 25.0258 44.8901C25.86 45.1937 26.6019 44.6704 26.8279 44.0493L32.5162 28.4062H33.5021L39.2487 44.0537C39.4669 44.6473 40.2034 45.201 41.0537 44.8887C41.7825 44.621 42.1567 43.8131 41.8887 43.084L36.498 28.4062H43.5813C45.9705 28.4062 48 26.4789 48 23.9875V7.4187C48 4.927 45.9705 3 43.5813 3ZM5.07202 14.1969C5.07202 12.0652 6.80603 10.3312 8.93738 10.3312C11.0691 10.3312 12.8031 12.0652 12.8031 14.1969C12.8031 16.3282 11.0691 18.0623 8.93738 18.0623C6.80603 18.0623 5.07202 16.3282 5.07202 14.1969ZM22.0781 26.9026C22.0745 26.9128 22.0708 26.9235 22.0675 26.9341C21.9716 27.2018 21.7548 27.4274 21.4893 27.5365C21.2084 27.6508 20.8923 27.6387 20.6224 27.5039C17.9484 26.1661 14.0845 24.2358 14.0845 24.2358C13.1514 23.7693 12.0498 24.449 12.0498 25.4938V42.1626H5.82495V34.5311C5.82495 33.7548 5.19507 33.1249 4.4187 33.1249C3.53284 33.1249 2.8125 32.4045 2.8125 31.5187V27C2.8125 23.5638 5.61035 20.8751 8.93738 20.8751H10.1799C11.1226 20.8751 12.0641 21.0963 12.9053 21.5164C12.9053 21.5164 19.8805 24.9851 21.657 25.8699C22.0375 26.0588 22.2184 26.5027 22.0781 26.9026ZM45.1875 23.9875C45.1875 24.4171 45.0209 24.8203 44.7177 25.1235C44.4192 25.4224 44.005 25.5938 43.5813 25.5938H24.7874C24.7848 25.5861 24.783 25.5784 24.7804 25.571L28.2704 18.5914C28.6176 17.8967 28.3363 17.0522 27.6416 16.7047C26.9473 16.3575 26.1024 16.6388 25.7549 17.3335L22.7783 23.2863C22.2235 23.0098 21.5786 22.6886 20.8876 22.3451V7.4187C20.8876 6.5332 21.6079 5.8125 22.4938 5.8125H43.5813C44.005 5.8125 44.4192 5.98389 44.718 6.28345C45.0209 6.58594 45.1875 6.98914 45.1875 7.4187V23.9875Z" fill="white"/>
<path d="M40.5688 9.0249H25.5062C24.7295 9.0249 24.1 9.65442 24.1 10.4312C24.1 11.2079 24.7295 11.8374 25.5062 11.8374H40.5688C41.3452 11.8374 41.9751 11.2079 41.9751 10.4312C41.9751 9.65442 41.3456 9.0249 40.5688 9.0249Z" fill="white"/>
<path d="M40.5688 14.2969H33.0374C32.261 14.2969 31.6311 14.9264 31.6311 15.7031C31.6311 16.4799 32.261 17.1094 33.0374 17.1094H40.5688C41.3452 17.1094 41.9751 16.4799 41.9751 15.7031C41.9751 14.9264 41.3456 14.2969 40.5688 14.2969Z" fill="white"/>
<path d="M40.5688 19.5688H33.0374C32.261 19.5688 31.6311 20.1984 31.6311 20.9751C31.6311 21.7515 32.261 22.3813 33.0374 22.3813H40.5688C41.3452 22.3813 41.9751 21.7515 41.9751 20.9751C41.9751 20.1984 41.3456 19.5688 40.5688 19.5688Z" fill="white"/>
</svg>
