<svg width="48" height="48" viewBox="0 0 48 48" fill="none" xmlns="http://www.w3.org/2000/svg">
<path d="M44.8308 25.3712V12.7238L46.5332 12.0149C47.7244 11.519 47.9024 10.7953 47.9025 10.4081C47.9026 10.0209 47.7246 9.29711 46.5334 8.80111L26.4439 0.436475C25.0462 -0.145492 22.8564 -0.145492 21.4584 0.436475L1.369 8.80111C0.177797 9.29711 0 10.0209 0 10.4081C0 10.7953 0.177903 11.519 1.369 12.0149L8.29145 14.8972V25.3102C8.29228 25.4061 8.31244 25.5008 8.3507 25.5888C8.38897 25.6767 8.44456 25.756 8.51416 25.822C8.58376 25.888 8.66595 25.9392 8.7558 25.9727C8.84566 26.0063 8.94135 26.0213 9.03715 26.017H10.0984C13.9901 26.017 17.9045 29.6086 20.4947 31.972C22.2279 33.5537 23.0259 34.2623 23.778 34.2623C24.5176 34.2623 25.312 33.5486 27.0371 31.966C29.6146 29.6026 33.5096 26.0164 37.2852 26.0164H38.5456C38.6414 26.0207 38.7371 26.0056 38.827 25.9721C38.9168 25.9386 38.999 25.8873 39.0686 25.8214C39.1382 25.7554 39.1938 25.6761 39.2321 25.5881C39.2703 25.5002 39.2905 25.4054 39.2913 25.3096V15.0295L43.3394 13.344V25.3605C42.3759 25.5398 41.5138 26.0718 40.9215 26.8526C40.3292 27.6333 40.0491 28.6069 40.136 29.5831C40.2229 30.5592 40.6705 31.468 41.3915 32.1319C42.1124 32.7957 43.0549 33.1671 44.0349 33.1734C45.0149 33.1797 45.9621 32.8205 46.6915 32.1659C47.4209 31.5114 47.8802 30.6085 47.9797 29.6335C48.0791 28.6585 47.8116 27.6814 47.2293 26.8931C46.6471 26.1048 45.7919 25.5617 44.8308 25.3701V25.3712ZM1.54041 10.4081C1.66126 10.3105 1.7969 10.2327 1.94223 10.1778L22.0316 1.81368C23.0543 1.38756 24.8481 1.38756 25.8706 1.81368L45.96 10.1778C46.1054 10.2327 46.2411 10.3104 46.3619 10.4081C46.241 10.5056 46.1054 10.5833 45.9601 10.6382L25.8707 19.0028C24.848 19.429 23.0542 19.429 22.0317 19.0028L1.94234 10.6382C1.79702 10.5833 1.66135 10.5056 1.54041 10.4081ZM37.7999 24.5256H37.2846C32.9293 24.5256 28.7769 28.3528 26.0292 30.8723C25.1933 31.6387 24.1625 32.5937 23.7745 32.7585C23.3827 32.5987 22.343 31.6351 21.5001 30.8659C18.7397 28.3469 14.5682 24.5256 10.0984 24.5256H9.78285V15.5182L21.4584 20.3796C22.1572 20.6705 23.0542 20.8164 23.9512 20.8164C24.8481 20.8164 25.745 20.6708 26.4439 20.3796L37.7999 15.6518V24.5256ZM44.0587 31.7108C43.5712 31.7132 43.0939 31.5708 42.6873 31.3017C42.2808 31.0326 41.9632 30.6489 41.775 30.1992C41.5867 29.7494 41.5362 29.2539 41.6299 28.7755C41.7235 28.297 41.9571 27.8571 42.3009 27.5115C42.6448 27.1659 43.0836 26.9302 43.5616 26.8342C44.0396 26.7382 44.5353 26.7862 44.986 26.9723C45.4366 27.1583 45.8219 27.4739 46.093 27.8791C46.3642 28.2843 46.5089 28.7609 46.5089 29.2485C46.5097 29.8996 46.2522 30.5246 45.7929 30.9862C45.3335 31.4478 44.7099 31.7084 44.0587 31.7108Z" fill="#1D66FF"/>
</svg>
