<svg width="24" height="24" viewBox="0 0 24 24" fill="none" xmlns="http://www.w3.org/2000/svg">
<path d="M23.0645 5.0046C22.1982 3.97476 20.5987 3.55469 17.5441 3.55469H6.45569C3.33112 3.55469 1.70454 4.00186 0.841471 5.09828C0 6.16728 0 7.74238 0 9.92235V14.0774C0 18.3007 0.9984 20.445 6.45569 20.445H17.5442C20.1931 20.445 21.661 20.0743 22.6106 19.1655C23.5845 18.2335 24 16.7118 24 14.0774V9.92235C24 7.62338 23.9349 6.039 23.0645 5.0046ZM15.4081 12.5735L10.3729 15.2051C10.2603 15.2639 10.1372 15.2931 10.0143 15.2931C9.87507 15.2931 9.73618 15.2556 9.61316 15.1811C9.38152 15.0408 9.24008 14.7897 9.24008 14.5189V9.27265C9.24008 9.0023 9.38113 8.75146 9.61231 8.61102C9.84356 8.47058 10.1312 8.46098 10.3711 8.58563L15.4063 11.2002C15.6625 11.3332 15.8234 11.5977 15.8237 11.8863C15.8241 12.175 15.6639 12.4399 15.4081 12.5735Z" fill="white"/>
</svg>
